<svg width="99" height="103" viewBox="0 0 99 103" fill="none" xmlns="http://www.w3.org/2000/svg">
<g clip-path="url(#clip0_8_79)">
<mask id="path-1-outside-1_8_79" maskUnits="userSpaceOnUse" x="0.0134277" y="32.7791" width="39" height="33" fill="black">
<rect fill="white" x="0.0134277" y="32.7791" width="39" height="33"/>
<path d="M16.1606 43.0491C25.3888 40.6658 32.5367 54.7541 20.8014 57.9319C10.0796 60.7919 9.97289 44.638 16.1606 43.0491Z"/>
</mask>
<path d="M16.1606 43.0491C25.3888 40.6658 32.5367 54.7541 20.8014 57.9319C10.0796 60.7919 9.97289 44.638 16.1606 43.0491Z" fill="#E831B6"/>
<path d="M20.5645 45.3737L15.8964 54.2173L20.5645 45.3737ZM18.3142 55.4501L16.8936 45.5515L18.3142 55.4501ZM15.2882 54.7912L10.856 63.7554L15.2882 54.7912ZM10.9228 50.3126L1.63881 46.5968L10.9228 50.3126ZM13.9766 44.1386L9.51279 35.1902L13.9766 44.1386ZM19.0965 44.5989L14.4284 53.4424L15.8964 54.2173L20.5645 45.3737L25.2326 36.5301L23.7646 35.7553L19.0965 44.5989ZM20.5645 45.3737L15.8964 54.2173C16.753 54.6695 17.7915 55.2418 19.0229 55.9438L23.9757 47.2565L28.9285 38.5692C27.5689 37.794 26.3332 37.1111 25.2326 36.5301L20.5645 45.3737ZM23.9757 47.2565L19.0229 55.9438L20.9662 57.0517L25.919 48.3644L30.8718 39.6771L28.9285 38.5692L23.9757 47.2565ZM25.919 48.3644L20.9662 57.0517L22.9095 58.1596L27.8623 49.4723L32.8151 40.785L30.8718 39.6771L25.919 48.3644ZM27.8623 49.4723L22.9095 58.1596C22.7284 58.0564 21.9687 57.6151 21.146 56.6966C20.2851 55.7356 18.924 53.7392 18.8508 50.8234C18.776 47.8473 20.0847 45.709 21.0336 44.6034C21.9094 43.583 22.7482 43.0922 22.9658 42.9682L27.9172 51.6564L32.8685 60.3445C33.7155 59.8618 35.0242 59.011 36.2102 57.6292C37.4692 56.1622 38.9284 53.6612 38.8445 50.3211C38.7621 47.0413 37.2322 44.6795 36.0429 43.3519C34.8917 42.0668 33.6439 41.2575 32.8151 40.785L27.8623 49.4723ZM27.9172 51.6564L22.9658 42.9682L21.0774 44.0444L26.0287 52.7326L30.9801 61.4207L32.8685 60.3445L27.9172 51.6564ZM26.0287 52.7326L21.0774 44.0444L19.189 45.1206L24.1403 53.8088L29.0917 62.4969L30.9801 61.4207L26.0287 52.7326ZM24.1403 53.8088L19.189 45.1206C19.0347 45.2086 18.917 45.2699 18.8342 45.3104C18.7508 45.3512 18.7142 45.3654 18.7216 45.3625C18.7282 45.3599 18.796 45.3333 18.92 45.2983C19.0432 45.2636 19.2459 45.2139 19.5188 45.1748L20.9394 55.0733L22.36 64.9719C25.0201 64.5902 27.3497 63.4897 29.0917 62.4969L24.1403 53.8088ZM20.9394 55.0733L19.5188 45.1748L18.2062 45.3631L19.6268 55.2617L21.0474 65.1603L22.36 64.9719L20.9394 55.0733ZM19.6268 55.2617L18.2062 45.3631L16.8936 45.5515L18.3142 55.4501L19.7348 65.3487L21.0474 65.1603L19.6268 55.2617ZM18.3142 55.4501L16.8936 45.5515C17.8169 45.419 18.5595 45.5063 19.0288 45.6085C19.2621 45.6593 19.436 45.7152 19.5459 45.7553C19.6558 45.7954 19.7147 45.8243 19.7203 45.8271L15.2882 54.7912L10.856 63.7554C13.0455 64.838 16.155 65.8624 19.7348 65.3487L18.3142 55.4501ZM15.2882 54.7912L19.7203 45.8271L18.0068 44.9799L13.5746 53.944L9.14247 62.9082L10.856 63.7554L15.2882 54.7912ZM13.5746 53.944L18.0068 44.9799L16.2933 44.1327L11.8611 53.0968L7.42895 62.061L9.14247 62.9082L13.5746 53.944ZM11.8611 53.0968L16.2933 44.1327C17.3555 44.6579 19.3206 46.0372 20.2461 48.7836C21.1134 51.3571 20.4656 53.3819 20.2068 54.0284L10.9228 50.3126L1.63881 46.5968C0.863222 48.5347 0.113391 51.6692 1.29344 55.1707C2.53174 58.8452 5.22435 60.9709 7.42895 62.061L11.8611 53.0968ZM10.9228 50.3126L20.2068 54.0284L20.9821 52.0915L11.6981 48.3757L2.41405 44.6599L1.63881 46.5968L10.9228 50.3126ZM11.6981 48.3757L20.9821 52.0915L21.7573 50.1545L12.4733 46.4387L3.18929 42.7229L2.41405 44.6599L11.6981 48.3757ZM12.4733 46.4387L21.7573 50.1545C21.8825 49.8418 21.8532 49.9901 21.6075 50.366C21.4756 50.5679 21.2031 50.9562 20.7595 51.4098C20.3246 51.8546 19.5663 52.5254 18.4403 53.0871L13.9766 44.1386L9.51279 35.1902C6.93586 36.4756 5.49699 38.4588 4.86593 39.4244C4.11916 40.567 3.58098 41.7443 3.18929 42.7229L12.4733 46.4387ZM13.9766 44.1386L18.4403 53.0871L19.1683 52.7239L14.7046 43.7754L10.2408 34.827L9.51279 35.1902L13.9766 44.1386ZM14.7046 43.7754L19.1683 52.7239L19.8964 52.3607L15.4326 43.4123L10.9688 34.4638L10.2408 34.827L14.7046 43.7754ZM15.4326 43.4123L19.8964 52.3607C17.5774 53.5175 15.4925 53.3479 14.5029 53.1624C13.5295 52.9799 12.9712 52.6732 12.9605 52.6676L17.6286 43.824L22.2966 34.9804C21.3073 34.4582 19.8937 33.8246 18.1883 33.5049C16.4666 33.1821 13.7731 33.065 10.9688 34.4638L15.4326 43.4123ZM17.6286 43.824L12.9605 52.6676L14.4284 53.4424L19.0965 44.5989L23.7646 35.7553L22.2966 34.9804L17.6286 43.824Z" fill="#E831B6" mask="url(#path-1-outside-1_8_79)"/>
<mask id="path-3-outside-2_8_79" maskUnits="userSpaceOnUse" x="65.2756" y="29.9852" width="34" height="38" fill="black">
<rect fill="white" x="65.2756" y="29.9852" width="34" height="38"/>
<path d="M88.5995 55.3896C74.7838 64.7641 72.1167 33.5157 89.0262 44.2673C92.8669 46.7036 89.9864 54.4363 88.5995 55.3896Z"/>
</mask>
<path d="M88.5995 55.3896C74.7838 64.7641 72.1167 33.5157 89.0262 44.2673C92.8669 46.7036 89.9864 54.4363 88.5995 55.3896Z" fill="#E831B6"/>
<path d="M84.9305 56.377L82.3318 46.7206L84.9305 56.377ZM83.0961 56.8707L85.6948 66.5271L83.0961 56.8707ZM79.7632 55.8183L72.5822 62.7776L79.7632 55.8183ZM76.1769 49.2941L67.1685 44.9526L76.1769 49.2941ZM88.6857 49.2659L78.98 46.8576L88.6857 49.2659ZM88.3196 50.7412L78.6139 48.3329L88.3196 50.7412ZM87.8404 54.1164L79.2509 59.237L87.8404 54.1164ZM88.3465 54.9652L96.936 49.8446L88.3465 54.9652ZM84.9305 56.377L82.3318 46.7206L80.4973 47.2143L83.0961 56.8707L85.6948 66.5271L87.5293 66.0334L84.9305 56.377ZM83.0961 56.8707L80.4973 47.2143C81.562 46.9277 82.9339 46.8692 84.3568 47.3185C85.7101 47.7459 86.5535 48.4557 86.9443 48.8589L79.7632 55.8183L72.5822 62.7776C75.701 65.9958 80.4319 67.9434 85.6948 66.5271L83.0961 56.8707ZM79.7632 55.8183L86.9443 48.8589L85.4459 47.3128L78.2648 54.2722L71.0838 61.2315L72.5822 62.7776L79.7632 55.8183ZM78.2648 54.2722L85.4459 47.3128L83.9475 45.7667L76.7665 52.726L69.5854 59.6854L71.0838 61.2315L78.2648 54.2722ZM76.7665 52.726L83.9475 45.7667C84.5153 46.3525 85.4097 47.5635 85.7255 49.402C86.046 51.2674 85.599 52.7773 85.1853 53.6356L76.1769 49.2941L67.1685 44.9526C66.149 47.0681 65.4973 49.7787 66.0142 52.7881C66.5266 55.7705 68.0187 58.0688 69.5854 59.6854L76.7665 52.726ZM76.1769 49.2941L85.1853 53.6356L86.0942 51.7499L77.0857 47.4084L68.0773 43.0669L67.1685 44.9526L76.1769 49.2941ZM77.0857 47.4084L86.0942 51.7499L87.003 49.8641L77.9946 45.5226L68.9862 41.1811L68.0773 43.0669L77.0857 47.4084ZM77.9946 45.5226L87.003 49.8641C86.8123 50.2598 86.5018 50.7245 86.0456 51.1571C85.591 51.5883 85.1262 51.8601 84.7594 52.0156L80.8559 42.809L76.9524 33.6023C73.447 35.0885 70.6615 37.7048 68.9862 41.1811L77.9946 45.5226ZM80.8559 42.809L84.7594 52.0156L86.7119 51.1878L82.8084 41.9811L78.9049 32.7745L76.9524 33.6023L80.8559 42.809ZM82.8084 41.9811L86.7119 51.1878L88.6643 50.36L84.7608 41.1533L80.8573 31.9466L78.9049 32.7745L82.8084 41.9811ZM84.7608 41.1533L88.6643 50.36C88.1728 50.5684 85.6921 51.5262 82.5834 50.2538C79.2264 48.8798 78.0557 46.1402 77.7552 45.1811L87.2979 42.1917L96.8407 39.2024C96.1504 36.9991 94.362 33.4644 90.1593 31.7442C86.2048 30.1257 82.6505 31.1864 80.8573 31.9466L84.7608 41.1533ZM87.2979 42.1917L77.7552 45.1811L78.3398 47.0473L87.8825 44.058L97.4253 41.0686L96.8407 39.2024L87.2979 42.1917ZM87.8825 44.058L78.3398 47.0473L78.9244 48.9136L88.4672 45.9242L98.0099 42.9349L97.4253 41.0686L87.8825 44.058ZM88.4672 45.9242L78.9244 48.9136C78.9204 48.9007 78.6726 48.0965 78.98 46.8576L88.6857 49.2659L98.3914 51.6742C99.1869 48.468 98.7934 45.4361 98.0099 42.9349L88.4672 45.9242ZM88.6857 49.2659L78.98 46.8576L78.6139 48.3329L88.3196 50.7412L98.0253 53.1495L98.3914 51.6742L88.6857 49.2659ZM88.3196 50.7412L78.6139 48.3329L78.2478 49.8083L87.9535 52.2166L97.6592 54.6249L98.0253 53.1495L88.3196 50.7412ZM87.9535 52.2166L78.2478 49.8083C78.0544 50.588 77.8301 51.6559 77.7599 52.8351C77.7149 53.5906 77.5569 56.3953 79.2509 59.237L87.8404 54.1164L96.4299 48.9958C97.2802 50.4221 97.5515 51.7203 97.652 52.4233C97.7584 53.1674 97.7415 53.7388 97.7245 54.0234C97.692 54.5693 97.6086 54.8288 97.6592 54.6249L87.9535 52.2166ZM87.8404 54.1164L79.2509 59.237L79.504 59.6614L88.0935 54.5408L96.683 49.4202L96.4299 48.9958L87.8404 54.1164ZM88.0935 54.5408L79.504 59.6614L79.757 60.0858L88.3465 54.9652L96.936 49.8446L96.683 49.4202L88.0935 54.5408ZM88.3465 54.9652L79.757 60.0858C78.9606 58.75 78.3407 56.9694 78.3788 54.8894C78.4163 52.8384 79.0808 51.1648 79.8003 49.9825C81.0569 47.918 82.6991 46.9664 83.0569 46.7586C83.997 46.2129 84.636 46.1005 84.1663 46.2269L86.765 55.8833L89.3637 65.5397C90.117 65.337 91.631 64.907 93.0983 64.0552C93.7197 63.6944 95.5385 62.5927 96.8847 60.3809C97.649 59.1251 98.3366 57.3785 98.3754 55.2553C98.4148 53.1032 97.7745 51.2512 96.936 49.8446L88.3465 54.9652ZM86.765 55.8833L84.1663 46.2269L82.3318 46.7206L84.9305 56.377L87.5293 66.0334L89.3637 65.5397L86.765 55.8833Z" fill="#E831B6" mask="url(#path-3-outside-2_8_79)"/>
<mask id="path-5-outside-3_8_79" maskUnits="userSpaceOnUse" x="35.9463" y="0" width="31" height="34" fill="black">
<rect fill="white" x="35.9463" width="31" height="34"/>
<path d="M55.1005 22.0757C47.0992 30.6028 43.4719 16.8852 45.4989 10L57.1275 12.4893C59.2079 14.9786 56.8608 20.2219 55.1005 22.0757Z"/>
</mask>
<path d="M55.1005 22.0757C47.0992 30.6028 43.4719 16.8852 45.4989 10L57.1275 12.4893C59.2079 14.9786 56.8608 20.2219 55.1005 22.0757Z" fill="#E831B6"/>
<path d="M50.3085 23.5363L47.3928 13.9709L50.3085 23.5363ZM48.1974 22.3887L38.6576 25.3874L48.1974 22.3887ZM46.8304 12.3762L36.8363 12.035L46.8304 12.3762ZM48.324 10.778L47.5958 20.7515L48.324 10.778ZM53.526 12.0964L60.9881 5.43932L53.526 12.0964ZM54.4216 13.1003L46.9595 19.7574L54.4216 13.1003ZM55.3172 14.1042L47.8551 20.7613L55.3172 14.1042ZM55.9596 16.8205L46.0672 15.3576L55.9596 16.8205ZM55.1751 21.987L62.828 28.4238L55.1751 21.987ZM55.1254 22.0461L47.4724 15.6093L55.1254 22.0461ZM53.5032 22.5626L50.5875 12.9971L53.5032 22.5626ZM51.9058 23.0495L48.9901 13.484L47.3928 13.9709L50.3085 23.5363L53.2242 33.1018L54.8215 32.6149L51.9058 23.0495ZM50.3085 23.5363L47.3928 13.9709C48.4048 13.6624 50.9582 13.1851 53.758 14.7071C56.5007 16.198 57.4631 18.518 57.7372 19.3901L48.1974 22.3887L38.6576 25.3874C39.2742 27.3491 40.7597 30.4052 44.206 32.2787C47.7095 34.1832 51.1473 33.7349 53.2242 33.1018L50.3085 23.5363ZM48.1974 22.3887L57.7372 19.3901L57.2234 17.7555L47.6836 20.7542L38.1438 23.7529L38.6576 25.3874L48.1974 22.3887ZM47.6836 20.7542L57.2234 17.7555L56.7096 16.121L47.1698 19.1197L37.63 22.1184L38.1438 23.7529L47.6836 20.7542ZM47.1698 19.1197L56.7096 16.121C56.7081 16.1162 56.7071 16.1128 56.7066 16.1107C56.7063 16.1096 56.7061 16.1089 56.706 16.1084C56.7058 16.1079 56.7058 16.1076 56.7058 16.1076C56.7058 16.1076 56.7058 16.1078 56.7059 16.1082C56.706 16.1086 56.7061 16.1092 56.7062 16.1099C56.7065 16.1114 56.7068 16.1132 56.7071 16.1154C56.7077 16.12 56.7081 16.1241 56.7082 16.1268C56.7083 16.1295 56.7082 16.1286 56.7083 16.1234L46.7142 15.7822L36.72 15.441C36.6424 17.7137 36.95 19.9552 37.63 22.1184L47.1698 19.1197ZM46.7142 15.7822L56.7083 16.1234L56.7665 14.4204L46.7723 14.0792L36.7781 13.738L36.72 15.441L46.7142 15.7822ZM46.7723 14.0792L56.7665 14.4204L56.8246 12.7174L46.8304 12.3762L36.8363 12.035L36.7781 13.738L46.7723 14.0792ZM46.8304 12.3762L56.8246 12.7174C56.8054 13.2795 56.647 15.6975 54.539 17.9531C52.1111 20.5511 49.1084 20.8619 47.5958 20.7515L48.324 10.778L49.0522 0.804598C46.5827 0.624279 42.8526 1.16653 39.9268 4.29725C37.3209 7.08558 36.8942 10.3377 36.8363 12.035L46.8304 12.3762ZM48.324 10.778L47.5958 20.7515L49.0312 20.8563L49.7595 10.8829L50.4877 0.90941L49.0522 0.804598L48.324 10.778ZM49.7595 10.8829L49.0312 20.8563L50.4667 20.9611L51.1949 10.9877L51.9231 1.01422L50.4877 0.90941L49.7595 10.8829ZM51.1949 10.9877L50.4667 20.9611C49.85 20.9161 49.0536 20.7538 48.2001 20.3478C47.3345 19.9361 46.6139 19.3701 46.0638 18.7535L53.526 12.0964L60.9881 5.43932C58.5336 2.68804 55.271 1.25867 51.9231 1.01422L51.1949 10.9877ZM53.526 12.0964L46.0638 18.7535L46.9595 19.7574L54.4216 13.1003L61.8837 6.44324L60.9881 5.43932L53.526 12.0964ZM54.4216 13.1003L46.9595 19.7574L47.8551 20.7613L55.3172 14.1042L62.7793 7.44717L61.8837 6.44324L54.4216 13.1003ZM55.3172 14.1042L47.8551 20.7613C47.0047 19.8081 46.4548 18.6893 46.1941 17.5868C45.9486 16.549 46.0092 15.7494 46.0672 15.3576L55.9596 16.8205L65.852 18.2834C66.3206 15.1146 65.888 10.9318 62.7793 7.44717L55.3172 14.1042ZM55.9596 16.8205L46.0672 15.3576L45.814 17.0699L55.7064 18.5328L65.5988 19.9957L65.852 18.2834L55.9596 16.8205ZM55.7064 18.5328L45.814 17.0699L45.5607 18.7822L55.4532 20.2451L65.3456 21.708L65.5988 19.9957L55.7064 18.5328ZM55.4532 20.2451L45.5607 18.7822C45.4777 19.3437 45.4191 19.7284 45.3821 19.9603C45.3619 20.0864 45.3572 20.1106 45.3634 20.0764C45.3637 20.0747 45.3855 19.9523 45.4238 19.7804C45.439 19.7121 45.4905 19.4818 45.5759 19.1876C45.6156 19.0509 45.7085 18.7397 45.8588 18.3541C45.9345 18.1595 46.0673 17.8358 46.2639 17.4495C46.424 17.135 46.8243 16.3799 47.5221 15.5502L55.1751 21.987L62.828 28.4238C63.9852 27.048 64.4749 25.6646 64.495 25.613C64.6465 25.2238 64.7409 24.9081 64.7822 24.7659C64.871 24.4604 64.9263 24.2145 64.9459 24.1262C64.9931 23.9144 65.0262 23.7344 65.0402 23.6577C65.0737 23.4734 65.1058 23.2774 65.132 23.1132C65.1877 22.7645 65.2598 22.288 65.3456 21.708L55.4532 20.2451ZM55.1751 21.987L47.5221 15.5502L47.4973 15.5798L55.1502 22.0166L62.8032 28.4533L62.828 28.4238L55.1751 21.987ZM55.1502 22.0166L47.4973 15.5798L47.4724 15.6093L55.1254 22.0461L62.7783 28.4829L62.8032 28.4533L55.1502 22.0166ZM55.1254 22.0461L47.4724 15.6093C48.1771 14.7715 48.8611 14.2424 49.1628 14.0184C49.5246 13.7497 49.8347 13.5578 50.0246 13.4453C50.4 13.2228 50.7087 13.0739 50.8466 13.0088C51.142 12.8694 51.3764 12.7773 51.4477 12.7494C51.625 12.6799 51.7538 12.6361 51.7596 12.6341C51.8026 12.6193 51.7892 12.6245 51.6738 12.6612C51.464 12.728 51.1103 12.8377 50.5875 12.9971L53.5032 22.5626L56.4189 32.128C56.961 31.9628 57.4101 31.8241 57.741 31.7188C57.896 31.6694 58.0874 31.6076 58.2697 31.5449C58.3452 31.5189 58.5272 31.4558 58.7415 31.3719C58.8312 31.3368 59.08 31.2387 59.3856 31.0944C59.5286 31.0268 59.8414 30.8758 60.22 30.6515C60.2964 30.6062 61.5993 29.8847 62.7783 28.4829L55.1254 22.0461ZM53.5032 22.5626L50.5875 12.9971L48.9901 13.484L51.9058 23.0495L54.8215 32.6149L56.4189 32.128L53.5032 22.5626Z" fill="#E831B6" mask="url(#path-5-outside-3_8_79)"/>
<mask id="path-7-outside-4_8_79" maskUnits="userSpaceOnUse" x="41.4617" y="68.5189" width="32" height="34" fill="black">
<rect fill="white" x="41.4617" y="68.5189" width="32" height="34"/>
<path d="M54.5139 78.6406C61.395 77.1046 63.8488 90.5574 57.0209 93.894C50.1398 95.43 47.686 81.9773 54.5139 78.6406Z"/>
</mask>
<path d="M54.5139 78.6406C61.395 77.1046 63.8488 90.5574 57.0209 93.894C50.1398 95.43 47.686 81.9773 54.5139 78.6406Z" fill="#E831B6"/>
<path d="M60.8472 80.5622L57.9439 90.1314L60.8472 80.5622ZM63.054 88.1649L53.0549 88.3022L63.054 88.1649ZM61.1761 91.0171L58.495 81.3832L61.1761 91.0171ZM59.2664 91.5485L56.5852 81.9147L59.2664 91.5485ZM57.3566 92.08L60.0377 101.714L57.3566 92.08ZM54.6255 91.5072L46.6015 97.4751L54.6255 91.5072ZM53.8042 90.403L61.8282 84.4351L53.8042 90.403ZM52.9829 89.2987L44.9589 95.2666L52.9829 89.2987ZM52.4186 86.6749L42.5587 85.0069L52.4186 86.6749ZM54.1017 80.8897L46.0765 74.9234L54.1017 80.8897ZM54.8886 79.4075L63.8732 75.0168L54.8886 79.4075ZM54.7637 79.1519L63.7483 74.7612L54.7637 79.1519ZM54.6388 78.8962L45.6542 83.2869L54.6388 78.8962ZM58.7361 79.9216L55.8327 89.4909L57.9439 90.1314L60.8472 80.5622L63.7506 70.9929L61.6395 70.3524L58.7361 79.9216ZM60.8472 80.5622L57.9439 90.1314C57.0018 89.8456 55.5096 89.1053 54.3374 87.4854C53.1979 85.9109 53.0012 84.3887 52.9912 83.6608L62.9902 83.5234L72.9893 83.3861C72.958 81.111 72.3935 78.3217 70.5397 75.7601C68.6531 73.1531 66.1001 71.7058 63.7506 70.9929L60.8472 80.5622ZM62.9902 83.5234L52.9912 83.6608L53.0231 85.9815L63.0221 85.8441L73.0212 85.7068L72.9893 83.3861L62.9902 83.5234ZM63.0221 85.8441L53.0231 85.9815L53.0549 88.3022L63.054 88.1649L73.0531 88.0275L73.0212 85.7068L63.0221 85.8441ZM63.054 88.1649L53.0549 88.3022C53.0477 87.7757 53.1295 86.2384 54.2482 84.5392C55.4744 82.6768 57.2009 81.7433 58.495 81.3832L61.1761 91.0171L63.8572 100.651C66.4246 99.9364 69.1006 98.3504 70.9527 95.5374C72.6974 92.8874 73.0815 90.1011 73.0531 88.0275L63.054 88.1649ZM61.1761 91.0171L58.495 81.3832L56.5852 81.9147L59.2664 91.5485L61.9475 101.182L63.8572 100.651L61.1761 91.0171ZM59.2664 91.5485L56.5852 81.9147L54.6755 82.4461L57.3566 92.08L60.0377 101.714L61.9475 101.182L59.2664 91.5485ZM57.3566 92.08L54.6755 82.4461C54.9735 82.3632 56.1402 82.0734 57.7716 82.4155C59.67 82.8137 61.4438 83.9183 62.6495 85.5394L54.6255 91.5072L46.6015 97.4751C50.6958 102.98 56.8679 102.596 60.0377 101.714L57.3566 92.08ZM54.6255 91.5072L62.6495 85.5394L61.8282 84.4351L53.8042 90.403L45.7802 96.3708L46.6015 97.4751L54.6255 91.5072ZM53.8042 90.403L61.8282 84.4351L61.0069 83.3308L52.9829 89.2987L44.9589 95.2666L45.7802 96.3708L53.8042 90.403ZM52.9829 89.2987L61.0069 83.3308C61.5647 84.0807 61.993 84.9901 62.2077 85.9882C62.4169 86.961 62.3734 87.7824 62.2785 88.3429L52.4186 86.6749L42.5587 85.0069C41.9924 88.3544 42.5808 92.0692 44.9589 95.2666L52.9829 89.2987ZM52.4186 86.6749L62.2785 88.3429L62.5356 86.8233L52.6757 85.1553L42.8158 83.4873L42.5587 85.0069L52.4186 86.6749ZM52.6757 85.1553L62.5356 86.8233L62.7927 85.3038L52.9327 83.6358L43.0728 81.9678L42.8158 83.4873L52.6757 85.1553ZM52.9327 83.6358L62.7927 85.3038C62.8213 85.1344 62.8162 85.2365 62.7236 85.5133C62.6742 85.661 62.5835 85.9082 62.4325 86.2205C62.2836 86.5283 62.0421 86.97 61.6709 87.4693L53.6457 81.503L45.6206 75.5367C43.8247 77.9522 43.292 80.6724 43.0728 81.9678L52.9327 83.6358ZM53.6457 81.503L61.6709 87.4693L62.1269 86.856L54.1017 80.8897L46.0765 74.9234L45.6206 75.5367L53.6457 81.503ZM54.1017 80.8897L62.1269 86.856L62.5828 86.2427L54.5576 80.2764L46.5324 74.3101L46.0765 74.9234L54.1017 80.8897ZM54.5576 80.2764L62.5828 86.2427C62.9795 85.7091 63.689 84.6887 64.2132 83.3125C64.6518 82.1613 65.7129 78.7814 63.8732 75.0168L54.8886 79.4075L45.9041 83.7982C44.1477 80.204 45.1953 77.0542 45.5235 76.1926C45.9374 75.106 46.4397 74.4349 46.5324 74.3101L54.5576 80.2764ZM54.8886 79.4075L63.8732 75.0168L63.7483 74.7612L54.7637 79.1519L45.7792 83.5425L45.9041 83.7982L54.8886 79.4075ZM54.7637 79.1519L63.7483 74.7612L63.6233 74.5055L54.6388 78.8962L45.6542 83.2869L45.7792 83.5425L54.7637 79.1519ZM54.6388 78.8962L63.6233 74.5055C64.0862 75.4528 64.7791 77.2571 64.6044 79.6084C64.4074 82.2616 63.181 84.5632 61.449 86.1724C59.9344 87.5796 58.3638 88.1662 57.5233 88.4163C56.6223 88.6845 55.8721 88.7667 55.442 88.798C54.5967 88.8596 53.9534 88.7917 53.7396 88.7676C53.4552 88.7355 53.2513 88.6977 53.1704 88.682C52.9592 88.6411 53.0568 88.6486 53.7216 88.8504L56.625 79.2811L59.5284 69.7119C58.7858 69.4866 57.8486 69.2165 56.9753 69.0473C56.7809 69.0096 55.5093 68.7402 53.9901 68.8508C53.6864 68.8729 50.5524 68.9965 47.836 71.5202C46.0911 73.1414 44.8576 75.4573 44.6594 78.1271C44.4835 80.495 45.1809 82.3184 45.6542 83.2869L54.6388 78.8962ZM56.625 79.2811L53.7216 88.8504L55.8327 89.4909L58.7361 79.9216L61.6395 70.3524L59.5284 69.7119L56.625 79.2811Z" fill="#E831B6" mask="url(#path-7-outside-4_8_79)"/>
</g>
<defs>
<clipPath id="clip0_8_79">
<rect width="99" height="103" fill="white"/>
</clipPath>
</defs>
</svg>
