<svg width="850" height="397" viewBox="0 0 850 397" fill="none" xmlns="http://www.w3.org/2000/svg">
<g clip-path="url(#clip0_21_810)">
<path d="M1.75537 85.8028L5.91275 83.6253L9.51582 81.8184L16.3524 78.4827C20.8331 76.3052 25.2215 74.313 29.5636 72.3671C38.2941 68.4754 46.9785 64.8154 55.6628 61.387C73.0314 54.5302 90.4924 48.2293 108.092 42.6697C143.291 31.3189 179.137 22.5626 215.537 15.8911C251.891 9.21964 288.8 4.86464 325.893 2.82612C363.032 0.926603 400.356 1.57522 437.495 4.494" stroke="#99E120" stroke-width="8" stroke-linecap="round" stroke-linejoin="round"/>
<path d="M24.2515 123.237C28.917 120.782 32.751 118.882 36.8622 116.936C40.9272 114.99 44.946 113.137 49.011 111.33C57.0948 107.717 65.1786 104.335 73.3086 101.092C89.6148 94.698 106.013 88.7215 122.643 83.4862C155.856 72.7841 189.808 64.491 224.175 58.1438C258.543 51.843 293.419 47.7196 328.433 45.7738C363.448 44.0133 398.647 44.5692 433.661 47.349" stroke="#99E120" stroke-width="8" stroke-linecap="round" stroke-linejoin="round"/>
<path d="M1.75537 85.8027L24.2514 123.237" stroke="#99E120" stroke-width="8" stroke-linecap="round" stroke-linejoin="round"/>
<path d="M31.3188 71.5795L50.6276 110.589" stroke="#99E120" stroke-width="8" stroke-linecap="round" stroke-linejoin="round"/>
<path d="M59.1274 59.9971L76.5423 99.748" stroke="#99E120" stroke-width="8" stroke-linecap="round" stroke-linejoin="round"/>
<path d="M87.0278 49.7118L102.78 90.1114" stroke="#99E120" stroke-width="8" stroke-linecap="round" stroke-linejoin="round"/>
<path d="M115.113 40.4459L129.295 81.3551" stroke="#99E120" stroke-width="8" stroke-linecap="round" stroke-linejoin="round"/>
<path d="M143.522 32.2455L156.087 73.618" stroke="#99E120" stroke-width="8" stroke-linecap="round" stroke-linejoin="round"/>
<path d="M172.116 24.9717L183.156 66.7612" stroke="#99E120" stroke-width="8" stroke-linecap="round" stroke-linejoin="round"/>
<path d="M230.088 13.3429L237.941 55.7347" stroke="#99E120" stroke-width="8" stroke-linecap="round" stroke-linejoin="round"/>
<path d="M200.986 18.6709L210.456 60.7847" stroke="#99E120" stroke-width="8" stroke-linecap="round" stroke-linejoin="round"/>
<path d="M259.375 8.98792L265.611 51.6113" stroke="#99E120" stroke-width="8" stroke-linecap="round" stroke-linejoin="round"/>
<path d="M288.846 5.65222L293.465 48.461" stroke="#99E120" stroke-width="8" stroke-linecap="round" stroke-linejoin="round"/>
<path d="M318.502 3.33569L321.412 46.2834" stroke="#99E120" stroke-width="8" stroke-linecap="round" stroke-linejoin="round"/>
<path d="M348.204 2.03845L349.451 45.0788" stroke="#99E120" stroke-width="8" stroke-linecap="round" stroke-linejoin="round"/>
<path d="M377.952 1.80688L377.537 44.8473" stroke="#99E120" stroke-width="8" stroke-linecap="round" stroke-linejoin="round"/>
<path d="M407.747 2.64075L405.622 45.6348" stroke="#99E120" stroke-width="8" stroke-linecap="round" stroke-linejoin="round"/>
<path d="M437.495 4.4939L433.615 47.3953" stroke="#99E120" stroke-width="8" stroke-linecap="round" stroke-linejoin="round"/>
<path d="M58.8037 180.594C61.4829 179.204 65.0398 177.397 68.3657 175.822C71.784 174.2 75.2485 172.579 78.8053 171.003C85.8729 167.853 93.079 164.841 100.378 161.923C114.975 156.178 129.849 150.757 144.954 146.032C175.118 136.302 206.114 128.751 237.433 122.959C268.752 117.214 300.486 113.462 332.267 111.701C364.094 110.08 395.967 110.636 427.656 113.137" stroke="#99E120" stroke-width="8" stroke-linecap="round" stroke-linejoin="round"/>
<path d="M81.2998 218.028L84.5795 216.36L88.9217 214.275C91.878 212.839 95.0654 211.403 98.2527 209.967C104.627 207.094 111.279 204.314 118.023 201.674C131.558 196.392 145.37 191.296 159.505 186.894C187.683 177.767 216.784 170.725 246.117 165.305C275.45 159.93 305.152 156.409 334.854 154.788C364.556 153.305 394.305 153.815 423.822 156.131" stroke="#99E120" stroke-width="8" stroke-linecap="round" stroke-linejoin="round"/>
<path d="M58.8037 180.594L81.2998 218.028" stroke="#99E120" stroke-width="8" stroke-linecap="round" stroke-linejoin="round"/>
<path d="M80.2373 170.401L99.4998 209.364" stroke="#99E120" stroke-width="8" stroke-linecap="round" stroke-linejoin="round"/>
<path d="M103.288 160.764L120.702 200.515" stroke="#99E120" stroke-width="8" stroke-linecap="round" stroke-linejoin="round"/>
<path d="M126.938 152.054L142.69 192.454" stroke="#99E120" stroke-width="8" stroke-linecap="round" stroke-linejoin="round"/>
<path d="M151.005 144.086L165.14 185.041" stroke="#99E120" stroke-width="8" stroke-linecap="round" stroke-linejoin="round"/>
<path d="M175.395 137.044L187.96 178.416" stroke="#99E120" stroke-width="8" stroke-linecap="round" stroke-linejoin="round"/>
<path d="M200.062 130.789L211.056 172.579" stroke="#99E120" stroke-width="8" stroke-linecap="round" stroke-linejoin="round"/>
<path d="M249.997 120.782L257.85 163.174" stroke="#99E120" stroke-width="8" stroke-linecap="round" stroke-linejoin="round"/>
<path d="M224.914 125.368L234.384 167.482" stroke="#99E120" stroke-width="8" stroke-linecap="round" stroke-linejoin="round"/>
<path d="M275.219 117.029L281.455 159.652" stroke="#99E120" stroke-width="8" stroke-linecap="round" stroke-linejoin="round"/>
<path d="M300.532 114.157L305.152 156.965" stroke="#99E120" stroke-width="8" stroke-linecap="round" stroke-linejoin="round"/>
<path d="M325.938 112.164L328.895 155.112" stroke="#99E120" stroke-width="8" stroke-linecap="round" stroke-linejoin="round"/>
<path d="M351.391 111.099L352.638 154.139" stroke="#99E120" stroke-width="8" stroke-linecap="round" stroke-linejoin="round"/>
<path d="M376.843 110.914L376.428 153.954" stroke="#99E120" stroke-width="8" stroke-linecap="round" stroke-linejoin="round"/>
<path d="M402.296 111.609L400.171 154.603" stroke="#99E120" stroke-width="8" stroke-linecap="round" stroke-linejoin="round"/>
<path d="M427.702 113.184L423.822 156.085" stroke="#99E120" stroke-width="8" stroke-linecap="round" stroke-linejoin="round"/>
<path d="M24.2515 123.237C30.0718 124.488 35.0145 126.388 40.1419 128.102C45.2231 129.955 50.1658 131.808 55.0623 133.847C64.8552 137.785 74.4172 142.047 83.7482 146.448C89.0604 127.731 95.4351 108.782 102.78 90.1114C121.811 99.6554 140.104 109.941 157.611 120.735C165.233 102.667 173.732 84.5518 183.156 66.7612C192.348 72.3208 201.356 78.2047 210.179 84.1812C218.956 90.1114 227.547 96.1343 235.955 102.481C240.482 94.0031 245.193 85.2931 250.136 76.9074C255.079 68.5217 260.252 60.0897 265.611 51.6577C274.064 57.8659 282.379 64.63 290.416 71.1162L302.334 80.9844L313.929 91.2697C319.426 83.4863 325.154 75.6102 331.066 67.8731C336.979 60.275 343.123 52.6769 349.451 45.0789C353.147 48.7852 356.796 52.399 360.399 56.1517L371.023 67.5951C377.999 75.2859 384.697 82.7913 391.21 90.5747C397.862 83.2546 404.698 75.9808 411.766 68.7071L422.575 57.8195L433.661 47.349" stroke="#99E120" stroke-width="8" stroke-linecap="round" stroke-linejoin="round"/>
<path d="M34.9219 140.982C45.3153 144.178 54.8773 148.163 64.4855 152.24C74.0013 156.317 83.3323 160.672 92.4323 165.166C97.3288 146.634 103.288 127.824 110.263 109.292C128.879 118.975 146.802 129.399 163.939 140.287C171.192 122.357 179.322 104.335 188.375 86.5904C197.337 92.1963 206.16 98.1265 214.798 104.149C223.39 110.126 231.797 116.149 239.973 122.542C244.315 114.11 248.842 105.447 253.646 97.0609C258.45 88.6752 263.393 80.2895 268.567 71.9038C276.835 78.112 284.919 84.9225 292.726 91.455L304.32 101.37L315.591 111.701C320.904 103.918 326.447 96.0416 332.175 88.3509C337.903 80.7528 343.862 73.1547 350.005 65.5566C353.608 69.263 357.165 72.8767 360.63 76.6758L370.931 88.1193C377.675 95.81 384.188 103.315 390.47 111.099C396.891 103.779 403.589 96.5049 410.472 89.1848L420.958 78.251L431.767 67.7805" stroke="#99E120" stroke-width="8" stroke-linecap="round" stroke-linejoin="round"/>
<path d="M437.496 4.49402C474.681 7.22748 511.589 13.1577 547.943 21.0801C584.39 28.6782 619.82 39.8437 654.603 52.1674C723.801 77.8341 788.841 111.886 848.245 152.054" stroke="#99E120" stroke-width="8" stroke-linecap="round" stroke-linejoin="round"/>
<path d="M433.615 47.3954C468.63 49.9435 503.413 55.5494 537.596 63.0085C571.917 70.1433 605.315 80.7065 638.158 92.289C703.476 116.519 765.097 148.765 821.73 186.987" stroke="#99E120" stroke-width="8" stroke-linecap="round" stroke-linejoin="round"/>
<path d="M467.198 7.36646L461.608 50.0825" stroke="#99E120" stroke-width="8" stroke-linecap="round" stroke-linejoin="round"/>
<path d="M496.761 11.3044L489.417 53.7889" stroke="#99E120" stroke-width="8" stroke-linecap="round" stroke-linejoin="round"/>
<path d="M526.094 16.4934L517.04 58.6999" stroke="#99E120" stroke-width="8" stroke-linecap="round" stroke-linejoin="round"/>
<path d="M555.196 22.7017L544.479 64.5375" stroke="#99E120" stroke-width="8" stroke-linecap="round" stroke-linejoin="round"/>
<path d="M584.067 29.8364L571.641 71.2553" stroke="#99E120" stroke-width="8" stroke-linecap="round" stroke-linejoin="round"/>
<path d="M612.614 37.8978L598.571 78.8534" stroke="#99E120" stroke-width="8" stroke-linecap="round" stroke-linejoin="round"/>
<path d="M668.369 57.449L651.185 97.2926" stroke="#99E120" stroke-width="8" stroke-linecap="round" stroke-linejoin="round"/>
<path d="M640.699 47.2563L625.04 87.6559" stroke="#99E120" stroke-width="8" stroke-linecap="round" stroke-linejoin="round"/>
<path d="M695.669 68.4291L676.961 107.67" stroke="#99E120" stroke-width="8" stroke-linecap="round" stroke-linejoin="round"/>
<path d="M722.461 80.3822L702.274 119.021" stroke="#99E120" stroke-width="8" stroke-linecap="round" stroke-linejoin="round"/>
<path d="M748.653 93.3082L727.081 131.252" stroke="#99E120" stroke-width="8" stroke-linecap="round" stroke-linejoin="round"/>
<path d="M774.428 106.837L751.562 144.039" stroke="#99E120" stroke-width="8" stroke-linecap="round" stroke-linejoin="round"/>
<path d="M799.557 121.245L775.398 157.753" stroke="#99E120" stroke-width="8" stroke-linecap="round" stroke-linejoin="round"/>
<path d="M824.086 136.395L798.726 172.161" stroke="#99E120" stroke-width="8" stroke-linecap="round" stroke-linejoin="round"/>
<path d="M848.291 152.008L821.776 186.987" stroke="#99E120" stroke-width="8" stroke-linecap="round" stroke-linejoin="round"/>
<path d="M427.703 113.184C459.437 115.5 490.849 120.55 521.844 127.314C552.932 133.754 583.189 143.391 613.03 153.861C672.388 175.914 728.79 205.334 781.126 240.637" stroke="#99E120" stroke-width="8" stroke-linecap="round" stroke-linejoin="round"/>
<path d="M423.822 156.085C453.386 158.216 482.626 162.988 511.497 169.243C540.46 175.173 568.684 184.254 596.585 194.029C652.016 214.646 705.046 242.212 754.565 275.662" stroke="#99E120" stroke-width="8" stroke-linecap="round" stroke-linejoin="round"/>
<path d="M453.016 115.639L447.381 158.355" stroke="#99E120" stroke-width="8" stroke-linecap="round" stroke-linejoin="round"/>
<path d="M478.192 118.975L470.847 161.459" stroke="#99E120" stroke-width="8" stroke-linecap="round" stroke-linejoin="round"/>
<path d="M503.182 123.423L494.128 165.629" stroke="#99E120" stroke-width="8" stroke-linecap="round" stroke-linejoin="round"/>
<path d="M527.988 128.704L517.271 170.54" stroke="#99E120" stroke-width="8" stroke-linecap="round" stroke-linejoin="round"/>
<path d="M552.609 134.82L540.229 176.239" stroke="#99E120" stroke-width="8" stroke-linecap="round" stroke-linejoin="round"/>
<path d="M577.045 141.677L562.956 182.632" stroke="#99E120" stroke-width="8" stroke-linecap="round" stroke-linejoin="round"/>
<path d="M624.809 158.448L607.625 198.291" stroke="#99E120" stroke-width="8" stroke-linecap="round" stroke-linejoin="round"/>
<path d="M601.065 149.645L585.406 190.091" stroke="#99E120" stroke-width="8" stroke-linecap="round" stroke-linejoin="round"/>
<path d="M648.275 167.853L629.566 207.094" stroke="#99E120" stroke-width="8" stroke-linecap="round" stroke-linejoin="round"/>
<path d="M671.371 178.184L651.231 216.777" stroke="#99E120" stroke-width="8" stroke-linecap="round" stroke-linejoin="round"/>
<path d="M694.052 189.396L672.48 227.294" stroke="#99E120" stroke-width="8" stroke-linecap="round" stroke-linejoin="round"/>
<path d="M716.456 201.118L693.544 238.32" stroke="#99E120" stroke-width="8" stroke-linecap="round" stroke-linejoin="round"/>
<path d="M738.351 213.719L714.192 250.181" stroke="#99E120" stroke-width="8" stroke-linecap="round" stroke-linejoin="round"/>
<path d="M759.831 226.97L734.471 262.736" stroke="#99E120" stroke-width="8" stroke-linecap="round" stroke-linejoin="round"/>
<path d="M781.08 240.637L754.565 275.616" stroke="#99E120" stroke-width="8" stroke-linecap="round" stroke-linejoin="round"/>
<path d="M433.615 47.3954C440.082 55.5958 446.318 63.7961 452.323 71.9502C458.282 80.2895 464.01 88.8142 469.507 97.1999C484.566 83.579 500.318 71.2089 517.04 58.6999C522.537 67.3172 527.664 76.3052 532.607 85.2932C537.55 94.2348 542.215 103.13 546.696 111.979C563.187 100.536 580.463 89.6018 598.571 78.8996C603.144 88.4899 607.532 97.9875 611.644 107.392C615.755 116.89 619.774 126.017 623.238 135.793C631.83 130.928 640.607 126.11 649.614 121.384C658.576 116.705 667.814 111.886 676.961 107.717C680.518 117.446 683.843 127.129 686.985 136.719L691.558 151.035C692.99 155.807 694.283 160.764 695.623 165.629C704.63 161.83 713.823 158.124 723.2 154.51C732.531 150.942 742.139 147.19 751.563 144.132C755.674 164.378 759.277 183.883 761.817 203.619C781.219 197.736 801.22 192.176 821.776 187.08" stroke="#99E120" stroke-width="8" stroke-linecap="round" stroke-linejoin="round"/>
<path d="M431.813 67.7341C438.096 75.9345 444.101 84.0885 449.875 92.2426C455.649 100.582 461.146 109.06 466.458 117.446C481.102 103.779 496.484 91.316 512.79 78.7606C518.056 87.3316 522.999 96.3196 527.71 105.215C532.422 114.11 536.903 122.959 541.199 131.762C557.274 120.226 574.181 109.153 591.919 98.3581C596.307 107.856 600.465 117.307 604.391 126.666C608.317 136.071 612.105 145.151 615.385 154.834C623.792 149.877 632.43 145.012 641.253 140.24C650.03 135.468 659.13 130.604 668.091 126.341C671.464 136.024 674.605 145.615 677.561 155.112L681.857 169.289C683.197 174.015 684.444 178.972 685.645 183.744C694.514 179.899 703.568 176.1 712.76 172.393C721.953 168.733 731.422 164.934 740.707 161.784C744.495 181.844 747.775 201.21 750.038 220.761C769.162 214.692 788.886 208.994 809.211 203.712" stroke="#99E120" stroke-width="8" stroke-linecap="round" stroke-linejoin="round"/>
<path d="M83.0093 235.494L88.8296 232.899L93.9109 230.722C97.2368 229.332 100.47 227.988 103.658 226.737C110.078 224.189 116.407 221.827 122.735 219.556C135.392 215.062 148.003 210.893 160.706 207.186C186.066 199.681 211.703 193.519 237.618 188.654C289.4 178.971 342.43 174.616 395.783 176.053" stroke="#99E120" stroke-width="8" stroke-linecap="round" stroke-linejoin="round"/>
<path d="M101.209 274.643C104.72 273.021 107.538 271.817 110.587 270.566C113.589 269.315 116.546 268.11 119.502 266.952C125.415 264.589 131.327 262.412 137.24 260.281C149.066 256.065 160.937 252.173 172.947 248.698C196.875 241.61 221.081 235.772 245.563 231.232C294.528 222.105 344.509 217.982 394.582 219.325" stroke="#99E120" stroke-width="8" stroke-linecap="round" stroke-linejoin="round"/>
<path d="M83.0093 235.494L101.209 274.643" stroke="#99E120" stroke-width="8" stroke-linecap="round" stroke-linejoin="round"/>
<path d="M104.951 226.228L120.657 266.443" stroke="#99E120" stroke-width="8" stroke-linecap="round" stroke-linejoin="round"/>
<path d="M125.276 218.63L139.596 259.4" stroke="#99E120" stroke-width="8" stroke-linecap="round" stroke-linejoin="round"/>
<path d="M145.509 211.866L158.581 253.007" stroke="#99E120" stroke-width="8" stroke-linecap="round" stroke-linejoin="round"/>
<path d="M165.788 205.704L177.705 247.216" stroke="#99E120" stroke-width="8" stroke-linecap="round" stroke-linejoin="round"/>
<path d="M186.159 200.145L196.922 241.981" stroke="#99E120" stroke-width="8" stroke-linecap="round" stroke-linejoin="round"/>
<path d="M206.668 195.187L216.277 237.255" stroke="#99E120" stroke-width="8" stroke-linecap="round" stroke-linejoin="round"/>
<path d="M248.011 186.894L255.31 229.425" stroke="#99E120" stroke-width="8" stroke-linecap="round" stroke-linejoin="round"/>
<path d="M227.271 190.74L235.77 233.085" stroke="#99E120" stroke-width="8" stroke-linecap="round" stroke-linejoin="round"/>
<path d="M268.844 183.559L274.988 226.321" stroke="#99E120" stroke-width="8" stroke-linecap="round" stroke-linejoin="round"/>
<path d="M289.816 180.825L294.759 223.727" stroke="#99E120" stroke-width="8" stroke-linecap="round" stroke-linejoin="round"/>
<path d="M310.834 178.648L314.622 221.688" stroke="#99E120" stroke-width="8" stroke-linecap="round" stroke-linejoin="round"/>
<path d="M331.99 177.119L334.531 220.205" stroke="#99E120" stroke-width="8" stroke-linecap="round" stroke-linejoin="round"/>
<path d="M353.193 176.146L354.486 219.325" stroke="#99E120" stroke-width="8" stroke-linecap="round" stroke-linejoin="round"/>
<path d="M374.488 175.775V218.955" stroke="#99E120" stroke-width="8" stroke-linecap="round" stroke-linejoin="round"/>
<path d="M395.783 176.053L394.536 219.233" stroke="#99E120" stroke-width="8" stroke-linecap="round" stroke-linejoin="round"/>
<path d="M129.11 334.686C131.004 333.806 133.683 332.648 136.085 331.629C138.579 330.563 141.12 329.544 143.707 328.525C148.834 326.486 154.1 324.54 159.366 322.641C169.945 318.888 180.661 315.321 191.517 312.17C213.228 305.777 235.308 300.449 257.573 296.279C302.149 287.94 347.465 284.28 392.503 285.484" stroke="#99E120" stroke-width="8" stroke-linecap="round" stroke-linejoin="round"/>
<path d="M147.356 373.789L152.807 371.426C154.978 370.499 157.242 369.573 159.598 368.692C164.217 366.839 169.021 365.032 173.918 363.318C183.664 359.843 193.642 356.554 203.804 353.635C224.037 347.659 244.732 342.655 265.611 338.763C307.323 330.98 349.636 327.552 391.349 328.664" stroke="#99E120" stroke-width="8" stroke-linecap="round" stroke-linejoin="round"/>
<path d="M129.11 334.686L147.356 373.789" stroke="#99E120" stroke-width="8" stroke-linecap="round" stroke-linejoin="round"/>
<path d="M144.77 328.108L160.475 368.322" stroke="#99E120" stroke-width="8" stroke-linecap="round" stroke-linejoin="round"/>
<path d="M161.491 321.899L175.811 362.623" stroke="#99E120" stroke-width="8" stroke-linecap="round" stroke-linejoin="round"/>
<path d="M178.629 316.154L191.655 357.342" stroke="#99E120" stroke-width="8" stroke-linecap="round" stroke-linejoin="round"/>
<path d="M195.905 310.919L207.777 352.431" stroke="#99E120" stroke-width="8" stroke-linecap="round" stroke-linejoin="round"/>
<path d="M213.412 306.147L224.129 347.983" stroke="#99E120" stroke-width="8" stroke-linecap="round" stroke-linejoin="round"/>
<path d="M231.012 301.885L240.62 343.952" stroke="#99E120" stroke-width="8" stroke-linecap="round" stroke-linejoin="round"/>
<path d="M266.581 294.75L273.879 337.281" stroke="#99E120" stroke-width="8" stroke-linecap="round" stroke-linejoin="round"/>
<path d="M248.75 298.04L257.203 340.431" stroke="#99E120" stroke-width="8" stroke-linecap="round" stroke-linejoin="round"/>
<path d="M284.458 291.878L290.647 334.64" stroke="#99E120" stroke-width="8" stroke-linecap="round" stroke-linejoin="round"/>
<path d="M302.427 289.561L307.416 332.463" stroke="#99E120" stroke-width="8" stroke-linecap="round" stroke-linejoin="round"/>
<path d="M320.442 287.708L324.184 330.702" stroke="#99E120" stroke-width="8" stroke-linecap="round" stroke-linejoin="round"/>
<path d="M338.457 286.364L340.998 329.497" stroke="#99E120" stroke-width="8" stroke-linecap="round" stroke-linejoin="round"/>
<path d="M356.519 285.53L357.812 328.71" stroke="#99E120" stroke-width="8" stroke-linecap="round" stroke-linejoin="round"/>
<path d="M374.534 285.206L374.58 328.432" stroke="#99E120" stroke-width="8" stroke-linecap="round" stroke-linejoin="round"/>
<path d="M392.549 285.484L391.302 328.664" stroke="#99E120" stroke-width="8" stroke-linecap="round" stroke-linejoin="round"/>
<path d="M101.209 274.643C109.894 279.044 117.192 284.28 124.768 289.422C132.205 294.611 139.504 300.032 146.571 305.499C149.851 288.079 153.87 270.473 158.581 253.053C172.901 264.45 186.667 276.357 199.832 288.588C202.234 279.971 204.821 271.446 207.592 262.922C210.318 254.351 213.228 245.78 216.277 237.301C230.042 249.764 243.207 262.69 255.726 275.848C261.546 259.354 267.967 242.675 274.988 226.367C287.599 239.386 299.655 253.1 311.019 266.674C318.271 251.246 326.032 235.402 334.485 220.252C340.028 227.572 345.433 234.938 350.652 242.305C355.872 249.81 360.953 257.362 365.85 264.867C374.719 249.254 384.281 234.475 394.49 219.279" stroke="#99E120" stroke-width="8" stroke-linecap="round" stroke-linejoin="round"/>
<path d="M109.848 293.175C125.6 302.765 139.735 313.653 153.639 324.679C156.595 307.398 160.337 289.885 164.771 272.512C178.814 284.002 192.302 295.955 205.19 308.278C207.454 299.707 209.902 291.229 212.535 282.704C215.122 274.18 217.893 265.609 220.85 257.177C234.292 269.686 247.226 282.704 259.467 295.862C265.057 279.415 271.2 262.783 277.944 246.474C290.278 259.539 302.011 273.299 313.097 286.92C320.073 271.539 327.602 255.694 335.778 240.544C341.183 247.911 346.449 255.231 351.484 262.597C356.565 270.103 361.462 277.654 366.22 285.206C374.812 269.593 384.05 254.814 393.935 239.618" stroke="#99E120" stroke-width="8" stroke-linecap="round" stroke-linejoin="round"/>
<path d="M395.783 176.053C422.483 176.98 449.182 179.25 475.79 183.142C482.442 184.161 489.047 185.412 495.699 186.524C499.025 187.126 502.351 187.636 505.631 188.284L515.516 190.415C522.075 191.898 528.727 193.195 535.24 194.863L554.826 200.098C606.886 214.646 657.052 236.421 703.707 263.478" stroke="#99E120" stroke-width="8" stroke-linecap="round" stroke-linejoin="round"/>
<path d="M394.536 219.233C419.572 220.113 444.609 222.244 469.461 225.858C475.651 226.831 481.841 227.989 488.031 229.008C491.125 229.564 494.22 230.074 497.315 230.676L506.554 232.668C512.698 234.058 518.888 235.263 524.985 236.838L543.231 241.703C591.78 255.231 638.435 275.523 681.996 300.773" stroke="#99E120" stroke-width="8" stroke-linecap="round" stroke-linejoin="round"/>
<path d="M417.124 177.073L414.538 220.206" stroke="#99E120" stroke-width="8" stroke-linecap="round" stroke-linejoin="round"/>
<path d="M438.465 178.74L434.539 221.781" stroke="#99E120" stroke-width="8" stroke-linecap="round" stroke-linejoin="round"/>
<path d="M459.807 181.057L454.495 223.912" stroke="#99E120" stroke-width="8" stroke-linecap="round" stroke-linejoin="round"/>
<path d="M481.102 184.022L474.404 226.692" stroke="#99E120" stroke-width="8" stroke-linecap="round" stroke-linejoin="round"/>
<path d="M502.305 187.728L494.221 230.12" stroke="#99E120" stroke-width="8" stroke-linecap="round" stroke-linejoin="round"/>
<path d="M523.415 192.222L513.899 234.336" stroke="#99E120" stroke-width="8" stroke-linecap="round" stroke-linejoin="round"/>
<path d="M565.22 203.156L552.886 244.529" stroke="#99E120" stroke-width="8" stroke-linecap="round" stroke-linejoin="round"/>
<path d="M544.387 197.365L533.439 239.154" stroke="#99E120" stroke-width="8" stroke-linecap="round" stroke-linejoin="round"/>
<path d="M585.822 209.689L572.103 250.644" stroke="#99E120" stroke-width="8" stroke-linecap="round" stroke-linejoin="round"/>
<path d="M606.193 217.055L591.042 257.501" stroke="#99E120" stroke-width="8" stroke-linecap="round" stroke-linejoin="round"/>
<path d="M626.333 225.024L609.796 264.914" stroke="#99E120" stroke-width="8" stroke-linecap="round" stroke-linejoin="round"/>
<path d="M646.196 233.595L628.319 272.883" stroke="#99E120" stroke-width="8" stroke-linecap="round" stroke-linejoin="round"/>
<path d="M665.643 243.046L646.473 281.732" stroke="#99E120" stroke-width="8" stroke-linecap="round" stroke-linejoin="round"/>
<path d="M684.814 253.053L664.35 291.044" stroke="#99E120" stroke-width="8" stroke-linecap="round" stroke-linejoin="round"/>
<path d="M703.707 263.524L681.95 300.819" stroke="#99E120" stroke-width="8" stroke-linecap="round" stroke-linejoin="round"/>
<path d="M392.549 285.484C415.045 286.272 437.449 288.218 459.668 291.414C465.211 292.295 470.708 293.314 476.251 294.241C479.023 294.75 481.794 295.167 484.52 295.723L492.742 297.53C498.193 298.781 503.69 299.8 509.141 301.236L525.355 305.591C568.499 317.637 609.749 335.613 648.552 358.037" stroke="#99E120" stroke-width="8" stroke-linecap="round" stroke-linejoin="round"/>
<path d="M391.302 328.664C412.135 329.405 432.876 331.165 453.34 334.13L468.583 336.725C471.124 337.188 473.665 337.559 476.205 338.069L483.735 339.736C488.77 340.895 493.805 341.821 498.794 343.118L513.668 347.103C553.255 358.129 591.041 374.623 626.749 395.239" stroke="#99E120" stroke-width="8" stroke-linecap="round" stroke-linejoin="round"/>
<path d="M410.565 286.318L407.932 329.451" stroke="#99E120" stroke-width="8" stroke-linecap="round" stroke-linejoin="round"/>
<path d="M428.488 287.754L424.515 330.748" stroke="#99E120" stroke-width="8" stroke-linecap="round" stroke-linejoin="round"/>
<path d="M446.318 289.654L441.006 332.555" stroke="#99E120" stroke-width="8" stroke-linecap="round" stroke-linejoin="round"/>
<path d="M464.102 292.156L457.404 334.825" stroke="#99E120" stroke-width="8" stroke-linecap="round" stroke-linejoin="round"/>
<path d="M481.795 295.213L473.711 337.652" stroke="#99E120" stroke-width="8" stroke-linecap="round" stroke-linejoin="round"/>
<path d="M499.302 298.966L489.786 341.08" stroke="#99E120" stroke-width="8" stroke-linecap="round" stroke-linejoin="round"/>
<path d="M533.946 308L521.613 349.419" stroke="#99E120" stroke-width="8" stroke-linecap="round" stroke-linejoin="round"/>
<path d="M516.716 303.228L505.769 345.018" stroke="#99E120" stroke-width="8" stroke-linecap="round" stroke-linejoin="round"/>
<path d="M550.992 313.421L537.272 354.377" stroke="#99E120" stroke-width="8" stroke-linecap="round" stroke-linejoin="round"/>
<path d="M567.853 319.537L552.701 359.982" stroke="#99E120" stroke-width="8" stroke-linecap="round" stroke-linejoin="round"/>
<path d="M584.482 326.115L567.945 366.005" stroke="#99E120" stroke-width="8" stroke-linecap="round" stroke-linejoin="round"/>
<path d="M600.927 333.158L583.05 372.445" stroke="#99E120" stroke-width="8" stroke-linecap="round" stroke-linejoin="round"/>
<path d="M617.002 341.034L597.786 379.673" stroke="#99E120" stroke-width="8" stroke-linecap="round" stroke-linejoin="round"/>
<path d="M632.892 349.28L612.382 387.271" stroke="#99E120" stroke-width="8" stroke-linecap="round" stroke-linejoin="round"/>
<path d="M648.552 357.99L626.795 395.239" stroke="#99E120" stroke-width="8" stroke-linecap="round" stroke-linejoin="round"/>
<path d="M394.536 219.233C404.329 234.938 413.382 250.552 421.743 266.535C431.998 252.219 442.946 237.626 454.541 223.912C458.698 232.159 462.671 240.359 466.412 248.559C470.154 256.852 473.711 265.284 477.083 273.577C488.723 259.956 500.965 247.077 513.945 234.336L519.165 247.169C520.828 251.478 522.444 255.926 524.015 260.281C527.11 268.991 530.066 277.654 532.746 286.272C545.264 273.902 558.29 262.273 572.148 250.644C577.599 268.157 582.126 285.855 586.006 303.043C599.495 292.712 613.63 282.612 628.411 272.883C631.414 291.275 633.631 309.344 635.156 327.088C650.122 317.961 665.736 309.205 682.042 300.819" stroke="#99E120" stroke-width="8" stroke-linecap="round" stroke-linejoin="round"/>
<path d="M393.935 239.757C403.405 255.463 412.181 271.029 420.173 287.013C430.104 272.651 440.729 258.011 452 244.297C455.972 252.497 459.76 260.698 463.363 268.852C466.966 277.145 470.339 285.531 473.526 293.824C484.843 280.156 496.761 267.184 509.372 254.397L514.314 267.184C515.885 271.493 517.409 275.894 518.888 280.203C521.844 288.866 524.569 297.484 527.11 306.055C539.305 293.592 552.054 281.87 565.589 270.103C570.716 287.476 574.874 305.082 578.384 322.131C591.549 311.661 605.407 301.468 619.866 291.553C622.545 309.807 624.439 327.691 625.64 345.296C640.329 336.03 655.665 327.088 671.648 318.517" stroke="#99E120" stroke-width="8" stroke-linecap="round" stroke-linejoin="round"/>
</g>
<defs>
<clipPath id="clip0_21_810">
<rect width="850" height="397" fill="white"/>
</clipPath>
</defs>
</svg>
