<svg width="686" height="258" viewBox="0 0 686 258" fill="none" xmlns="http://www.w3.org/2000/svg">
<g clip-path="url(#clip0_21_691)">
<path d="M2.30566 58.0758C17.1725 52.7907 30.7651 48.7205 44.9038 44.7111C58.9211 40.7624 72.9385 37.0567 86.9558 33.7156C115.051 26.9724 143.268 21.3228 171.606 16.7666C228.282 7.71508 285.444 2.49069 342.848 2.30844C457.414 1.7617 573.74 20.3508 683.755 67.9171" stroke="#E831B6" stroke-width="8" stroke-linecap="round" stroke-linejoin="round"/>
<path d="M23.9688 144.278C35.8016 140.087 49.2121 136.016 62.1372 132.311C75.1836 128.605 88.3514 125.142 101.641 121.983C128.098 115.666 154.797 110.32 181.618 105.946C235.26 97.3802 289.267 92.4596 343.151 92.2773C450.8 91.7306 558.509 109.348 658.208 152.479" stroke="#E831B6" stroke-width="8" stroke-linecap="round" stroke-linejoin="round"/>
<path d="M81.4943 81.0388C72.5742 98.5952 64.0788 116.395 56.0689 134.133C42.1729 122.773 27.9735 111.595 13.228 101.147C20.9952 82.7398 29.4906 64.5759 38.35 46.4728C53.0955 57.6506 67.4163 69.1321 81.4943 80.9781V81.0388Z" stroke="#E831B6" stroke-width="8" stroke-linecap="round" stroke-linejoin="round"/>
<path d="M115.961 72.9592C106.677 90.2726 97.7568 107.647 89.2008 125.203C75.4869 113.296 61.5302 101.693 47.2095 90.3941C55.6441 72.4732 64.5036 54.6131 73.7878 36.996C88.1692 48.7205 102.247 60.7487 116.022 73.02L115.961 72.9592Z" stroke="#E831B6" stroke-width="8" stroke-linecap="round" stroke-linejoin="round"/>
<path d="M2.42822 58.0151C18.5087 67.9779 32.7688 79.1556 47.2109 90.3334C38.9583 108.254 30.4629 126.418 24.0914 144.339" stroke="#E831B6" stroke-width="8" stroke-linecap="round" stroke-linejoin="round"/>
<path d="M150.61 65.9731C140.962 82.922 131.617 100.114 122.636 117.306C109.226 104.974 95.4509 92.8848 81.4336 81.0388C90.293 63.4217 99.5772 45.926 109.226 28.5519C123.304 40.7624 137.078 53.2159 150.61 65.9124V65.9731Z" stroke="#E831B6" stroke-width="8" stroke-linecap="round" stroke-linejoin="round"/>
<path d="M185.441 60.0805C175.429 76.7864 165.72 93.5531 156.375 110.563C143.207 97.7447 129.736 85.2912 115.961 72.9592C125.246 55.7066 134.894 38.4539 144.906 21.4443C158.681 34.0193 172.213 46.9588 185.441 60.0805Z" stroke="#E831B6" stroke-width="8" stroke-linecap="round" stroke-linejoin="round"/>
<path d="M220.333 55.2206C209.956 71.6228 199.883 88.0857 190.174 104.792C177.31 91.6091 164.082 78.6089 150.61 65.9731C160.259 48.9027 170.271 32.0753 180.648 15.3087C194.179 28.3696 207.408 41.6736 220.333 55.2206Z" stroke="#E831B6" stroke-width="8" stroke-linecap="round" stroke-linejoin="round"/>
<path d="M255.346 51.5757C244.605 67.5526 234.168 83.8332 224.095 100.114C211.534 86.5669 198.609 73.1415 185.38 60.0805C195.393 43.3746 205.769 26.8509 216.51 10.388C229.738 23.935 242.663 37.5427 255.285 51.5757H255.346Z" stroke="#E831B6" stroke-width="8" stroke-linecap="round" stroke-linejoin="round"/>
<path d="M290.238 49.0242C279.133 64.6366 268.392 80.5528 257.955 96.5298C245.698 82.4968 233.076 68.8283 220.151 55.2813C230.527 38.9399 241.268 22.6593 252.373 6.62158C265.298 20.533 277.919 34.6268 290.238 49.0242Z" stroke="#E831B6" stroke-width="8" stroke-linecap="round" stroke-linejoin="round"/>
<path d="M325.372 47.5663C313.903 63.1179 302.799 78.2444 291.997 94.0998C280.043 79.7024 267.786 65.5479 255.164 51.6364C265.905 35.5988 277.009 19.6826 288.478 4.0094C301.1 18.1639 313.418 33.0473 325.372 47.5663Z" stroke="#E831B6" stroke-width="8" stroke-linecap="round" stroke-linejoin="round"/>
<path d="M360.506 47.4447C348.674 62.1459 337.205 77.5761 326.1 92.6418C314.51 78.1229 302.556 63.1787 290.298 49.0242C301.403 33.1688 312.872 18.0423 324.705 2.49066C337.023 17.4956 348.977 32.0753 360.567 47.5055L360.506 47.4447Z" stroke="#E831B6" stroke-width="8" stroke-linecap="round" stroke-linejoin="round"/>
<path d="M395.641 48.5382C383.444 62.8749 371.611 77.6369 360.082 92.5203C348.856 77.1509 337.266 62.5712 325.372 47.5055C336.841 32.4398 348.674 17.0096 360.931 2.30841C372.885 17.4956 384.475 32.8043 395.641 48.5382Z" stroke="#E831B6" stroke-width="8" stroke-linecap="round" stroke-linejoin="round"/>
<path d="M430.714 50.9682C418.093 65.0619 405.896 78.9734 394.063 93.6139C383.262 77.9407 372.096 62.632 360.506 47.4448C372.339 32.5613 384.597 17.7994 397.218 3.52344C408.809 18.9536 419.974 35.052 430.775 50.9682H430.714Z" stroke="#E831B6" stroke-width="8" stroke-linecap="round" stroke-linejoin="round"/>
<path d="M465.727 54.6739C452.742 68.3423 440.181 81.8286 427.984 95.9223C417.607 80.0669 406.867 63.9684 395.641 48.5382C407.898 33.8978 420.459 19.9863 433.506 5.95337C444.671 21.9303 455.412 38.454 465.727 54.6739Z" stroke="#E831B6" stroke-width="8" stroke-linecap="round" stroke-linejoin="round"/>
<path d="M500.619 60.0198C487.269 72.7163 474.283 86.324 461.722 99.5065C451.831 83.3473 441.516 66.8844 430.714 50.9075C443.336 36.8745 456.322 23.449 469.732 9.84131C480.473 26.6687 490.789 42.9494 500.558 60.0198H500.619Z" stroke="#E831B6" stroke-width="8" stroke-linecap="round" stroke-linejoin="round"/>
<path d="M535.268 66.8236C521.554 78.8519 508.144 91.8521 495.279 104.609C485.934 87.6604 476.043 71.3798 465.728 54.6131C478.713 41.4914 492.124 27.9444 505.898 15.3087C516.154 32.4398 525.984 49.2065 535.268 66.7629V66.8236Z" stroke="#E831B6" stroke-width="8" stroke-linecap="round" stroke-linejoin="round"/>
<path d="M569.735 75.2069C562.635 81.0388 555.718 86.8707 548.861 92.7633C542.004 98.899 535.207 105.035 528.593 111.17C519.794 93.7353 510.389 77.0294 500.619 59.959C513.969 47.2625 527.804 34.323 542.004 22.4163C546.858 31.1641 551.652 39.8512 556.264 48.5382C560.875 57.4075 565.366 66.3376 569.735 75.1462V75.2069Z" stroke="#E831B6" stroke-width="8" stroke-linecap="round" stroke-linejoin="round"/>
<path d="M603.837 85.2305C589.274 96.226 575.257 107.282 561.543 119.25C557.416 110.502 553.169 101.633 548.8 92.8241C544.37 84.1978 539.879 75.5714 535.207 66.8844C542.064 60.7487 549.103 54.6739 556.203 48.6597C563.302 42.7671 570.463 37.0567 577.805 31.2856C587.029 48.9027 595.645 67.2488 603.777 85.2912L603.837 85.2305Z" stroke="#E831B6" stroke-width="8" stroke-linecap="round" stroke-linejoin="round"/>
<path d="M637.637 96.8943C622.649 107.404 608.328 117.367 594.25 128.787C586.604 110.927 578.534 92.7026 569.735 75.207C583.934 63.361 598.437 52.4869 613.547 41.6129C622.224 59.5338 630.173 78.6697 637.698 96.8943H637.637Z" stroke="#E831B6" stroke-width="8" stroke-linecap="round" stroke-linejoin="round"/>
<path d="M658.147 152.722C651.836 134.376 645.1 115.362 637.637 96.8943C652.564 86.6885 667.856 77.3939 683.754 67.9171" stroke="#E831B6" stroke-width="8" stroke-linecap="round" stroke-linejoin="round"/>
<path d="M670.951 110.32C655.598 119.979 640.853 129.516 626.411 139.965C619.372 121.984 612.029 103.03 603.837 85.2305C618.462 73.992 633.268 64.1507 648.802 53.8842C656.812 72.534 664.094 91.7914 670.951 110.32Z" stroke="#E831B6" stroke-width="8" stroke-linecap="round" stroke-linejoin="round"/>
<path d="M166.873 254.355C179.34 254.355 189.446 244.237 189.446 231.757C189.446 219.276 179.34 209.158 166.873 209.158C154.406 209.158 144.299 219.276 144.299 231.757C144.299 244.237 154.406 254.355 166.873 254.355Z" stroke="#E831B6" stroke-width="8" stroke-linecap="round" stroke-linejoin="round"/>
<path d="M166.873 209.219V108.801" stroke="#E831B6" stroke-width="8" stroke-linecap="round" stroke-linejoin="round"/>
<path d="M166.873 180.606C166.873 180.606 172.334 191.055 187.929 191.055C203.524 191.055 208.318 168.578 190.963 163.05" stroke="#E831B6" stroke-width="8" stroke-linecap="round" stroke-linejoin="round"/>
<path d="M166.873 182.489C166.873 182.489 164.263 198.588 146.727 198.588C129.19 198.588 123.85 176.475 137.321 167.302" stroke="#E831B6" stroke-width="8" stroke-linecap="round" stroke-linejoin="round"/>
<path d="M515.243 255.752C527.71 255.752 537.817 245.635 537.817 233.154C537.817 220.673 527.71 210.555 515.243 210.555C502.776 210.555 492.67 220.673 492.67 233.154C492.67 245.635 502.776 255.752 515.243 255.752Z" stroke="#E831B6" stroke-width="8" stroke-linecap="round" stroke-linejoin="round"/>
<path d="M515.243 210.555V110.137" stroke="#E831B6" stroke-width="8" stroke-linecap="round" stroke-linejoin="round"/>
<path d="M515.243 182.003C515.243 182.003 520.704 192.452 536.299 192.452C551.895 192.452 556.688 169.975 539.334 164.447" stroke="#E831B6" stroke-width="8" stroke-linecap="round" stroke-linejoin="round"/>
<path d="M515.243 183.826C515.243 183.826 512.634 199.924 495.097 199.924C477.56 199.924 472.22 177.812 485.692 168.639" stroke="#E831B6" stroke-width="8" stroke-linecap="round" stroke-linejoin="round"/>
</g>
<defs>
<clipPath id="clip0_21_691">
<rect width="686" height="258" fill="white"/>
</clipPath>
</defs>
</svg>
