<svg width="671" height="149" viewBox="0 0 671 149" fill="none" xmlns="http://www.w3.org/2000/svg">
<g clip-path="url(#clip0_21_766)">
<path d="M2.25537 55.8385C16.7972 50.757 30.0925 46.8436 43.9221 42.9886C57.6329 39.1921 71.3437 35.6292 85.0546 32.4167C112.536 25.9334 140.135 20.5014 167.854 16.1207C223.291 7.41787 279.202 2.39474 335.351 2.21952C447.412 1.69384 561.194 19.5668 668.804 65.3007" stroke="#99E120" stroke-width="8" stroke-linecap="round" stroke-linejoin="round"/>
<path d="M23.4448 138.72C35.0189 134.69 48.1362 130.777 60.7787 127.214C73.5398 123.651 86.4197 120.321 99.4183 117.284C125.297 111.21 151.413 106.07 177.647 101.864C230.116 93.6288 282.942 88.8977 335.648 88.7224C440.943 88.1968 546.297 105.135 643.816 146.605" stroke="#99E120" stroke-width="8" stroke-linecap="round" stroke-linejoin="round"/>
<path d="M79.7125 77.9169C70.9874 94.7969 62.6778 111.911 54.8431 128.966C41.2509 118.044 27.3621 107.296 12.939 97.2501C20.5363 79.5523 28.8459 62.0882 37.5116 44.6825C51.9347 55.4296 65.9423 66.4688 79.7125 77.8585V77.9169Z" stroke="#99E120" stroke-width="8" stroke-linecap="round" stroke-linejoin="round"/>
<path d="M113.426 70.1486C104.345 86.795 95.6198 103.5 87.2509 120.38C73.8368 108.932 60.1853 97.7758 46.1777 86.9118C54.428 69.6813 63.0937 52.5092 72.1749 35.5708C86.2419 46.8436 100.012 58.4085 113.485 70.207L113.426 70.1486Z" stroke="#99E120" stroke-width="8" stroke-linecap="round" stroke-linejoin="round"/>
<path d="M2.37402 55.7801C18.1029 65.3591 32.0512 76.1062 46.1775 86.8534C38.1053 104.084 29.7957 121.548 23.5635 138.779" stroke="#99E120" stroke-width="8" stroke-linecap="round" stroke-linejoin="round"/>
<path d="M147.317 63.4316C137.88 79.7276 128.739 96.2572 119.955 112.787C106.838 100.93 93.3642 89.3066 79.6533 77.9169C88.319 60.9784 97.4002 44.1568 106.838 27.452C120.608 39.1921 134.081 51.1658 147.317 63.3732V63.4316Z" stroke="#99E120" stroke-width="8" stroke-linecap="round" stroke-linejoin="round"/>
<path d="M181.386 57.766C171.593 73.8283 162.096 89.949 152.956 106.303C140.076 93.9792 126.899 82.0055 113.426 70.1486C122.507 53.5606 131.944 36.9726 141.738 20.6182C155.211 32.7087 168.447 45.1498 181.386 57.766Z" stroke="#99E120" stroke-width="8" stroke-linecap="round" stroke-linejoin="round"/>
<path d="M215.515 53.0933C205.366 68.8636 195.513 84.6923 186.016 100.755C173.433 88.08 160.494 75.5806 147.317 63.4316C156.755 47.0188 166.548 30.8397 176.698 14.7189C189.934 27.2768 202.873 40.0682 215.515 53.0933Z" stroke="#99E120" stroke-width="8" stroke-linecap="round" stroke-linejoin="round"/>
<path d="M249.763 49.5888C239.257 64.9502 229.048 80.6037 219.195 96.2572C206.909 83.2321 194.266 70.3238 181.327 57.766C191.121 41.7037 201.27 25.8165 211.776 9.98785C224.715 23.0129 237.358 36.0964 249.703 49.5888H249.763Z" stroke="#99E120" stroke-width="8" stroke-linecap="round" stroke-linejoin="round"/>
<path d="M283.892 47.1356C273.03 62.1466 262.524 77.4496 252.315 92.8111C240.326 79.3187 227.98 66.1768 215.337 53.1517C225.487 37.4398 235.993 21.7864 246.855 6.36652C259.497 19.7421 271.843 33.2928 283.892 47.1356Z" stroke="#99E120" stroke-width="8" stroke-linecap="round" stroke-linejoin="round"/>
<path d="M318.257 45.7338C307.039 60.6864 296.178 75.2301 285.613 90.4747C273.92 76.6319 261.93 63.0227 249.584 49.6472C260.09 34.2274 270.952 18.9243 282.17 3.85495C294.516 17.4641 306.565 31.7742 318.257 45.7338Z" stroke="#99E120" stroke-width="8" stroke-linecap="round" stroke-linejoin="round"/>
<path d="M352.624 45.617C341.049 59.7519 329.832 74.5876 318.97 89.0729C307.633 75.1133 295.94 60.7448 283.951 47.1356C294.813 31.891 306.03 17.3473 317.605 2.39474C329.653 16.8216 341.346 30.8397 352.683 45.6754L352.624 45.617Z" stroke="#99E120" stroke-width="8" stroke-linecap="round" stroke-linejoin="round"/>
<path d="M386.99 46.6684C375.059 60.4528 363.485 74.646 352.208 88.9561C341.227 74.1787 329.891 60.1607 318.257 45.6754C329.475 31.1901 341.049 16.3544 353.039 2.21951C364.732 16.8216 376.068 31.5406 386.99 46.6684Z" stroke="#99E120" stroke-width="8" stroke-linecap="round" stroke-linejoin="round"/>
<path d="M421.296 49.0047C408.951 62.5555 397.021 75.931 385.446 90.0074C374.881 74.9381 363.96 60.2191 352.624 45.617C364.198 31.3069 376.187 17.1137 388.533 3.3877C399.87 18.2234 410.791 33.7017 421.356 49.0047H421.296Z" stroke="#99E120" stroke-width="8" stroke-linecap="round" stroke-linejoin="round"/>
<path d="M455.544 52.5676C442.842 65.7095 430.556 78.6762 418.626 92.227C408.476 76.9824 397.97 61.5041 386.99 46.6684C398.979 32.5919 411.266 19.2164 424.027 5.72403C434.948 21.0855 445.454 36.9726 455.544 52.5676Z" stroke="#99E120" stroke-width="8" stroke-linecap="round" stroke-linejoin="round"/>
<path d="M489.672 57.7076C476.615 69.9149 463.913 82.9984 451.626 95.6731C441.952 80.1364 431.861 64.3077 421.296 48.9463C433.642 35.4539 446.344 22.5457 459.461 9.46216C469.967 25.6413 480.057 41.2948 489.613 57.7076H489.672Z" stroke="#99E120" stroke-width="8" stroke-linecap="round" stroke-linejoin="round"/>
<path d="M523.564 64.2493C510.15 75.8142 497.033 88.3136 484.449 100.579C475.309 84.2834 465.634 68.6299 455.544 52.5092C468.246 39.893 481.363 26.8679 494.836 14.7189C504.867 31.1901 514.483 47.3109 523.564 64.1909V64.2493Z" stroke="#99E120" stroke-width="8" stroke-linecap="round" stroke-linejoin="round"/>
<path d="M557.277 72.3097C550.333 77.9169 543.567 83.5241 536.859 89.1897C530.152 95.089 523.505 100.988 517.035 106.887C508.429 90.1243 499.229 74.0619 489.673 57.6492C502.731 45.4418 516.264 33.0008 530.152 21.5527C534.901 29.9636 539.59 38.316 544.101 46.6684C548.612 55.196 553.004 63.7821 557.277 72.2513V72.3097Z" stroke="#99E120" stroke-width="8" stroke-linecap="round" stroke-linejoin="round"/>
<path d="M590.634 81.9471C576.389 92.519 562.678 103.149 549.264 114.656C545.228 106.245 541.073 97.7174 536.8 89.2481C532.467 80.9541 528.075 72.6601 523.504 64.3077C530.211 58.4085 537.097 52.5676 544.041 46.7852C550.985 41.1196 557.989 35.6292 565.171 30.0804C574.193 47.0188 582.621 64.6582 590.575 82.0055L590.634 81.9471Z" stroke="#99E120" stroke-width="8" stroke-linecap="round" stroke-linejoin="round"/>
<path d="M623.695 93.1615C609.034 103.266 595.027 112.845 581.256 123.826C573.778 106.654 565.884 89.1313 557.277 72.3097C571.166 60.92 585.352 50.4649 600.131 40.0098C608.619 57.2403 616.394 75.639 623.754 93.1615H623.695Z" stroke="#99E120" stroke-width="8" stroke-linecap="round" stroke-linejoin="round"/>
<path d="M643.756 146.839C637.583 129.2 630.995 110.918 623.694 93.1615C638.295 83.3489 653.253 74.4124 668.804 65.3007" stroke="#99E120" stroke-width="8" stroke-linecap="round" stroke-linejoin="round"/>
<path d="M656.28 106.07C641.263 115.357 626.84 124.527 612.714 134.573C605.829 117.284 598.647 99.0608 590.634 81.9471C604.939 71.1415 619.421 61.6793 634.616 51.8083C642.451 69.7397 649.573 88.2552 656.28 106.07Z" stroke="#99E120" stroke-width="8" stroke-linecap="round" stroke-linejoin="round"/>
</g>
<defs>
<clipPath id="clip0_21_766">
<rect width="671" height="149" fill="white"/>
</clipPath>
</defs>
</svg>
