<svg width="63" height="134" viewBox="0 0 63 134" fill="none" xmlns="http://www.w3.org/2000/svg">
<g clip-path="url(#clip0_21_791)">
<path d="M3.70075 11.3665C3.70075 11.3665 3.70075 11.8105 3.70075 11.9881C3.09829 20.1577 3.18436 28.4162 5.16386 36.3194C8.00403 47.8635 14.8893 56.3883 24.8729 62.0716C41.0532 71.3068 59.213 80.8973 59.213 96.0822C59.213 111.267 63.7745 130.537 49.4876 130.537H16.9548C16.9548 130.537 3.18436 127.962 3.27042 118.993V94.2174C3.27042 94.2174 4.38927 87.1133 10.7581 80.4533C16.6106 74.5036 23.4098 69.3532 29.7786 64.114C33.6516 60.9172 37.5245 57.8091 41.4835 54.6123C44.9262 51.8595 50.2622 49.0179 52.6721 45.4659C53.7048 43.9563 54.0491 42.0026 54.3073 40.1378C55.168 33.389 55.0819 26.6402 54.9958 19.8913C54.9958 15.1849 54.4794 9.85685 50.5204 6.74883C47.9384 4.70642 44.5819 4.26242 41.3114 3.99602C31.0696 3.01921 20.6557 2.84161 10.586 4.88402C8.17616 5.32802 5.59419 6.12723 4.38927 8.34724C3.87288 9.23525 3.70075 10.3009 3.61468 11.3665H3.70075Z" stroke="#99E120" stroke-width="10" stroke-linecap="round" stroke-linejoin="round"/>
</g>
<defs>
<clipPath id="clip0_21_791">
<rect width="63" height="134" fill="white"/>
</clipPath>
</defs>
</svg>
