<svg width="116" height="140" viewBox="0 0 116 140" fill="none" xmlns="http://www.w3.org/2000/svg">
<g clip-path="url(#clip0_21_750)">
<path d="M30.1388 36.8068C30.1388 36.8068 3.3291 42.8662 3.3291 22.0652C3.3291 1.26414 27.1599 3.43468 27.1599 3.43468C27.1599 3.43468 46.6977 0.178865 46.7853 37.6207C46.8729 75.0626 46.9605 119.83 46.9605 119.83C46.9605 119.83 46.2596 136.561 28.1237 136.561C9.98771 136.561 7.09647 125.166 7.00886 114.585C6.92125 104.003 14.9817 99.029 30.9273 99.029" stroke="#99E120" stroke-width="10" stroke-linecap="round" stroke-linejoin="round"/>
<path d="M85.8609 36.8088C85.8609 36.8088 112.671 42.8682 112.671 21.9767C112.671 1.08527 88.6645 3.43669 88.6645 3.43669C88.6645 3.43669 69.0391 0.180875 69.1268 37.6227C69.2144 75.0646 69.302 119.832 69.302 119.832C69.302 119.832 70.0905 136.563 88.2265 136.473C106.362 136.382 109.254 125.078 109.166 114.496C109.078 103.915 101.193 98.9406 85.16 98.9406" stroke="#99E120" stroke-width="10" stroke-linecap="round" stroke-linejoin="round"/>
</g>
<defs>
<clipPath id="clip0_21_750">
<rect width="116" height="140" fill="white"/>
</clipPath>
</defs>
</svg>
