<svg width="119" height="122" viewBox="0 0 119 122" fill="none" xmlns="http://www.w3.org/2000/svg">
<g clip-path="url(#clip0_21_794)">
<path d="M59.5001 81.392C70.4221 81.392 79.2761 72.3214 79.2761 61.1321C79.2761 49.9429 70.4221 40.8722 59.5001 40.8722C48.5781 40.8722 39.7241 49.9429 39.7241 61.1321C39.7241 72.3214 48.5781 81.392 59.5001 81.392Z" stroke="#E831B6" stroke-width="10" stroke-linecap="round" stroke-linejoin="round"/>
<path d="M79.2764 61.1321L115.733 61.214" stroke="#E831B6" stroke-width="10" stroke-linecap="round" stroke-linejoin="round"/>
<path d="M115.733 45.9812L115.647 76.3711" stroke="#E831B6" stroke-width="10" stroke-linecap="round" stroke-linejoin="round"/>
<path d="M39.7242 61.0379L3.26758 60.956" stroke="#E831B6" stroke-width="10" stroke-linecap="round" stroke-linejoin="round"/>
<path d="M3.26758 45.8051V76.1949" stroke="#E831B6" stroke-width="10" stroke-linecap="round" stroke-linejoin="round"/>
<path d="M59.5005 40.8722L59.5865 3.34729" stroke="#E831B6" stroke-width="10" stroke-linecap="round" stroke-linejoin="round"/>
<path d="M44.7114 3.43536L74.4614 3.51727" stroke="#E831B6" stroke-width="10" stroke-linecap="round" stroke-linejoin="round"/>
<path d="M59.4141 81.392V118.741" stroke="#E831B6" stroke-width="10" stroke-linecap="round" stroke-linejoin="round"/>
<path d="M44.5391 118.653L74.2031 118.735" stroke="#E831B6" stroke-width="10" stroke-linecap="round" stroke-linejoin="round"/>
</g>
<defs>
<clipPath id="clip0_21_794">
<rect width="119" height="122" fill="white"/>
</clipPath>
</defs>
</svg>
