<svg width="160" height="165" viewBox="0 0 160 165" fill="none" xmlns="http://www.w3.org/2000/svg">
<g clip-path="url(#clip0_8_77)">
<path d="M131.457 84.2556C117.698 97.4103 109.982 80.4772 95.633 79.0894C70.2952 76.631 92.6151 119.031 91.618 128.555C90.8767 135.846 78.7449 140.311 73.8879 133.704C67.4213 124.857 74.3855 122.718 74.8167 115.987C75.1531 111.234 73.2194 106.622 73.5297 102.473C74.2262 93.0721 82.0716 78.9888 68.5363 78.2843C54.3288 77.5163 45.4186 82.1669 32.4228 86.4488C31.4289 79.7181 23.4215 68.4512 31.5482 63.4908C43.0481 56.5072 44.5815 67.0285 51.233 68.5489C53.8369 69.1484 71.4957 69.6694 72.9776 68.2426C80.4274 61.0453 67.2126 43.7955 63.3616 36.7951C63.4733 27.4736 83.7435 21.6882 85.6485 31.2001C86.5454 35.8329 81.1221 39.1955 80.8805 43.165C80.7407 45.4259 84.0298 68.157 84.863 69.1621C97.7157 84.5921 131.144 47.9588 131.445 84.204L131.457 84.2556Z" fill="#E831B6"/>
<path d="M129.729 86.6889L127.691 85.2414L129.729 86.6889ZM128.084 87.4735L128.146 84.9743L128.084 87.4735ZM127.016 87.447L126.954 89.9462L127.016 87.447ZM125.947 87.4205L126.009 84.9213L125.947 87.4205ZM124.076 88.0757L125.696 89.9802L124.076 88.0757ZM123.275 88.7573L124.894 90.6619L123.275 88.7573ZM122.473 89.439L120.854 87.5345L122.473 89.439ZM120.796 89.5553L119.44 91.6551V91.6551L120.796 89.5553ZM117.143 87.9494L116.925 85.459L117.143 87.9494ZM113.314 87.604L114.907 85.6772L113.314 87.604ZM111.823 86.3718L110.23 88.2985L111.823 86.3718ZM110.148 85.4892L109.459 87.8927L110.148 85.4892ZM109.217 85.2228L109.905 82.8193L109.217 85.2228ZM108.286 84.9563L108.974 82.5528L108.286 84.9563ZM106.824 83.7031L104.623 84.8874L106.824 83.7031ZM105.763 81.7297L107.965 80.5454L105.763 81.7297ZM104.325 80.3906L105.23 78.0602L104.325 80.3906ZM103.417 80.0382L104.322 77.7077L103.417 80.0382ZM102.51 79.6857L101.605 82.0162L102.51 79.6857ZM100.637 79.1615L100.199 81.6228L100.637 79.1615ZM98.7074 78.8179L99.1457 76.3566L98.7074 78.8179ZM96.764 79.0642L95.7816 76.7653L96.764 79.0642ZM94.8068 79.9005L95.7891 82.1995L94.8068 79.9005ZM92.8557 79.9046L91.8763 82.2047L92.8557 79.9046ZM91.8833 79.4905L92.8628 77.1904L91.8833 79.4905ZM90.9109 79.0764L89.9314 81.3766L90.9109 79.0764ZM89.2991 79.4292L91.2192 81.0301L89.2991 79.4292ZM86.4103 82.1862L85.3462 79.924L86.4103 82.1862ZM84.469 83.0994L85.5331 85.3616L84.469 83.0994ZM83.2441 84.5455L85.6654 85.1676L83.2441 84.5455ZM82.7355 86.5244L80.3142 85.9023L82.7355 86.5244ZM82.9417 88.4818L80.684 89.5557L82.9417 88.4818ZM83.8624 90.4176L86.12 89.3438L83.8624 90.4176ZM83.8483 92.3709L86.1007 93.4555L83.8483 92.3709ZM82.8993 94.3417L80.6468 93.2571L82.8993 94.3417ZM83.043 96.1837L81.0158 97.6468L83.043 96.1837ZM83.6612 97.0402L85.6884 95.5772L83.6612 97.0402ZM84.2794 97.8968L86.3066 96.4337L84.2794 97.8968ZM84.8309 99.7273L87.325 99.8983L84.8309 99.7273ZM84.6973 101.675L82.2032 101.504L84.6973 101.675ZM85.1828 103.477L87.2624 102.089L85.1828 103.477ZM86.2874 105.132L84.2078 106.52L86.2874 105.132ZM87.1673 106.838L89.5095 105.964L87.1673 106.838ZM87.495 107.716L85.1528 108.59V108.59L87.495 107.716ZM87.8227 108.594L90.165 107.72L87.8227 108.594ZM88.4897 110.349L86.1583 111.251L88.4897 110.349ZM88.8289 111.225L91.1603 110.322L88.8289 111.225ZM89.1682 112.101L91.4995 111.199L89.1682 112.101ZM89.3495 114.002L86.8787 113.622L89.3495 114.002ZM89.1799 117.964L86.8151 118.775L89.1799 117.964ZM90.4294 121.511L88.0929 122.4L90.4294 121.511ZM90.7666 122.397L93.1031 121.508L90.7666 122.397ZM91.1038 123.283L93.4403 122.394L91.1038 123.283ZM91.7481 125.114L89.3705 125.887L91.7481 125.114ZM92.0551 126.059L89.6775 126.832L92.0551 126.059ZM92.3622 127.004L94.7398 126.231L92.3622 127.004ZM92.3432 128.937L89.9691 128.154L92.3432 128.937ZM92.0173 129.925L94.3915 130.708L92.0173 129.925ZM91.6913 130.913L94.0655 131.696L91.6913 130.913ZM90.3681 132.241L89.5624 129.874L90.3681 132.241ZM88.3734 132.92L89.179 135.287L88.3734 132.92ZM86.8915 134.309L84.6217 133.261L86.8915 134.309ZM85.9225 136.408L88.1923 137.456L85.9225 136.408ZM84.4076 137.499L84.5089 139.997L84.4076 137.499ZM83.3772 137.541L83.2759 135.043L83.3772 137.541ZM82.3469 137.583L82.2455 135.085L82.3469 137.583ZM80.4586 137.108L79.1689 139.25L80.4586 137.108ZM79.6006 136.591L80.8903 134.45L79.6006 136.591ZM78.7427 136.075L80.0324 133.933L78.7427 136.075ZM77.1891 135.122L75.8616 137.241L77.1891 135.122ZM76.4935 134.686L77.8211 132.568L76.4935 134.686ZM75.7979 134.25L77.1255 132.132L75.7979 134.25ZM74.3205 133.238L72.8375 135.251L74.3205 133.238ZM72.7568 132.086L74.2398 130.074L72.7568 132.086ZM71.9838 130.552L74.4837 130.575L71.9838 130.552ZM72.0014 128.635L69.5015 128.612L72.0014 128.635ZM71.8849 126.758L74.362 126.42L71.8849 126.758ZM71.6343 124.922L69.1573 125.26L71.6343 124.922ZM71.9047 123.148L74.1739 124.197L71.9047 123.148ZM72.6963 121.436L70.4272 120.387L72.6963 121.436ZM73.8131 119.801L71.9784 118.103L73.8131 119.801ZM75.2553 118.243L77.0901 119.941L75.2553 118.243ZM75.374 116.488L73.2469 117.802V117.802L75.374 116.488ZM74.7716 115.513L72.6445 116.826L74.7716 115.513ZM74.1692 114.537L76.2963 113.224L74.1692 114.537ZM73.7345 112.615L71.2729 112.179V112.179L73.7345 112.615ZM73.9023 111.667L76.364 112.103L73.9023 111.667ZM74.0701 110.72L76.5318 111.156L74.0701 110.72ZM74.3341 108.814L71.8466 108.564L74.3341 108.814ZM74.4304 107.854L71.9429 107.605L74.4304 107.854ZM74.5267 106.895L77.0142 107.145L74.5267 106.895ZM74.7081 105.062L72.2199 104.82L74.7081 105.062ZM74.7932 104.188L77.2815 104.43L74.7932 104.188ZM74.8784 103.314L72.3902 103.072L74.8784 103.314ZM74.7225 101.479L72.2976 102.087L74.7225 101.479ZM74.2404 99.5575L76.6653 98.9492L74.2404 99.5575ZM74.016 97.6366L71.5164 97.5933L74.016 97.6366ZM74.0493 95.7167L71.5497 95.6733L74.0493 95.7167ZM74.6102 93.9172L76.7079 95.2772L74.6102 93.9172ZM75.1545 93.0778L73.0568 91.7177L75.1545 93.0778ZM75.6988 92.2383L73.6011 90.8783L75.6988 92.2383ZM76.5432 90.4742L78.921 91.2462L76.5432 90.4742ZM77.1437 88.6248L74.7659 87.8528L77.1437 88.6248ZM76.9127 86.7801L74.7476 88.03L76.9127 86.7801ZM75.8504 84.94L78.0154 83.69L75.8504 84.94ZM75.1577 83.1465L77.6161 82.6921L75.1577 83.1465ZM74.8349 81.3995L72.3765 81.8539L74.8349 81.3995ZM73.8286 80.2215L72.9807 82.5733L73.8286 80.2215ZM72.1391 79.6123L72.9871 77.2605L72.1391 79.6123ZM70.4064 78.954L71.3315 76.6315L70.4064 78.954ZM68.6304 78.2466L67.7053 80.5692L68.6304 78.2466ZM66.8078 78.1939L67.574 80.5736L66.8078 78.1939ZM64.9386 78.7957L64.1724 76.416L64.9386 78.7957ZM63.0748 79.0566L63.1823 76.5589L63.0748 79.0566ZM62.1455 79.0166L62.253 76.5189L62.1455 79.0166ZM61.2162 78.9766L61.1087 81.4743L61.2162 78.9766ZM59.3374 78.8903L59.2156 81.3873L59.3374 78.8903ZM57.4383 78.7976L57.5601 76.3006L57.4383 78.7976ZM55.632 79.2116L56.8154 81.4138L55.632 79.2116ZM54.7754 79.672L53.592 77.4698L54.7754 79.672ZM53.9187 80.1323L55.1021 82.3345L53.9187 80.1323ZM51.2333 80.9359L50.7722 78.4788L51.2333 80.9359ZM50.3189 81.1075L50.7801 83.5646L50.3189 81.1075ZM48.3987 81.2095L48.2261 83.7035L48.3987 81.2095ZM47.3928 81.1399L47.5653 78.6459L47.3928 81.1399ZM46.3869 81.0703L46.2144 83.5644L46.3869 81.0703ZM44.4399 81.1624L44.8632 83.6263L44.4399 81.1624ZM43.4987 81.3241L43.922 83.788V83.788L43.4987 81.3241ZM42.5575 81.4858L42.1342 79.0219L42.5575 81.4858ZM40.8115 82.1838L42.1978 84.2642L40.8115 82.1838ZM40.0066 82.7202L41.3929 84.8006L40.0066 82.7202ZM39.2017 83.2565L37.8154 81.1761L39.2017 83.2565ZM37.6053 84.3687L36.1345 82.3471L37.6053 84.3687ZM36.0222 85.5203L37.493 87.542L36.0222 85.5203ZM34.339 85.9763L34.6719 83.4986L34.339 85.9763ZM33.4472 85.8565L33.1143 88.3343L33.4472 85.8565ZM31.7056 84.6274L29.2078 84.5217L31.7056 84.6274ZM31.7893 82.6484L34.2871 82.7541L31.7893 82.6484ZM31.3292 80.8418L33.4594 79.5333L31.3292 80.8418ZM30.3254 79.2077L28.1952 80.5162L30.3254 79.2077ZM28.9288 75.7201L26.5583 76.5143L28.9288 75.7201ZM28.1846 72.0554L25.7163 72.4522L28.1846 72.0554ZM28.2351 70.2446L30.6742 70.793L28.2351 70.2446ZM28.6336 68.4725L31.0727 69.021L28.6336 68.4725ZM28.9931 66.5167L31.4655 66.8871L28.9931 66.5167ZM29.3137 64.3771L26.8413 64.0067L29.3137 64.3771ZM30.4035 62.8797L29.3587 60.6085L30.4035 62.8797ZM31.3331 62.4521L32.3778 64.7233L31.3331 62.4521ZM32.2626 62.0245L31.2178 59.7533L32.2626 62.0245ZM34.1796 61.5346L34.0221 59.0395V59.0395L34.1796 61.5346ZM36.1543 61.4099L36.3118 63.905V63.905L36.1543 61.4099ZM38.0854 61.3251L38.1451 63.8243L38.0854 61.3251ZM39.9727 61.2799L40.0325 63.7792L39.9727 61.2799ZM41.7653 61.7177L42.957 59.52V59.52L41.7653 61.7177ZM42.6143 62.178L41.4226 64.3757L42.6143 62.178ZM43.4632 62.6383L44.6548 60.4406L43.4632 62.6383ZM44.9445 63.8036L46.8056 62.1344L44.9445 63.8036ZM45.5768 64.5087L47.438 62.8395L45.5768 64.5087ZM46.2092 65.2138L44.3481 66.883L46.2092 65.2138ZM47.6632 66.3172L46.5724 68.5667L47.6632 66.3172ZM49.3065 67.114L50.3972 64.8645L49.3065 67.114ZM50.9883 67.6916L50.4785 70.1391L50.9883 67.6916ZM52.7088 68.0501L53.2187 65.6026L52.7088 68.0501ZM54.4847 68.6541L55.5369 66.3863L54.4847 68.6541ZM55.4003 69.0789L56.4524 66.8111L55.4003 69.0789ZM56.3158 69.5037L57.368 67.2359L56.3158 69.5037ZM58.1768 69.7955L58.5249 72.2712L58.1768 69.7955ZM60.0676 69.5296L59.7194 67.054L60.0676 69.5296ZM61.9564 69.6982L62.7174 67.3168L61.9564 69.6982ZM62.8998 69.9997L63.6609 67.6183L62.8998 69.9997ZM63.8433 70.3012L63.0823 72.6826L63.8433 70.3012ZM65.7182 70.1909L64.7074 67.9044L65.7182 70.1909ZM67.5811 69.3674L68.5919 71.654L67.5811 69.3674ZM69.5359 69.2006L68.9541 71.6319L69.5359 69.2006ZM70.5593 69.4455L71.1411 67.0141L70.5593 69.4455ZM71.5826 69.6904L71.0008 72.1217L71.5826 69.6904ZM72.9455 68.8446L75.3325 69.5876L72.9455 68.8446ZM73.285 67.7539L70.898 67.0108L73.285 67.7539ZM73.6245 66.6632L76.0115 67.4062L73.6245 66.6632ZM74.3698 64.7172L76.6285 65.7888L74.3698 64.7172ZM75.1813 63.0067L72.9226 61.9351L75.1813 63.0067ZM75.6513 61.1529L78.1462 61.3135L75.6513 61.1529ZM75.7799 59.1557L78.2747 59.3163L75.7799 59.1557ZM75.5499 57.2249L73.1659 57.9775L75.5499 57.2249ZM74.9614 55.3604L77.3454 54.6079L74.9614 55.3604ZM74.2317 53.5701L72.0023 54.7013L74.2317 53.5701ZM73.7962 52.7119L76.0256 51.5807L73.7962 52.7119ZM73.3608 51.8538L75.5902 50.7225L73.3608 51.8538ZM69.9304 49.3982L68.7539 51.604L69.9304 49.3982ZM68.959 47.7688L71.4583 47.8301L68.959 47.7688ZM69.0127 45.5751L66.5135 45.5139L69.0127 45.5751ZM68.4839 43.7163L70.5037 42.2431L68.4839 43.7163ZM67.3726 42.1927L65.3528 43.6659L67.3726 42.1927ZM66.0265 40.8133L64.4872 42.7832L66.0265 40.8133ZM65.236 40.1957L66.7753 38.2257L65.236 40.1957ZM64.4456 39.5781L62.9064 41.548L64.4456 39.5781ZM63.5875 37.9744L61.0934 38.1455L63.5875 37.9744ZM63.5199 36.9884L61.0257 37.1595L63.5199 36.9884ZM63.4522 36.0024L65.9464 35.8313L63.4522 36.0024ZM64.0494 34.3538L62.2848 32.583L64.0494 34.3538ZM65.3792 33.0287L67.1439 34.7996L65.3792 33.0287ZM66.5106 31.4871L68.7189 32.6591L66.5106 31.4871ZM67.4436 29.7291L65.2353 28.5571L67.4436 29.7291ZM68.7767 28.4189L69.8904 30.6571L68.7767 28.4189ZM69.6434 27.9877L70.757 30.2259L69.6434 27.9877ZM70.51 27.5565L69.3964 25.3182L70.51 27.5565ZM72.321 26.9487L72.7805 29.4061L72.321 26.9487ZM76.0808 26.6955L76.7953 24.2998L76.0808 26.6955ZM77.9349 27.2484L77.2204 29.6441L77.9349 27.2484ZM79.7822 27.4488L79.9882 29.9403L79.7822 27.4488ZM81.6229 27.2967L81.4169 24.8052L81.6229 27.2967ZM83.6323 29.5645L85.8995 28.511L83.6323 29.5645ZM84.4858 31.1362L86.61 29.818L84.4858 31.1362ZM85.4667 32.7168L87.5909 31.3986L85.4667 32.7168ZM85.3045 34.2222L87.1509 35.9076L85.3045 34.2222ZM84.6518 34.9371L86.4982 36.6226L84.6518 34.9371ZM83.9991 35.6521L82.1528 33.9666L83.9991 35.6521ZM82.7437 37.1071L80.8053 35.5283L82.7437 37.1071ZM80.6959 40.372L78.2591 39.8131L80.6959 40.372ZM80.4562 41.4168L78.0195 40.8579L80.4562 41.4168ZM80.2165 42.4617L82.6532 43.0206L80.2165 42.4617ZM80.1087 44.4561L82.585 44.1121L80.1087 44.4561ZM80.3725 46.3552L77.8963 46.6992L80.3725 46.3552ZM81.1495 48.1675L83.1516 46.6703L81.1495 48.1675ZM82.4396 49.8927L84.4417 48.3956L82.4396 49.8927ZM82.7496 51.7474L85.1183 52.5472L82.7496 51.7474ZM82.0797 53.7316L84.4483 54.5313L82.0797 53.7316ZM81.6827 55.6836L79.1879 55.5223L81.6827 55.6836ZM81.6206 56.6435L84.1154 56.8048L81.6206 56.6435ZM81.5586 57.6034L84.0533 57.7647L81.5586 57.6034ZM81.5928 59.5015L84.0797 59.2463L81.5928 59.5015ZM81.7853 61.3778L79.2983 61.633L81.7853 61.3778ZM82.7625 63.1115L81.087 64.9669L82.7625 63.1115ZM84.5245 64.7026L86.2 62.8472V62.8472L84.5245 64.7026ZM85.2027 66.5529L82.7477 66.0811L85.2027 66.5529ZM84.7973 68.6624L87.2524 69.1342L84.7973 68.6624ZM85.2829 70.4662L83.442 72.1577L85.2829 70.4662ZM86.6595 71.9644L88.5004 70.2729L86.6595 71.9644ZM88.3901 72.6422L88.5606 75.1364L88.3901 72.6422ZM90.4749 72.4998L90.3045 70.0056L90.4749 72.4998ZM92.4352 72.7566L91.5937 75.1108L92.4352 72.7566ZM94.271 73.4128L95.1125 71.0587L94.271 73.4128ZM96.1145 73.4933L96.7607 75.9083L96.1145 73.4933ZM97.9658 72.9979L97.3196 70.5829L97.9658 72.9979ZM99.7206 72.2128L101.08 74.3108L99.7206 72.2128ZM103.243 70.8278L102.707 73.2697L103.243 70.8278ZM105.313 71.282L105.849 68.8401L105.313 71.282ZM107.197 71.0715L108.343 73.2935L107.197 71.0715ZM108.894 70.1963L107.749 67.9743L108.894 70.1963ZM110.647 69.5072L109.977 67.0987L110.647 69.5072ZM112.454 69.0045L113.124 71.413L112.454 69.0045ZM114.274 68.553L113.741 66.1106L114.274 68.553ZM116.106 68.1529L115.572 65.7105L116.106 68.1529ZM117.953 67.5407L118.965 69.8268L117.953 67.5407ZM118.884 67.1286L117.872 64.8425L118.884 67.1286ZM119.815 66.7165L118.803 64.4304L119.815 66.7165ZM121.723 66.595L122.436 64.1989L121.723 66.595ZM123.676 67.1763L122.962 69.5724L123.676 67.1763ZM125.483 68.0196L126.868 65.9383L125.483 68.0196ZM126.313 68.5722L127.698 66.491L126.313 68.5722ZM127.143 69.1249L125.758 71.2061L127.143 69.1249ZM128.669 72.5387L126.24 73.1293L128.669 72.5387ZM129.377 74.2994L127.224 75.5695L129.377 74.2994ZM130.329 75.9133L132.483 74.6432L130.329 75.9133ZM130.793 77.665L128.294 77.6339L130.793 77.665ZM130.782 78.6098L128.282 78.5787L130.782 78.6098ZM130.77 79.5547L133.27 79.5858L130.77 79.5547ZM130.981 81.4203L128.552 82.0094L130.981 81.4203ZM131.205 82.3411L133.634 81.7521L131.205 82.3411ZM131.428 83.262L128.998 83.851L131.428 83.262ZM131.603 84.201L130.724 81.8605L131.603 84.201ZM131.554 84.2192L132.433 86.5597L131.554 84.2192ZM131.506 84.2374L132.384 86.5779L131.506 84.2374ZM130.881 85.0667L132.919 86.5142L130.881 85.0667ZM130.305 85.8778L128.267 84.4303L127.691 85.2414L129.729 86.6889L131.767 88.1364L132.343 87.3253L130.305 85.8778ZM129.729 86.6889L127.691 85.2414C127.722 85.1973 127.809 85.1033 127.954 85.0342C128.091 84.9685 128.177 84.975 128.146 84.9743L128.084 87.4735L128.022 89.9727C129.493 90.0092 130.861 89.4132 131.767 88.1364L129.729 86.6889ZM128.084 87.4735L128.146 84.9743L127.078 84.9478L127.016 87.447L126.954 89.9462L128.022 89.9727L128.084 87.4735ZM127.016 87.447L127.078 84.9478L126.009 84.9213L125.947 87.4205L125.885 89.9197L126.954 89.9462L127.016 87.447ZM125.947 87.4205L126.009 84.9213C124.693 84.8886 123.468 85.3115 122.457 86.1711L124.076 88.0757L125.696 89.9802C125.744 89.9396 125.767 89.9319 125.771 89.9305C125.776 89.9288 125.807 89.9178 125.885 89.9197L125.947 87.4205ZM124.076 88.0757L122.457 86.1711L121.655 86.8528L123.275 88.7573L124.894 90.6619L125.696 89.9802L124.076 88.0757ZM123.275 88.7573L121.655 86.8528L120.854 87.5345L122.473 89.439L124.092 91.3436L124.894 90.6619L123.275 88.7573ZM122.473 89.439L120.854 87.5345C120.889 87.5041 121.105 87.3409 121.48 87.3149C121.858 87.2887 122.102 87.4222 122.153 87.4556L120.796 89.5553L119.44 91.6551C120.074 92.0653 120.889 92.3679 121.826 92.3029C122.76 92.2382 123.522 91.8284 124.092 91.3436L122.473 89.439ZM120.796 89.5553L122.153 87.4556L121.278 86.8902L119.921 88.9899L118.565 91.0897L119.44 91.6551L120.796 89.5553ZM119.921 88.9899L121.278 86.8902L120.403 86.3248L119.047 88.4246L117.69 90.5243L118.565 91.0897L119.921 88.9899ZM119.047 88.4246L120.403 86.3248C119.358 85.6491 118.17 85.3497 116.925 85.459L117.143 87.9494L117.362 90.4398C117.488 90.4288 117.569 90.4462 117.69 90.5243L119.047 88.4246ZM117.143 87.9494L116.925 85.459L115.897 85.5492L116.115 88.0396L116.334 90.53L117.362 90.4398L117.143 87.9494ZM116.115 88.0396L115.897 85.5492L114.868 85.6394L115.087 88.1298L115.305 90.6203L116.334 90.53L116.115 88.0396ZM115.087 88.1298L114.868 85.6394C114.834 85.6424 114.817 85.6411 114.815 85.6409C114.814 85.6408 114.823 85.6416 114.84 85.6466C114.857 85.6517 114.875 85.6589 114.89 85.6669C114.904 85.6747 114.91 85.6799 114.907 85.6772L113.314 87.604L111.721 89.5307C112.76 90.3903 114.014 90.7335 115.305 90.6203L115.087 88.1298ZM113.314 87.604L114.907 85.6772L114.162 85.0612L112.569 86.9879L110.975 88.9146L111.721 89.5307L113.314 87.604ZM112.569 86.9879L114.162 85.0612L113.416 84.4451L111.823 86.3718L110.23 88.2985L110.975 88.9146L112.569 86.9879ZM111.823 86.3718L113.416 84.4451C112.654 83.8145 111.787 83.3582 110.836 83.0858L110.148 85.4892L109.459 87.8927C109.749 87.9756 110 88.1077 110.23 88.2985L111.823 86.3718ZM110.148 85.4892L110.836 83.0858L109.905 82.8193L109.217 85.2228L108.529 87.6262L109.459 87.8927L110.148 85.4892ZM109.217 85.2228L109.905 82.8193L108.974 82.5528L108.286 84.9563L107.598 87.3597L108.529 87.6262L109.217 85.2228ZM108.286 84.9563L108.974 82.5528C108.986 82.5563 109.006 82.5635 109.029 82.576C109.052 82.5884 109.071 82.6017 109.083 82.6119C109.094 82.6218 109.094 82.6238 109.084 82.6115C109.074 82.5987 109.054 82.5699 109.026 82.5188L106.824 83.7031L104.623 84.8874C105.241 86.0376 106.226 86.967 107.598 87.3597L108.286 84.9563ZM106.824 83.7031L109.026 82.5188L108.495 81.5321L106.294 82.7164L104.092 83.9007L104.623 84.8874L106.824 83.7031ZM106.294 82.7164L108.495 81.5321L107.965 80.5454L105.763 81.7297L103.561 82.914L104.092 83.9007L106.294 82.7164ZM105.763 81.7297L107.965 80.5454C107.374 79.4471 106.472 78.5427 105.23 78.0602L104.325 80.3906L103.42 82.7211C103.424 82.7227 103.425 82.7221 103.434 82.7313C103.448 82.744 103.496 82.7928 103.561 82.914L105.763 81.7297ZM104.325 80.3906L105.23 78.0602L104.322 77.7077L103.417 80.0382L102.512 82.3686L103.42 82.7211L104.325 80.3906ZM103.417 80.0382L104.322 77.7077L103.414 77.3553L102.51 79.6857L101.605 82.0162L102.512 82.3686L103.417 80.0382ZM102.51 79.6857L103.414 77.3553C102.657 77.0613 101.877 76.8429 101.075 76.7002L100.637 79.1615L100.199 81.6228C100.684 81.7091 101.151 81.8402 101.605 82.0162L102.51 79.6857ZM100.637 79.1615L101.075 76.7002L100.111 76.5284L99.6723 78.9897L99.234 81.451L100.199 81.6228L100.637 79.1615ZM99.6723 78.9897L100.111 76.5284L99.1457 76.3566L98.7074 78.8179L98.2691 81.2792L99.234 81.451L99.6723 78.9897ZM98.7074 78.8179L99.1457 76.3566C97.982 76.1494 96.8415 76.3124 95.7816 76.7653L96.764 79.0642L97.7463 81.3632C97.9912 81.2585 98.1464 81.2573 98.2691 81.2792L98.7074 78.8179ZM96.764 79.0642L95.7816 76.7653L94.803 77.1835L95.7854 79.4824L96.7677 81.7813L97.7463 81.3632L96.764 79.0642ZM95.7854 79.4824L94.803 77.1835L93.8244 77.6016L94.8068 79.9005L95.7891 82.1995L96.7677 81.7813L95.7854 79.4824ZM94.8068 79.9005L93.8244 77.6016C93.7991 77.6124 93.7888 77.6142 93.7923 77.6135C93.7938 77.6131 93.7977 77.6124 93.8037 77.6117C93.8097 77.6111 93.8168 77.6107 93.8245 77.6106C93.8323 77.6106 93.8396 77.611 93.8461 77.6117C93.8526 77.6124 93.8573 77.6132 93.8597 77.6138C93.8652 77.6149 93.8575 77.6139 93.8352 77.6045L92.8557 79.9046L91.8763 82.2047C93.1562 82.7498 94.5151 82.7438 95.7891 82.1995L94.8068 79.9005ZM92.8557 79.9046L93.8352 77.6045L92.8628 77.1904L91.8833 79.4905L90.9038 81.7906L91.8763 82.2047L92.8557 79.9046ZM91.8833 79.4905L92.8628 77.1904L91.8904 76.7763L90.9109 79.0764L89.9314 81.3766L90.9038 81.7906L91.8833 79.4905ZM90.9109 79.0764L91.8904 76.7763C91.2229 76.4921 90.3892 76.318 89.4873 76.5154C88.5693 76.7163 87.8707 77.2384 87.379 77.8282L89.2991 79.4292L91.2192 81.0301C91.1537 81.1087 90.9369 81.3164 90.5562 81.3998C90.1916 81.4796 89.9506 81.3847 89.9314 81.3766L90.9109 79.0764ZM89.2991 79.4292L87.379 77.8282L86.7396 78.595L88.6597 80.196L90.5799 81.797L91.2192 81.0301L89.2991 79.4292ZM88.6597 80.196L86.7396 78.595L86.1002 79.3619L88.0203 80.9628L89.9405 82.5638L90.5799 81.797L88.6597 80.196ZM88.0203 80.9628L86.1002 79.3619C85.9247 79.5724 85.6881 79.7632 85.3462 79.924L86.4103 82.1862L87.4744 84.4485C88.4267 84.0005 89.2635 83.3757 89.9405 82.5638L88.0203 80.9628ZM86.4103 82.1862L85.3462 79.924L84.3756 80.3806L85.4396 82.6428L86.5037 84.905L87.4744 84.4485L86.4103 82.1862ZM85.4396 82.6428L84.3756 80.3806L83.4049 80.8372L84.469 83.0994L85.5331 85.3616L86.5037 84.905L85.4396 82.6428ZM84.469 83.0994L83.4049 80.8372C82.1223 81.4405 81.188 82.5016 80.8227 83.9233L83.2441 84.5455L85.6654 85.1676C85.6656 85.1668 85.6611 85.1841 85.6466 85.2129C85.6317 85.2424 85.6109 85.2745 85.585 85.3051C85.5288 85.3714 85.4909 85.3815 85.5331 85.3616L84.469 83.0994ZM83.2441 84.5455L80.8227 83.9233L80.5685 84.9128L82.9898 85.5349L85.4111 86.1571L85.6654 85.1676L83.2441 84.5455ZM82.9898 85.5349L80.5685 84.9128L80.3142 85.9023L82.7355 86.5244L85.1569 87.1466L85.4111 86.1571L82.9898 85.5349ZM82.7355 86.5244L80.3142 85.9023C79.9914 87.1585 80.139 88.4098 80.684 89.5557L82.9417 88.4818L85.1993 87.408C85.1305 87.2633 85.1407 87.2098 85.1569 87.1466L82.7355 86.5244ZM82.9417 88.4818L80.684 89.5557L81.1444 90.5235L83.402 89.4497L85.6597 88.3759L85.1993 87.408L82.9417 88.4818ZM83.402 89.4497L81.1444 90.5235L81.6048 91.4914L83.8624 90.4176L86.12 89.3438L85.6597 88.3759L83.402 89.4497ZM83.8624 90.4176L81.6048 91.4914C81.6101 91.5027 81.6052 91.4951 81.5994 91.4703C81.5935 91.4446 81.5888 91.4105 81.5891 91.3718C81.5894 91.3333 81.5944 91.3026 81.5991 91.2834C81.6036 91.2652 81.6057 91.2657 81.5958 91.2863L83.8483 92.3709L86.1007 93.4555C86.7375 92.1332 86.7595 90.6883 86.12 89.3438L83.8624 90.4176ZM83.8483 92.3709L81.5958 91.2863L81.1213 92.2717L83.3738 93.3563L85.6262 94.4409L86.1007 93.4555L83.8483 92.3709ZM83.3738 93.3563L81.1213 92.2717L80.6468 93.2571L82.8993 94.3417L85.1518 95.4263L85.6262 94.4409L83.3738 93.3563ZM82.8993 94.3417L80.6468 93.2571C80.3326 93.9097 80.1414 94.6675 80.2055 95.4894C80.2701 96.3166 80.5805 97.0436 81.0158 97.6468L83.043 96.1837L85.0702 94.7206C85.0933 94.7527 85.1738 94.8872 85.1904 95.1004C85.2066 95.3084 85.1497 95.4307 85.1518 95.4263L82.8993 94.3417ZM83.043 96.1837L81.0158 97.6468L81.634 98.5033L83.6612 97.0402L85.6884 95.5772L85.0702 94.7206L83.043 96.1837ZM83.6612 97.0402L81.634 98.5033L82.2522 99.3599L84.2794 97.8968L86.3066 96.4337L85.6884 95.5772L83.6612 97.0402ZM84.2794 97.8968L82.2522 99.3599C82.3127 99.4437 82.3288 99.4911 82.3326 99.5038C82.3357 99.5138 82.3388 99.5262 82.3367 99.5564L84.8309 99.7273L87.325 99.8983C87.4128 98.6171 87.0303 97.4365 86.3066 96.4337L84.2794 97.8968ZM84.8309 99.7273L82.3367 99.5564L82.2699 100.53L84.7641 100.701L87.2582 100.872L87.325 99.8983L84.8309 99.7273ZM84.7641 100.701L82.2699 100.53L82.2032 101.504L84.6973 101.675L87.1915 101.846L87.2582 100.872L84.7641 100.701ZM84.6973 101.675L82.2032 101.504C82.1201 102.716 82.4349 103.863 83.1033 104.865L85.1828 103.477L87.2624 102.089C87.1944 101.988 87.1855 101.933 87.1915 101.846L84.6973 101.675ZM85.1828 103.477L83.1033 104.865L83.6555 105.692L85.7351 104.305L87.8146 102.917L87.2624 102.089L85.1828 103.477ZM85.7351 104.305L83.6555 105.692L84.2078 106.52L86.2874 105.132L88.3669 103.745L87.8146 102.917L85.7351 104.305ZM86.2874 105.132L84.2078 106.52C84.4755 106.921 84.6781 107.318 84.8251 107.712L87.1673 106.838L89.5095 105.964C89.2196 105.187 88.8356 104.447 88.3669 103.745L86.2874 105.132ZM87.1673 106.838L84.8251 107.712L85.1528 108.59L87.495 107.716L89.8373 106.842L89.5095 105.964L87.1673 106.838ZM87.495 107.716L85.1528 108.59L85.4805 109.468L87.8227 108.594L90.165 107.72L89.8373 106.842L87.495 107.716ZM87.8227 108.594L85.4805 109.468C85.7026 110.063 85.9285 110.658 86.1583 111.251L88.4897 110.349L90.8211 109.446C90.5986 108.871 90.3799 108.296 90.165 107.72L87.8227 108.594ZM88.4897 110.349L86.1583 111.251L86.4976 112.128L88.8289 111.225L91.1603 110.322L90.8211 109.446L88.4897 110.349ZM88.8289 111.225L86.4976 112.128L86.8368 113.004L89.1682 112.101L91.4995 111.199L91.1603 110.322L88.8289 111.225ZM89.1682 112.101L86.8368 113.004C86.889 113.139 86.9244 113.325 86.8787 113.622L89.3495 114.002L91.8204 114.383C91.9852 113.313 91.8997 112.232 91.4995 111.199L89.1682 112.101ZM89.3495 114.002L86.8787 113.622L86.7208 114.647L89.1917 115.027L91.6625 115.408L91.8204 114.383L89.3495 114.002ZM89.1917 115.027L86.7208 114.647L86.5629 115.672L89.0338 116.052L91.5046 116.433L91.6625 115.408L89.1917 115.027ZM89.0338 116.052L86.5629 115.672C86.4027 116.712 86.4677 117.762 86.8151 118.775L89.1799 117.964L91.5448 117.153C91.4868 116.984 91.4543 116.759 91.5046 116.433L89.0338 116.052ZM89.1799 117.964L86.8151 118.775L87.1191 119.662L89.484 118.851L91.8489 118.04L91.5448 117.153L89.1799 117.964ZM89.484 118.851L87.1191 119.662L87.4232 120.549L89.7881 119.738L92.1529 118.927L91.8489 118.04L89.484 118.851ZM89.7881 119.738L87.4232 120.549C87.635 121.167 87.8582 121.784 88.0929 122.4L90.4294 121.511L92.7659 120.622C92.5508 120.057 92.3465 119.492 92.1529 118.927L89.7881 119.738ZM90.4294 121.511L88.0929 122.4L88.4301 123.286L90.7666 122.397L93.1031 121.508L92.7659 120.622L90.4294 121.511ZM90.7666 122.397L88.4301 123.286L88.7673 124.172L91.1038 123.283L93.4403 122.394L93.1031 121.508L90.7666 122.397ZM91.1038 123.283L88.7673 124.172C88.9768 124.723 89.1779 125.294 89.3705 125.887L91.7481 125.114L94.1258 124.342C93.9089 123.674 93.6805 123.025 93.4403 122.394L91.1038 123.283ZM91.7481 125.114L89.3705 125.887L89.6775 126.832L92.0551 126.059L94.4328 125.287L94.1258 124.342L91.7481 125.114ZM92.0551 126.059L89.6775 126.832L89.9845 127.777L92.3622 127.004L94.7398 126.231L94.4328 125.287L92.0551 126.059ZM92.3622 127.004L89.9845 127.777C90.0168 127.876 90.0282 127.975 89.9691 128.154L92.3432 128.937L94.7174 129.72C95.0929 128.582 95.1169 127.392 94.7398 126.231L92.3622 127.004ZM92.3432 128.937L89.9691 128.154L89.6431 129.142L92.0173 129.925L94.3915 130.708L94.7174 129.72L92.3432 128.937ZM92.0173 129.925L89.6431 129.142L89.3172 130.13L91.6913 130.913L94.0655 131.696L94.3915 130.708L92.0173 129.925ZM91.6913 130.913L89.3172 130.13C89.3169 130.131 89.3434 130.058 89.4269 129.974C89.5095 129.892 89.5767 129.869 89.5624 129.874L90.3681 132.241L91.1737 134.608C92.5699 134.132 93.599 133.111 94.0655 131.696L91.6913 130.913ZM90.3681 132.241L89.5624 129.874L88.5651 130.214L89.3707 132.58L90.1764 134.947L91.1737 134.608L90.3681 132.241ZM89.3707 132.58L88.5651 130.214L87.5677 130.553L88.3734 132.92L89.179 135.287L90.1764 134.947L89.3707 132.58ZM88.3734 132.92L87.5677 130.553C86.1882 131.023 85.2007 132.007 84.6217 133.261L86.8915 134.309L89.1613 135.357C89.1844 135.307 89.2024 135.279 89.2113 135.266C89.2199 135.254 89.2213 135.254 89.2139 135.261C89.2063 135.268 89.1958 135.276 89.1849 135.283C89.1741 135.289 89.1706 135.289 89.179 135.287L88.3734 132.92ZM86.8915 134.309L84.6217 133.261L84.1372 134.311L86.407 135.359L88.6768 136.406L89.1613 135.357L86.8915 134.309ZM86.407 135.359L84.1372 134.311L83.6527 135.36L85.9225 136.408L88.1923 137.456L88.6768 136.406L86.407 135.359ZM85.9225 136.408L83.6527 135.36C83.6292 135.411 83.6692 135.3 83.8402 135.177C84.0264 135.043 84.2134 135.005 84.3062 135.001L84.4076 137.499L84.5089 139.997C85.2887 139.966 86.0717 139.732 86.7628 139.234C87.4388 138.747 87.8928 138.105 88.1923 137.456L85.9225 136.408ZM84.4076 137.499L84.3062 135.001L83.2759 135.043L83.3772 137.541L83.4786 140.039L84.5089 139.997L84.4076 137.499ZM83.3772 137.541L83.2759 135.043L82.2455 135.085L82.3469 137.583L82.4482 140.081L83.4786 140.039L83.3772 137.541ZM82.3469 137.583L82.2455 135.085C82.0318 135.094 81.8884 135.051 81.7483 134.966L80.4586 137.108L79.1689 139.25C80.1727 139.854 81.2881 140.128 82.4482 140.081L82.3469 137.583ZM80.4586 137.108L81.7483 134.966L80.8903 134.45L79.6006 136.591L78.3109 138.733L79.1689 139.25L80.4586 137.108ZM79.6006 136.591L80.8903 134.45L80.0324 133.933L78.7427 136.075L77.453 138.216L78.3109 138.733L79.6006 136.591ZM78.7427 136.075L80.0324 133.933C79.4705 133.595 78.9655 133.285 78.5167 133.004L77.1891 135.122L75.8616 137.241C76.3402 137.541 76.871 137.866 77.453 138.216L78.7427 136.075ZM77.1891 135.122L78.5167 133.004L77.8211 132.568L76.4935 134.686L75.166 136.805L75.8616 137.241L77.1891 135.122ZM76.4935 134.686L77.8211 132.568L77.1255 132.132L75.7979 134.25L74.4704 136.369L75.166 136.805L76.4935 134.686ZM75.7979 134.25L77.1255 132.132C76.7234 131.88 76.2831 131.579 75.8035 131.226L74.3205 133.238L72.8375 135.251C73.4003 135.666 73.945 136.039 74.4704 136.369L75.7979 134.25ZM74.3205 133.238L75.8035 131.226L75.0216 130.65L73.5386 132.662L72.0556 134.675L72.8375 135.251L74.3205 133.238ZM73.5386 132.662L75.0216 130.65L74.2398 130.074L72.7568 132.086L71.2738 134.099L72.0556 134.675L73.5386 132.662ZM72.7568 132.086L74.2398 130.074C74.2538 130.084 74.3356 130.151 74.4053 130.29C74.4756 130.429 74.484 130.542 74.4837 130.575L71.9838 130.552L69.4839 130.529C69.4705 131.982 70.1167 133.246 71.2738 134.099L72.7568 132.086ZM71.9838 130.552L74.4837 130.575L74.4925 129.616L71.9926 129.593L69.4927 129.57L69.4839 130.529L71.9838 130.552ZM71.9926 129.593L74.4925 129.616L74.5013 128.658L72.0014 128.635L69.5015 128.612L69.4927 129.57L71.9926 129.593ZM72.0014 128.635L74.5013 128.658C74.5083 127.902 74.4624 127.156 74.362 126.42L71.8849 126.758L69.4079 127.096C69.4746 127.585 69.5064 128.089 69.5015 128.612L72.0014 128.635ZM71.8849 126.758L74.362 126.42L74.2366 125.502L71.7596 125.84L69.2826 126.178L69.4079 127.096L71.8849 126.758ZM71.7596 125.84L74.2366 125.502L74.1113 124.584L71.6343 124.922L69.1573 125.26L69.2826 126.178L71.7596 125.84ZM71.6343 124.922L74.1113 124.584C74.0935 124.453 74.1066 124.342 74.1739 124.197L71.9047 123.148L69.6356 122.098C69.1752 123.094 69.008 124.166 69.1573 125.26L71.6343 124.922ZM71.9047 123.148L74.1739 124.197L74.5696 123.341L72.3005 122.292L70.0314 121.242L69.6356 122.098L71.9047 123.148ZM72.3005 122.292L74.5696 123.341L74.9654 122.485L72.6963 121.436L70.4272 120.387L70.0314 121.242L72.3005 122.292ZM72.6963 121.436L74.9654 122.485C75.1065 122.18 75.323 121.85 75.6479 121.499L73.8131 119.801L71.9784 118.103C71.3419 118.791 70.8138 119.551 70.4272 120.387L72.6963 121.436ZM73.8131 119.801L75.6479 121.499L76.369 120.72L74.5342 119.022L72.6994 117.324L71.9784 118.103L73.8131 119.801ZM74.5342 119.022L76.369 120.72L77.0901 119.941L75.2553 118.243L73.4205 116.545L72.6994 117.324L74.5342 119.022ZM75.2553 118.243L77.0901 119.941C77.6353 119.352 78.0739 118.557 78.1398 117.583C78.2041 116.633 77.893 115.809 77.5011 115.175L75.374 116.488L73.2469 117.802C73.2566 117.817 73.1265 117.612 73.1512 117.246C73.1775 116.857 73.3561 116.614 73.4205 116.545L75.2553 118.243ZM75.374 116.488L77.5011 115.175L76.8987 114.199L74.7716 115.513L72.6445 116.826L73.2469 117.802L75.374 116.488ZM74.7716 115.513L76.8987 114.199L76.2963 113.224L74.1692 114.537L72.0421 115.851L72.6445 116.826L74.7716 115.513ZM74.1692 114.537L76.2963 113.224C76.2175 113.096 76.2003 113.028 76.1978 113.018C76.1965 113.012 76.1977 113.015 76.1979 113.025C76.1982 113.035 76.1973 113.044 76.1962 113.051L73.7345 112.615L71.2729 112.179C71.0341 113.527 71.3832 114.784 72.0421 115.851L74.1692 114.537ZM73.7345 112.615L76.1962 113.051L76.364 112.103L73.9023 111.667L71.4406 111.231L71.2729 112.179L73.7345 112.615ZM73.9023 111.667L76.364 112.103L76.5318 111.156L74.0701 110.72L71.6084 110.284L71.4406 111.231L73.9023 111.667ZM74.0701 110.72L76.5318 111.156C76.6546 110.463 76.7512 109.765 76.8216 109.063L74.3341 108.814L71.8466 108.564C71.7887 109.141 71.7093 109.715 71.6084 110.284L74.0701 110.72ZM74.3341 108.814L76.8216 109.063L76.9179 108.104L74.4304 107.854L71.9429 107.605L71.8466 108.564L74.3341 108.814ZM74.4304 107.854L76.9179 108.104L77.0142 107.145L74.5267 106.895L72.0392 106.645L71.9429 107.605L74.4304 107.854ZM74.5267 106.895L77.0142 107.145C77.0786 106.503 77.1393 105.89 77.1963 105.304L74.7081 105.062L72.2199 104.82C72.1634 105.4 72.1031 106.008 72.0392 106.645L74.5267 106.895ZM74.7081 105.062L77.1963 105.304L77.2815 104.43L74.7932 104.188L72.305 103.946L72.2199 104.82L74.7081 105.062ZM74.7932 104.188L77.2815 104.43L77.3666 103.556L74.8784 103.314L72.3902 103.072L72.305 103.946L74.7932 104.188ZM74.8784 103.314L77.3666 103.556C77.4545 102.655 77.3689 101.754 77.1474 100.871L74.7225 101.479L72.2976 102.087C72.3975 102.485 72.4159 102.808 72.3902 103.072L74.8784 103.314ZM74.7225 101.479L77.1474 100.871L76.9063 99.91L74.4815 100.518L72.0566 101.127L72.2976 102.087L74.7225 101.479ZM74.4815 100.518L76.9063 99.91L76.6653 98.9492L74.2404 99.5575L71.8156 100.166L72.0566 101.127L74.4815 100.518ZM74.2404 99.5575L76.6653 98.9492C76.5563 98.5148 76.5085 98.0935 76.5157 97.68L74.016 97.6366L71.5164 97.5933C71.5014 98.4597 71.6032 99.319 71.8156 100.166L74.2404 99.5575ZM74.016 97.6366L76.5157 97.68L76.5323 96.72L74.0327 96.6766L71.5331 96.6333L71.5164 97.5933L74.016 97.6366ZM74.0327 96.6766L76.5323 96.72L76.549 95.76L74.0493 95.7167L71.5497 95.6733L71.5331 96.6333L74.0327 96.6766ZM74.0493 95.7167L76.549 95.76C76.5516 95.6081 76.5884 95.4616 76.7079 95.2772L74.6102 93.9172L72.5125 92.5572C71.9064 93.4922 71.5693 94.5453 71.5497 95.6733L74.0493 95.7167ZM74.6102 93.9172L76.7079 95.2772L77.2522 94.4378L75.1545 93.0778L73.0568 91.7177L72.5125 92.5572L74.6102 93.9172ZM75.1545 93.0778L77.2522 94.4378L77.7965 93.5983L75.6988 92.2383L73.6011 90.8783L73.0568 91.7177L75.1545 93.0778ZM75.6988 92.2383L77.7965 93.5983C78.2744 92.8611 78.6516 92.076 78.921 91.2462L76.5432 90.4742L74.1654 89.7021C74.0345 90.1053 73.8487 90.4962 73.6011 90.8783L75.6988 92.2383ZM76.5432 90.4742L78.921 91.2462L79.2213 90.3215L76.8434 89.5495L74.4656 88.7775L74.1654 89.7021L76.5432 90.4742ZM76.8434 89.5495L79.2213 90.3215L79.5215 89.3968L77.1437 88.6248L74.7659 87.8528L74.4656 88.7775L76.8434 89.5495ZM77.1437 88.6248L79.5215 89.3968C79.9621 88.0397 79.7493 86.6932 79.0778 85.5301L76.9127 86.7801L74.7476 88.03C74.7816 88.0888 74.7639 88.0794 74.7554 88.0118C74.7514 87.9802 74.751 87.9464 74.7542 87.9139C74.7574 87.8818 74.7633 87.8606 74.7659 87.8528L77.1437 88.6248ZM76.9127 86.7801L79.0778 85.5301L78.5466 84.61L76.3815 85.86L74.2165 87.11L74.7476 88.03L76.9127 86.7801ZM76.3815 85.86L78.5466 84.61L78.0154 83.69L75.8504 84.94L73.6853 86.19L74.2165 87.11L76.3815 85.86ZM75.8504 84.94L78.0154 83.69C77.7765 83.2762 77.663 82.9457 77.6161 82.6921L75.1577 83.1465L72.6994 83.6009C72.8678 84.5119 73.2159 85.3771 73.6853 86.19L75.8504 84.94ZM75.1577 83.1465L77.6161 82.6921L77.4547 81.8186L74.9963 82.273L72.5379 82.7274L72.6994 83.6009L75.1577 83.1465ZM74.9963 82.273L77.4547 81.8186L77.2932 80.9451L74.8349 81.3995L72.3765 81.8539L72.5379 82.7274L74.9963 82.273ZM74.8349 81.3995L77.2932 80.9451C77.0219 79.4773 76.0643 78.37 74.6766 77.8697L73.8286 80.2215L72.9807 82.5733C72.9197 82.5513 72.7579 82.4749 72.6016 82.2919C72.4443 82.1078 72.3906 81.9304 72.3765 81.8539L74.8349 81.3995ZM73.8286 80.2215L74.6766 77.8697L73.8318 77.5651L72.9839 79.9169L72.136 82.2687L72.9807 82.5733L73.8286 80.2215ZM72.9839 79.9169L73.8318 77.5651L72.9871 77.2605L72.1391 79.6123L71.2912 81.9641L72.136 82.2687L72.9839 79.9169ZM72.1391 79.6123L72.9871 77.2605C72.4514 77.0674 71.8995 76.8578 71.3315 76.6315L70.4064 78.954L69.4813 81.2766C70.0972 81.5219 70.7006 81.7512 71.2912 81.9641L72.1391 79.6123ZM70.4064 78.954L71.3315 76.6315L70.4435 76.2778L69.5184 78.6003L68.5933 80.9229L69.4813 81.2766L70.4064 78.954ZM69.5184 78.6003L70.4435 76.2778L69.5555 75.9241L68.6304 78.2466L67.7053 80.5692L68.5933 80.9229L69.5184 78.6003ZM68.6304 78.2466L69.5555 75.9241C68.4078 75.4669 67.2016 75.4407 66.0416 75.8142L66.8078 78.1939L67.574 80.5736C67.6065 80.5631 67.6281 80.5589 67.64 80.5571C67.6516 80.5554 67.6571 80.5555 67.6584 80.5556C67.6596 80.5556 67.6618 80.5557 67.6668 80.5567C67.672 80.5578 67.6845 80.5609 67.7053 80.5692L68.6304 78.2466ZM66.8078 78.1939L66.0416 75.8142L65.107 76.1151L65.8732 78.4948L66.6394 80.8745L67.574 80.5736L66.8078 78.1939ZM65.8732 78.4948L65.107 76.1151L64.1724 76.416L64.9386 78.7957L65.7048 81.1754L66.6394 80.8745L65.8732 78.4948ZM64.9386 78.7957L64.1724 76.416C63.8155 76.5309 63.4897 76.5721 63.1823 76.5589L63.0748 79.0566L62.9673 81.5543C63.8989 81.5944 64.8156 81.4617 65.7048 81.1754L64.9386 78.7957ZM63.0748 79.0566L63.1823 76.5589L62.253 76.5189L62.1455 79.0166L62.038 81.5143L62.9673 81.5543L63.0748 79.0566ZM62.1455 79.0166L62.253 76.5189L61.3237 76.4789L61.2162 78.9766L61.1087 81.4743L62.038 81.5143L62.1455 79.0166ZM61.2162 78.9766L61.3237 76.4789C60.7091 76.4525 60.0876 76.4239 59.4592 76.3932L59.3374 78.8903L59.2156 81.3873C59.8533 81.4184 60.4843 81.4474 61.1087 81.4743L61.2162 78.9766ZM59.3374 78.8903L59.4592 76.3932L58.5096 76.3469L58.3878 78.8439L58.266 81.341L59.2156 81.3873L59.3374 78.8903ZM58.3878 78.8439L58.5096 76.3469L57.5601 76.3006L57.4383 78.7976L57.3164 81.2946L58.266 81.341L58.3878 78.8439ZM57.4383 78.7976L57.5601 76.3006C56.4624 76.247 55.4103 76.4927 54.4486 77.0095L55.632 79.2116L56.8154 81.4138C56.996 81.3168 57.148 81.2864 57.3164 81.2946L57.4383 78.7976ZM55.632 79.2116L54.4486 77.0095L53.592 77.4698L54.7754 79.672L55.9588 81.8742L56.8154 81.4138L55.632 79.2116ZM54.7754 79.672L53.592 77.4698L52.7353 77.9301L53.9187 80.1323L55.1021 82.3345L55.9588 81.8742L54.7754 79.672ZM53.9187 80.1323L52.7353 77.9301C52.3801 78.121 52.0325 78.2422 51.6866 78.3072L52.1477 80.7643L52.6088 83.2214C53.4821 83.0575 54.3151 82.7574 55.1021 82.3345L53.9187 80.1323ZM52.1477 80.7643L51.6866 78.3072L50.7722 78.4788L51.2333 80.9359L51.6944 83.393L52.6088 83.2214L52.1477 80.7643ZM51.2333 80.9359L50.7722 78.4788L49.8578 78.6504L50.3189 81.1075L50.7801 83.5646L51.6944 83.393L51.2333 80.9359ZM50.3189 81.1075L49.8578 78.6504C49.4737 78.7225 49.0475 78.7484 48.5712 78.7154L48.3987 81.2095L48.2261 83.7035C49.0911 83.7634 49.945 83.7213 50.7801 83.5646L50.3189 81.1075ZM48.3987 81.2095L48.5712 78.7154L47.5653 78.6459L47.3928 81.1399L47.2203 83.6339L48.2261 83.7035L48.3987 81.2095ZM47.3928 81.1399L47.5653 78.6459L46.5595 78.5763L46.3869 81.0703L46.2144 83.5644L47.2203 83.6339L47.3928 81.1399ZM46.3869 81.0703L46.5595 78.5763C45.7009 78.5169 44.8514 78.5551 44.0166 78.6985L44.4399 81.1624L44.8632 83.6263C45.2833 83.5542 45.7318 83.531 46.2144 83.5644L46.3869 81.0703ZM44.4399 81.1624L44.0166 78.6985L43.0754 78.8602L43.4987 81.3241L43.922 83.788L44.8632 83.6263L44.4399 81.1624ZM43.4987 81.3241L43.0754 78.8602L42.1342 79.0219L42.5575 81.4858L42.9808 83.9497L43.922 83.788L43.4987 81.3241ZM42.5575 81.4858L42.1342 79.0219C41.158 79.1896 40.2486 79.5547 39.4252 80.1034L40.8115 82.1838L42.1978 84.2642C42.4475 84.0978 42.7021 83.9976 42.9808 83.9497L42.5575 81.4858ZM40.8115 82.1838L39.4252 80.1034L38.6203 80.6397L40.0066 82.7202L41.3929 84.8006L42.1978 84.2642L40.8115 82.1838ZM40.0066 82.7202L38.6203 80.6397L37.8154 81.1761L39.2017 83.2565L40.588 85.3369L41.3929 84.8006L40.0066 82.7202ZM39.2017 83.2565L37.8154 81.1761C37.2499 81.5529 36.6896 81.9432 36.1345 82.3471L37.6053 84.3687L39.076 86.3903C39.5763 86.0263 40.0803 85.6752 40.588 85.3369L39.2017 83.2565ZM37.6053 84.3687L36.1345 82.3471L35.343 82.9229L36.8138 84.9445L38.2845 86.9661L39.076 86.3903L37.6053 84.3687ZM36.8138 84.9445L35.343 82.9229L34.5515 83.4987L36.0222 85.5203L37.493 87.542L38.2845 86.9661L36.8138 84.9445ZM36.0222 85.5203L34.5515 83.4987C34.5039 83.5333 34.5048 83.522 34.552 83.5092C34.5738 83.5033 34.5983 83.4992 34.6229 83.4976C34.6473 83.4961 34.6644 83.4976 34.6719 83.4986L34.339 85.9763L34.0061 88.4541C35.2968 88.6275 36.4952 88.2679 37.493 87.542L36.0222 85.5203ZM34.339 85.9763L34.6719 83.4986L33.7801 83.3788L33.4472 85.8565L33.1143 88.3343L34.0061 88.4541L34.339 85.9763ZM33.4472 85.8565L33.7801 83.3788L32.8884 83.259L32.5555 85.7367L32.2225 88.2144L33.1143 88.3343L33.4472 85.8565ZM32.5555 85.7367L32.8884 83.259C33.0495 83.2806 33.5144 83.3997 33.8816 83.879C34.2195 84.3201 34.204 84.718 34.2033 84.7331L31.7056 84.6274L29.2078 84.5217C29.1793 85.1964 29.2914 86.1091 29.9126 86.9199C30.5631 87.769 31.4669 88.1129 32.2225 88.2144L32.5555 85.7367ZM31.7056 84.6274L34.2033 84.7331L34.2452 83.7436L31.7474 83.6379L29.2497 83.5323L29.2078 84.5217L31.7056 84.6274ZM31.7474 83.6379L34.2452 83.7436L34.2871 82.7541L31.7893 82.6484L29.2915 82.5428L29.2497 83.5323L31.7474 83.6379ZM31.7893 82.6484L34.2871 82.7541C34.3353 81.6142 34.0636 80.5168 33.4594 79.5333L31.3292 80.8418L29.199 82.1504C29.2641 82.2563 29.2991 82.3633 29.2915 82.5428L31.7893 82.6484ZM31.3292 80.8418L33.4594 79.5333L32.9575 78.7162L30.8273 80.0248L28.6971 81.3333L29.199 82.1504L31.3292 80.8418ZM30.8273 80.0248L32.9575 78.7162L32.4556 77.8991L30.3254 79.2077L28.1952 80.5162L28.6971 81.3333L30.8273 80.0248ZM30.3254 79.2077L32.4556 77.8991C32.2182 77.5127 32.033 77.1158 31.8958 76.7062L29.5253 77.5004L27.1548 78.2946C27.4152 79.0719 27.7634 79.8132 28.1952 80.5162L30.3254 79.2077ZM29.5253 77.5004L31.8958 76.7062L31.5975 75.8161L29.227 76.6103L26.8565 77.4044L27.1548 78.2946L29.5253 77.5004ZM29.227 76.6103L31.5975 75.8161L31.2993 74.9259L28.9288 75.7201L26.5583 76.5143L26.8565 77.4044L29.227 76.6103ZM28.9288 75.7201L31.2993 74.9259C31.1438 74.4618 31.0276 73.9897 30.9502 73.5083L28.4819 73.9051L26.0136 74.3019C26.1344 75.0537 26.3162 75.7916 26.5583 76.5143L28.9288 75.7201ZM28.4819 73.9051L30.9502 73.5083L30.8016 72.5835L28.3332 72.9803L25.8649 73.3771L26.0136 74.3019L28.4819 73.9051ZM28.3332 72.9803L30.8016 72.5835L30.6529 71.6587L28.1846 72.0554L25.7163 72.4522L25.8649 73.3771L28.3332 72.9803ZM28.1846 72.0554L30.6529 71.6587C30.6026 71.3461 30.6134 71.0636 30.6742 70.793L28.2351 70.2446L25.796 69.6961C25.5912 70.607 25.5683 71.5317 25.7163 72.4522L28.1846 72.0554ZM28.2351 70.2446L30.6742 70.793L30.8735 69.907L28.4344 69.3585L25.9953 68.8101L25.796 69.6961L28.2351 70.2446ZM28.4344 69.3585L30.8735 69.907L31.0727 69.021L28.6336 68.4725L26.1945 67.924L25.9953 68.8101L28.4344 69.3585ZM28.6336 68.4725L31.0727 69.021C31.221 68.3615 31.3514 67.6491 31.4655 66.8871L28.9931 66.5167L26.5207 66.1463C26.4212 66.8106 26.3119 67.4021 26.1945 67.924L28.6336 68.4725ZM28.9931 66.5167L31.4655 66.8871L31.6258 65.8173L29.1534 65.4469L26.681 65.0765L26.5207 66.1463L28.9931 66.5167ZM29.1534 65.4469L31.6258 65.8173L31.7861 64.7475L29.3137 64.3771L26.8413 64.0067L26.681 65.0765L29.1534 65.4469ZM29.3137 64.3771L31.7861 64.7475C31.7899 64.7218 31.7796 64.8126 31.6876 64.939C31.5918 65.0706 31.4853 65.1339 31.4483 65.1509L30.4035 62.8797L29.3587 60.6085C27.9221 61.2694 27.0645 62.5168 26.8413 64.0067L29.3137 64.3771ZM30.4035 62.8797L31.4483 65.1509L32.3778 64.7233L31.3331 62.4521L30.2883 60.1809L29.3587 60.6085L30.4035 62.8797ZM31.3331 62.4521L32.3778 64.7233L33.3074 64.2957L32.2626 62.0245L31.2178 59.7533L30.2883 60.1809L31.3331 62.4521ZM32.2626 62.0245L33.3074 64.2957C33.6574 64.1347 33.9963 64.0511 34.337 64.0296L34.1796 61.5346L34.0221 59.0395C33.0463 59.1011 32.1073 59.3441 31.2178 59.7533L32.2626 62.0245ZM34.1796 61.5346L34.337 64.0296L35.3244 63.9673L35.1669 61.4723L35.0095 58.9772L34.0221 59.0395L34.1796 61.5346ZM35.1669 61.4723L35.3244 63.9673L36.3118 63.905L36.1543 61.4099L35.9968 58.9149L35.0095 58.9772L35.1669 61.4723ZM36.1543 61.4099L36.3118 63.905C36.9391 63.8654 37.5501 63.8386 38.1451 63.8243L38.0854 61.3251L38.0256 58.8258C37.3624 58.8416 36.6861 58.8714 35.9968 58.9149L36.1543 61.4099ZM38.0854 61.3251L38.1451 63.8243L39.0888 63.8018L39.0291 61.3025L38.9693 58.8032L38.0256 58.8258L38.0854 61.3251ZM39.0291 61.3025L39.0888 63.8018L40.0325 63.7792L39.9727 61.2799L39.913 58.7807L38.9693 58.8032L39.0291 61.3025ZM39.9727 61.2799L40.0325 63.7792C40.2149 63.7749 40.3821 63.8116 40.5737 63.9154L41.7653 61.7177L42.957 59.52C42.0166 59.0101 40.9888 58.7549 39.913 58.7807L39.9727 61.2799ZM41.7653 61.7177L40.5737 63.9154L41.4226 64.3757L42.6143 62.178L43.8059 59.9803L42.957 59.52L41.7653 61.7177ZM42.6143 62.178L41.4226 64.3757L42.2716 64.836L43.4632 62.6383L44.6548 60.4406L43.8059 59.9803L42.6143 62.178ZM43.4632 62.6383L42.2716 64.836C42.5908 65.0091 42.8568 65.2203 43.0834 65.4729L44.9445 63.8036L46.8056 62.1344C46.189 61.4469 45.4675 60.8812 44.6548 60.4406L43.4632 62.6383ZM44.9445 63.8036L43.0834 65.4729L43.7157 66.1779L45.5768 64.5087L47.438 62.8395L46.8056 62.1344L44.9445 63.8036ZM45.5768 64.5087L43.7157 66.1779L44.3481 66.883L46.2092 65.2138L48.0703 63.5445L47.438 62.8395L45.5768 64.5087ZM46.2092 65.2138L44.3481 66.883C44.9781 67.5854 45.7218 68.1542 46.5724 68.5667L47.6632 66.3172L48.754 64.0677C48.5091 63.949 48.2834 63.7821 48.0703 63.5445L46.2092 65.2138ZM47.6632 66.3172L46.5724 68.5667L47.3941 68.9651L48.4848 66.7156L49.5756 64.4661L48.754 64.0677L47.6632 66.3172ZM48.4848 66.7156L47.3941 68.9651L48.2157 69.3635L49.3065 67.114L50.3972 64.8645L49.5756 64.4661L48.4848 66.7156ZM49.3065 67.114L48.2157 69.3635C48.941 69.7152 49.6962 69.9761 50.4785 70.1391L50.9883 67.6916L51.4982 65.2442C51.1335 65.1682 50.7675 65.0441 50.3972 64.8645L49.3065 67.114ZM50.9883 67.6916L50.4785 70.1391L51.3387 70.3183L51.8486 67.8709L52.3585 65.4234L51.4982 65.2442L50.9883 67.6916ZM51.8486 67.8709L51.3387 70.3183L52.199 70.4975L52.7088 68.0501L53.2187 65.6026L52.3585 65.4234L51.8486 67.8709ZM52.7088 68.0501L52.199 70.4975C52.5602 70.5728 52.9704 70.7075 53.4325 70.9219L54.4847 68.6541L55.5369 66.3863C54.7782 66.0343 54.0045 65.7663 53.2187 65.6026L52.7088 68.0501ZM54.4847 68.6541L53.4325 70.9219L54.3481 71.3467L55.4003 69.0789L56.4524 66.8111L55.5369 66.3863L54.4847 68.6541ZM55.4003 69.0789L54.3481 71.3467L55.2637 71.7715L56.3158 69.5037L57.368 67.2359L56.4524 66.8111L55.4003 69.0789ZM56.3158 69.5037L55.2637 71.7715C56.2848 72.2452 57.3898 72.4308 58.5249 72.2712L58.1768 69.7955L57.8287 67.3199C57.7033 67.3375 57.5677 67.3285 57.368 67.2359L56.3158 69.5037ZM58.1768 69.7955L58.5249 72.2712L59.4703 72.1382L59.1222 69.6626L58.7741 67.1869L57.8287 67.3199L58.1768 69.7955ZM59.1222 69.6626L59.4703 72.1382L60.4157 72.0053L60.0676 69.5296L59.7194 67.054L58.7741 67.1869L59.1222 69.6626ZM60.0676 69.5296L60.4157 72.0053C60.6598 71.971 60.9106 71.9885 61.1954 72.0796L61.9564 69.6982L62.7174 67.3168C61.7443 67.0059 60.7359 66.9111 59.7194 67.054L60.0676 69.5296ZM61.9564 69.6982L61.1954 72.0796L62.1388 72.3811L62.8998 69.9997L63.6609 67.6183L62.7174 67.3168L61.9564 69.6982ZM62.8998 69.9997L62.1388 72.3811L63.0823 72.6826L63.8433 70.3012L64.6043 67.9198L63.6609 67.6183L62.8998 69.9997ZM63.8433 70.3012L63.0823 72.6826C64.3114 73.0753 65.5662 72.9915 66.729 72.4775L65.7182 70.1909L64.7074 67.9044C64.6755 67.9185 64.6552 67.9244 64.6458 67.9268C64.6367 67.929 64.6344 67.9288 64.637 67.9287C64.6396 67.9285 64.641 67.9288 64.6389 67.9285C64.6366 67.9282 64.6256 67.9266 64.6043 67.9198L63.8433 70.3012ZM65.7182 70.1909L66.729 72.4775L67.6604 72.0657L66.6497 69.7792L65.6389 67.4926L64.7074 67.9044L65.7182 70.1909ZM66.6497 69.7792L67.6604 72.0657L68.5919 71.654L67.5811 69.3674L66.5703 67.0809L65.6389 67.4926L66.6497 69.7792ZM67.5811 69.3674L68.5919 71.654C68.6946 71.6086 68.7852 71.5915 68.9541 71.6319L69.5359 69.2006L70.1178 66.7692C68.9222 66.4831 67.7096 66.5772 66.5703 67.0809L67.5811 69.3674ZM69.5359 69.2006L68.9541 71.6319L69.9774 71.8768L70.5593 69.4455L71.1411 67.0141L70.1178 66.7692L69.5359 69.2006ZM70.5593 69.4455L69.9774 71.8768L71.0008 72.1217L71.5826 69.6904L72.1645 67.259L71.1411 67.0141L70.5593 69.4455ZM71.5826 69.6904L71.0008 72.1217C71.7801 72.3082 72.7983 72.3182 73.7533 71.7255C74.6707 71.1562 75.1156 70.2846 75.3325 69.5876L72.9455 68.8446L70.5585 68.1015C70.5585 68.1014 70.5599 68.0969 70.563 68.0886C70.5662 68.0804 70.5713 68.0678 70.5788 68.0515C70.5936 68.0192 70.6193 67.9693 70.6604 67.9084C70.7454 67.7824 70.8916 67.6169 71.1167 67.4772C71.6174 67.1664 72.0673 67.2358 72.1645 67.259L71.5826 69.6904ZM72.9455 68.8446L75.3325 69.5876L75.672 68.4969L73.285 67.7539L70.898 67.0108L70.5585 68.1015L72.9455 68.8446ZM73.285 67.7539L75.672 68.4969L76.0115 67.4062L73.6245 66.6632L71.2375 65.9201L70.898 67.0108L73.285 67.7539ZM73.6245 66.6632L76.0115 67.4062C76.2098 66.7694 76.4175 66.2335 76.6285 65.7888L74.3698 64.7172L72.1111 63.6456C71.7811 64.3412 71.4919 65.1027 71.2375 65.9201L73.6245 66.6632ZM74.3698 64.7172L76.6285 65.7888L77.0342 64.9335L74.7755 63.862L72.5168 62.7904L72.1111 63.6456L74.3698 64.7172ZM74.7755 63.862L77.0342 64.9335L77.44 64.0783L75.1813 63.0067L72.9226 61.9351L72.5168 62.7904L74.7755 63.862ZM75.1813 63.0067L77.44 64.0783C77.8538 63.2061 78.0841 62.2768 78.1462 61.3135L75.6513 61.1529L73.1565 60.9922C73.1328 61.3603 73.0498 61.667 72.9226 61.9351L75.1813 63.0067ZM75.6513 61.1529L78.1462 61.3135L78.2105 60.3149L75.7156 60.1543L73.2208 59.9937L73.1565 60.9922L75.6513 61.1529ZM75.7156 60.1543L78.2105 60.3149L78.2747 59.3163L75.7799 59.1557L73.2851 58.9951L73.2208 59.9937L75.7156 60.1543ZM75.7799 59.1557L78.2747 59.3163C78.337 58.3494 78.2255 57.3958 77.934 56.4724L75.5499 57.2249L73.1659 57.9775C73.2668 58.297 73.3085 58.6306 73.2851 58.9951L75.7799 59.1557ZM75.5499 57.2249L77.934 56.4724L77.6397 55.5401L75.2557 56.2927L72.8716 57.0452L73.1659 57.9775L75.5499 57.2249ZM75.2557 56.2927L77.6397 55.5401L77.3454 54.6079L74.9614 55.3604L72.5773 56.113L72.8716 57.0452L75.2557 56.2927ZM74.9614 55.3604L77.3454 54.6079C77.1088 53.8582 76.8142 53.1346 76.4611 52.4388L74.2317 53.5701L72.0023 54.7013C72.2298 55.1497 72.4216 55.6197 72.5773 56.113L74.9614 55.3604ZM74.2317 53.5701L76.4611 52.4388L76.0256 51.5807L73.7962 52.7119L71.5668 53.8431L72.0023 54.7013L74.2317 53.5701ZM73.7962 52.7119L76.0256 51.5807L75.5902 50.7225L73.3608 51.8538L71.1314 52.985L71.5668 53.8431L73.7962 52.7119ZM73.3608 51.8538L75.5902 50.7225C75.029 49.6164 74.1404 48.8103 73.1036 48.2573L71.9271 50.4631L70.7505 52.669C71.0448 52.826 71.1121 52.9469 71.1314 52.985L73.3608 51.8538ZM71.9271 50.4631L73.1036 48.2573L72.1053 47.7248L70.9288 49.9307L69.7522 52.1365L70.7505 52.669L71.9271 50.4631ZM70.9288 49.9307L72.1053 47.7248L71.107 47.1924L69.9304 49.3982L68.7539 51.604L69.7522 52.1365L70.9288 49.9307ZM69.9304 49.3982L71.107 47.1924C71.098 47.1876 71.2229 47.2552 71.3358 47.4444C71.4512 47.6381 71.459 47.7997 71.4583 47.8301L68.959 47.7688L66.4598 47.7076C66.4411 48.4692 66.6018 49.268 67.0411 50.0049C67.4777 50.7372 68.0973 51.2538 68.7539 51.604L69.9304 49.3982ZM68.959 47.7688L71.4583 47.8301L71.4851 46.7332L68.9859 46.672L66.4866 46.6107L66.4598 47.7076L68.959 47.7688ZM68.9859 46.672L71.4851 46.7332L71.512 45.6363L69.0127 45.5751L66.5135 45.5139L66.4866 46.6107L68.9859 46.672ZM69.0127 45.5751L71.512 45.6363C71.5411 44.4484 71.2498 43.266 70.5037 42.2431L68.4839 43.7163L66.4641 45.1896C66.4712 45.1993 66.4799 45.2128 66.4894 45.2461C66.5 45.2833 66.5171 45.3665 66.5135 45.5139L69.0127 45.5751ZM68.4839 43.7163L70.5037 42.2431L69.948 41.4813L67.9282 42.9545L65.9085 44.4278L66.4641 45.1896L68.4839 43.7163ZM67.9282 42.9545L69.948 41.4813L69.3924 40.7195L67.3726 42.1927L65.3528 43.6659L65.9085 44.4278L67.9282 42.9545ZM67.3726 42.1927L69.3924 40.7195C68.8771 40.013 68.2634 39.3885 67.5657 38.8433L66.0265 40.8133L64.4872 42.7832C64.8434 43.0615 65.1272 43.3566 65.3528 43.6659L67.3726 42.1927ZM66.0265 40.8133L67.5657 38.8433L66.7753 38.2257L65.236 40.1957L63.6968 42.1656L64.4872 42.7832L66.0265 40.8133ZM65.236 40.1957L66.7753 38.2257L65.9848 37.6081L64.4456 39.5781L62.9064 41.548L63.6968 42.1656L65.236 40.1957ZM64.4456 39.5781L65.9848 37.6081C65.9738 37.5995 65.9786 37.6016 65.9918 37.6171C66.0055 37.633 66.0232 37.6573 66.0401 37.6889C66.0571 37.7206 66.0685 37.7507 66.0753 37.7752C66.0819 37.7992 66.0821 37.8101 66.0817 37.8033L63.5875 37.9744L61.0934 38.1455C61.1879 39.5229 61.8298 40.7068 62.9064 41.548L64.4456 39.5781ZM63.5875 37.9744L66.0817 37.8033L66.014 36.8173L63.5199 36.9884L61.0257 37.1595L61.0934 38.1455L63.5875 37.9744ZM63.5199 36.9884L66.014 36.8173L65.9464 35.8313L63.4522 36.0024L60.9581 36.1735L61.0257 37.1595L63.5199 36.9884ZM63.4522 36.0024L65.9464 35.8313C65.9446 35.8055 65.9514 35.8571 65.9182 35.9488C65.8838 36.0439 65.8343 36.1046 65.8141 36.1247L64.0494 34.3538L62.2848 32.583C61.2985 33.5658 60.8664 34.8373 60.9581 36.1735L63.4522 36.0024ZM64.0494 34.3538L65.8141 36.1247L66.479 35.4621L64.7143 33.6913L62.9497 31.9204L62.2848 32.583L64.0494 34.3538ZM64.7143 33.6913L66.479 35.4621L67.1439 34.7996L65.3792 33.0287L63.6145 31.2579L62.9497 31.9204L64.7143 33.6913ZM65.3792 33.0287L67.1439 34.7996C67.7744 34.1712 68.2978 33.4525 68.7189 32.6591L66.5106 31.4871L64.3023 30.3152C64.1013 30.6938 63.8704 31.0028 63.6145 31.2579L65.3792 33.0287ZM66.5106 31.4871L68.7189 32.6591L69.1854 31.7801L66.9771 30.6081L64.7688 29.4362L64.3023 30.3152L66.5106 31.4871ZM66.9771 30.6081L69.1854 31.7801L69.6519 30.901L67.4436 29.7291L65.2353 28.5571L64.7688 29.4362L66.9771 30.6081ZM67.4436 29.7291L69.6519 30.901C69.7256 30.7622 69.7937 30.7052 69.8904 30.6571L68.7767 28.4189L67.6631 26.1806C66.6043 26.7074 65.7836 27.524 65.2353 28.5571L67.4436 29.7291ZM68.7767 28.4189L69.8904 30.6571L70.757 30.2259L69.6434 27.9877L68.5297 25.7494L67.6631 26.1806L68.7767 28.4189ZM69.6434 27.9877L70.757 30.2259L71.6237 29.7947L70.51 27.5565L69.3964 25.3182L68.5297 25.7494L69.6434 27.9877ZM70.51 27.5565L71.6237 29.7947C71.9962 29.6094 72.3798 29.481 72.7805 29.4061L72.321 26.9487L71.8615 24.4913C71.0031 24.6518 70.1794 24.9286 69.3964 25.3182L70.51 27.5565ZM72.321 26.9487L72.7805 29.4061L73.7247 29.2295L73.2653 26.7721L72.8058 24.3147L71.8615 24.4913L72.321 26.9487ZM73.2653 26.7721L73.7247 29.2295L74.669 29.053L74.2095 26.5956L73.75 24.1382L72.8058 24.3147L73.2653 26.7721ZM74.2095 26.5956L74.669 29.053C74.905 29.0088 75.1264 29.0196 75.3663 29.0912L76.0808 26.6955L76.7953 24.2998C75.7992 24.0027 74.7731 23.9469 73.75 24.1382L74.2095 26.5956ZM76.0808 26.6955L75.3663 29.0912L76.2933 29.3677L77.0078 26.972L77.7224 24.5762L76.7953 24.2998L76.0808 26.6955ZM77.0078 26.972L76.2933 29.3677L77.2204 29.6441L77.9349 27.2484L78.6494 24.8527L77.7224 24.5762L77.0078 26.972ZM77.9349 27.2484L77.2204 29.6441C78.1222 29.9131 79.0499 30.0179 79.9882 29.9403L79.7822 27.4488L79.5762 24.9573C79.2874 24.9812 78.9836 24.9524 78.6494 24.8527L77.9349 27.2484ZM79.7822 27.4488L79.9882 29.9403L80.9085 29.8642L80.7025 27.3727L80.4966 24.8812L79.5762 24.9573L79.7822 27.4488ZM80.7025 27.3727L80.9085 29.8642L81.8288 29.7882L81.6229 27.2967L81.4169 24.8052L80.4966 24.8812L80.7025 27.3727ZM81.6229 27.2967L81.8288 29.7882C81.7739 29.7927 81.5162 29.7997 81.1999 29.6259C80.8689 29.444 80.7014 29.1896 80.639 29.0553L82.9062 28.0019L85.1734 26.9484C84.869 26.2933 84.3666 25.6609 83.6078 25.2439C82.8637 24.835 82.0854 24.7499 81.4169 24.8052L81.6229 27.2967ZM82.9062 28.0019L80.639 29.0553L81.0021 29.8367L83.2693 28.7832L85.5365 27.7297L85.1734 26.9484L82.9062 28.0019ZM83.2693 28.7832L81.0021 29.8367L81.3651 30.618L83.6323 29.5645L85.8995 28.511L85.5365 27.7297L83.2693 28.7832ZM83.6323 29.5645L81.3651 30.618C81.6526 31.2367 81.9858 31.8488 82.3616 32.4543L84.4858 31.1362L86.61 29.818C86.3319 29.3697 86.0961 28.934 85.8995 28.511L83.6323 29.5645ZM84.4858 31.1362L82.3616 32.4543L82.852 33.2447L84.9763 31.9265L87.1005 30.6083L86.61 29.818L84.4858 31.1362ZM84.9763 31.9265L82.852 33.2447L83.3425 34.035L85.4667 32.7168L87.5909 31.3986L87.1005 30.6083L84.9763 31.9265ZM85.4667 32.7168L83.3425 34.035C83.281 33.936 83.1404 33.6411 83.1858 33.2205C83.2298 32.8119 83.4177 32.5809 83.4581 32.5367L85.3045 34.2222L87.1509 35.9076C87.6264 35.3867 88.0589 34.6665 88.157 33.7562C88.2564 32.8338 87.9794 32.0246 87.5909 31.3986L85.4667 32.7168ZM85.3045 34.2222L83.4581 32.5367L82.8054 33.2516L84.6518 34.9371L86.4982 36.6226L87.1509 35.9076L85.3045 34.2222ZM84.6518 34.9371L82.8054 33.2516L82.1528 33.9666L83.9991 35.6521L85.8455 37.3376L86.4982 36.6226L84.6518 34.9371ZM83.9991 35.6521L82.1528 33.9666C81.6864 34.4774 81.2372 34.998 80.8053 35.5283L82.7437 37.1071L84.6821 38.6859C85.0539 38.2295 85.4416 37.78 85.8455 37.3376L83.9991 35.6521ZM82.7437 37.1071L80.8053 35.5283L80.2026 36.2683L82.141 37.8471L84.0794 39.4259L84.6821 38.6859L82.7437 37.1071ZM82.141 37.8471L80.2026 36.2683L79.5999 37.0083L81.5383 38.5871L83.4767 40.1659L84.0794 39.4259L82.141 37.8471ZM81.5383 38.5871L79.5999 37.0083C78.9276 37.8338 78.494 38.7893 78.2591 39.8131L80.6959 40.372L83.1326 40.9309C83.2173 40.5616 83.3453 40.3272 83.4767 40.1659L81.5383 38.5871ZM80.6959 40.372L78.2591 39.8131L78.0195 40.8579L80.4562 41.4168L82.8929 41.9758L83.1326 40.9309L80.6959 40.372ZM80.4562 41.4168L78.0195 40.8579L77.7798 41.9027L80.2165 42.4617L82.6532 43.0206L82.8929 41.9758L80.4562 41.4168ZM80.2165 42.4617L77.7798 41.9027C77.5601 42.8606 77.4981 43.8327 77.6325 44.8001L80.1087 44.4561L82.585 44.1121C82.5435 43.8134 82.5534 43.4559 82.6532 43.0206L80.2165 42.4617ZM80.1087 44.4561L77.6325 44.8001L77.7644 45.7496L80.2406 45.4057L82.7169 45.0617L82.585 44.1121L80.1087 44.4561ZM80.2406 45.4057L77.7644 45.7496L77.8963 46.6992L80.3725 46.3552L82.8488 46.0113L82.7169 45.0617L80.2406 45.4057ZM80.3725 46.3552L77.8963 46.6992C78.0492 47.8001 78.4962 48.7938 79.1473 49.6646L81.1495 48.1675L83.1516 46.6703C82.9427 46.3909 82.8717 46.1765 82.8488 46.0113L80.3725 46.3552ZM81.1495 48.1675L79.1473 49.6646L79.7924 50.5272L81.7945 49.0301L83.7967 47.533L83.1516 46.6703L81.1495 48.1675ZM81.7945 49.0301L79.7924 50.5272L80.4374 51.3898L82.4396 49.8927L84.4417 48.3956L83.7967 47.533L81.7945 49.0301ZM82.4396 49.8927L80.4374 51.3898C80.4485 51.4047 80.3969 51.3381 80.3738 51.1999C80.3502 51.0588 80.3762 50.9617 80.381 50.9477L82.7496 51.7474L85.1183 52.5472C85.6136 51.0802 85.3474 49.6068 84.4417 48.3956L82.4396 49.8927ZM82.7496 51.7474L80.381 50.9477L80.046 51.9397L82.4147 52.7395L84.7833 53.5392L85.1183 52.5472L82.7496 51.7474ZM82.4147 52.7395L80.046 51.9397L79.7111 52.9318L82.0797 53.7316L84.4483 54.5313L84.7833 53.5392L82.4147 52.7395ZM82.0797 53.7316L79.7111 52.9318C79.4242 53.7815 79.2445 54.6466 79.1879 55.5223L81.6827 55.6836L84.1775 55.8448C84.2036 55.4406 84.2886 55.0044 84.4483 54.5313L82.0797 53.7316ZM81.6827 55.6836L79.1879 55.5223L79.1258 56.4822L81.6206 56.6435L84.1154 56.8048L84.1775 55.8448L81.6827 55.6836ZM81.6206 56.6435L79.1258 56.4822L79.0638 57.4421L81.5586 57.6034L84.0533 57.7647L84.1154 56.8048L81.6206 56.6435ZM81.5586 57.6034L79.0638 57.4421C79.0136 58.2181 79.0272 58.9901 79.1058 59.7567L81.5928 59.5015L84.0797 59.2463C84.03 58.762 84.0208 58.2686 84.0533 57.7647L81.5586 57.6034ZM81.5928 59.5015L79.1058 59.7567L79.2021 60.6948L81.689 60.4396L84.176 60.1845L84.0797 59.2463L81.5928 59.5015ZM81.689 60.4396L79.2021 60.6948L79.2983 61.633L81.7853 61.3778L84.2722 61.1226L84.176 60.1845L81.689 60.4396ZM81.7853 61.3778L79.2983 61.633C79.4408 63.0212 80.1638 64.1332 81.087 64.9669L82.7625 63.1115L84.438 61.2561C84.3071 61.1379 84.2633 61.0664 84.2556 61.0527C84.252 61.0464 84.2556 61.0516 84.2607 61.0673C84.2659 61.0834 84.2702 61.1028 84.2722 61.1226L81.7853 61.3778ZM82.7625 63.1115L81.087 64.9669L81.9679 65.7625L83.6435 63.9071L85.319 62.0517L84.438 61.2561L82.7625 63.1115ZM83.6435 63.9071L81.9679 65.7625L82.8489 66.5581L84.5245 64.7026L86.2 62.8472L85.319 62.0517L83.6435 63.9071ZM84.5245 64.7026L82.8489 66.5581C82.9024 66.6064 82.8398 66.5669 82.7872 66.4234C82.762 66.3546 82.747 66.2823 82.7423 66.2136C82.7376 66.1464 82.744 66.1 82.7477 66.0811L85.2027 66.5529L87.6578 67.0247C87.9778 65.3598 87.3543 63.8897 86.2 62.8472L84.5245 64.7026ZM85.2027 66.5529L82.7477 66.0811L82.545 67.1359L85 67.6077L87.4551 68.0795L87.6578 67.0247L85.2027 66.5529ZM85 67.6077L82.545 67.1359L82.3423 68.1906L84.7973 68.6624L87.2524 69.1342L87.4551 68.0795L85 67.6077ZM84.7973 68.6624L82.3423 68.1906C82.0675 69.6207 82.4133 71.0381 83.442 72.1577L85.2829 70.4662L87.1238 68.7748C87.1293 68.7807 87.1489 68.8036 87.1721 68.8446C87.1956 68.8864 87.2168 68.9364 87.2315 68.9909C87.2628 69.1074 87.2456 69.1695 87.2524 69.1342L84.7973 68.6624ZM85.2829 70.4662L83.442 72.1577L84.1303 72.9068L85.9712 71.2153L87.8121 69.5239L87.1238 68.7748L85.2829 70.4662ZM85.9712 71.2153L84.1303 72.9068L84.8186 73.6559L86.6595 71.9644L88.5004 70.2729L87.8121 69.5239L85.9712 71.2153ZM86.6595 71.9644L84.8186 73.6559C85.8071 74.7318 87.1319 75.2341 88.5606 75.1364L88.3901 72.6422L88.2197 70.1481C88.1947 70.1498 88.2519 70.1429 88.348 70.1806C88.3921 70.1979 88.4302 70.2192 88.4598 70.2399C88.4887 70.2601 88.5016 70.2742 88.5004 70.2729L86.6595 71.9644ZM88.3901 72.6422L88.5606 75.1364L89.603 75.0652L89.4325 72.571L89.2621 70.0768L88.2197 70.1481L88.3901 72.6422ZM89.4325 72.571L89.603 75.0652L90.6454 74.994L90.4749 72.4998L90.3045 70.0056L89.2621 70.0768L89.4325 72.571ZM90.4749 72.4998L90.6454 74.994C91.022 74.9682 91.3287 75.016 91.5937 75.1108L92.4352 72.7566L93.2767 70.4025C92.3179 70.0598 91.3177 69.9363 90.3045 70.0056L90.4749 72.4998ZM92.4352 72.7566L91.5937 75.1108L92.5116 75.4389L93.3531 73.0847L94.1946 70.7306L93.2767 70.4025L92.4352 72.7566ZM93.3531 73.0847L92.5116 75.4389L93.4295 75.767L94.271 73.4128L95.1125 71.0587L94.1946 70.7306L93.3531 73.0847ZM94.271 73.4128L93.4295 75.767C94.5108 76.1535 95.6441 76.2071 96.7607 75.9083L96.1145 73.4933L95.4683 71.0782C95.3507 71.1097 95.255 71.1097 95.1125 71.0587L94.271 73.4128ZM96.1145 73.4933L96.7607 75.9083L97.6864 75.6606L97.0401 73.2456L96.3939 70.8306L95.4683 71.0782L96.1145 73.4933ZM97.0401 73.2456L97.6864 75.6606L98.612 75.4129L97.9658 72.9979L97.3196 70.5829L96.3939 70.8306L97.0401 73.2456ZM97.9658 72.9979L98.612 75.4129C99.4899 75.178 100.315 74.8069 101.08 74.3108L99.7206 72.2128L98.361 70.1149C98.021 70.3352 97.6758 70.4875 97.3196 70.5829L97.9658 72.9979ZM99.7206 72.2128L101.08 74.3108L101.909 73.7734L100.55 71.6754L99.1902 69.5775L98.361 70.1149L99.7206 72.2128ZM100.55 71.6754L101.909 73.7734L102.739 73.236L101.379 71.138L100.019 69.0401L99.1902 69.5775L100.55 71.6754ZM101.379 71.138L102.739 73.236C102.743 73.2333 102.737 73.2377 102.721 73.2437C102.706 73.2499 102.688 73.2549 102.67 73.2578C102.653 73.2607 102.644 73.2602 102.647 73.2603C102.651 73.2604 102.67 73.2615 102.707 73.2697L103.243 70.8278L103.779 68.3859C102.489 68.1028 101.176 68.2904 100.019 69.0401L101.379 71.138ZM103.243 70.8278L102.707 73.2697L103.742 73.4968L104.278 71.0549L104.814 68.613L103.779 68.3859L103.243 70.8278ZM104.278 71.0549L103.742 73.4968L104.777 73.7239L105.313 71.282L105.849 68.8401L104.814 68.613L104.278 71.0549ZM105.313 71.282L104.777 73.7239C105.97 73.9856 107.202 73.8819 108.343 73.2935L107.197 71.0715L106.051 68.8495C106.037 68.8568 106.033 68.8575 106.024 68.8584C106.012 68.8598 105.958 68.8641 105.849 68.8401L105.313 71.282ZM107.197 71.0715L108.343 73.2935L109.191 72.8559L108.046 70.6339L106.9 68.4119L106.051 68.8495L107.197 71.0715ZM108.046 70.6339L109.191 72.8559L110.04 72.4183L108.894 70.1963L107.749 67.9743L106.9 68.4119L108.046 70.6339ZM108.894 70.1963L110.04 72.4183C110.457 72.2034 110.882 72.0368 111.317 71.9158L110.647 69.5072L109.977 67.0987C109.207 67.3129 108.464 67.6056 107.749 67.9743L108.894 70.1963ZM110.647 69.5072L111.317 71.9158L112.221 71.6644L111.551 69.2559L110.881 66.8473L109.977 67.0987L110.647 69.5072ZM111.551 69.2559L112.221 71.6644L113.124 71.413L112.454 69.0045L111.784 66.5959L110.881 66.8473L111.551 69.2559ZM112.454 69.0045L113.124 71.413C113.682 71.258 114.243 71.1188 114.808 70.9954L114.274 68.553L113.741 66.1106C113.084 66.254 112.432 66.4157 111.784 66.5959L112.454 69.0045ZM114.274 68.553L114.808 70.9954L115.723 70.7954L115.19 68.3529L114.657 65.9105L113.741 66.1106L114.274 68.553ZM115.19 68.3529L115.723 70.7954L116.639 70.5953L116.106 68.1529L115.572 65.7105L114.657 65.9105L115.19 68.3529ZM116.106 68.1529L116.639 70.5953C117.428 70.4231 118.203 70.1638 118.965 69.8268L117.953 67.5407L116.941 65.2546C116.461 65.4671 116.005 65.6159 115.572 65.7105L116.106 68.1529ZM117.953 67.5407L118.965 69.8268L119.896 69.4147L118.884 67.1286L117.872 64.8425L116.941 65.2546L117.953 67.5407ZM118.884 67.1286L119.896 69.4147L120.827 69.0026L119.815 66.7165L118.803 64.4304L117.872 64.8425L118.884 67.1286ZM119.815 66.7165L120.827 69.0026C120.885 68.9768 120.912 68.9753 120.916 68.975C120.921 68.9747 120.948 68.9728 121.01 68.9912L121.723 66.595L122.436 64.1989C121.215 63.8357 119.968 63.9149 118.803 64.4304L119.815 66.7165ZM121.723 66.595L121.01 68.9912L121.986 69.2818L122.699 66.8857L123.412 64.4895L122.436 64.1989L121.723 66.595ZM122.699 66.8857L121.986 69.2818L122.962 69.5724L123.676 67.1763L124.389 64.7802L123.412 64.4895L122.699 66.8857ZM123.676 67.1763L122.962 69.5724C123.38 69.6967 123.755 69.8731 124.097 70.1008L125.483 68.0196L126.868 65.9383C126.102 65.4291 125.273 65.0433 124.389 64.7802L123.676 67.1763ZM125.483 68.0196L124.097 70.1008L124.928 70.6535L126.313 68.5722L127.698 66.491L126.868 65.9383L125.483 68.0196ZM126.313 68.5722L124.928 70.6535L125.758 71.2061L127.143 69.1249L128.528 67.0436L127.698 66.491L126.313 68.5722ZM127.143 69.1249L125.758 71.2061C125.781 71.221 125.79 71.2298 125.791 71.2306C125.791 71.2311 125.79 71.2302 125.788 71.2279C125.786 71.2256 125.784 71.2224 125.781 71.2185C125.778 71.2147 125.776 71.2108 125.774 71.2071C125.772 71.2035 125.771 71.2009 125.77 71.1997C125.769 71.1968 125.772 71.2029 125.776 71.2218L128.206 70.6312L130.635 70.0406C130.329 68.7835 129.596 67.7538 128.528 67.0436L127.143 69.1249ZM128.206 70.6312L125.776 71.2218L126.008 72.1756L128.438 71.585L130.867 70.9944L130.635 70.0406L128.206 70.6312ZM128.438 71.585L126.008 72.1756L126.24 73.1293L128.669 72.5387L131.099 71.9481L130.867 70.9944L128.438 71.585ZM128.669 72.5387L126.24 73.1293C126.45 73.9925 126.776 74.8099 127.224 75.5695L129.377 74.2994L131.531 73.0293C131.344 72.713 131.198 72.3566 131.099 71.9481L128.669 72.5387ZM129.377 74.2994L127.224 75.5695L127.7 76.3764L129.853 75.1063L132.007 73.8362L131.531 73.0293L129.377 74.2994ZM129.853 75.1063L127.7 76.3764L128.176 77.1834L130.329 75.9133L132.483 74.6432L132.007 73.8362L129.853 75.1063ZM130.329 75.9133L128.176 77.1834C128.259 77.3239 128.296 77.4571 128.294 77.6339L130.793 77.665L133.293 77.6962C133.307 76.6132 133.034 75.5786 132.483 74.6432L130.329 75.9133ZM130.793 77.665L128.294 77.6339L128.282 78.5787L130.782 78.6098L133.281 78.641L133.293 77.6962L130.793 77.665ZM130.782 78.6098L128.282 78.5787L128.27 79.5235L130.77 79.5547L133.27 79.5858L133.281 78.641L130.782 78.6098ZM130.77 79.5547L128.27 79.5235C128.26 80.3628 128.354 81.1931 128.552 82.0094L130.981 81.4203L133.411 80.8313C133.311 80.4198 133.264 80.0063 133.27 79.5858L130.77 79.5547ZM130.981 81.4203L128.552 82.0094L128.775 82.9302L131.205 82.3411L133.634 81.7521L133.411 80.8313L130.981 81.4203ZM131.205 82.3411L128.775 82.9302L128.998 83.851L131.428 83.262L133.857 82.6729L133.634 81.7521L131.205 82.3411ZM131.428 83.262L128.998 83.851C129.07 84.1479 129.109 84.3265 129.125 84.4145C129.136 84.4714 129.125 84.4273 129.118 84.3341C129.115 84.306 129.1 84.1341 129.126 83.9068C129.137 83.8025 129.172 83.5367 129.305 83.2225C129.423 82.9425 129.799 82.2077 130.724 81.8605L131.603 84.201L132.481 86.5415C133.41 86.1928 133.79 85.4541 133.911 85.1679C134.046 84.8475 134.082 84.5731 134.095 84.4579C134.123 84.2088 134.107 84.0056 134.102 83.9369C134.088 83.7624 134.059 83.5994 134.041 83.4998C133.999 83.2748 133.934 82.99 133.857 82.6729L131.428 83.262ZM131.603 84.201L130.724 81.8605L130.675 81.8787L131.554 84.2192L132.433 86.5597L132.481 86.5415L131.603 84.201ZM131.554 84.2192L130.675 81.8787L130.627 81.8969L131.506 84.2374L132.384 86.5779L132.433 86.5597L131.554 84.2192ZM131.506 84.2374L130.627 81.8969C130.211 82.0529 129.941 82.2858 129.899 82.3207C129.803 82.4003 129.732 82.4713 129.696 82.5087C129.62 82.5866 129.56 82.6575 129.528 82.6955C129.458 82.7792 129.388 82.8704 129.328 82.95C129.203 83.1167 129.038 83.3437 128.843 83.6192L130.881 85.0667L132.919 86.5142C133.108 86.249 133.24 86.0675 133.322 85.9577C133.366 85.8991 133.378 85.8851 133.369 85.8966C133.367 85.8986 133.332 85.9417 133.275 86C133.248 86.0276 133.185 86.0909 133.096 86.1648C133.051 86.2026 132.977 86.2608 132.881 86.3245C132.832 86.3571 132.768 86.397 132.69 86.4387C132.614 86.4796 132.511 86.5303 132.384 86.5779L131.506 84.2374ZM130.881 85.0667L128.843 83.6192L128.267 84.4303L130.305 85.8778L132.343 87.3253L132.919 86.5142L130.881 85.0667Z" fill="#E831B6"/>
</g>
<defs>
<clipPath id="clip0_8_77">
<rect width="132.374" height="138.386" fill="white" transform="translate(0 29.5601) rotate(-12.9033)"/>
</clipPath>
</defs>
</svg>
