<svg width="537" height="284" viewBox="0 0 537 284" fill="none" xmlns="http://www.w3.org/2000/svg">
<g clip-path="url(#clip0_8_80)">
<path d="M533.66 101.068C532.652 100.11 531.857 98.993 531.062 97.9291C521.147 99.9504 523.639 90.1096 521.359 88.0351C520.404 87.184 502.483 82.8753 497.234 80.322C466.004 65.1087 435.941 40.0546 404.341 28.086C350.259 7.55336 310.917 10.5322 256.305 3.08511C238.755 0.691404 247.345 -2.23424 227.462 2.65956C220.569 4.36175 201.693 2.07443 192.733 3.40427C170.199 6.75546 127.994 14.0962 108.111 23.0859C105.672 24.2029 102.596 25.7987 102.278 28.7244C135.363 28.9903 105.141 46.9165 93.3176 54.4168L84.516 46.6506L88.6517 62.0235C80.1153 75.0027 68.3445 90.3224 59.649 68.3003C69.8291 62.9278 67.3901 51.2252 70.3593 46.491C72.9044 42.3419 80.4864 45.4803 83.9328 43.5122C85.0993 42.8206 85.5234 39.0439 87.1671 37.98C91.5679 35.0544 97.8244 33.9905 99.7862 28.8308C82.7663 31.384 45.7574 40.8525 33.8807 53.2466C31.0175 56.2254 23.9657 67.8748 31.9189 66.4385C39.9251 65.0023 45.4393 67.5024 52.7563 64.5236C61.7169 75.1091 48.3555 69.6833 45.4923 70.2153C41.6218 70.9068 39.8191 78.3539 32.6082 77.4496L27.359 69.6833L18.5045 77.29C15.6413 71.9175 15.5353 67.662 16.4366 63.6193C15.2172 64.5236 14.0507 65.4811 12.7782 66.3322C12.1949 66.7045 11.5587 67.0237 10.9224 67.3428C7.74115 95.0034 4.18872 122.877 0.848379 150.218C0.10608 156.123 -0.052984 162.506 3.73675e-05 169.208C4.55987 170.485 8.74856 172.879 11.9298 176.389C12.0359 170.804 11.2936 165.166 8.21834 159.048C41.7808 146.92 22.7462 177.932 21.6858 193.837C21.4737 196.816 25.9275 216.816 27.253 220.327C31.6007 232.296 44.5379 232.828 46.0756 237.19C48.7266 244.743 45.5984 258.307 43.8487 266.233C49.2038 266.127 69.1929 271.499 69.2459 262.403C69.2459 260.595 53.3925 252.403 56.5738 234.37C58.3765 224.157 73.3816 223.147 71.95 203.678C70.8365 188.73 59.0658 184.528 55.1952 174.368C51.3247 164.102 47.242 149.208 59.49 145.378C65.3223 143.569 84.6221 139.58 91.0377 138.782C98.0365 137.877 123.01 135.111 119.722 147.133C116.541 158.836 101.218 149.846 99.7331 151.389C99.1499 159.687 101.748 170.911 96.923 177.985C94.9612 180.858 90.6665 181.017 89.6061 183.943C87.1671 190.699 85.3114 214.636 92.0451 219.104C95.5445 221.444 108.959 220.061 110.019 224.53C111.61 241.764 109.754 251.818 97.1881 263.68L128.789 268.574C141.461 256.126 124.812 260.488 121.313 253.52C119.245 249.477 119.298 236.551 120.146 231.817C121.896 221.71 131.97 223.093 134.727 219.689C135.363 218.944 140.241 202.667 140.188 201.071C140.135 194.156 130.91 186.815 128.418 179.953C126.509 174.74 122.585 144.846 124.812 142.292C131.493 137.186 141.726 135.271 149.997 134.207C169.774 131.654 180.432 134.633 197.611 137.292C207.154 138.782 219.402 135.377 227.939 135.909C232.286 136.175 263.41 141.335 265.054 142.292C268.924 144.58 264.152 162.559 265.16 170.272C266.75 182.454 277.885 191.869 279.794 201.763C285.785 232.987 217.387 231.445 233.824 192.826C236.952 185.486 249.996 178.517 251.745 172.506C253.601 166.23 251.639 157.931 252.222 151.282C238.649 148.091 247.132 162.666 244.163 172.506C242.095 179.368 225.447 182.347 224.121 201.071C222.743 220.966 234.142 227.189 249.837 234.636V259.478C221.152 271.287 259.964 282.085 270.038 267.404C256.252 258.254 259.805 245.328 260.123 230.594C279.688 229.37 293.155 214.316 286.739 194.475C282.339 180.858 274.332 181.443 273.272 157.506C272.318 135.005 280.165 143.516 294.109 143.729C342.465 144.42 365.211 143.09 413.831 153.676C419.823 155.006 432.548 152.027 436.631 158.889C440.554 165.485 435.04 187.401 429.049 192.241C425.708 194.954 420.989 194.316 417.755 198.784C409.272 210.38 412.4 229.849 422.527 239.477C432.707 249.105 446.97 242.562 439.282 268.946L427.67 271.34C423.481 279.957 440.077 283.734 447.076 283.947C453.173 284.159 459.642 281.553 460.861 275.063C462.823 264.744 446.97 268.787 452.484 256.765C459.377 241.817 480.214 243.413 483.502 221.391C486.206 203.146 477.881 200.38 472.208 187.081C456.726 150.591 487.955 176.815 497.34 174.155L501.582 164.208C511.709 161.442 509.747 169.155 509.058 178.145C508.846 180.592 508.687 183.092 508.581 185.592C511.073 184.634 513.724 184.103 516.375 183.89C520.776 168.836 527.297 152.133 530.797 138.728C533.448 128.675 533.023 116.866 536.258 105.908C536.47 105.217 536.682 104.631 536.894 103.94C535.781 103.036 534.667 102.131 533.554 101.068H533.66ZM476.079 92.6629C477.351 97.7695 485.993 93.8864 491.349 96.4397C499.567 100.376 507.149 123.09 491.349 127.398C483.289 129.579 476.185 112.398 474.117 105.961C473.268 103.355 475.601 99.6313 474.7 97.6099C472.579 92.7693 462.346 93.8332 461.922 80.0029C461.286 59.9489 499.779 84.3116 476.025 92.6629H476.079ZM434.669 52.555C436.366 53.9913 450.416 71.6515 450.31 73.0345C449.833 78.5135 431.541 93.2481 426.822 92.3438C421.307 86.8648 409.113 74.2048 410.332 66.4385C411.764 57.3425 425.125 44.576 434.616 52.6082L434.669 52.555ZM387.109 33.9373C393.577 26.4902 443.205 45.5335 407.416 55.7998C396.706 58.8851 382.708 38.9907 387.109 33.9373ZM386.579 47.2357C387.321 47.6612 395.963 60.9064 396.281 61.9171C399.198 71.9175 382.655 86.0137 370.99 82.0242C367.438 80.8008 357.47 63.3001 359.379 58.5659C365.264 52.1827 377.883 42.1823 386.632 47.2357H386.579ZM278.68 29.0967C284.353 30.2138 285.361 42.9802 292.996 41.544C295.435 38.8843 280.642 24.8944 292.042 16.1707C296.973 12.394 318.075 21.6496 318.552 27.5009C320.196 46.3846 297.026 42.8738 295.647 44.2569C295.011 44.8952 296.124 51.5976 293.155 55.7998C289.549 60.8532 271.416 69.0982 270.568 70.1621C269.242 71.7047 270.568 76.7049 268.818 79.7901C268.341 80.588 255.722 91.0671 254.874 91.4395C248.935 94.2055 231.703 79.6305 234.885 68.9386C235.68 66.3322 245.118 55.0551 247.928 53.6189C258.108 48.4591 257.737 61.0128 265.001 64.5236L257.472 45.5335C264.258 42.3419 271.045 27.6073 278.68 29.0967ZM261.713 11.7025C279.741 31.4372 241.565 55.7999 235.097 26.969C230.219 5.26604 250.155 -1.01079 261.713 11.7025ZM227.143 29.8946C233.082 31.1713 243.58 43.3526 241.83 49.9486C241.247 52.2891 230.007 63.5661 227.674 64.1512C225.288 64.7364 217.441 62.715 214.206 61.9703C218.183 74.3112 215.85 82.2902 203.284 88.1947C195.649 91.7586 183.507 80.0029 187.483 72.2898C188.597 70.1089 198.883 57.5552 200.686 57.0765C204.821 56.0658 209.222 60.8 214.206 61.9703C212.191 55.7467 209.222 56.2786 209.01 55.2147C207.472 47.4485 218.077 27.9265 227.143 29.8946ZM193.104 11.4897C206.306 8.45765 223.008 12.4472 215.426 28.7776C214.577 30.5861 203.973 40.8525 202.223 41.3312C192.627 43.8313 167.07 17.4473 193.051 11.4897H193.104ZM196.126 50.055C190.347 60.8 181.863 72.343 168.396 69.6301C174.546 78.3539 162.139 94.4715 154.292 95.2162C150.528 95.5886 138.28 90.3756 136.53 87.5032C128.842 74.8963 145.915 49.4166 160.708 64.4704C161.768 57.0233 150.793 55.9594 154.239 49.1507C154.769 48.0868 167.282 35.6395 168.396 35.1076C179.212 30.0542 189.975 41.544 196.073 49.9486L196.126 50.055ZM46.3937 58.0872C44.9621 51.0124 58.5886 47.3953 64.1558 49.2039C65.3223 55.853 48.0904 66.5449 46.3937 58.0872ZM60.1792 194.954C68.8747 209.742 61.5048 221.232 47.242 227.615C20.9965 213.784 34.9411 183.996 38.8116 161.602C47.9313 165.272 47.0299 176.443 50.9535 183.837C53.4986 188.677 57.8463 191.071 60.1792 194.954ZM84.0388 130.43C79.1609 133.356 67.3901 127.292 66.7539 128.356C63.8377 133.09 68.6627 139.048 55.0892 140.963C48.9917 141.814 36.4787 140.75 29.3208 140.377C17.0199 139.686 21.6327 120.217 23.5945 111.866C26.8818 97.8227 47.8253 106.546 43.8487 120.696C50.4233 116.494 54.8241 119.206 61.6108 120.696C61.3987 113.994 54.1878 112.504 59.1188 105.376H40.5614C32.9793 96.2801 30.7524 93.514 40.1372 85.0031C55.5664 71.0132 68.9808 77.0241 61.7169 97.7163L79.2139 92.3438C80.5925 76.8645 89.7651 60.4277 107.474 64.5236C99.256 55.2147 112.935 42.3951 121.578 41.544C128.365 40.8525 131.705 46.9697 137.962 46.7038L128.259 30.5329C136.636 13.3514 174.44 9.73429 160.496 34.8948C154.504 45.6931 142.362 45.4271 140.931 47.1293C138.969 49.4166 139.022 64.8959 128.736 71.9707C120.358 77.7688 118.185 70.0557 110.019 69.6833C123.169 90.1096 102.384 110.696 82.077 92.6629C80.2743 101.227 96.2868 102.078 97.2942 106.866C94.8552 110.483 85.6295 129.632 84.1449 130.484L84.0388 130.43ZM130.539 206.284C129.69 224.051 94.378 220.38 94.6431 201.178C94.8022 188.943 102.331 185.752 106.149 176.921C107.421 173.943 109.012 154.048 115.003 159.048C117.071 160.751 119.828 180.219 121.313 184.634C124.07 192.507 131.069 194.954 130.539 206.284ZM124.123 123.728C120.677 124.739 121.207 130.271 118.344 131.015C114.42 132.026 92.4162 131.867 92.2041 127.132C99.309 110.696 110.231 114.525 122.638 123.302L109.86 106.812C114.844 97.1312 117.124 83.8328 131.069 87.9819C136.795 89.6841 140.454 100.482 148.089 100.376C148.831 101.44 137.325 122.824 136.212 123.515C131.387 126.6 126.615 123.036 124.176 123.781L124.123 123.728ZM145.544 124.473C144.271 119.579 153.815 108.993 157.314 108.302C160.973 107.557 170.729 115.004 172.319 118.143C178.152 129.739 147.505 132.026 145.491 124.473H145.544ZM164.472 105.429C160.018 97.8759 173.645 83.3541 180.326 82.7689C183.401 82.503 191.46 90.216 192.627 92.6629C199.837 108.195 174.97 116.919 164.472 105.429ZM221.841 130.909C212.775 130.218 184.037 135.537 187.377 120.483C188.014 117.611 196.391 107.876 198.989 106.653C210.336 101.387 225.023 119.366 221.841 130.909ZM209.434 101.068C207.738 95.2694 215.85 81.7051 221.099 80.1625C238.649 75.0559 256.517 108.887 235.309 115.111C227.939 117.292 211.184 107.025 209.434 101.014V101.068ZM307.63 118.781C308.902 120.058 313.568 130.856 313.356 132.132C281.066 150.165 294.056 104.951 307.63 118.781ZM346.441 111.972C348.032 123.356 329.528 146.229 319.878 130.749C317.916 127.664 310.44 110.004 311.129 107.185C311.553 105.429 324.385 92.0778 326.134 91.2267C328.096 90.2692 336.951 91.7586 338.806 92.6097C335.784 78.3007 340.238 81.3859 343.896 69.6301C337.004 70.1089 328.997 74.1516 321.044 72.1834C328.785 85.2158 313.25 105.376 299.73 97.3971C296.336 95.3758 291.193 83.8328 288.012 87.5032C285.891 89.9501 296.336 102.451 295.7 109.1C295.541 110.536 280.854 131.973 279.688 132.771C272.265 137.718 239.126 136.175 237.217 126.76C236.793 124.739 249.094 107.557 253.654 107.77C262.774 107.77 263.728 127.717 270.197 124.526C274.598 122.345 270.25 118.409 268.712 115.802C262.297 105.057 254.608 101.759 265.531 89.1522C272.371 81.2263 276.082 82.0774 285.467 84.8967C280.165 76.0666 287.27 61.9171 295.7 58.1936C299.836 56.3318 305.827 57.5552 308.531 55.6935C312.084 53.2466 307.789 41.0653 321.15 47.874C325.71 50.2145 329.952 68.4599 331.383 49.4166L341.457 49.2039C342.677 44.5228 337.905 43.193 336.845 39.6822C334.087 30.6393 339.92 19.5219 349.835 19.3623C387.904 18.7772 375.179 57.0765 344.002 51.8103C346.547 58.9915 346.176 62.6618 344.002 69.6833C348.032 69.4174 356.409 68.7791 359.379 70.8536C360.386 71.5451 369.188 92.0246 368.922 93.514C368.074 98.5674 361.393 105.695 355.455 105.695C344.639 105.695 345.858 95.8013 338.912 92.6629C340.503 100.216 345.964 107.504 346.6 112.025L346.441 111.972ZM392.305 134.899C390.555 136.069 362.242 137.292 356.515 137.505C353.546 137.611 350.683 139.207 348.933 134.739C344.957 124.739 355.19 129.632 358.954 129.952C368.339 130.803 359.697 118.462 361.924 112.185C363.037 108.993 371.733 105.589 373.323 100.11C382.655 99.4185 384.14 108.727 388.01 114.738C388.593 115.589 391.35 115.908 392.146 117.398C394.373 121.441 397.024 131.813 392.305 134.952V134.899ZM399.569 114.472C392.358 111.334 379.58 97.2376 382.231 89.2054C383.768 84.4179 402.379 75.641 408.317 77.6624C411.499 78.7262 426.61 103.248 422.739 105.429C413.354 101.812 406.143 116.228 399.622 114.525L399.569 114.472ZM416.854 145.697C410.438 142.452 401.743 127.611 406.09 120.696C406.568 119.898 419.399 109.525 420.247 109.1C423.587 107.398 430.109 108.461 432.23 111.121C432.654 111.653 437.055 123.834 437.055 124.526C437.108 129.526 429.208 132.824 430.321 138.516C440.713 136.814 447.447 140.165 448.083 151.282C446.917 152.399 420.565 147.559 416.854 145.644V145.697ZM474.7 225.274C472.844 230.381 462.452 242.349 456.885 243.307C448.03 244.796 428.359 235.647 424.118 227.774C410.703 202.827 435.411 202.507 441.084 188.996C444.531 180.805 440.289 163.995 447.129 161.761C465.262 159.687 458.741 177.028 463.194 188.571C468.019 201.231 481.646 206.178 474.7 225.327V225.274ZM462.134 159.155C449.462 156.123 455.294 147.771 454.393 140.803C453.014 130.058 447.023 127.239 458.263 115.643L440.448 117.079C437.691 115.323 433.449 101.972 433.821 98.9398C434.457 93.4608 453.651 80.0561 460.225 88.1947C462.346 90.8012 462.611 100.855 464.626 105.429C467.913 112.823 481.222 130.696 481.116 137.399C481.009 143.729 474.17 144.261 470.882 148.091C468.337 151.016 469.08 159.155 462.134 159.155ZM503.65 153.516C502.006 154.846 496.492 153.144 493.735 155.059C490.765 157.08 492.568 163.729 489.811 164.315C465.262 169.421 466.057 142.292 491.296 151.389C490.235 138.197 490.394 126.547 506.566 128.409C507.838 129.792 505.505 152.08 503.65 153.569V153.516ZM505.346 90.0565C513.83 90.0565 522.101 108.089 512.875 110.43C502.907 112.983 496.545 96.1205 505.346 90.0565ZM521.147 141.707C519.662 147.559 517.7 156.389 511.709 158.995C512.08 150.591 515.367 142.612 516.587 134.367C517.753 126.547 511.656 120.909 520.563 115.643C526.873 115.323 522.048 138.09 521.147 141.707Z" fill="#E831B6"/>
<path d="M193.846 268.787C184.249 272.031 165.692 274.691 168.396 261.18C183.029 263.733 183.242 251.765 180.59 240.009C178.152 229.157 168.29 230.275 162.192 222.774C153.868 212.561 153.444 192.082 160.707 181.283C163.253 177.453 171.153 176.496 173.008 170.006C176.031 159.634 167.441 142.878 181.121 146.229C181.439 156.282 181.121 173.889 174.652 181.868C170.941 186.496 164.472 186.284 164.048 196.443C164.048 197.773 168.343 216.976 168.926 218.466C172.372 227.083 194.906 231.87 200.208 222.827C201.693 220.274 201.799 197.401 200.845 194.103C199.784 190.486 196.073 187.986 194.959 184.635C192.52 177.187 190.983 148.676 198.883 143.676C203.072 153.995 200.314 164.634 202.064 175.007C203.814 185.379 211.661 196.231 211.661 208.784C211.661 232.509 192.732 230.221 189.339 245.062C186.9 255.807 190.399 259.584 193.899 268.787H193.846Z" fill="#E831B6"/>
<path d="M335.519 183.837C326.929 193.943 314.204 192.667 318.446 213.944C320.09 222.349 340.185 233.892 349.941 232.934C363.885 231.551 369.187 226.391 370.831 212.614C373.217 192.667 357.151 195.433 354.659 180.06C354.023 176.283 353.917 154.633 357.947 153.889C366.642 152.346 362.029 163.783 362.401 167.187C364.468 187.347 367.756 182.507 375.603 194.848C384.563 208.891 376.398 227.562 363.09 235.7C357.523 239.105 351.955 237.243 347.873 243.36C336.579 260.276 356.674 259.903 356.674 262.403C356.515 276.925 326.982 268.893 326.134 264.904C324.437 257.031 341.245 262.191 338.382 247.669C334.723 229.211 310.334 228.892 309.167 210.965C307.523 186.869 325.816 193.358 330.058 176.921C331.913 169.687 330.27 163.198 332.444 156.336C346.706 146.654 339.495 179.209 335.625 183.783L335.519 183.837Z" fill="#E831B6"/>
</g>
<defs>
<clipPath id="clip0_8_80">
<rect width="537" height="284" fill="white"/>
</clipPath>
</defs>
</svg>
