<svg width="82" height="151" viewBox="0 0 82 151" fill="none" xmlns="http://www.w3.org/2000/svg">
<g clip-path="url(#clip0_21_683)">
<path d="M42.0726 147.785C54.1462 147.785 63.9338 137.749 63.9338 125.368C63.9338 112.987 54.1462 102.951 42.0726 102.951C29.999 102.951 20.2114 112.987 20.2114 125.368C20.2114 137.749 29.999 147.785 42.0726 147.785Z" stroke="#99E120" stroke-width="10" stroke-linecap="round" stroke-linejoin="round"/>
<path d="M41.8253 102.951L40.4229 3.21457" stroke="#99E120" stroke-width="10" stroke-linecap="round" stroke-linejoin="round"/>
<path d="M12.209 18.6952C12.209 18.6952 17.9836 44.158 40.5048 43.8196C63.0259 43.4812 69.048 17.8493 69.048 17.8493" stroke="#99E120" stroke-width="10" stroke-linecap="round" stroke-linejoin="round"/>
<path d="M3.13477 44.3272C3.13477 44.3272 4.37219 84.0863 40.9175 83.4941C78.7827 82.9866 78.9476 43.2274 78.9476 43.2274" stroke="#99E120" stroke-width="10" stroke-linecap="round" stroke-linejoin="round"/>
</g>
<defs>
<clipPath id="clip0_21_683">
<rect width="82" height="151" fill="white"/>
</clipPath>
</defs>
</svg>
