<svg width="86" height="152" viewBox="0 0 86 152" fill="none" xmlns="http://www.w3.org/2000/svg">
<g clip-path="url(#clip0_21_729)">
<path d="M42.9998 48.3675C55.6624 48.3675 65.9274 38.2644 65.9274 25.8017C65.9274 13.3389 55.6624 3.23584 42.9998 3.23584C30.3373 3.23584 20.0723 13.3389 20.0723 25.8017C20.0723 38.2644 30.3373 48.3675 42.9998 48.3675Z" stroke="#99E120" stroke-width="10" stroke-linecap="round" stroke-linejoin="round"/>
<path d="M43 48.3675V148.764" stroke="#99E120" stroke-width="10" stroke-linecap="round" stroke-linejoin="round"/>
<path d="M13.1509 133.607C13.1509 133.607 18.8611 107.89 42.4809 107.975C66.1006 108.06 72.7625 133.692 72.7625 133.692" stroke="#99E120" stroke-width="10" stroke-linecap="round" stroke-linejoin="round"/>
<path d="M3.2876 107.89C3.2876 107.89 4.06627 67.8678 42.3942 67.8678C80.7222 67.8678 82.7987 107.89 82.7987 107.89" stroke="#99E120" stroke-width="10" stroke-linecap="round" stroke-linejoin="round"/>
</g>
<defs>
<clipPath id="clip0_21_729">
<rect width="86" height="152" fill="white"/>
</clipPath>
</defs>
</svg>
