<svg width="670" height="372" viewBox="0 0 670 372" fill="none" xmlns="http://www.w3.org/2000/svg">
<g clip-path="url(#clip0_8_81)">
<path d="M525.747 239.825C526.808 242.639 534.177 256.068 535.873 257.714C547.059 268.596 574.998 263.606 577.914 279.265C578.762 283.724 578.815 305.806 577.596 309.416C576.164 313.61 568.106 315.096 567.947 317.431C567.841 318.758 573.355 323.111 572.559 327.305C572.029 329.853 566.516 333.409 564.713 337.284C561.373 344.61 562.593 359.897 549.286 356.606C535.714 353.262 549.763 326.88 554.057 318.918C556.92 313.61 563.494 313.344 561.744 305.966C558.617 292.695 550.399 293.757 543.613 288.183C542.182 287.015 519.651 263.818 518.484 262.385C513.819 256.599 513.077 247.044 501.732 244.762C501.414 251.45 508.889 253.892 510.85 259.943C514.773 272.046 499.293 299.118 489.061 307.187L542.924 363.985L560.207 361.967C561.267 363.029 560.048 366.426 557.768 370.991C558.563 370.938 559.412 370.885 560.26 370.938C562.487 370.938 564.66 371.31 566.781 371.894C573.991 360.216 581.943 349.015 590.266 337.284C623.454 290.678 647.522 245.505 670.053 197.306C667.827 195.82 665.759 193.962 664.01 191.945C657.754 194.122 652.241 188.017 651.71 188.654L656.429 202.243L634.852 239.454L621.439 236.8C616.297 230.801 635.011 186.584 646.568 184.832C644.394 179.736 625.521 170.181 620.538 165.776C607.496 154.416 596.045 139.712 580.3 128.99C565.508 118.904 542.288 110.836 529.777 100.644C519.757 92.4691 510.479 78.9332 497.544 71.8201C492.136 68.8475 487.365 68.476 481.321 68.9537L491.659 78.2962L482.328 117.524C476.232 117.736 470.506 117.683 465.046 114.551C460.433 111.897 459.691 106.854 457.677 105.368C449.512 99.4229 438.538 95.8664 431.275 87.214C427.882 85.2499 417.703 87.214 417.809 90.5582C417.968 94.7517 436.365 98.4674 440.447 100.909C452.64 108.128 465.47 117.418 477.557 124.849C480.579 126.707 488.584 137.589 490.175 137.642C498.021 137.907 489.697 124.902 489.326 123.098C486.835 110.305 498.816 97.6712 496.536 84.1883C532.427 85.4623 509.684 119.116 502.05 138.544C503.958 144.49 525.588 164.661 529.564 160.68V142.844L514.614 145.127C509.79 141.623 520.393 108.341 524.369 105.793C527.02 104.147 529.246 104.519 532.109 104.625C534.23 118.002 529.883 127.875 527.073 140.296C537.835 142.154 538.312 119.01 539.955 117.577C541.97 115.878 553.633 116.834 554.799 121.505C555.595 124.531 544.727 158.875 542.5 161.635C540.539 164.077 537.358 163.281 534.654 163.228C534.283 169.969 538.153 173.26 543.56 175.967L559.889 131.219C566.569 126.176 584.276 139.075 584.541 146.666C584.647 149.639 574.574 181.806 572.559 184.673C567.205 192.157 558.139 190.087 557.45 181.116L549.922 184.885C552.838 190.512 560.525 190.565 564.024 193.644C569.432 198.421 568.636 211.479 582.95 209.038C578.497 202.508 574.733 201.872 575.369 192.794C575.74 187.645 589.259 154.151 592.122 153.195C598.219 151.125 615.713 163.758 614.918 168.43C614.07 173.419 608.344 173.632 606.383 177.666C601.081 188.495 600.551 211.426 585.495 211.586C584.647 212.647 600.71 230.961 605.853 226.82C594.879 215.248 605.057 203.57 609.617 191.149C612.055 184.514 610.2 175.171 617.569 171.084C626.581 169.173 632.466 187.539 630.823 194.387C630.451 195.979 617.198 221.99 616.137 223.264C614.282 225.493 611.26 226.82 608.344 226.926C624.037 246.938 623.082 248.849 613.434 270.188C616.827 269.711 620.008 267.428 623.613 267.64C623.347 277.673 617.304 290.2 605.853 290.572C604.633 282.238 610.624 276.505 613.487 270.188C609.67 270.719 604.103 268.967 600.604 271.303L595.568 295.562C573.673 298.587 590.478 279.637 580.618 268.755C574.627 262.12 546.105 259.625 538.312 252.565C535.29 249.805 531.102 235.313 528.08 229.58C527.073 227.669 524.74 227.298 524.475 226.873C525.323 228.943 523.839 234.995 525.641 239.666L525.747 239.825ZM508.306 318.546C496.483 314.618 514.455 274.435 518.537 273.055C523.733 271.303 530.307 274.647 531.791 279.743C534.071 287.705 520.499 322.527 508.306 318.493V318.546ZM539.531 338.824H524.952C516.417 321.997 530.042 304.957 538.63 290.731C566.41 304.161 545.204 319.555 539.531 338.824ZM603.361 295.827C607.708 300.551 587.085 332.878 580.512 326.402C577.649 323.589 592.917 292.217 603.361 295.827Z" fill="#99E120"/>
<path d="M476.337 202.774C470.188 198.156 462.183 178.993 454.177 176.604C439.704 172.252 425.708 184.726 415.318 179.895C407.63 176.339 398.883 153.461 388.598 150.541C385.947 151.125 390.56 157.017 391.302 158.026C398.618 167.687 410.44 174.322 407.63 188.813H397.452C398.724 192.264 401.693 193.591 402.488 197.784C403.972 205.746 396.762 237.702 389.817 241.258C386.902 242.745 355.093 232.925 359.281 223.423L369.354 187.327L394.907 187.539C373.542 177.135 347.459 170.606 323.761 170.978C329.911 183.824 321.588 194.652 319.202 205.959C317.611 213.603 325.776 222.308 309.606 224.272C287.711 226.873 291.687 210.895 293.278 192.688C295.08 171.721 296.459 168.854 318.672 170.978L316.18 167.156C293.331 164.661 271.754 163.015 248.904 166.041C237.559 167.527 216.512 171.084 206.015 174.003C192.55 177.772 196.049 170.606 203.524 163.865C208.03 159.777 224.571 145.233 228.335 142.897C233.53 139.712 240.74 141.092 242.437 135.36C222.662 128.883 212.059 155.637 199.336 159.671C189.475 162.803 176.486 159.777 166.148 160.839C167.474 167.952 184.757 166.041 186.453 168.536C188.202 189.875 156.977 182.868 143.299 192.794C130.682 181.223 143.405 180.532 147.646 175.383C151.728 170.341 152.152 162.962 161.059 159.512C140.86 146.135 142.769 180.426 130.469 187.433C113.028 197.36 94.7375 182.921 83.9755 186.584C75.7582 189.344 66.5867 219.495 57.6272 221.565C53.8102 222.467 49.516 219.282 45.3808 219.336C41.2457 219.336 37.5346 221.99 33.2404 221.459C21.0471 219.866 13.2539 207.286 25.3412 199.27C33.7706 193.697 48.8798 202.933 57.8923 193.803C67.1168 184.407 65.5794 170.978 74.4329 161.848L74.2738 158.556L67.0108 151.868C78.409 143.269 91.4506 141.782 99.986 128.937C98.2895 126.229 93.8363 128.353 91.0265 125.168C89.8071 123.788 79.7874 92.3629 79.6813 90.5051C79.1512 82.702 86.2552 75.4297 89.8602 69.0599C85.9901 68.3167 83.9225 69.4314 80.8477 71.4486C55.8247 87.7448 36.2093 105.899 14.9504 127.663C8.80065 133.979 3.49918 136.421 0.0532227 142.366C4.34741 163.334 7.47528 184.832 10.8682 206.33C13.678 214.77 16.9119 231.067 23.8038 234.623C28.6812 221.034 44.7446 221.937 40.4504 234.729C35.6791 239.188 29.2113 237.437 23.8038 234.623C19.9337 245.293 21.2591 268.808 27.5679 277.991C30.4837 282.185 31.491 279.212 33.9826 276.664C30.8548 267.375 20.782 245.77 35.6261 242.532C44.4796 240.621 43.6313 256.546 44.7976 260.846C46.9182 268.702 54.8174 278.257 45.1688 285.476C37.2696 291.421 29.7415 282.185 28.9462 283.14C26.4015 296.411 42.0939 294.925 50.0461 290.306C54.9235 287.493 55.0295 281.76 61.8684 279.212C105.871 262.863 159.097 246.248 205.008 236.693C291.793 218.645 366.65 231.067 442.567 274.966C457.835 283.777 470.506 293.969 485.244 303.524C489.538 297.101 475.171 291.633 474.641 287.015C473.846 279.902 490.227 249.539 491.553 240.887C492.825 232.978 489.909 228.147 481.427 229.633C489.803 236.003 472.043 277.407 468.809 279.372C447.285 292.589 457.835 244.55 466.424 233.668C470.135 228.996 478.564 230.748 476.337 225.812C474.535 221.883 461.599 214.293 458.578 216.894C460.91 221.565 461.758 225.334 461.069 230.642C460.751 232.925 450.837 260.262 449.565 262.598C444.794 271.25 432.017 267.375 427.935 260.899C423.376 253.627 430.798 240.675 432.6 232.871C434.933 222.786 429.472 204.685 447.126 211.851L448.399 206.755L428.094 199.111C435.569 215.089 424.383 231.704 422.581 248.372C420.248 255.272 404.715 253.308 400.738 249.433C394.907 243.806 405.086 223.423 407.1 215.036C409.168 206.543 404.45 198.262 417.915 199.058L415.53 190.353L417.809 187.539C433.502 187.539 445.801 175.49 458.578 187.645C463.349 192.157 470.453 207.711 472.998 209.462C480.473 214.611 493.355 213.337 501.838 215.62C504.965 216.469 524.21 225.918 524.687 227.139C523.733 225.546 524.051 221.459 522.301 218.805C515.992 209.356 488.107 211.692 476.444 202.88L476.337 202.774ZM54.2343 103.563C55.2415 97.8835 67.753 86.3646 74.1148 90.0273C79.6813 93.2123 79.0982 107.757 80.2115 113.118C81.1127 117.524 85.0888 120.39 84.7707 126.229C83.9755 139.978 64.3071 147.462 59.1116 134.298C56.726 128.353 53.174 109.562 54.2343 103.563ZM9.06573 176.764C6.36197 168.43 0.848444 134.139 16.9119 138.12C26.8257 140.562 19.3506 154.575 28.7872 153.142L24.0159 126.866C25.2352 122.036 31.2259 121.664 33.1344 119.329C35.414 116.515 37.0045 108.075 40.2914 107.332C50.2051 105.05 48.5087 124.265 49.728 128.406C53.121 140.031 62.7696 149.161 51.6896 160.839L60.649 160.733C73.9557 185.257 28.5751 207.286 21.2061 187.592C19.3506 182.709 28.8932 182.656 32.5512 178.622C35.6791 175.171 37.6937 167.474 41.5638 163.44H26.2955C30.4307 175.277 14.2612 192.741 9.06573 176.817V176.764ZM74.0088 269.711C69.9796 273.586 59.7478 274.169 55.2946 270.56C53.5981 269.18 46.017 241.789 46.4941 238.551C47.5014 231.173 65.5794 221.3 69.0254 231.332C70.9869 237.012 76.1824 256.758 76.2884 261.961C76.2884 264.508 75.8643 267.959 74.0088 269.711ZM102.425 251.026C100.993 261.43 90.4433 267.534 82.014 261.589C79.4693 259.837 73.7967 228.306 74.5919 223.317C75.1221 220.026 78.7801 217 78.7801 215.567C78.7801 212.753 71.8352 210.258 75.8113 201.606C82.4381 187.062 103.273 195.077 115.254 196.51L115.148 203.995C105.924 207.711 94.2604 204.738 87.2624 213.072C88.6408 215.832 94.1544 213.603 96.328 216.735C98.1835 219.389 103.008 246.62 102.425 251.079V251.026ZM126.228 251.981C123.312 252.83 112.126 253.414 110.589 252.087C107.832 249.645 102.054 219.813 102.955 216.044C104.227 210.524 119.389 205.693 123.896 206.861C130.522 208.56 127.236 222.467 128.19 228.147C129.515 236.003 138.581 248.372 126.228 252.034V251.981ZM158.037 238.02C155.97 244.762 142.61 250.07 138.634 244.39C135.241 239.56 131.477 209.568 133.491 203.305C135.559 196.935 148.6 195.236 154.379 196.829C160.476 198.527 155.386 207.498 155.757 213.072C156.235 220.822 160.105 231.438 158.09 238.074L158.037 238.02ZM191.224 229.262L166.466 234.411L161.059 193.962L186.188 189.132C190.058 202.031 193.027 215.673 191.224 229.262ZM201.721 229.58C202.41 213.125 191.065 198.368 194.405 181.541C201.297 179.895 222.238 173.738 227.274 177.188C233.053 197.147 231.356 236.959 201.668 229.58H201.721ZM280.554 223.211C275.094 225.865 257.175 227.139 256.379 219.282C248.162 223.901 240.581 228.731 233.424 219.336L233.53 178.462C236.605 172.305 251.343 168.801 254.895 173.738C256.326 175.755 248.586 210.152 253.835 216.788C266.558 206.702 256.645 187.327 261.31 173.313C264.385 168.642 284.053 171.508 290.468 171.137C294.55 177.772 289.408 181.488 288.453 187.699C287.128 196.139 286.916 220.026 280.607 223.157L280.554 223.211ZM326.412 205.481C327.101 201.181 329.964 198.209 330.812 194.599C334.258 179.471 328.957 168.642 353.555 180.532C365.537 186.318 357.691 215.673 353.926 226.661C332.456 227.882 322.277 231.226 326.412 205.428V205.481Z" fill="#99E120"/>
<path d="M442.355 39.3869C443.892 40.2893 444.741 44.1643 447.285 45.8099C458.047 52.8167 471.831 50.6934 478.776 67.7859C468.173 72.0325 470.029 86.6301 466.053 97.0873C463.084 100.431 461.228 97.3527 460.963 93.2654C459.903 75.1643 476.231 54.6215 449.3 51.2243C428.518 48.6232 444.688 74.315 434.244 84.2414C423.641 74.5804 436.152 54.8338 432.706 45.1198L411.394 30.6814C401.163 30.7345 403.071 53.9314 401.852 61.9999C400.526 70.9177 393.104 75.1112 402.435 84.2414C401.322 85.1438 377.2 81.9588 373.754 81.1626C342.369 73.5719 337.651 67.4674 301.972 69.0068C233.901 71.9263 179.932 90.452 118.382 116.834C114.406 118.532 107.779 127.981 107.514 118.692C107.249 109.986 106.401 85.0376 104.439 78.4023C103.22 74.2619 97.3882 71.1832 94.7905 67.7328C99.0317 64.4417 103.273 60.779 107.779 57.8595C133.862 41.0856 179.084 25.6917 209.09 16.7208C222.291 12.8989 260.886 0.796174 271.648 0.0530229C282.41 -0.690128 300.806 4.24652 312.31 5.30816C358.645 9.6609 400.685 15.0222 442.355 39.3338V39.3869ZM287.393 5.89206C269.633 6.74138 277.638 17.8356 278.009 27.0719C278.487 40.2362 273.927 58.7088 289.461 64.1232C299.268 60.9914 301.389 54.4092 301.124 44.9075C300.965 39.7585 298.95 18.5787 297.89 14.863C296.936 11.4657 291.21 5.7859 287.446 5.94515L287.393 5.89206ZM261.469 8.91775C257.334 8.81158 239.044 15.4999 237.665 19.7996C240.316 32.6986 237.718 51.1712 239.839 62.69C241.959 74.2088 270.269 69.9623 272.655 62.2654C267.566 48.9417 273.609 25.6917 269.951 14.7037C268.944 11.5719 264.597 9.02391 261.469 8.91775ZM366.968 69.0599C361.72 39.0154 387.008 16.9862 345.232 12.8989C337.651 12.1558 335.371 12.5804 326.889 11.2534C319.255 10.0856 311.038 7.16604 303.722 10.7756C304.093 20.6489 305.153 56.6917 312.098 61.6284C316.71 64.9195 332.296 65.8749 335.371 61.5753C336.485 60.0359 332.19 30.7876 331.978 23.7808C331.819 19.0034 331.66 20.7551 336.432 20.6489C335.106 29.2482 341.521 37.0513 341.68 44.9606C341.786 50.5873 337.704 56.7448 340.09 61.416C344.331 69.5907 358.963 69.803 366.915 69.113L366.968 69.0599ZM229.13 23.7277C221.284 19.6404 197.427 23.8869 194.458 32.5393C192.868 37.1044 198.381 73.3064 201.562 75.589C206.652 79.1986 233.318 74.8989 236.181 69.0599L229.13 23.7808V23.7277ZM394.907 76.7037L399.731 29.9914C394.165 21.4982 383.191 23.1438 374.549 23.1969C374.231 33.7071 375.132 44.3236 374.39 54.8338C373.913 61.2037 367.18 68.9006 371.792 75.1643C374.549 78.8801 389.658 75.6951 394.907 76.6506V76.7037ZM161.059 38.5376L167.262 84.5068C171.874 91.7791 186.665 79.5701 194.193 80.6318L188.468 42.8904C183.59 24.8424 173.199 39.8116 161.059 38.5376ZM147.487 46.4999C140.913 47.0838 136.142 53.7191 135.453 60.0359C134.923 65.0256 137.149 88.3818 138.528 92.8938C141.39 102.077 159.84 95.0701 161.112 85.5154C161.854 79.7294 155.545 45.7568 147.487 46.4999ZM117.004 59.2397C109.158 61.4691 109.741 71.5547 110.006 78.0308C110.324 85.3561 111.755 109.774 118.912 109.827C143.511 110.092 126.652 74.1558 126.811 61.2568C124.85 58.0719 120.238 58.2842 117.004 59.2397Z" fill="#99E120"/>
<path d="M600.816 262.704C591.432 259.625 596.469 251.238 595.303 246.726C591.485 231.969 557.874 241.842 548.756 232.128C542.447 225.387 541.705 197.413 533.275 191.574C521.135 183.187 506.397 196.192 495.211 188.919C481.321 179.949 477.716 161.051 468.65 148.046C474.111 146.772 474.429 150.806 476.709 153.938C480.102 158.61 492.613 181.594 493.991 182.443C500.3 186.318 521.665 182.125 530.837 183.717C547.112 186.531 543.136 227.298 567.046 231.491C590.955 235.685 604.845 227.829 600.763 262.651L600.816 262.704Z" fill="#99E120"/>
<path d="M183.908 130.211C188.096 122.354 201.986 98.149 210.734 97.0342C226.161 95.0171 248.056 110.199 263.96 107.279L294.497 81.6935C308.97 84.9846 325.511 90.8767 336.432 100.962C321.375 103.245 308.334 83.9229 291.316 91.4075C290.203 91.8853 274.192 102.077 273.45 102.82C270.905 105.421 271.913 111.738 268.679 112.534C251.237 116.834 231.887 102.608 215.876 104.837C200.767 106.961 198.275 127.875 183.908 130.211C182.265 133.289 182.689 138.438 177.228 140.19L153.425 127.663C163.18 129.043 173.995 131.803 183.908 130.211Z" fill="#99E120"/>
<path d="M326.306 135.306C299.533 124.318 275.093 167.421 252.615 141.676C259.03 137.801 264.119 146.188 271.064 145.127C286.068 142.844 312.31 112.853 326.306 135.306Z" fill="#99E120"/>
<path d="M143.246 122.567C144.2 129.786 137.361 127.928 133.385 134.351C129.886 140.031 122.941 161.529 117.852 164.661C112.762 167.793 101.311 164.979 94.9494 165.882C93.0409 155.584 111.914 164.289 117.216 157.654C125.592 147.144 122.464 116.675 143.246 122.62V122.567Z" fill="#99E120"/>
<path d="M387.273 148.046C374.655 137.695 355.729 152.293 343.005 150.594C339.506 150.116 325.193 141.199 328.851 137.854C335.689 137.377 341.468 145.392 347.936 145.339C360.606 145.233 383.509 120.921 387.326 148.046H387.273Z" fill="#99E120"/>
<path d="M417.809 142.897C411.288 134.829 429.26 140.243 431.222 139.925C434.827 139.394 438.379 135.943 444.423 135.2C448.346 134.723 468.597 134.086 468.597 139.128C462.13 145.923 450.678 142.419 441.984 142.95C436.682 143.269 421.944 147.993 417.809 142.95V142.897Z" fill="#99E120"/>
<path d="M405.086 117.471L388.068 97.4057C380.01 95.3355 373.277 109.084 364.423 103.457C383.297 84.1352 400.102 91.8852 405.086 117.471Z" fill="#99E120"/>
</g>
<defs>
<clipPath id="clip0_8_81">
<rect width="670" height="372" fill="white"/>
</clipPath>
</defs>
</svg>
