<svg width="119" height="144" viewBox="0 0 119 144" fill="none" xmlns="http://www.w3.org/2000/svg">
<g clip-path="url(#clip0_21_737)">
<path d="M77.2892 24.4668C77.9346 36.1648 69.4634 45.4737 58.4912 45.3913C47.519 45.3089 38.0797 35.6705 37.4343 24.0549C36.7889 12.4394 45.1794 2.96568 56.2323 3.13044C67.2851 3.2952 76.6438 12.8513 77.2892 24.4668Z" stroke="#E831B6" stroke-width="10" stroke-linecap="round" stroke-linejoin="round"/>
<path d="M58.4912 45.3913L63.4932 139.469" stroke="#E831B6" stroke-width="10" stroke-linecap="round" stroke-linejoin="round"/>
<path d="M32.5131 140.211C30.8189 108.412 43.3239 82.7917 60.4277 83.0389C77.5314 83.286 92.8602 109.153 94.5544 140.952" stroke="#E831B6" stroke-width="10" stroke-linecap="round" stroke-linejoin="round"/>
<path d="M46.6314 139.222C45.502 117.803 52.1175 100.586 61.3955 100.668C70.6735 100.751 79.2253 118.215 80.3548 139.552" stroke="#E831B6" stroke-width="10" stroke-linecap="round" stroke-linejoin="round"/>
<path d="M99.7986 93.8307C82.0494 82.3799 71.2386 66.3158 75.6759 57.9954C80.1132 49.6751 98.1044 52.2288 115.854 63.6796" stroke="#E831B6" stroke-width="10" stroke-linecap="round" stroke-linejoin="round"/>
<path d="M22.4283 92.9245C38.9672 81.8856 48.0839 66.0687 42.6784 57.5835C37.273 49.0984 19.6045 51.2403 2.98486 62.3616" stroke="#E831B6" stroke-width="10" stroke-linecap="round" stroke-linejoin="round"/>
<path d="M10.8911 75.6247C10.8911 75.6247 28.2369 61.4554 58.4911 61.7849C88.7453 62.1144 109.399 76.6957 109.399 76.6957" stroke="#E831B6" stroke-width="10" stroke-linecap="round" stroke-linejoin="round"/>
</g>
<defs>
<clipPath id="clip0_21_737">
<rect width="119" height="144" fill="white"/>
</clipPath>
</defs>
</svg>
