<svg width="469" height="107" viewBox="0 0 469 107" fill="none" xmlns="http://www.w3.org/2000/svg">
<g clip-path="url(#clip0_16_601)">
<path d="M2.40869 40.0664C12.5558 36.4999 21.803 33.7088 31.4225 30.9486C40.98 28.2505 50.5065 25.7384 60.095 23.4745C79.241 18.8846 98.4801 15.039 117.781 11.9377C156.415 5.79712 195.358 2.23064 234.488 2.10659C312.593 1.73443 391.846 14.3877 466.816 46.7652" stroke="#E831B6" stroke-width="4" stroke-linecap="round" stroke-linejoin="round"/>
<path d="M17.1793 98.712C25.2163 95.8898 34.3704 93.0676 43.1832 90.5866C52.089 88.0746 61.0569 85.7176 70.0869 83.5777C88.1158 79.2669 106.331 75.6384 124.608 72.6921C161.162 66.8617 197.965 63.5123 234.705 63.4193C308.093 63.0471 381.481 75.0491 449.439 104.387" stroke="#E831B6" stroke-width="4" stroke-linecap="round" stroke-linejoin="round"/>
<path d="M56.4023 55.728C50.3513 67.699 44.5485 79.763 39.0871 91.8581C29.5917 84.1359 19.9411 76.5377 9.88708 69.4047C15.1623 56.8755 20.9651 44.5324 26.9851 32.2202C37.0391 39.8494 46.8138 47.6647 56.3713 55.697L56.4023 55.728Z" stroke="#E831B6" stroke-width="4" stroke-linecap="round" stroke-linejoin="round"/>
<path d="M79.8927 50.2077C73.5624 61.9927 67.4804 73.8396 61.6466 85.7486C52.3063 77.6232 42.7798 69.7459 33.0051 62.0547C38.7458 49.8666 44.7968 37.7405 51.0961 25.7075C60.9018 33.6778 70.4904 41.8653 79.8617 50.2077H79.8927Z" stroke="#E831B6" stroke-width="4" stroke-linecap="round" stroke-linejoin="round"/>
<path d="M2.50183 40.0354C13.4557 46.8272 23.1684 54.4254 33.0362 62.0546C27.3886 74.2427 21.6168 86.5858 17.2725 98.8049" stroke="#E831B6" stroke-width="4" stroke-linecap="round" stroke-linejoin="round"/>
<path d="M103.507 45.4316C96.9286 56.9684 90.5673 68.6603 84.4542 80.3522C75.3001 71.9476 65.9599 63.7292 56.3713 55.6969C62.4223 43.6948 68.7526 31.8169 75.3001 20.001C84.9197 28.3124 94.291 36.779 103.476 45.4316H103.507Z" stroke="#E831B6" stroke-width="4" stroke-linecap="round" stroke-linejoin="round"/>
<path d="M127.215 41.431C120.388 52.7818 113.778 64.1945 107.417 75.7624C98.4491 67.0477 89.264 58.5502 79.8927 50.2077C86.223 38.4538 92.8015 26.7309 99.5973 15.1321C109 23.6917 118.216 32.4993 127.215 41.431Z" stroke="#E831B6" stroke-width="4" stroke-linecap="round" stroke-linejoin="round"/>
<path d="M151.015 38.1437C143.94 49.3083 137.082 60.504 130.473 71.8547C121.691 62.892 112.692 54.0533 103.507 45.4317C110.086 33.8329 116.912 22.3891 123.987 10.9763C133.204 19.846 142.234 28.9328 151.015 38.1126V38.1437Z" stroke="#E831B6" stroke-width="4" stroke-linecap="round" stroke-linejoin="round"/>
<path d="M174.878 35.6316C167.555 46.4862 160.449 57.5888 153.591 68.6604C145.026 59.4496 136.214 50.3318 127.215 41.4311C134.042 30.0493 141.117 18.8226 148.44 7.62695C157.47 16.8378 166.283 26.1107 174.878 35.6316Z" stroke="#E831B6" stroke-width="4" stroke-linecap="round" stroke-linejoin="round"/>
<path d="M198.679 33.8948C191.107 44.5322 183.784 55.3247 176.678 66.2413C168.299 56.6893 159.735 47.3854 150.922 38.1435C157.997 27.0409 165.321 15.9383 172.892 5.02173C181.705 14.4807 190.331 24.0637 198.71 33.8637L198.679 33.8948Z" stroke="#E831B6" stroke-width="4" stroke-linecap="round" stroke-linejoin="round"/>
<path d="M222.603 32.9025C214.784 43.4779 207.212 53.7742 199.858 64.5357C191.728 54.7356 183.349 45.0906 174.754 35.6316C182.077 24.7151 189.649 13.8916 197.468 3.25415C206.064 12.8682 214.473 23.0404 222.603 32.9025Z" stroke="#E831B6" stroke-width="4" stroke-linecap="round" stroke-linejoin="round"/>
<path d="M246.559 32.8405C238.491 42.8267 230.672 53.371 223.1 63.5743C215.218 53.6812 207.057 43.5399 198.679 33.8949C206.25 23.1024 214.07 12.8061 222.138 2.23071C230.516 12.434 238.677 22.3891 246.559 32.8405Z" stroke="#E831B6" stroke-width="4" stroke-linecap="round" stroke-linejoin="round"/>
<path d="M270.484 33.6158C262.168 43.3539 254.1 53.4021 246.28 63.5433C238.646 53.0919 230.733 43.1368 222.603 32.9335C230.423 22.6993 238.491 12.1859 246.838 2.19971C255 12.527 262.881 22.9474 270.515 33.6468L270.484 33.6158Z" stroke="#E831B6" stroke-width="4" stroke-linecap="round" stroke-linejoin="round"/>
<path d="M294.409 35.2283C285.813 44.8113 277.497 54.3013 269.429 64.2564C262.075 53.588 254.441 43.1676 246.559 32.8403C254.627 22.7301 262.975 12.6819 271.57 2.94385C279.452 13.4572 287.085 24.4048 294.409 35.2283Z" stroke="#E831B6" stroke-width="4" stroke-linecap="round" stroke-linejoin="round"/>
<path d="M318.271 37.7715C309.397 47.0754 300.863 56.2242 292.547 65.8072C285.472 55.0147 278.149 44.0671 270.515 33.5847C278.862 23.6296 287.427 14.1706 296.302 4.61865C303.904 15.4732 311.227 26.7309 318.271 37.7715Z" stroke="#E831B6" stroke-width="4" stroke-linecap="round" stroke-linejoin="round"/>
<path d="M342.01 41.3999C332.918 50.0525 324.043 59.2943 315.51 68.2571C308.745 57.2785 301.732 46.0518 294.378 35.1973C302.973 25.6453 311.817 16.5275 320.971 7.25464C328.263 18.6984 335.307 29.801 341.979 41.3999H342.01Z" stroke="#E831B6" stroke-width="4" stroke-linecap="round" stroke-linejoin="round"/>
<path d="M365.656 46.0519C356.315 54.2393 347.192 63.078 338.379 71.7927C332.018 60.2559 325.253 49.1842 318.271 37.8025C327.115 28.8708 336.269 19.6599 345.672 11.0693C352.654 22.7302 359.356 34.143 365.656 46.0829V46.0519Z" stroke="#E831B6" stroke-width="4" stroke-linecap="round" stroke-linejoin="round"/>
<path d="M389.115 51.7272C384.274 55.6968 379.557 59.6665 374.903 63.6982C370.217 67.8539 365.594 72.0407 361.094 76.2274C355.105 64.3495 348.713 52.9987 342.041 41.3999C351.133 32.7473 360.567 23.9706 370.248 15.8452C373.568 21.7997 376.827 27.7232 379.961 33.6156C383.095 39.6321 386.167 45.7107 389.146 51.7272H389.115Z" stroke="#E831B6" stroke-width="4" stroke-linecap="round" stroke-linejoin="round"/>
<path d="M412.388 58.5501C402.458 66.0243 392.901 73.5604 383.56 81.7168C380.767 75.7623 377.882 69.7148 374.903 63.7293C371.893 57.8679 368.821 51.9754 365.656 46.0829C370.341 41.9272 375.12 37.7715 379.961 33.6778C384.802 29.6771 389.704 25.7695 394.7 21.8308C401 33.8328 406.864 46.3 412.419 58.5811L412.388 58.5501Z" stroke="#E831B6" stroke-width="4" stroke-linecap="round" stroke-linejoin="round"/>
<path d="M435.413 66.4895C425.204 73.6225 415.46 80.4144 405.84 88.1986C400.658 76.0415 395.104 63.6674 389.146 51.7584C398.827 43.695 408.726 36.2829 418.998 28.9019C424.924 41.121 430.324 54.1154 435.444 66.4895H435.413Z" stroke="#E831B6" stroke-width="4" stroke-linecap="round" stroke-linejoin="round"/>
<path d="M449.408 104.449C445.094 91.951 440.502 79.0496 435.413 66.4894C445.591 59.5425 455.986 53.2158 466.847 46.7651" stroke="#E831B6" stroke-width="4" stroke-linecap="round" stroke-linejoin="round"/>
<path d="M458.127 75.6072C447.639 82.1819 437.616 88.6636 427.779 95.7656C423 83.5155 417.973 70.6451 412.388 58.5501C422.349 50.8899 432.465 44.2221 443.015 37.2131C448.477 49.9284 453.442 62.9849 458.096 75.6382L458.127 75.6072Z" stroke="#E831B6" stroke-width="4" stroke-linecap="round" stroke-linejoin="round"/>
</g>
<defs>
<clipPath id="clip0_16_601">
<rect width="469" height="107" fill="white"/>
</clipPath>
</defs>
</svg>
