<svg width="134" height="132" viewBox="0 0 134 132" fill="none" xmlns="http://www.w3.org/2000/svg">
<g clip-path="url(#clip0_21_667)">
<path d="M67.0407 84.3711C77.363 84.3711 85.7308 76.1282 85.7308 65.96C85.7308 55.7918 77.363 47.5488 67.0407 47.5488C56.7184 47.5488 48.3506 55.7918 48.3506 65.96C48.3506 76.1282 56.7184 84.3711 67.0407 84.3711Z" stroke="#99E120" stroke-width="10" stroke-linecap="round" stroke-linejoin="round"/>
<path d="M85.7305 66.2802L130.993 66.8405" stroke="#99E120" stroke-width="10" stroke-linecap="round" stroke-linejoin="round"/>
<path d="M120.348 52.912L119.941 80.5288" stroke="#99E120" stroke-width="10" stroke-linecap="round" stroke-linejoin="round"/>
<path d="M48.3505 65.7198L3.08789 65.1595" stroke="#99E120" stroke-width="10" stroke-linecap="round" stroke-linejoin="round"/>
<path d="M14.0582 51.4712L13.6519 79.0879" stroke="#99E120" stroke-width="10" stroke-linecap="round" stroke-linejoin="round"/>
<path d="M67.2847 47.6289L67.8535 3.04184" stroke="#99E120" stroke-width="10" stroke-linecap="round" stroke-linejoin="round"/>
<path d="M53.7139 13.4482L81.749 13.8484" stroke="#99E120" stroke-width="10" stroke-linecap="round" stroke-linejoin="round"/>
<path d="M66.7153 84.4512L66.1465 129.038" stroke="#99E120" stroke-width="10" stroke-linecap="round" stroke-linejoin="round"/>
<path d="M52.251 118.152L80.2862 118.552" stroke="#99E120" stroke-width="10" stroke-linecap="round" stroke-linejoin="round"/>
</g>
<defs>
<clipPath id="clip0_21_667">
<rect width="134" height="132" fill="white"/>
</clipPath>
</defs>
</svg>
