<svg width="409" height="673" viewBox="0 0 409 673" fill="none" xmlns="http://www.w3.org/2000/svg">
<g clip-path="url(#clip0_14_441)">
<path d="M232.238 584.344C233.14 566.297 233.995 548.251 234.968 530.208C235.467 520.981 231.867 517.747 222.588 518.572C215.147 519.231 207.644 519.184 200.165 519.497C190.387 519.905 180.562 519.886 170.846 520.905C158.945 522.152 155.147 520.744 151.78 509.468C149.448 501.668 148.645 493.389 147.435 485.285C145.991 475.636 144.642 465.958 143.631 456.257C142.866 448.935 140.896 441.097 142.615 434.279C147.354 415.45 147.7 396.506 147.397 377.374C147.097 358.568 153.883 342.081 166.097 328.231C169.896 323.925 176.497 321.753 182.172 319.501C194.381 314.665 196.057 305.75 186.996 296.29C176.554 285.389 164.008 280.031 149.353 281.923C130.311 284.379 117.432 272.506 103.048 263.98C100.816 262.657 98.8929 259.812 98.0808 257.271C94.8137 247.034 91.3091 236.782 89.2814 226.27C87.1017 214.989 97.6297 177.843 105.717 169.772C111.349 164.153 118.643 159.606 125.999 156.424C139.504 150.578 143.241 142 138.597 128.121C134.884 117.021 133.725 105.086 130.258 93.8812C127.874 86.1854 123.525 79.0918 119.92 71.7943C119.531 71.0072 118.325 70.4903 117.389 70.1205C104.245 64.8667 82.4385 72.7995 74.3608 84.6111C68.6291 92.9945 61.5345 100.477 54.7295 108.073C53.1577 109.828 50.3179 111.236 47.9721 111.378C36.1144 112.099 24.2188 112.801 12.3517 112.62C3.46682 112.488 -0.0330068 108.04 0.000234373 99.1966C0.000234373 98.4237 0.0429731 97.6413 0.180687 96.8827C3.29112 79.3763 5.04815 62.0216 3.48581 43.9747C1.80476 24.5859 13.254 13.4855 32.7571 11.9208C47.0793 10.7685 61.0406 11.6173 73.9572 19.3889C80.6814 23.4336 84.9411 28.0947 85.4729 36.3074C86.4369 51.3054 89.4903 53.5767 104.397 52.2964C109.739 51.8365 115.371 50.5657 120.414 51.6942C130.415 53.9275 138.25 58.8637 140.193 70.6563C141.152 76.4744 145.678 81.6144 147.62 87.385C152.44 101.738 156.144 116.48 161.358 130.677C165.964 143.228 173.272 145.438 186.284 143.427C195.763 141.962 205.683 143.276 215.403 143.517C218.723 143.603 222.023 144.456 225.338 144.518C234.626 144.703 243.924 144.475 253.208 144.75C262.734 145.03 269.634 141.753 275.546 133.678C279.388 128.429 286.136 124.958 292.153 121.762C296.773 119.311 299.181 116.172 301.802 111.677C307.035 102.701 312.914 93.3785 320.716 86.7876C332.697 76.6593 342.071 65.1037 347.988 50.8786C349.703 46.7486 349.603 41.3762 348.853 36.8195C347.366 27.8244 344.607 19.0475 342.845 10.0857C341.929 5.41987 343.914 1.75453 349.232 1.50322C354.185 1.26614 358.602 2.36147 359.656 8.36922C360.188 11.4134 360.003 15.1925 361.764 17.2741C364.357 20.3373 368.189 22.7603 371.974 24.1259C372.877 24.4531 376.248 19.7635 377.45 16.9422C378.618 14.1968 377.464 10.1142 379.112 8.00885C381.685 4.72284 385.76 2.60804 389.198 -0.00463867C391.15 3.25766 395.405 7.22647 394.659 9.65896C391.173 20.9774 393.761 28.0663 405.268 32.3765C407.447 33.1921 409.831 40.4421 408.715 41.6987C405.98 44.7713 400.149 48.7496 397.499 47.6637C378.703 39.949 370.127 54.9186 359.195 64.07C355.501 67.1616 352.647 72.112 351.17 76.7683C349.299 82.667 352.694 86.4035 359.062 85.659C362.776 85.2228 366.375 83.6106 369.966 82.3493C372.615 81.42 375.07 79.6845 377.772 79.2245C384.805 78.0202 391.515 83.1175 391.743 89.3813C391.89 93.4449 385.171 99.0212 379.482 97.243C362.358 91.8849 347.713 102.246 331.733 103.81C327.08 104.266 322.602 109.951 318.698 113.886C311.831 120.824 305.596 128.377 298.863 135.456C292.39 142.266 293.772 149.644 302.519 153.309C303.692 153.802 304.984 154.291 306.228 154.309C315.132 154.456 324.173 154.547 330.247 162.456C337.522 171.934 343.344 182.086 343.425 194.647C343.529 210.641 345.495 226.801 343.738 242.567C342.29 255.578 337.731 268.637 332.222 280.605C330.005 285.422 321.899 289.221 315.911 290.278C303.246 292.511 290.158 292.213 277.346 293.792C270.313 294.659 263.242 296.608 256.641 299.216C249.124 302.184 248.027 306.063 253.308 312.09C257.895 317.325 262.639 322.735 270.85 323.636C281.349 324.788 289.688 334.613 291.782 345.258C293.349 353.234 296.113 360.967 297.894 368.91C299.015 373.903 299.869 379.081 299.879 384.183C299.95 420.286 300.078 456.399 299.404 492.493C299.28 499.065 296.222 505.869 293.354 512.024C289.978 519.279 283.111 520.891 275.584 519.924C272.255 519.497 268.922 518.454 265.617 518.553C256.646 518.814 249.457 522.053 249.58 532.849C249.922 562.011 249.628 591.177 249.495 620.339C249.466 626.527 249.21 632.724 248.759 638.898C248.018 649.017 252.083 653.711 262.017 652.966C269.477 652.407 276.862 650.425 284.312 650.211C297.718 649.827 311.148 650.292 324.563 650.406C331.249 650.463 333.828 655.005 333.951 660.506C334.074 665.925 331.805 670.743 325.361 671.573C322.815 671.9 320.222 671.862 317.649 671.91C294.237 672.332 270.821 673.209 247.419 672.967C232.988 672.82 218.585 670.748 204.149 669.918C190.012 669.107 175.842 668.837 161.69 668.206C155.835 667.945 150.08 667.253 148.793 659.832C147.473 652.227 151.058 648.443 158.214 646.513C167.916 643.905 176.677 641.269 184.836 651.146C190.074 657.49 224.578 654.787 230.006 648.504C231.934 646.271 232.779 642.464 232.822 639.353C233.073 621.026 232.945 602.695 232.945 584.368C232.708 584.363 232.475 584.354 232.238 584.349V584.344ZM326.339 222.87C326.211 209.261 325.475 196.639 319.306 183.675C311.551 167.373 309.443 164.044 291.364 163.186C288.525 163.053 285.666 163.195 282.84 162.935C265.151 161.318 247.491 159.25 229.773 158.174C223.809 157.814 217.374 159.089 211.794 161.256C209.168 162.276 206.518 167.164 206.49 170.327C206.262 195.093 206.922 219.864 206.732 244.625C206.675 252.226 205.383 259.95 203.65 267.38C201.433 276.892 207.065 283.445 216.828 282.336C233.71 280.415 250.639 278.898 267.554 277.248C268.831 277.124 270.261 276.911 271.405 277.328C284.854 282.189 297.856 280.586 310.198 274.09C313.897 272.141 318.76 268.879 319.501 265.446C322.535 251.42 324.183 237.09 326.339 222.875V222.87ZM205.787 371.854C206.072 371.854 206.357 371.854 206.642 371.854C206.642 385.269 206.803 398.683 206.556 412.088C206.471 416.801 204.595 420.627 198.73 420.642C193.179 420.656 190.843 417.408 190.183 412.562C189.765 409.508 189.77 406.388 189.765 403.297C189.736 385.757 189.808 368.217 189.732 350.683C189.717 347.354 190.012 343.636 188.663 340.81C187.462 338.292 184.361 335.49 181.787 335.144C179.175 334.788 174.365 336.638 173.648 338.643C170.02 348.734 165.712 359.042 164.815 369.545C163.01 390.575 162.697 411.779 162.844 432.909C162.972 451.43 163.704 470.036 165.803 488.42C167.37 502.128 177.551 507.666 191.199 504.783C194.214 504.148 197.339 503.669 200.402 503.716C210.45 503.878 220.489 504.39 230.538 504.617C240.154 504.84 241.825 501.91 241.36 492.645C240.311 471.776 229.393 451.577 237.039 430.125C237.357 429.229 236.934 428.086 236.925 427.057C236.773 410.627 235.942 394.164 236.692 377.777C237.4 362.371 240.239 347.069 241.284 331.664C241.992 321.227 238.696 317.135 230.823 315.347C218.77 312.611 211.756 315.286 207.858 325.049C206.295 328.966 205.977 333.541 205.877 337.837C205.616 349.17 205.792 360.517 205.792 371.859L205.787 371.854ZM190.031 168.027C190.729 168.027 191.422 168.027 192.12 168.027C192.419 156.059 187.96 151.692 176.193 153.622C169.625 154.698 163.295 157.188 156.851 159.023C153.152 160.075 149.467 161.844 145.735 161.963C137.324 162.238 131.555 165.675 126.383 172.465C112.555 190.617 104.264 209.868 110.247 233.117C111.529 238.1 112.313 243.245 114.051 248.058C115.205 251.244 116.952 255.128 119.616 256.716C138.868 268.191 160.361 271.975 182.338 273.601C184.57 273.767 187.414 273.568 189.015 272.316C190.729 270.974 192.291 268.144 192.201 266.038C191.926 259.661 190.202 253.321 190.14 246.958C189.884 220.651 190.031 194.339 190.031 168.027ZM283.548 392.466C280.855 380.532 278.467 370.617 276.42 360.635C275.033 353.869 275.119 346.609 272.607 340.341C271.211 336.851 265.887 333.029 262.259 332.953C259.505 332.896 255.782 338.122 254.072 341.74C252.524 345.011 252.833 349.293 252.823 353.129C252.79 370.356 254.087 387.673 252.738 404.785C250.952 427.422 248.136 449.865 252.771 472.488C253.835 477.689 253.673 483.27 253.294 488.619C252.558 498.918 255.582 503.754 264.178 504.698C273.97 505.774 281.33 500.544 282.147 491.203C282.983 481.705 283.41 472.146 283.481 462.606C283.662 438.66 283.543 414.715 283.543 392.462L283.548 392.466ZM41.7085 66.7965C38.0709 67.3039 32.4104 67.7781 26.9209 69.0157C24.689 69.5183 21.1844 71.5572 21.0752 73.0935C20.5196 81.0738 20.5386 89.1489 21.2414 97.115C21.3553 98.4237 26.1991 100.738 28.2363 100.207C35.6538 98.272 42.9526 95.6593 50.0188 92.6578C55.8265 90.1921 61.9144 78.978 60.0861 74.0371C57.4316 66.8629 50.4889 67.5173 44.4722 66.806C44.2206 66.7776 43.9594 66.806 41.7085 66.806V66.7965ZM45.3365 52.5145C45.3365 52.3912 45.3365 52.2632 45.3365 52.1399C50.4699 52.1399 55.722 52.7848 60.6987 51.8981C63.6714 51.367 68.4059 48.5078 68.4676 46.5732C68.5721 43.2018 66.4257 38.9485 63.8566 36.5113C60.8079 33.6188 56.4676 31.8217 52.4026 30.3233C43.8691 27.1796 35.3024 27.0231 27.1916 31.9118C22.571 34.6952 20.2821 38.4364 21.55 44.1454C22.8654 50.0678 27.2105 51.8696 32.2442 52.4149C36.5608 52.8844 40.9724 52.5098 45.3413 52.5098L45.3365 52.5145ZM201.532 303.318C211.946 311.948 226.762 311.706 236.246 302.384C230.998 300.567 225.965 298.808 220.921 297.092C210.45 293.531 208.955 294.019 201.532 303.313V303.318Z" fill="#E831B6"/>
</g>
<defs>
<clipPath id="clip0_14_441">
<rect width="409" height="673" fill="white"/>
</clipPath>
</defs>
</svg>
