<svg width="386" height="630" viewBox="0 0 386 630" fill="none" xmlns="http://www.w3.org/2000/svg">
<g clip-path="url(#clip0_14_486)">
<path d="M250.413 62.3994C276.442 61.2772 290.081 42.5005 307.313 30.0301C316.854 23.1232 327.692 7.71297 338.42 22.3329C348.167 35.6252 331.11 43.7807 322.534 51.5095C297.803 73.7792 269.433 90.28 237.882 100.996C222.676 106.164 202.771 102.814 203.214 129.683C203.609 153.359 221.315 152.268 234.875 156.915C315.192 184.432 358.832 243.923 378.816 323.203C382.123 336.29 395.699 358.133 373.785 363.317C354.544 367.869 358.674 343.323 355.383 331.643C337.075 266.683 304.243 214.415 239.812 186.266C215.555 175.66 203.625 175.376 203.008 208.346C202.138 254.766 201.742 291.466 257.945 313.53C311.237 334.441 336.094 387.783 344.512 445.441C346.269 457.517 352.851 473.859 336.648 477.51C316.98 481.936 321.632 462.242 319.702 451.558C310.968 403.146 290.667 362.068 247.66 335.405C236.204 328.292 223.847 315.363 209.654 323.456C196.995 330.679 204.29 346.484 204.195 358.148C203.498 436.654 204.305 515.159 203.403 593.648C203.245 606.956 212.786 631.059 188.657 629.984C167.786 629.052 173.672 606.055 173.593 591.324C173.198 509.674 172.027 428.008 174.099 346.405C174.938 313.135 161.03 312.819 138.134 323.171C99.0039 340.857 80.6019 374.807 70.5068 414.178C66.6302 429.32 65.396 445.141 62.7061 460.599C61.3295 468.517 58.7029 476.673 48.7661 475.835C37.9907 474.934 39.4781 465.293 38.6237 457.912C31.709 398.816 72.5322 317.466 128.988 300.981C171.394 288.589 179.131 267.473 173.324 231.263C170.508 213.72 183.467 189.253 164.985 179.928C146.599 170.666 125.745 184.875 108.403 195.575C62.6587 223.803 39.1458 266.399 30.9021 318.635C28.8293 331.754 30.9495 352.996 12.8798 351.115C-7.26279 349.013 1.66133 328.182 3.97148 316.264C19.8102 234.725 61.1555 174.364 145.84 152.347C159.068 148.902 173.625 150.925 174.036 129.382C174.495 105.738 158.561 106.781 143.53 102.845C106.33 93.0933 74.8107 72.9099 47.0889 46.6573C40.3325 40.2561 32.5318 31.8951 40.9971 22.7596C49.9529 13.1184 57.5953 22.3013 64.684 27.9912C73.2442 34.8507 81.2506 42.5163 90.3804 48.5065C100.523 55.1605 110.713 68.3422 122.754 63.7428C137.643 58.0687 127.279 41.6312 129.51 30.1565C131.726 18.6977 125.27 -0.221304 142.311 -2.93917e-05C160.017 0.23705 152.169 19.2508 153.656 30.4884C156.615 52.7265 141.805 83.7682 184.954 83.8314C216.869 83.8788 230.35 72.3409 227.328 39.1023C226.204 26.6635 215.999 1.61211 239.923 2.41818C256.3 2.97137 246.932 25.9997 249.068 38.9285C250.287 46.2779 249.986 53.8803 250.413 62.3836V62.3994Z" fill="#99E120"/>
</g>
<defs>
<clipPath id="clip0_14_486">
<rect width="386" height="630" fill="white"/>
</clipPath>
</defs>
</svg>
