<svg width="340" height="426" viewBox="0 0 340 426" fill="none" xmlns="http://www.w3.org/2000/svg">
<g clip-path="url(#clip0_14_489)">
<path d="M339.511 404.567C335.596 390.79 326.346 401.672 319.4 403.08C282.952 410.451 273.923 403.033 277.648 365.893C281.089 331.648 286.867 297.624 290.308 263.379C291.65 250.029 294.886 242.247 308.287 234.971C337.743 219.011 341.389 172.981 313.938 164.677C285.304 156.009 288.824 134.117 285.651 116.291C280.6 87.8984 301.942 63.1754 329.676 59.1103C333.575 58.5409 338.974 58.4776 338.642 52.9889C338.422 49.3192 336.338 44.8903 333.623 42.3911C320.979 30.7335 296.101 36.8707 285.225 54.8395C280.237 63.0805 277.364 72.5869 272.407 84.1338C260.9 38.7689 274.27 16.7507 307.908 20.974C314.791 21.844 323.583 27.6174 326.251 17.5258C329.282 6.10548 317.522 5.06152 310.45 2.57815C300.458 -0.917538 289.598 -1.17062 279.811 3.38485C260.647 12.306 253.481 30.3064 249.945 50.4423C185.856 10.6768 156.29 13.6347 98.8635 64.6307C67.0876 27.0164 43.8832 15.8491 18.974 24.881C11.9969 27.4118 3.83587 29.4839 7.35599 39.2117C10.1816 47.0256 16.6062 43.4825 22.9677 42.5967C50.6551 38.753 77.5217 55.6304 83.8201 79.2778C85.5722 85.8421 85.5249 92.4064 79.2266 95.3168C72.5178 98.4171 71.2234 90.9512 68.682 86.9335C57.7269 69.6765 42.4941 60.2808 21.7364 62.2738C12.6756 63.1438 -0.773448 64.2352 0.0316032 75.0703C1.13658 90.097 13.386 81.081 21.8153 80.6064C50.4499 78.9614 59.2108 101.233 64.8777 121.954C70.1658 141.33 61.5944 153.352 38.5636 158.366C12.2494 164.092 2.46254 205.439 25.3828 217.619C55.7538 233.753 50.7183 257.574 53.8753 281.965C57.206 307.795 60.8524 333.862 67.798 358.854C74.5067 382.944 81.547 403.966 46.3142 408.885C41.0892 409.613 36.4641 412.982 38.0269 419.578C39.1318 424.197 42.794 425.589 47.4665 425.889C76.3063 427.756 96.1958 403.555 87.8138 375.89C75.6433 335.697 68.7451 294.413 66.9771 252.75C64.4357 192.469 71.9495 133.406 107.703 82.3147C150.355 21.3853 220.189 25.4504 256.796 90.2077C268.729 111.324 275.217 134.26 278.058 158.445C286.472 230.115 267.388 299.538 261.358 370.006C257.664 413.093 282.305 433.592 323.789 420.258C331.16 417.885 342.478 414.912 339.526 404.567H339.511ZM299.779 178.343C303.173 174.879 309.692 179.641 312.249 184.275C321.342 200.741 309.629 209.757 298.469 219.105C296.306 204.727 288.208 190.128 299.779 178.328V178.343ZM51.0498 215.847C35.9906 207.796 25.3039 200.472 32.5651 183.975C35.8958 176.398 45.5091 167.287 51.3023 173.519C62.1153 185.129 51.6022 199.713 51.0498 215.847Z" fill="#E831B6"/>
<path d="M172.502 272.553C150.655 271.588 128.777 278.327 127.782 304.6C126.835 329.813 148.413 334.716 168.982 338.37C188.666 335.65 210.071 331.996 211.634 307.02C213.228 281.791 193.228 273.455 172.502 272.537V272.553ZM168.508 322.917C155.911 321.224 140.426 319.737 142.415 303.224C144.167 288.75 159.479 285.84 172.123 286.647C183.41 287.374 197.427 290.664 196.764 305.185C196.022 321.509 181.215 321.936 168.508 322.917Z" fill="#E831B6"/>
<path d="M227.15 146.313C230.292 142.042 233.717 137.328 227.703 133.295C222.857 130.052 217.537 131.871 213.607 135.81C198.058 151.359 192.407 170.925 190.797 191.836C192.139 215.452 193.67 238.435 218.39 250.503C223.173 252.844 228.429 254.489 232.533 249.618C235.596 245.98 234.775 241.424 231.286 238.624C194.712 209.362 203.741 178.185 227.135 146.313H227.15Z" fill="#E831B6"/>
<path d="M167.135 178.676C163.884 161.751 168.903 140.508 145.872 131.808C140.853 129.91 135.075 129.989 131.413 134.371C128.319 138.072 131.382 141.299 134.002 144.81C159.148 178.375 157.317 196.739 125.809 229.34C121.563 233.737 114.633 237.834 119.558 244.382C123.915 250.187 130.608 247.546 136.401 244.113C161.184 229.403 165.32 205.091 167.135 178.692V178.676Z" fill="#E831B6"/>
<path d="M99.5577 177.363C90.1654 178.027 84.1197 182.994 83.2357 192.168C82.3359 201.627 87.8923 208.017 97.0163 208.951C106.551 209.931 112.454 203.335 113.543 194.636C114.743 185.129 107.719 180.352 99.5419 177.363H99.5577Z" fill="#E831B6"/>
<path d="M246.977 182.867C238.737 182.693 233.765 188.119 232.818 195.964C231.713 205.218 236.101 212.43 245.477 213.522C255.106 214.645 259.968 207.938 261.957 198.527C260.647 190.112 256.874 183.089 246.977 182.867Z" fill="#E831B6"/>
</g>
<defs>
<clipPath id="clip0_14_489">
<rect width="340" height="426" fill="white"/>
</clipPath>
</defs>
</svg>
