<svg width="241" height="434" viewBox="0 0 241 434" fill="none" xmlns="http://www.w3.org/2000/svg">
<g clip-path="url(#clip0_14_498)">
<path d="M75.8648 46.3931C84.8616 27.2248 70.6154 0.664688 89.4944 -0.000106043C106.792 -0.601587 97.0365 24.4548 97.7164 37.7349C98.6176 55.4469 108.816 55.811 121.07 55.4786C133.451 55.1304 143.633 53.5633 143.886 36.3736C144.06 23.7426 136.629 0.237321 152.235 0.728002C171.556 1.34531 157.12 25.642 162.734 38.2572C163.129 39.1436 163.524 40.03 164.236 41.6287C179.557 38.8745 189.297 27.1773 200.808 18.3451C206.279 14.1505 211.971 5.15996 219.181 13.5649C225.205 20.5927 215.639 23.98 212.145 28.5069C196.634 48.6407 175.652 62.2215 151.745 67.0492C131.822 71.0696 130.146 80.8674 130.241 97.5347C130.826 199.786 130.684 302.054 130.272 404.306C130.241 413.708 136.202 430.106 121.023 430.185C106.666 430.249 110.966 414.135 110.951 404.29C110.714 303.099 110.239 201.892 111.251 100.716C111.457 80.5033 107.788 70.1357 85.5731 66.9384C64.4646 63.8993 47.2458 49.5429 31.1655 35.5822C25.3152 30.5171 14.3578 24.5023 21.3149 15.3218C29.5843 4.41603 35.4504 16.8097 41.5537 21.115C52.5111 28.8551 63.1839 36.991 75.8648 46.3614V46.3931Z" fill="#99E120"/>
<path d="M87.0746 277.061C87.0746 314.305 88.3396 351.613 86.4264 388.762C85.6674 403.53 98.0162 430.233 76.8446 430.913C59.5467 431.467 67.7845 404.227 67.6264 389.617C66.7251 310.886 65.9662 232.108 67.8794 153.409C68.5435 126.073 62.6774 113.316 33.6473 118.729C26.5005 120.059 18.8003 119.283 11.4479 118.492C4.75959 117.764 -1.02744 114.313 0.142612 106.383C1.18618 99.4025 7.73217 100.146 12.7444 100.036C25.4569 99.7666 38.2011 100.257 50.8978 99.8299C76.4018 98.9593 87.5016 111.306 87.2328 136.599C86.7268 183.42 87.0905 230.24 87.0746 277.061Z" fill="#99E120"/>
<path d="M154.97 277.061C154.97 235.527 154.97 193.978 154.97 152.444C155.001 105.37 159.397 100.257 205.314 101.191C217.852 101.445 240.906 93.4037 240.985 108.836C241.079 128.859 217.378 120.597 204.855 119.552C179.383 117.431 172.853 126.327 173.359 151.415C174.971 232.33 173.959 313.308 173.959 394.255C173.959 400.65 173.991 407.044 173.959 413.423C173.896 421.97 174.623 433.446 164.125 433.968C151.08 434.633 155.223 421.923 155.159 414.452C154.764 368.66 154.954 322.853 154.97 277.045V277.061Z" fill="#99E120"/>
</g>
<defs>
<clipPath id="clip0_14_498">
<rect width="241" height="434" fill="white"/>
</clipPath>
</defs>
</svg>
