<svg width="339" height="415" viewBox="0 0 339 415" fill="none" xmlns="http://www.w3.org/2000/svg">
<g clip-path="url(#clip0_14_504)">
<path d="M330.256 31.5933C317.536 19.7438 300.712 23.4932 287.061 30.1694C277.007 35.0896 268.659 44.5501 261.115 53.3304C247.511 69.1508 234.348 85.2085 216.988 97.3585C204.852 84.813 209.649 72.6629 214.305 60.3863C216.704 54.0424 221.044 45.7999 211.464 42.9048C203.037 40.3419 200.18 49.0431 196.929 55.2131C190.521 67.3631 192.794 80.4307 192.762 93.2611C192.762 98.8931 193.978 106.281 185.692 106.202C182.409 106.17 176.333 100.855 176.381 98.0388C176.996 67.2207 162.855 34.1087 191.8 6.21738C173.634 -3.38559 156.132 0.933373 139.182 1.23396C132.964 1.3447 125.925 4.82518 125.783 10.5363C125.562 18.5889 132.948 22.1327 140.476 20.7088C157.679 17.4815 159.194 27.1794 160.267 40.7374C162.066 63.7561 161.025 86.3318 156.385 119.301C146.363 87.7081 150.971 56.6844 111.516 50.9732C114.799 58.4562 115.383 62.1582 117.529 64.2623C130.628 77.1085 146.631 94.4951 128.529 108.37C110.664 122.054 94.4714 102.817 83.0451 87.9138C69.9144 70.7961 67.1683 49.1222 60.3031 29.2993C56.0261 16.9436 48.5612 8.9543 34.957 8.84356C21.9998 8.73282 11.0313 15.1717 6.43867 26.3409C-11.4267 69.7836 12.1045 106.424 29.6384 142.779C42.8638 170.196 70.1195 171.983 96.9965 168.06C140.034 161.795 183.025 156.543 226.741 157.903C282.468 159.643 325.253 125.756 336.885 71.4764C339.82 57.7601 341.525 42.0505 330.319 31.6091L330.256 31.5933ZM316.147 74.6721C294.131 127.401 265.96 142.7 202.595 135.913C160.977 140.88 119.376 146.196 77.695 150.642C62.339 152.287 49.8237 145.358 43.211 131.341C31.2797 106.091 17.3915 81.3483 16.8233 52.2547C16.6339 42.446 17.9754 31.8147 28.1707 28.8247C40.8279 25.1069 44.7577 37.1146 45.7519 45.6259C55.5526 130.075 115.351 133.018 179.79 128.904C221.281 124.348 250.856 101.709 273.314 67.8535C277.149 62.0633 281.852 56.4312 287.329 52.2547C295.567 45.9581 305.368 37.5734 315.658 45.7367C325.774 53.7576 320.314 64.6895 316.147 74.6721Z" fill="#99E120"/>
<path d="M180.532 173.249C164.134 174.103 147.784 175.717 131.418 176.967C84.4817 180.558 56.4685 210.806 57.1944 265.07C63.4757 308.64 82.146 355.357 119.486 391.364C158.437 428.922 218.756 420.442 247.369 375.228C262.962 350.564 275.524 324.017 282.374 295.082C298.093 228.652 249.137 169.689 180.548 173.249H180.532ZM259.521 297.439C251.22 327.023 241.845 356.022 217.225 377.205C188.091 402.265 155.343 400.762 128.451 373.076C97.8807 341.609 79.6682 304.447 74.8862 260.799C71.1301 226.532 84.2923 207.769 118.271 199.811C129.682 197.138 141.471 195.967 153.118 194.401C161.262 193.309 169.484 192.692 171.047 192.534C244.023 191.189 277.355 233.825 259.521 297.455V297.439Z" fill="#99E120"/>
<path d="M147.01 235.059C141.392 218.543 130.865 210.664 115.651 213.765C99.2848 217.103 87.8112 227.529 85.1914 247.494C106.424 238.065 127.03 233.92 147.01 235.059Z" fill="#99E120"/>
<path d="M145.353 316.961C146.284 327.925 142.906 342.938 157.584 345.327C170.462 347.431 169.562 334.981 169.278 325.235C163.36 315.98 176.68 296.664 156.479 295.43C145.7 294.765 144.532 307.295 145.353 316.961Z" fill="#99E120"/>
<path d="M182.315 220.346C177.58 223.051 172.041 227.924 175.371 234.442C178.495 240.564 184.698 241.704 189.985 236.736C204.141 223.399 218.898 235.027 239.777 235.913C223.112 204.795 203.431 208.259 182.315 220.33V220.346Z" fill="#99E120"/>
<path d="M120.133 256.907C110.79 258.236 101.7 261.163 101.368 272.617C101.069 282.963 106.892 290.731 117.845 290.415C128.545 290.114 139.782 286.111 139.656 273.313C139.545 263.029 130.344 258.41 120.118 256.907H120.133Z" fill="#99E120"/>
<path d="M172.577 354.535C160.188 355.167 148.115 359.423 145.211 372.285C143.507 379.847 152.944 385.78 159.62 381.492C171.031 374.168 188.943 382.489 196.061 366.447C191.642 354.661 182.078 354.028 172.561 354.519L172.577 354.535Z" fill="#99E120"/>
<path d="M200.843 248.38C192.116 249.725 183.23 254.36 183.814 265.054C184.319 274.515 190.79 282.931 201.995 281.745C212.648 280.622 217.493 272.458 217.43 262.27C217.367 252.73 212.191 247.51 200.843 248.38Z" fill="#99E120"/>
</g>
<defs>
<clipPath id="clip0_14_504">
<rect width="339" height="415" fill="white"/>
</clipPath>
</defs>
</svg>
