<svg width="574" height="572" viewBox="0 0 574 572" fill="none" xmlns="http://www.w3.org/2000/svg">
<g clip-path="url(#clip0_14_515)">
<path d="M522.123 246.805C486.111 222.552 445.832 208.433 399.786 221.808C355.952 234.552 322.483 220.148 301.388 184.29C279.518 147.119 281.272 131.909 310.679 100.034C315.452 94.8642 320.287 89.4095 323.542 83.2592C326.544 77.5673 328.283 69.1718 321.52 65.7093C309.826 59.7328 302.415 48.3175 289.853 43.5426C256.116 30.7202 223.185 15.3679 188.737 4.94869C176.759 1.32803 159.125 -6.05557 147.147 9.51798C124.582 38.831 97.9242 64.1914 70.4923 88.7771C63.2709 95.2437 55.9546 101.188 51.5459 110.327C46.0627 121.679 44.2771 127.529 60.8532 131.34C93.3101 138.818 123.76 151.293 138.977 185.254C146.499 202.045 150.007 219.453 152.298 237.54C154.905 258.141 147.637 272.861 132.42 286.996C102.507 314.791 67.3477 336.262 39.2205 366.05C-24.6029 433.672 -8.48506 512.599 72.8784 552.774C108.575 570.403 145.646 573.976 184.281 571.051C208.742 570.008 233.267 571.826 257.902 568.411C311.501 560.996 362.841 545.738 411.195 522.56C466.975 495.84 521.017 466.558 554.217 409.371C588.349 350.603 578.788 284.925 522.123 246.774V246.805ZM426.838 239.422C435.845 239.469 444.853 240.149 453.828 240.75C454.697 240.813 455.455 242.41 457.194 244.323C444.205 251.469 432.717 260.244 422.003 270.094C414.924 276.593 412.19 273.462 409.283 265.082C401.066 241.493 402.093 239.279 426.838 239.422ZM432.148 282C438.848 275.723 443.683 271.185 450.968 264.355C455.566 284.308 445.706 283.328 432.148 282ZM378.122 246.947C363.568 265.999 362.241 265.889 347.197 242.9C359.033 244.449 368.482 245.683 378.122 246.947ZM71.0453 113.205C100.215 89.6467 124.108 66.0413 145.298 40.4596C160.547 22.0559 174.452 22.0084 193.177 30.9573C221.099 44.3016 252.371 49.1554 279.597 64.4128C291.227 70.9268 299.492 76.6345 288.336 92.2554C256.227 137.174 268.236 199.721 313.65 231.991C316.7 234.157 319.623 236.528 324.917 240.544C316.21 243.722 309.099 244.797 305.718 250.789C295.541 268.845 285.428 254.031 277.259 249.651C271.08 246.347 278.965 241.335 281.715 237.793C285.128 233.382 291.559 230.33 287.735 223.247C284.812 217.824 279.566 217.176 274.209 218.536C267.793 220.164 263.006 218.536 259.008 213.176C253.524 205.808 260.667 203.5 263.796 199.12C271.617 188.195 263.969 184.985 255.073 185.033C242.921 185.096 241.689 180.084 246.603 170.835C254.33 156.273 247.077 150.866 233.693 146.755C189.748 133.253 189.859 132.921 164.829 172.273C163.122 174.961 161.384 177.633 158.366 182.313C142.533 143.814 110.929 126.106 71.0612 113.205H71.0453ZM166.014 279.85C166.804 275.502 167.657 268.798 173.315 267.343C179.209 265.825 182.053 271.122 185.039 275.138C184.945 282.569 178.703 282.19 174.263 283.644C170.581 284.846 165.05 285.115 166.014 279.85ZM159.425 191.373C171.055 194.456 175.764 197.887 175.479 205.097C175.416 206.709 171.561 209.871 170.486 209.492C163.375 206.915 165.429 199.326 159.425 191.389V191.373ZM174.468 252.45C173.994 243.058 169.206 236.006 176.728 230.299C178.023 229.319 183.728 231.342 184.739 233.334C189.417 242.552 182.29 246.141 174.468 252.45ZM155.822 293.352C163.138 313.748 160.942 315.771 129.117 317.368C138.898 308.562 147.178 301.131 155.822 293.352ZM288.92 545.928C239.129 556.158 188.137 559.509 138.187 553.802C94.9851 548.869 53.695 531.809 30.3715 490.29C17.8249 467.965 16.7978 443.522 26.8477 419.268C42.6969 381.006 72.8942 356.421 106.694 334.934C113.521 360.911 113.631 362.113 88.0007 365.559C70.2553 367.947 67.4899 376.105 73.384 390.588C76.5602 398.382 78.3458 403.932 67.6006 408.486C50.503 415.758 45.4464 435.158 55.7334 451.443C58.7832 456.281 60.0473 458.811 57.9773 464.819C51.4037 483.855 53.2525 485.658 73.3682 485.262C79.1675 485.152 84.9667 485.247 89.7073 485.247C98.8881 495.397 72.2305 517.374 102.602 519.224C106.836 514.196 113.22 513.99 118.83 512.062C126.557 510.37 133.81 508.299 136.575 519.73C140.226 534.876 148.205 538.782 161.005 527.366C171.245 518.228 180.378 516.409 188.784 530.876C195.374 542.228 204.665 538.402 213.657 532.236C225.35 524.204 236.19 511.176 251.233 529.343C256.448 535.635 268.094 529.58 272.487 525.611C287.704 511.824 300.061 518.402 313.303 527.477C316.89 529.928 321.061 531.509 326.086 534.054C314.409 542.655 301.167 543.414 288.952 545.928H288.92ZM233.03 401.813C232.903 398.209 233.504 395.41 236.285 393.402C260.035 376.358 285.397 363.03 314.835 358.729C322.104 357.67 323.258 362.951 325.581 367.362C326.702 365.971 327.809 364.579 328.931 363.172C327.872 354.792 333.861 356.69 338.364 356.864C346.771 357.18 343.057 363.441 343.452 367.662C354.482 376.121 358.67 365.986 364.358 359.962C364.279 359.33 363.947 358.571 364.169 358.065C367.519 350.476 345.712 348.579 358.843 341.416C366.776 337.1 366.428 351.203 370.884 356.168C378.564 367.093 376.368 375.046 362.652 375.631C351.954 376.074 347.529 389.339 336.184 386.556C331.885 409.988 296.237 434.51 272.123 430.731C268.299 430.13 264.428 429.877 260.556 429.672C237.233 428.486 233.804 424.897 233.03 401.766V401.813ZM255.974 465.009C255.547 468.977 251.755 468.898 250.791 469.056C244.944 469.831 242.653 468.408 242.827 464.361C243.032 459.949 246.129 459.443 249.353 460.44C251.913 461.23 256.464 460.313 255.958 465.009H255.974ZM208.9 448.139C210.354 444.992 211.839 440.312 216.58 441.941C219.077 442.795 220.767 446.036 222.474 447.854C221.289 453.815 217.085 453.483 213.546 453.53C210.322 453.578 206.878 452.534 208.9 448.139ZM206.04 430.067C199.198 435.206 194.552 438.984 191.724 426.668C190.049 419.347 185.988 412.596 182.195 403.711C191.581 405.371 200.241 392.327 206.435 402.43C210.591 409.197 218.302 420.85 206.04 430.067ZM212.155 382.082C210.749 381.765 208.726 376.564 209.422 375.773C215.9 368.453 224.196 366.208 235.242 368.579C228.147 375.805 223.438 384.564 212.155 382.066V382.082ZM244.028 344.089C245.813 336.199 253.556 333.59 259.64 331.898C265.344 330.317 266.529 337.717 269.089 343.029C265.107 350.618 256.195 348.8 249.843 351.393C245.624 353.101 243.127 348.041 244.028 344.089ZM287.261 318.032C283.295 327.993 282.426 334.634 275.394 336.531C274.414 336.8 271.128 333.1 270.954 331.06C270.148 321.685 278.744 323.282 287.261 318.032ZM300.029 320.942C297.596 319.914 295.905 317.115 293.882 315.076C295.842 313.574 297.69 311.044 299.808 310.775C303.885 310.238 304.691 313.621 304.691 315.645C304.928 320.467 302.241 321.859 300.029 320.942ZM308.135 336.499C312.971 336.594 313.508 339.535 313.634 341.669C313.856 345.179 311.77 347.725 307.977 346.776C305.402 346.144 300.93 345.685 302.352 341.606C303.189 339.203 306.666 337.733 308.135 336.515V336.499ZM386.892 406.683C383.794 413.371 377.979 416.438 371.327 418.399C365.29 422.13 359.317 429.561 352.096 425.103C348.651 422.984 347.276 414.478 348.003 409.308C349.473 399.047 358.512 396.801 367.171 395.031C371.374 388.469 378.122 384.69 384.663 388.011C389.673 390.54 387.729 398.161 387.16 403.758C387.824 404.817 387.729 405.782 386.86 406.683H386.892ZM336.5 419.316C342.82 420.549 345.048 427.443 340.403 434.004C331.048 440.233 320.54 441.15 308.041 443.664C313.982 430.288 326.118 436.249 332.249 429.798C334.477 426.399 330.479 418.146 336.5 419.316ZM274.541 449.862C277.306 450.526 279.755 452.471 282.284 453.815C281.288 456.629 281.715 459.839 277.859 458.953C274.888 458.273 271.428 457.768 270.575 454.321C269.911 451.665 271.523 449.135 274.541 449.862ZM343.99 531.066C342.868 506.148 345.475 505.026 375.293 518.512C362.983 523.445 353.66 527.192 343.99 531.066ZM373.223 479.238C373.823 498.29 365.686 497.626 353.076 489.594C343.358 483.397 338.254 486.954 334.114 496.962C331.791 502.559 332.865 515.129 323.827 511.903C313.16 508.093 298.702 505.042 294.783 492.567C292.144 484.187 290.042 472.377 298.022 464.946C304.706 458.716 312.56 466.005 319.908 467.08C323.068 467.539 326.118 468.851 329.183 469.894C355.304 478.843 355.683 478.875 357.263 452.629C357.8 443.664 363.205 441.103 369.762 437.656C386.907 428.613 405.79 424.723 427.518 418.51C411.274 409.703 411.005 394.24 403.973 382.556C399.343 374.872 405.648 372.485 410.484 369.433C415.114 366.524 416.03 362.018 413.865 357.686C411.621 353.195 406.865 354.365 403.673 356.31C392.485 363.156 392.533 352.579 389.388 347.346C382.151 335.329 383.668 316.104 370.995 310.554C358.306 304.989 344.337 317.147 331.522 322.333C316.589 328.373 315.641 317.21 313.587 309.842C308.91 293.131 301.799 288.198 288.288 301.589C276.326 313.447 266.024 312.151 253.698 300.973C240.535 289.036 232.287 292.988 230.643 311.028C228.605 333.4 232.034 342.333 197.95 340.642C190.712 340.278 181.136 341.843 185.545 352.025C192.071 367.077 182.432 370.382 172.461 373.149C157.797 377.196 148.427 382.208 161.116 398.398C168.495 407.806 160.167 413.071 154.874 419.506C150.37 424.992 140.794 429.83 146.878 438.953C151.303 445.593 158.65 444.945 166.141 442.732C183.933 437.482 185.261 451.839 186.951 462.669C189.243 477.278 192.498 482.084 207.873 473.547C225.65 463.665 226.503 465.199 231.196 492.235C244.28 492.535 253.003 482.654 264.08 478.242C267.43 476.914 271.143 473.657 274.067 478.242C276.295 481.752 276.216 485.816 271.507 487.666C268.236 488.946 266.197 489.674 267.73 494.195C269.073 498.148 279.013 501.453 269.089 507.16C261.394 511.587 253.746 511.935 248.721 505.121C241.357 495.144 232.239 499.223 223.375 499.524C217.97 503.034 212.55 506.496 207.162 510.038C200.92 514.149 194.252 515.224 190.538 507.824C183.349 493.5 174.231 496.393 163.96 503.334C158.366 507.113 153.546 510.733 148.142 502.038C139.515 488.14 126.794 490.164 112.936 495.84C110.897 486.812 120.379 476.63 111.198 469.23C103.012 462.637 92.1091 467.934 83.0073 464.329C90.4657 448.55 89.3491 435.216 79.6573 424.328C97.5344 413.408 102.723 399.331 95.2221 382.097C101.89 380.279 108.48 376.801 114.943 377.022C134.584 377.686 137.128 365.939 132.609 351.915C127.979 337.543 132.799 333.195 146.12 332.863C151.856 332.721 157.797 330.191 163.249 331.092C177.834 333.495 182.89 326.807 180.631 313.811C178.434 301.194 184.313 296.751 195.437 294.87C208.142 292.719 212.898 285.225 206.972 273.114C203.227 265.462 204.065 259.169 206.103 250.6C211.523 227.611 198.187 207.579 189.685 187.42C186.114 178.946 181.642 172.716 190.349 165.854C195.247 161.997 197.618 151.245 206.83 157.696C214.02 162.74 225.176 160.226 226.488 176.558C228.21 198.124 241.341 218.441 248.673 238.536C257.664 263.153 274.683 264.893 290.564 275.454C306.318 285.937 311.643 280.672 318.217 267.47C321.172 261.541 324.048 252.892 331.933 253.43C338.807 253.904 340.497 262.126 343.405 267.912C352.586 286.19 364.785 287.455 378.975 272.039C382.262 268.466 384.822 261.841 390.684 264.039C396.42 266.189 390.984 272.403 391.932 275.122C395.567 285.431 405.427 296.988 414.655 291.85C430.425 283.043 435.545 303.155 447.555 299.597C450.873 312.862 463.325 312.53 477.625 316.926C464.557 321.985 451.252 325.005 457.889 339.092C462.456 348.784 476.646 346.508 482.919 355.409C482.524 359.899 478.573 359.441 475.761 360.152C457.747 364.737 454.191 374.54 464.384 389.955C466.849 393.687 468.271 398.114 470.183 402.224C473.896 402.889 477.768 403.268 480.343 409.592C472 408.691 464.557 407.885 457.13 407.078C446.038 412.359 431.168 415.395 441.676 433.372C444.773 433.672 447.586 433.719 450.462 431.632C457.51 426.526 456.119 435.032 458.711 437.135C460.749 438.779 462.298 441.04 460.417 443.475C457.083 447.759 454.334 444.85 451.126 442.668C448.202 440.676 444.584 439.696 441.265 438.273C419.143 436.803 413.66 441.815 416.283 463.934C417.405 473.357 414.15 474.227 406.976 472.171C402.03 470.748 397.147 469.056 392.375 467.127C380.144 462.147 372.796 466.084 373.223 479.27V479.238ZM437.378 488.393C426.775 495.476 416.694 504.71 402.535 496.472C400.829 503.018 398.379 510.718 390.068 506.765C383.289 503.54 385.754 494.543 387.46 489.262C390.921 478.527 397.258 486.717 402.456 488.693C414.466 490.796 428.561 499.255 433.207 478.685C432.574 470.527 428.719 457.704 435.087 455.428C445.895 451.538 456.198 461.357 468.539 466.574C457.162 474.527 447.27 481.468 437.362 488.393H437.378ZM481.118 457.862C483.203 445.657 476.914 437.119 476.282 427.585C504.046 425.229 504.962 424.328 502.134 398.746C501.85 396.137 501.186 394.382 503.05 392.011C516.577 374.761 516.008 362.745 500.427 345.875C493.222 338.065 496.082 330.634 499.606 322.712C506.116 308.04 501.36 300.419 485.163 301.178C471.068 301.842 466.138 295.518 469.867 282.332C472.948 271.422 468.476 260.624 469.456 249.746C505.437 252.054 553.221 309.447 552.336 342.365C551.009 391.71 524.683 429.087 481.133 457.847L481.118 457.862ZM492.922 376.564C493.111 378.967 491.894 381.402 488.955 381.702C485.842 382.018 484.436 379.805 484.262 377.228C484.073 374.603 485.447 372.579 492.226 371.568C491.784 371.631 492.748 374.271 492.937 376.564H492.922ZM491.31 408.659C491.12 409.45 486.885 410.383 486.474 409.829C483.725 406.003 484.057 401.719 485.732 397.371C489.998 400.09 492.495 403.679 491.31 408.675V408.659Z" fill="#E831B6"/>
<path d="M367.344 394.983C367.344 394.983 367.249 394.999 367.186 395.015C367.17 395.046 367.154 395.062 367.139 395.094C367.218 395.046 367.281 395.031 367.344 394.983Z" fill="#E831B6"/>
<path d="M367.581 395.046C367.581 395.046 367.581 394.967 367.581 394.936C367.565 394.936 367.139 395.094 367.139 395.094C367.297 395.062 367.439 395.094 367.581 395.046Z" fill="#E831B6"/>
<path d="M210.417 177.191C204.681 177.617 201.094 181.791 200.983 187.278C200.936 190.234 204.191 192.59 208.584 192.274C212.613 191.215 216.516 189.238 216.137 183.594C215.916 180.131 213.94 176.922 210.417 177.191Z" fill="#E831B6"/>
<path d="M398.079 446.637C397.874 443.238 395.377 440.882 391.901 440.676C387.461 440.407 384.269 443.396 383.953 447.222C383.621 451.317 386.781 453.91 391.364 454.02C395.583 453.42 398.364 451.048 398.095 446.637H398.079Z" fill="#E831B6"/>
<path d="M318.486 480.314C314.678 480.219 312.402 482.037 312.323 485.863C312.244 489.31 313.398 492.298 317.459 492.551C322.041 492.851 324.822 490.78 324.712 485.926C324.617 481.99 322.089 480.472 318.47 480.314H318.486Z" fill="#E831B6"/>
<path d="M436.983 387.283C440.949 386.951 441.897 383.9 442.229 380.564C442.15 376.595 439.906 374.856 436.177 375.109C432.78 375.346 429.904 376.659 429.825 380.659C429.73 385.386 432.369 387.663 436.983 387.299V387.283Z" fill="#E831B6"/>
<path d="M224.591 235.88C222.458 236.623 219.519 238.932 219.392 240.718C219.14 244.291 222.474 246.489 225.729 246.536C229.19 246.6 231.591 244.276 231.67 240.339C230.628 236.765 228.194 234.615 224.607 235.88H224.591Z" fill="#E831B6"/>
<path d="M260.872 276.593C257.744 276.719 254.899 278.648 254.362 282.332C253.73 286.664 257.222 288.103 260.098 288.087C262.99 288.087 266.213 286.506 266.545 282.537C266.719 278.585 264.27 276.45 260.888 276.593H260.872Z" fill="#E831B6"/>
<path d="M126.952 405.655C123.381 405.355 120.947 407.395 120.932 411.031C120.932 414.225 122.212 417.055 125.941 417.798C130.65 417.766 132.435 414.32 133.036 410.667C133.731 406.398 129.907 405.893 126.952 405.655Z" fill="#E831B6"/>
<path d="M227.514 215.579C227.609 211.674 224.686 210.156 221.446 210.298C218.444 210.425 214.92 211.437 215.679 215.658C216.326 219.279 219.408 220.133 222.726 220.133C225.507 219.864 227.451 218.393 227.514 215.595V215.579Z" fill="#E831B6"/>
<path d="M341.698 289.573C337.811 289.573 334.082 291.059 333.276 295.312C332.644 298.633 336.12 298.411 338.601 299.423C341.256 297.779 346.265 299.091 346.628 293.826C346.834 290.743 344.084 289.589 341.682 289.573H341.698Z" fill="#E831B6"/>
<path d="M393.291 301.747C388.977 302.475 387.097 306.08 387.16 310.285C387.191 312.183 388.266 313.985 390.81 313.479C394.871 312.673 397.542 310.348 398.679 306.475C398.11 303.249 395.772 301.321 393.291 301.732V301.747Z" fill="#E831B6"/>
<path d="M160.025 476.14C163.169 475.381 165.129 472.551 165.492 467.823C165.571 465.452 162.917 464.345 160.578 465.293C157.876 466.384 154.194 468.661 153.815 470.906C153.341 473.689 156.359 477.025 160.025 476.14Z" fill="#E831B6"/>
<path d="M206.277 310.38C205.534 311.408 203.385 313.115 203.164 315.028C202.959 316.831 203.67 320.562 207.272 318.949C209.216 318.08 211.539 316.119 211.95 314.269C212.44 312.072 210.97 309.542 206.277 310.38Z" fill="#E831B6"/>
<path d="M182.811 63.5116C194.584 68.7923 212.361 69.8358 215.853 88.5873C218.033 100.319 226.851 107.481 238.686 102.058C247.551 97.9947 252.892 88.9668 251.802 77.9784C250.759 67.5433 242.052 65.9938 234.72 65.5986C217.48 64.6657 203.006 59.211 194.489 43.6849C186.588 29.2814 179.177 31.6055 169.38 41.677C155.885 55.5588 142.975 70.7529 127.094 81.267C116.728 88.113 110.629 94.9274 113.836 105.378C117.819 118.359 131.424 115.624 140.478 113.774C150.149 111.813 159.851 105.489 156.454 91.623C153.42 87.9391 154.668 84.0655 157.639 81.346C165.524 74.1047 174.199 59.6379 182.811 63.5116Z" fill="#E831B6"/>
<path d="M286.708 403.711C289.141 403.853 291.543 402.335 290.469 397.481C289.457 396.738 287.656 394.288 285.728 394.177C281.904 393.971 279.96 397.228 280.845 400.517C281.256 402.066 284.606 403.584 286.692 403.695L286.708 403.711Z" fill="#E831B6"/>
</g>
<defs>
<clipPath id="clip0_14_515">
<rect width="574" height="572" fill="white"/>
</clipPath>
</defs>
</svg>
