<svg width="502" height="514" viewBox="0 0 502 514" fill="none" xmlns="http://www.w3.org/2000/svg">
<g clip-path="url(#clip0_14_535)">
<path d="M490.195 343.726C483.866 323.948 469.236 307.837 452.032 298.225C430.41 286.162 407.194 272.944 383.741 268.249C345.152 260.518 319.774 231.854 287.135 215.364C264.203 203.791 235.731 188.519 226.23 158.1C225.551 155.918 223.483 153.99 221.668 152.377C206.912 139.334 208.316 123.128 213.035 106.591C215.04 99.5873 217.991 92.7258 221.416 86.2753C227.461 74.892 226.214 70.1965 212.025 66.0859C193.039 60.584 172.553 64.2835 155.002 56.6315C139.993 50.0861 125.268 46.1652 109.28 45.6593C83.3173 44.8372 57.8598 43.351 52.6515 9.73889C52.4621 8.55313 52.0518 7.30414 51.4047 6.30811C48.5638 1.94454 45.0758 -1.7392 39.3467 0.932698C32.6864 4.03146 33.3809 8.85352 36.3007 14.6558C39.8518 21.7387 41.7773 29.707 45.7545 36.4895C52.3517 47.762 51.531 57.0899 45.2337 68.9633C36.1586 86.0855 22.9958 99.5715 11.4114 114.449C-5.19203 135.776 -4.56073 144.156 19.1922 154.448C34.5014 161.088 40.6882 171.27 45.2494 186.637C65.2619 254.099 110.337 299.142 173.689 327.963C205.002 342.208 240.686 349.781 262.214 380.864C265.67 385.844 271.81 390.065 269.158 396.8C266.081 404.563 258.221 403.187 251.577 403.456C242.943 403.82 236.52 399.235 230.317 394.049C222.315 387.362 214.14 380.895 206.17 374.192C199.825 368.88 193.054 370.571 187.309 374.144C180.696 378.255 185.968 383.488 187.388 388.563C193.843 411.756 212.704 427.377 223.01 448.135C247.11 496.641 294.569 520.941 348.435 512.277C352.586 511.613 356.926 512.182 361.172 512.182C390.732 510.364 419.662 504.387 444.125 487.17C458.551 477.02 476.559 474.174 487.575 455.803C510.397 417.701 502.127 381.022 490.211 343.726H490.195ZM268.054 363.457C262.593 350.445 250.156 347.125 239.597 338.319C252.634 335.015 262.94 339.947 273.956 341.655C272.031 348.753 270.295 355.141 268.054 363.441V363.457ZM318.069 496.103C310.446 494.807 302.444 493.131 299.224 484.925C298.009 481.827 302.507 478.617 304.638 478.917C312.561 480.008 319.458 483.581 323.262 490.332C324.224 495.644 320.957 496.577 318.085 496.087L318.069 496.103ZM335.84 463.107C329.985 480.087 323.419 472.404 315.055 466.744C302.87 458.507 290.576 451.202 286.709 474.633C285.557 481.605 280.411 477.921 276.655 477.115C265.67 474.791 258.884 467.06 252.776 458.443C244.332 446.539 237.719 433.717 231.959 418.997C245.358 418.602 257.574 422.318 269.427 418.159C273.246 413.401 277.949 410.618 284.199 411.377C284.215 411.235 284.278 411.14 284.294 410.998C284.452 410.934 284.594 410.855 284.768 410.792C285.525 400.547 292.675 390.824 285.415 379.773C281.248 373.417 287.135 370.666 292.627 372.057C302.555 374.571 312.766 377.164 320.373 386.571C307.952 394.397 298.53 405.685 284.752 410.792C284.736 410.998 284.704 411.203 284.704 411.409C284.531 411.361 284.373 411.377 284.199 411.361C282.921 419.567 275.487 419.899 269.742 422.381C269.048 425.954 267.88 429.511 267.754 433.116C267.312 444.689 273.514 450.76 284.657 449.369C296.999 447.835 296.778 439.788 286.977 428.12C302.649 433.1 313.445 434.191 324.461 433.527C333.015 433.005 337.687 427.313 341.112 420.926C344.821 414.017 338.16 411.377 333.836 408.436C329.969 405.796 326.592 403.962 331.153 398.745C345.515 382.255 336.85 370.603 320.689 365.749C298.688 359.156 290.576 347.821 298.861 325.971C294.49 322.398 289.092 318.208 284.042 321.718C272.394 329.813 261.425 323.331 250.519 321.276C240.671 319.41 233.142 314.651 241.318 302.398C245.911 295.521 247.631 287.079 240.213 280.976C231.848 274.083 224.241 278.019 217.786 285.086C215.56 290.067 226.687 294.999 217.817 299.995C206.47 310.367 207.18 319.078 221.353 325.955C225.346 325.07 227.855 327.204 229.686 330.319C229.938 330.746 229.086 332.485 228.455 332.675C225.456 333.607 222.868 333.038 221.511 329.781C201.893 324.722 184.137 315.679 165.056 303.774C177.082 299.173 186.741 294.557 198.247 300.707C203.282 303.394 210.415 307.726 211.141 296.169C201.53 289.529 192.028 282.573 178.897 285.608C186.615 264.786 177.019 254.004 147.379 248.075C141.271 246.858 132.259 252.36 129.513 243.933C127.02 236.312 136 233.071 140.498 228.439C152.493 216.076 151.356 211.285 134.611 206.574C129.908 205.246 124.92 204.914 120.233 203.522C113.494 201.515 106.502 199.428 102.698 207.459C98.2793 216.787 105.792 218.605 112.31 221.008C119.46 223.649 115.293 228.629 114.567 233.182C110.7 257.783 112.926 260.439 136.963 262.889C141.098 263.316 144.996 265.624 149.131 266.494C158.632 268.486 163.462 271.743 153.677 280.043C149.257 283.79 151.609 289.229 150.046 295.774C120.77 273.798 91.6348 253.387 78.8981 217.989C72.7113 200.772 63.8572 184.55 61.0006 166.005C58.9015 152.298 47.317 145.12 35.7009 141.927C18.9713 137.31 22.7275 130.701 29.7666 120.156C41.9982 101.864 61.8686 89.5479 69.8862 67.9989C70.5175 66.323 73.7688 64.4732 75.6627 64.5997C100.41 66.2914 126.152 59.003 150.062 73.2004C151.278 75.1924 148.737 76.6786 147.932 78.7339C141.477 95.0815 133.522 96.1091 121.243 83.2714C113.936 75.6351 103.156 73.2636 92.1556 74.7023C73.4215 77.1371 64.7726 91.2554 71.2277 109.089C74.116 117.057 81.7864 125.152 70.4702 132.63C69.2549 131.824 67.9607 131.429 67.5346 130.591C64.9305 125.611 70.2334 117.437 61.474 115.034C58.1912 114.133 55.5871 115.982 54.4192 119.302C51.3258 128.093 51.7993 136.646 59.1856 142.844C64.1098 146.97 69.8704 151.302 77.3356 146.432C88.7939 138.938 89.3621 127.729 89.3147 115.714C89.2831 107.84 82.7491 98.0221 92.9132 92.457C102.572 87.1606 110.369 94.1645 118.055 99.0972C122.174 101.753 126.23 104.504 130.176 107.413C139.993 114.638 149.257 119.982 161.378 110.354C173.768 100.52 170.69 90.7495 163.004 80.1093C191.839 76.1727 197.395 80.5362 191.287 106.022C184.863 132.883 188.272 155.365 211.078 172.851C221.1 198.337 249.525 204.155 267.375 222.194C241.365 240.376 224.983 212.503 202.792 216.724C206.99 203.08 225.945 194.337 206.864 181.894C194.112 189.262 183.569 178.811 171.906 177.483C167.171 176.946 162.988 172.883 157.859 174.59C152.982 176.219 148.31 179.57 148.531 184.645C148.752 189.831 153.992 190.179 158.585 189.831C171.069 188.898 181.975 194.969 194.096 196.519C191.271 205.957 182.717 207.412 178.045 212.85C174.32 217.198 171.937 222.02 174.81 227.981C177.714 234.004 183.616 236.66 188.414 233.973C211.236 221.182 227.319 239.142 246.968 244.581C241.965 252.818 234.168 257.751 232.7 266.652C243.212 278.177 255.522 285.181 271.478 279.853C283.6 275.806 293.448 285.719 305.979 282.889C285.572 309.687 285.541 310.382 303.391 321.813C319.71 326.287 334.12 315.394 350.203 315.094C350.203 323.9 342.879 326.698 339.139 331.884C335.698 336.659 329.227 340.295 334.783 347.362C339.675 353.591 346.888 358.666 353.485 353.07C369.457 339.536 380.632 355.172 393.637 358.319C402.443 360.453 395.925 366.809 393.826 369.465C381.61 384.832 389.722 392.437 403.958 397.78C409.861 399.994 416.9 402.223 417.484 408.642C418.179 416.278 409.419 416.294 404.479 419.25C402.917 420.183 401.228 421.227 399.492 421.495C379.937 424.626 370.515 433.448 382.383 453.305C374.019 456.926 368.305 451.313 361.787 450.459C349.776 448.894 339.249 453.368 335.919 463.044L335.84 463.107ZM462.717 450.412C458.961 457.289 452.506 460.815 446.24 464.53C414.691 483.218 382.462 499.613 343.779 493.494C352.207 467.787 352.333 467.708 377.775 471.661C402.159 475.455 406.105 471.724 400.297 448.199C398.577 441.258 398.703 438.286 406.152 436.404C411.297 435.108 416.111 431.977 420.704 429.068C443.904 414.413 444.93 401.923 422.393 385.117C413.933 378.808 415.574 376.01 419.883 368.516C429.842 351.172 425.865 343.536 406.263 343.22C391.238 342.983 382.462 327.694 366.743 329.797C366.569 322.145 377.301 316.548 370.42 308.422C364.754 301.75 356.91 303.394 349.792 303.742C337.119 304.359 324.493 305.798 309.594 307.094C316.68 296.375 322.788 287.11 328.896 277.845C327.886 271.284 324.95 264.359 317.643 267C300.124 273.324 283.331 261.403 266.144 266.415C263.429 267.205 259.799 267.49 258.063 264.233C256.296 260.913 259.168 258.731 260.825 256.265C277.476 231.396 282.179 230.226 308.394 248.502C318.732 255.711 327.46 265.245 336.914 273.719C374.508 278.004 402.601 304.754 437.291 316.422C453.421 321.861 459.324 340.817 465.905 355.315C480.252 386.856 479.778 419.203 462.749 450.396L462.717 450.412Z" fill="#99E120"/>
<path d="M284.689 411.44C284.689 411.44 284.294 411.045 284.278 411.029L284.689 411.44Z" fill="#99E120"/>
</g>
<defs>
<clipPath id="clip0_14_535">
<rect width="502" height="514" fill="white"/>
</clipPath>
</defs>
</svg>
