<svg width="453" height="523" viewBox="0 0 453 523" fill="none" xmlns="http://www.w3.org/2000/svg">
<path d="M226.5 523C226.674 487.319 226.216 451.623 227.243 415.974C227.827 395.761 220.669 394.875 205.594 403.922C178.574 420.133 159.928 443.667 145.738 471.076C140.46 481.262 136.036 492.017 132.48 502.93C129.541 511.976 125.907 518.714 115.099 516.025C102.205 512.815 106.582 503.61 109.3 496.018C127.44 445.186 153.86 400.253 206.021 378.348C224.209 370.709 228.38 360.333 227.701 342.873C226.769 318.785 227.243 294.603 228.049 270.483C228.602 253.829 223.197 250.334 207.838 257.056C175.05 271.401 150.478 294.982 129.304 322.945C123.521 330.6 119.729 344.518 106.013 334.016C92.1074 323.372 105.665 315.163 110.753 308.125C135.783 273.52 166.264 245.131 208.028 232.051C221.649 227.78 229.344 221.85 228.602 206.081C227.875 190.408 230.024 177.628 210.525 168.028C163.973 145.127 149.12 92.9974 173.407 50.9588C192.811 17.3816 228.38 4.15955 274.932 13.2379C303.296 18.7734 330.095 51.2909 333.24 83.9824C336.811 121.118 317.122 154.711 282.659 170.052C273.336 174.212 261.026 175.588 255.038 182.531C242.586 196.939 255.053 222.925 274.537 225.329C331.802 232.367 374.893 264.726 414.744 303.033C420.48 308.536 428.918 313.93 419.09 323.435C410.209 332.023 404.521 326.219 398.074 320.098C364.306 288.023 327.93 260.994 281.126 249.78C258.372 244.324 249.491 248.958 252.083 272.729C252.983 281.017 252.336 289.51 251.893 297.892C249.981 334.981 246.347 365.964 298.192 380.42C347.524 394.18 360.671 446.72 369.947 494.294C371.78 503.705 366.644 507.738 358.048 508.813C350.037 509.809 347.366 505.397 345.707 498.264C342.405 484.03 338.66 469.859 334.251 455.925C328.088 436.471 316.964 419.944 300.767 407.528C288.284 397.944 273.225 385.955 258.356 391.997C244.087 397.786 252.336 416.069 251.909 428.611C250.85 460.037 251.64 491.526 251.688 523H226.516H226.5ZM308.795 93.0132C308.874 58.4239 281.679 31.1573 247.453 31.5052C214.586 31.8374 187.802 58.1708 186.98 90.9888C186.095 125.499 212.768 153.604 246.931 154.173C280.842 154.727 308.716 127.176 308.795 93.0291V93.0132Z" fill="#E831B6"/>
</svg>
