<svg width="1056" height="1345" viewBox="0 0 1056 1345" fill="none" xmlns="http://www.w3.org/2000/svg">
<g clip-path="url(#clip0_14_543)">
<path d="M0 1333.93C5.19 1323.3 11.84 1314.03 19.6 1305.45C42 1280.68 59.74 1252.75 74.44 1222.92C85.1 1201.28 85.6 1177.25 89.22 1153.97C93.77 1124.75 103.69 1098.26 129.13 1080.5C134.58 1076.7 134.66 1073.41 132.3 1067.92C122.77 1045.76 113.6 1023.18 117.29 998.44C118.85 987.96 115.37 984.05 106.5 979.73C96.85 975.02 88.84 969.25 76.83 972.57C61.28 976.87 46.39 981.22 36.93 995.61C35.89 997.19 34.87 998.82 33.63 1000.24C32.68 1001.33 31.8 1003.16 29.87 1002.19C28.13 1001.31 28.37 999.57 28.81 998.04C31.25 989.53 34.16 981.18 38.83 973.6C44.48 964.43 50.59 955.49 58.9 948.55C63.71 944.53 64.02 940.83 61.59 935.42C28.1 860.81 69.24 776.15 139.22 752.09C141.01 751.47 142.81 750.78 144.67 750.46C153.99 748.89 163.82 748.23 169.88 756.68C175.9 765.07 168.58 772.33 164.42 778.9C157.63 789.62 147.59 797.69 139.09 807.04C128.45 818.75 119.27 831.59 109.61 844.06C105.95 848.78 105.45 853.57 107.42 859.14C111 869.26 114.33 879.46 119.3 889.03C121.74 893.73 123.86 894.55 128.46 890.47C150.54 870.92 176.01 857.33 204.43 849.42C212.1 847.28 220.02 846.77 227.93 848.04C236.28 849.39 237.85 846.59 233.58 839.55C222.4 821.13 224.13 802.1 231.69 783.15C233.92 777.56 232.54 774.49 228.21 771.11C212.54 758.9 196.42 747.35 182.61 732.76C157.67 706.4 149.21 651.53 179.61 615.32C208.52 580.88 244.35 565.03 288.75 568.23C300.99 569.11 313.06 571.8 324.28 577.4C329.71 580.11 329.8 582.37 324.86 585.88C316.77 591.62 310.44 599.35 305.07 607.44C290.18 629.89 268.43 641.68 243.38 648.32C237.75 649.81 236.28 652.02 236.86 657.33C239.2 678.6 246.44 697.13 264.83 709.85C270.83 714 275.37 713.95 279.71 707.16C285.18 698.6 292.94 691.95 300.52 685.24C302.57 683.42 305.29 681.7 302.61 678.25C293.26 666.2 297.93 653.88 303.34 642.54C314.6 618.94 333.17 605.44 359.92 606.01C361.37 602.56 358.83 601.51 357.56 599.91C348.18 588.11 344.76 575.24 351.51 561.1C353.48 556.98 353.52 555.2 348.85 553.63C338.07 550.01 329.67 542.63 322.37 534.35C308.75 518.9 310.57 496.1 325.12 480.03C342.69 460.62 364.38 459.03 387.75 464.46C398.21 466.89 404.87 474.92 410.55 483.42C414.39 489.16 417.59 495.36 420.74 501.53C421.85 503.71 421.64 506.92 424.94 506.87C426.02 506.85 427.26 505 428.11 503.76C429.83 501.26 429.04 498.97 427.06 496.96C420.55 490.37 415.9 482.46 411.23 474.57C395.03 447.2 388.96 417.8 393.75 386.3C394.5 381.38 393.94 376.78 391.86 372.45C380.09 347.85 383.45 323.68 395 300.4C406.11 278.01 412.31 255.2 407.15 230.16C403.53 212.58 395.62 197.8 381.51 186.15C373.34 179.4 364.78 172.62 359.93 162.67C355.89 154.4 347.65 149.23 343.91 140.72C342.96 138.56 341.8 136.3 344 134.78C346.52 133.04 348.18 135.49 349.2 137.3C357.14 151.27 369.98 161.11 379.94 173.42C391.51 187.72 406.65 199.13 420.11 211.92C444.85 235.43 463.95 263.22 481.07 292.52C486.27 301.42 488.56 311.28 490.47 321.18C491.43 326.15 493.34 327.39 498.14 326.21C518.67 321.17 539.49 320.31 560.17 324.43C577.53 327.89 594.03 334.18 609.06 343.83C610.84 344.97 612.43 346.76 615 346.02C616.64 342.64 614.47 339.83 613.71 336.92C600.71 286.87 611.86 241.37 639.62 199.02C644.35 191.8 650.67 185.83 657.97 181.43C664.26 177.64 668.13 172.87 670.83 166.04C680.69 141.12 698.73 123 720.01 107.37C740.85 92.07 764.73 82.71 787.48 71.15C819.12 55.07 846.47 33.51 870.63 7.7C874.15 3.94 878.89 1.37333 884.85 0C877.61 7.64 871.57 14.08 865.46 20.46C842.32 44.65 827.09 73.15 816.7 104.92C804.92 140.94 803.46 177.13 809.74 214.1C810.79 220.3 811.7 226.73 811.22 232.95C810.53 241.89 813.06 249.63 816.75 257.47C823.19 271.14 826.81 285.46 823.51 300.62C822.36 305.89 824.84 309.04 828.01 312.25C852.6 337.13 868.57 367.38 877.64 400.49C881.75 415.51 886.36 423.78 902.65 424.04C909.53 424.15 914.83 430.33 920.54 434.23C937.86 446.03 956.51 451.74 977.79 449.13C994.06 447.14 1004.65 436.04 1017.03 427.57C1020.93 424.9 1025.76 417.39 1028.9 421.13C1032.83 425.8 1024.87 429.68 1021.4 432.93C1007.34 446.14 989.96 454.83 974.44 466.13C953.56 481.34 932.75 496.82 910.02 509.35C897.11 516.47 883.55 521.43 868.63 521.4C864.96 521.4 862.72 522.57 860.91 525.52C859.26 528.2 857.78 531.23 855.47 533.23C844.09 543.08 847.78 554.35 851.88 566.79C864.3 556.79 875.99 547 889.86 539.97C916.96 526.25 945.25 517.04 975.44 513.87C998.71 511.42 1022.04 509.89 1045.45 511.55C1047.33 511.68 1049.25 511.73 1051.05 512.21C1053.09 512.75 1055.87 513.15 1055.6 516.03C1055.4 518.11 1053.12 518.66 1051.28 519.18C1045.2 520.9 1039.14 522.68 1033.03 524.3C1007.1 531.16 991.94 547.43 985.3 573.79C980.14 594.26 970.69 613.44 957.43 630.3C955.1 633.26 952.69 636.53 949.57 638.43C936.85 646.16 927.22 656.38 921.12 670.05C920.16 672.2 918.86 673.74 920.48 675.94C927.88 686 933.36 697.75 946.45 702.46C959.53 707.17 968.88 716.43 974.97 728.82C978.33 735.67 981.59 742.38 988.55 746.46C989.93 747.27 991.72 748.76 990.14 752.15C972.94 740.75 954.28 744.06 935.58 746.94C928.33 748.05 921.16 747.59 914.45 743.74C906.77 739.34 898.57 739.39 889.76 739.92C873.3 740.9 856.97 738.39 841.95 731.02C837.43 728.8 834.71 728.25 831.95 733.05C825.49 744.26 819.34 755.71 809.73 764.74C807.53 766.8 807.14 769.39 809.66 771.28C822.41 780.87 825.21 796.07 831.53 809.32C847.18 842.12 873.98 864.29 909.26 859.44C911.61 859.12 915.11 858.09 915.9 861.19C916.92 865.18 912.72 865.1 910.33 866.07C908 867.02 905.53 867.76 903.05 868.17C885.61 871.04 868.41 874.06 853.04 884.09C845.64 888.92 836.24 889.45 827.26 888.53C822.31 888.02 819.95 889.57 818.72 894.74C815.28 909.2 808.57 922.06 800.95 934.98C795.59 944.05 794.47 957.53 800.91 967.38C813.59 986.79 814.1 1007.22 808.91 1028.34C803.88 1048.79 801.27 1069.24 803.57 1090.25C803.83 1092.59 804.59 1095.31 801.49 1097.8C797.81 1094.13 798.7 1089.1 798.18 1084.95C795.48 1063.27 785.46 1046.23 767.43 1033.88C753.34 1024.23 738.65 1015.15 733.73 997.07C733.1 994.75 731.24 993.57 728.83 993.19C700.29 988.64 688.05 966.75 677.06 943.91C670.02 929.29 666.21 913.57 664.57 897.44C663.85 890.4 662.31 884.99 653.52 886.4C653.22 886.45 652.9 886.29 652.59 886.27C647.98 885.89 642.02 881.43 639.35 884.64C636.16 888.48 640.69 894.17 642.94 898.36C648.71 909.13 651.08 920.08 647.78 932C647.22 934.03 647.78 935.64 649.14 937.19C664.37 954.73 670.55 976.22 675.86 998.13C680.85 1018.71 685.2 1039.43 688.41 1060.35C693.58 1094.03 708.64 1121.14 738.74 1138.76C741.2 1140.2 745.75 1141.08 744.23 1145.19C742.88 1148.85 738.61 1147.74 735.78 1147.27C728.64 1146.08 720.57 1145.89 714.73 1142.29C694.3 1129.72 671.35 1124.25 649.22 1116.3C629.49 1109.21 612.22 1098.21 605.24 1076.44C604.87 1075.28 604.19 1073.93 603.24 1073.28C588.46 1063.29 584.11 1048.12 582.81 1030.09C578.41 1034.02 578.82 1038.12 578.41 1041.89C575.8 1065.81 580.75 1089.11 584.27 1112.52C590.15 1151.65 580.93 1185.23 548.63 1210.38C545.3 1212.98 543.96 1216.17 543.84 1220.16C543.33 1236.58 534.33 1247.76 521.32 1256.38C499.4 1270.91 476 1282.69 452.03 1293.35C426.11 1304.88 402.62 1319.94 382.34 1339.88C381.67 1340.54 380.99 1341.23 380.2 1341.75C378.22 1343.06 376.14 1345.88 373.75 1343.1C371.97 1341.02 374.21 1339.06 375.5 1337.35C384.63 1325.26 393.81 1313.21 402.91 1301.1C417.7 1281.43 427.46 1260.52 425.3 1234.62C424 1218.94 431.08 1203.98 439.72 1191.22C446.44 1181.29 441.1 1173.96 438.45 1165.8C437.23 1162.05 433.56 1164.54 431.01 1165.15C400.81 1172.39 370.51 1174.3 340.11 1166.55C326.24 1163.01 313.13 1157.58 302.16 1148.09C298 1144.49 295.59 1144.95 292.39 1149.37C272.05 1177.46 245.52 1197.68 213.46 1210.81C205.79 1213.95 198.99 1218.52 193.82 1225.23C170.66 1255.27 138.42 1270.35 102.91 1279.64C81.2 1285.32 59.31 1290.22 39.77 1301.97C26.61 1309.88 16.41 1321.17 5.35 1331.49C4.09 1332.66 3.61 1335.03 0.03 1333.94L0 1333.93ZM723.75 865.56C727.2 866.79 729.12 869.82 731.56 872.23C740.55 881.14 750.86 888.38 761.32 895.36C764.01 897.16 768.43 900.27 769.75 893.38C771.38 884.94 766.08 874.2 758.37 870.19C752.13 866.94 746.73 862.73 743.07 856.55C741.6 854.07 739.85 850.92 736.62 853.69C732.21 857.48 725.95 859.46 724.04 865.85C717.22 866.23 716.8 869.47 720.2 874.43C729.67 888.24 742.2 898.45 757.15 905.77C760.35 907.34 763.58 907.73 766.15 904.77C765.73 902.77 764.36 902.79 763.27 902.24C746.62 893.77 731.13 884.01 723.74 865.55L723.75 865.56ZM541.9 526.48C538.43 523.31 535.26 519.73 531.44 517.05C509.53 501.64 502.33 505.48 494.6 526.97C493.17 530.94 492.91 534.9 492.26 538.89C491.4 544.16 493.37 544.13 497.38 541.74C509.15 534.75 521.93 530.66 535.59 529.42C538.08 529.19 540.78 529.45 541.63 526.2C544.63 526.13 547.61 530.68 550.18 527.49C552.58 524.51 548.9 521.75 547.28 519.36C542.02 511.62 534.71 506.14 526.21 502.46C522.79 500.98 518.93 498.75 514.86 501.76C516.56 505.86 520.45 504.72 522.99 506.23C531.27 511.18 540.83 514.83 541.89 526.49L541.9 526.48ZM373.56 1163.28C343.69 1151.98 326.96 1128.09 312.1 1102.34C319.12 1106.69 323.29 1113.74 328.52 1119.76C345.59 1139.41 365.75 1154.82 392.13 1157.7C444.28 1163.4 486.22 1141.23 519.09 1103.24C543.55 1074.98 540.48 1040.11 532.38 1005.92C532.1 1004.73 531.53 1003.45 530.7 1002.59C529.92 1001.77 528.57 1000.9 527.58 1001.01C525.55 1001.23 525.54 1003.01 525.84 1004.65C529.55 1025.06 526.8 1044.67 519.41 1063.98C510.26 1087.88 497.5 1108.5 474.19 1121.31C439.01 1140.64 391.91 1137.2 362.95 1112.08C348.81 1099.82 341.04 1083.07 332.67 1066.72C327.27 1056.17 324.21 1044.1 314.42 1036.1C308.46 1031.23 302.41 1029.24 295.66 1034.67C281.68 1045.92 271.19 1078.76 275.98 1096.07C284.49 1126.79 302.51 1148.76 333.7 1158.32C346.47 1162.23 359.58 1164.54 373.56 1163.27V1163.28ZM160.4 1005.28C158.78 1015.76 156.68 1026.2 155.64 1036.74C153.55 1057.79 157.55 1077.98 168.79 1095.83C181.29 1115.68 196.54 1132.7 222.64 1134.07C232.07 1134.56 241.48 1136.56 250.88 1136.45C260.29 1136.34 269.72 1134.69 279.07 1133.24C284.52 1132.39 286.22 1129.96 283.11 1124.03C278.89 1115.99 273.82 1118.91 268.05 1120.9C215.65 1138.98 174.48 1103.11 181.51 1055.84C184.02 1038.93 191.27 1023.19 193.63 1006.32C197.27 980.24 195.47 954.69 184.72 930.2C181.48 922.82 176.96 921.46 169.71 924.79C157.23 930.52 147.82 939.73 139.75 950.34C120.49 975.64 117.76 1004.04 125.63 1033.9C130.92 1053.96 138.5 1073.13 151.51 1090.26C140.66 1060.31 152.27 1032.98 160.42 1005.28H160.4ZM547.57 329.43C505.39 323.22 452.84 337.94 427.39 381.61C419.96 394.35 414.59 408.36 415.3 423.82C415.49 428 416.02 429.88 420.69 427.25C456.61 407.01 494.08 389.63 526.18 362.78C552.41 340.84 578.35 343.81 602.88 368.15C613.06 378.25 621.09 389.93 628.22 402.24C649.93 439.71 650.86 476.77 626.12 513.5C616.69 527.5 617.2 527.93 634.05 530.38C638.47 531.02 641.38 529.59 643.65 526.12C647.44 520.31 651.11 514.43 654.96 508.66C659.67 501.61 657.79 498.35 649.42 498.53C643.67 498.65 641.8 497.38 645.61 491.53C651.17 482.99 657.33 475.11 664.92 468.36C668.12 465.51 670.34 462.94 669.21 457.91C662.91 430.06 655.57 402.49 638.67 378.96C620.58 353.76 597.31 335.68 564.41 337.61C534.43 339.37 506.27 348.39 480.26 363.95C469.35 370.48 459.71 378.62 449.44 386.16C454.84 375.38 463.86 368.07 472.36 360.41C493.69 341.2 520.66 335.48 547.56 329.43H547.57ZM690.42 559.55C659.98 539.24 626.86 530.17 590.81 531.52C578.43 531.98 569.5 537.82 561.76 546.94C553.16 557.06 548.08 569.7 538.25 578.92C534.1 582.81 537.56 583.95 540.93 584.99C553.26 588.81 565.53 592.86 577.9 596.53C594.08 601.33 610.66 604.72 627.4 601.07C640.44 598.22 652.71 599.17 665.71 601.64C698.89 607.96 735.93 647.16 724.83 691.43C724.17 694.06 722.7 697.57 726.14 699.01C729.91 700.59 730.72 696.75 731.84 694.34C738.68 679.65 742.84 664.1 745.7 648.24C746.8 642.16 745.91 636.47 738.74 633.45C730.73 630.08 724.84 623.61 719.06 617.36C712.38 610.13 705.66 603.22 696.31 599.29C689.93 596.61 691.35 592.79 696.05 589.65C698.37 588.11 701.24 587.4 703.83 586.25C705.98 585.29 709.51 585.48 709.29 582.18C709.13 579.86 706.29 579.1 704.18 578.52C675.76 570.69 647.34 563.01 617.68 572.63C613.2 574.08 608.39 575.91 602.37 572.56C630.73 556.01 660.15 555.84 690.43 559.53L690.42 559.55ZM326.32 989.92C331.92 990.33 333.45 992.91 335.66 994.54C378.6 1026.2 413.67 1031.32 460.02 1003.66C475.13 994.64 484.25 980.64 489.54 964.35C492.38 955.61 491.81 946.37 487.3 937.9C486.78 945.54 486.64 952.88 483.74 960.18C475.19 981.69 458.5 994.14 438.29 1003.33C415.44 1013.72 383.73 1008.7 366.12 990.8C357.71 982.26 350.04 973.03 340.44 965.66C336.6 962.72 334.18 958.32 333.71 953.47C330.84 923.82 316.53 895.69 322.19 864.87C323.3 858.83 320.28 857.39 315.1 860.98C307.22 866.44 300.73 873.36 294.95 880.86C268.42 915.28 268.07 940.26 292.55 976.95C307.5 999.36 329.15 1013.99 352.53 1026.49C366.85 1034.14 381.62 1033.95 396.89 1031.18C370.12 1024.09 346.4 1012.28 326.32 989.93V989.92ZM724.33 853.83C733.91 847.68 739.82 841.79 744.87 834.93C756.99 818.47 762.62 802.14 747.65 783.74C740.81 775.33 742.43 772.96 753.27 771.46C757.21 770.92 760 770.73 759.02 765.51C755.59 747.24 750.64 729.85 735.81 716.96C723.31 706.1 709.8 696.96 694.46 690.62C681.78 685.38 681.83 685.37 680.76 698.46C680.58 700.64 679.86 702.78 679.44 704.95C676.53 720.2 677.71 734.34 685.06 748.86C699.47 777.36 706.36 807.42 697.53 839.59C692.51 857.87 675.58 871.67 656.78 871.57C646.41 871.51 636.17 871.3 626.01 863.51C627.86 872.63 632.1 876.36 638.71 878.16C647.94 880.67 657.36 882.32 666.78 880.79C688.66 877.23 709.73 870.88 717.14 846.9C724.97 821.56 727.1 795.51 719.23 769.47C718.13 765.84 715.95 762.3 718.12 755.66C732.79 788.25 737.06 819.05 724.31 853.83H724.33ZM669.63 863.34C681.21 856.55 691.37 848.36 693.77 834.07C698.34 806.83 695.27 780.71 682.23 755.95C678.15 748.21 673.08 740.62 672.61 731.46C672.32 725.8 669.45 722.39 665.08 719.18C644.14 703.82 618.98 699.31 595.08 691.56C588.5 689.42 589.32 692.96 590.43 697.45C592.46 705.7 594.84 714 595.53 722.4C596.95 739.64 603.06 754.66 616.36 765.56C636.29 781.89 643.28 803.77 645.68 828C646.75 838.8 645.08 848.82 636.17 856.42C634.38 857.94 630.94 858.82 631.78 861.89C632.66 865.11 636.27 864.82 638.88 865.66C642.75 866.91 646.07 865.81 649.71 864.08C664.77 856.92 670.14 843.46 671.08 828.6C672.87 800.32 665.43 774.26 648.34 751.27C646.82 749.22 644.14 747.51 645.35 744C670.69 765.64 695.22 823.48 669.63 863.35V863.34ZM606.75 524.98C608.93 521.94 608.07 519.04 607.76 516.32C603.39 478.01 562.11 457.91 536.21 461.2C493.81 466.58 470.18 494.74 453.64 530.93C451.22 536.22 449.22 541.6 444.39 545.34C447.24 509.69 467.76 484.06 493.35 460.54C485.14 460.01 479.88 464.83 474.44 468.03C443.12 486.43 415.59 511.67 422.54 556.01C425.07 572.11 427.78 587.85 439.32 600.36C441.71 602.94 444.01 606.96 448.52 602.7C459.82 592.05 473.33 583.23 476.71 566.32C477.36 563.07 479.38 559.75 481.65 557.25C485.8 552.68 486.98 547.6 486.91 541.66C486.78 530.59 489.95 520.18 497.15 511.88C515.84 490.33 538.99 477.7 568.34 478.64C583.72 479.13 592.89 485.52 598.12 500.27C600.22 506.19 601.43 512.42 602.95 518.54C603.53 520.87 602.93 523.72 606.74 524.98H606.75ZM270.33 596.18C270.5 597.05 270.67 597.92 270.84 598.79C269.7 599.26 268.59 599.96 267.41 600.16C232.51 606.12 205.15 625.29 181.5 650.24C172.34 659.9 165 671.64 167.24 686C169.81 702.49 176.52 717.19 187.98 729.84C201.63 744.91 218.86 755.89 232.79 770.57C234.55 772.42 236.1 772.1 237.45 770.26C240.95 765.48 243.14 761.54 235.4 757.86C213.28 747.34 195.95 730.9 190.61 706.89C182.46 670.23 190.87 646.04 231.17 644C232.12 643.95 233.07 643.89 234 643.76C251.5 641.28 267.5 635.3 281.67 624.41C296.08 613.34 304.67 596.78 319.09 585.66C324.23 581.69 318.19 580.95 315.84 580.24C298.35 574.96 280.4 574.11 262.36 575.8C238.43 578.04 216.78 586.27 199.29 603.11C189.49 612.54 179.03 621.92 175.03 638.45C201.84 608.86 236.66 603.9 270.34 596.17L270.33 596.18ZM810.54 304.01C775.17 267.73 702.96 264.31 665.89 296.63C673.35 298.74 680.93 299.89 687.62 302.97C714.03 315.1 741.97 320.47 770.52 324.57C786.22 326.83 802.93 327.96 816.56 337.58C838.3 352.93 854.02 373.14 862.24 398.7C876.23 442.18 865.13 481.56 841.46 518.37C836.71 525.75 839.3 530.63 842.61 536.43C844.78 540.24 846.78 539.28 848.85 536.22C860.01 519.7 871.08 502.99 875.34 483.19C884.47 440.81 878.42 400.75 857.57 362.37C847.12 343.13 834.9 326.81 814.44 317.86C802.01 312.42 788.89 309.04 776.01 304.92C765.75 301.64 754.83 301.68 744.45 298.63C767.12 293.24 788.84 298.43 810.54 304.02V304.01ZM578.51 635.22C615.3 625.27 648.75 636.13 681.73 651.1C671.43 636.52 659.88 623.75 644.26 615.35C638.23 612.1 632.84 606.29 625.47 607.26C608.68 609.47 592.9 605.38 576.93 601.35C560.22 597.13 546.22 604.65 540.41 620.95C538.15 627.28 535.23 633.06 531.62 638.65C525.25 648.5 525.37 648.47 536.72 652.69C540.55 654.12 544.44 655.71 547.83 657.94C566.9 670.47 587.67 672.72 609.62 668.87C625.55 666.08 640.34 668.53 653.59 678.58C658.86 682.57 664.8 685.66 670.4 689.22C674.01 691.52 676.7 691.21 676.6 686.41C676.47 680.2 680.28 681.18 684.2 681.33C687.37 681.45 690.46 684.44 694.4 681.81C690.51 675.39 685.47 670.55 679.74 666.82C649.05 646.85 616.38 632.96 578.49 635.22H578.51ZM274.55 775.08C266.3 789.89 259 804.86 256.57 821.66C252.93 846.88 252.39 871.5 272.34 891.45C274.24 893.35 276.48 897.63 278.76 894.99C283.05 890.04 290.25 884.59 286.94 877.27C277.46 856.29 284.65 838.71 295.93 821.36C301.23 813.2 307.3 805.29 309.27 795.45C313.84 772.63 315.63 749.27 322.4 726.87C322.86 725.36 323.41 723.56 321.97 722.48C320.11 721.08 318.22 722.32 316.91 723.61C312 728.44 306.08 731.18 299.44 732.41C269.19 738.03 249.69 756.25 237.7 783.95C229.45 803.01 228.04 821.14 242.03 840.15C248.62 815.26 258.44 793.48 274.56 775.09L274.55 775.08ZM423.77 937.54C412.14 934.8 406.51 926.74 403.24 916.08C398.39 900.24 401.62 884.82 405.39 869.53C410.32 849.5 418.67 830.09 409.51 808.79C406.19 801.08 407.06 792 411.73 784.08C412.79 782.28 415.03 780.22 413.44 778.17C411.63 775.84 408.64 777.06 406.36 777.83C402.8 779.04 399.31 780.58 395.97 782.33C381.16 790.11 368.86 801.42 358.98 814.35C332.82 848.62 329.91 883.4 356.76 919.44C359.64 923.31 363.35 927.62 370.92 928.27C357.54 898.04 369.58 871.41 377.56 842.03C379.51 844.97 380.16 845.5 380.1 845.94C379.78 848.43 379.52 850.97 378.82 853.37C372.82 874 374.35 894.31 379.48 915C384.28 934.38 403.47 942.69 423.78 937.55L423.77 937.54ZM781.84 479.07C779.6 476.61 778.94 475.47 777.95 474.86C760.62 464.08 742.18 456.01 721.52 455.14C693.39 453.96 670.54 464.73 653.46 487.33C650.63 491.08 648.28 494.02 655.69 495.55C670.21 498.55 684.59 501.27 699.58 501.69C724.05 502.37 748.63 502.44 772.23 511.44C809.36 525.6 839.55 566.47 831.18 607.59C829.81 614.33 828.63 621.18 827.26 627.97C826.64 631.05 827.24 634.05 830.41 635.04C834.31 636.25 833.98 632.24 834.7 630.28C842.53 609.06 847.2 587.34 845.1 564.49C843.17 543.36 834.11 524.82 819.27 511C801.25 494.22 778.06 486.13 753.44 482.76C741.15 481.08 728.82 480.92 716.42 480.45C737.49 474.64 758.67 473.37 781.82 479.07H781.84ZM491.36 973.57C491.82 974.37 492.12 975.32 492.76 975.93C494.35 977.45 496 978.93 497.78 980.23C513.29 991.61 531.32 995.67 549.88 998.42C565.42 1000.73 576.9 994.38 585.62 982.16C599.97 962.05 610.42 940.56 608.58 914.88C608.47 913.39 607.67 911.11 610.56 910.28C614.73 921.38 613.89 932.67 613.51 943.96C612.94 960.87 606.75 975.62 595.96 988.35C598.42 990.36 599.77 989.09 601.14 988.54C627.14 977.97 652.24 926.2 637.45 899.95C627.07 881.53 618.79 862.13 602.91 847.44C597.99 842.89 592.63 842.09 589.73 848.43C583.11 862.89 574.81 876.88 576.22 893.96C577.52 909.67 578.57 925.48 578.38 941.23C577.93 978.3 555.68 994.83 519.69 985.79C509.57 983.25 500.91 977.81 491.36 973.56V973.57ZM111.87 793.37C95.95 806.6 86.04 824.13 76.99 842.11C56.09 883.61 58.34 927.65 94.08 963.11C99.31 968.3 105.31 972.28 111.6 975.88C114.92 977.78 118.94 979.36 121.39 974.61C123.36 970.79 122.64 967.5 118.49 965.05C115.25 963.14 112.31 960.64 109.5 958.12C87.34 938.23 76.12 914.32 85.18 884.5C90.4 867.3 98.3 851.04 108.83 836.24C123.34 815.84 140.89 798.05 157.33 779.29C161.99 773.98 169.25 767.09 165 760.61C160.18 753.26 150.39 755.15 142.24 757.57C141.33 757.84 140.43 758.14 139.53 758.44C102.73 770.69 80.51 798.37 64.09 831.42C61.13 837.38 55.59 844.67 60.35 853.97C67.19 841.37 74.24 830.2 82.58 819.88C90.9 809.59 99.17 799.26 111.87 793.39V793.37ZM751.34 778.91C752.84 781.52 753.86 783.41 754.98 785.25C764.54 800.96 771.19 817.36 767.46 836.34C765 848.83 767.62 860.58 771.89 872.42C776.23 884.43 778.1 896.68 771.65 909.09C759.98 931.55 736.67 938.59 715.17 925.44C700.77 916.63 687.77 906.27 678.76 891.58C677.09 888.86 675.37 883.97 671.24 886.26C666.45 888.92 670.08 893.24 671.85 896.04C686.37 919.01 703.04 939.48 729.64 949.88C739.98 953.92 748.77 953.84 756.75 946.64C780.79 924.95 794.3 898.69 790.57 865.35C790.29 862.84 790.14 860.32 789.9 857.8C789.67 855.34 787.91 852.71 790.92 849.27C800.46 883.22 800.23 914.5 776.86 942.7C806 930.24 821.07 891.68 812.61 853.44C804.77 818.02 773.58 773.59 751.33 778.93L751.34 778.91ZM834.9 714.82C840.32 700.64 843.6 686.61 840.48 671.4C832.04 630.28 788.47 587.08 738.63 587.32C726.6 587.38 714.63 587.32 703.1 591.36C701.37 591.97 699.11 592.25 698.93 594.57C698.75 596.98 701.01 597.31 702.67 598.14C710.72 602.17 717.02 608.41 722.78 615.06C733.86 627.85 747.17 634.69 764.45 632.84C770.81 632.16 777.08 633.21 782.94 635.91C787.34 637.93 791.45 640.71 793 645.42C800.33 667.56 809.57 689.13 813.71 712.26C818.47 738.86 800.42 764.62 773.72 769.59C771.26 770.05 766.9 768.08 766.62 772.04C766.31 776.34 771.04 776.75 774.14 777.93C777.52 779.22 780.23 777.06 782.93 775.5C815.86 756.41 827.68 726.13 822.62 689.62C820.86 676.87 817.13 664.47 812.98 652.2C822.55 672.25 834.79 691.32 834.89 714.83L834.9 714.82ZM333.47 886.42C332.87 875.28 332.33 865.25 334.17 855.22C340.14 822.77 360.28 800.4 386.61 783.11C396.02 776.93 400.21 769.78 399.56 759.09C399.35 755.62 399.66 752.01 398.77 748.72C396.33 739.69 398.47 731.94 404.08 724.78C405.28 723.25 408.21 721.81 405.95 719.36C404.2 717.46 401.75 718.73 399.69 719.36C392.16 721.68 384.85 724.8 376.9 725.53C361.17 726.98 348.64 734.63 339.12 746.63C329.93 758.22 321.19 771.03 317.5 785.02C314.56 796.17 311.7 806.83 305.28 816.22C295.68 830.26 299.48 843.26 307.81 858.97C312.39 822.26 328.95 794.22 352.2 769.68C351.55 772.44 350.38 774.96 348.88 777.26C336.01 797.01 327.56 818.73 320.86 841.16C319.87 844.47 316.45 849.84 320.39 851.54C331.6 856.38 327.99 865.53 328.12 873.52C328.2 878.21 326.77 883 333.46 886.4L333.47 886.42ZM459.17 859.7C461.22 864.48 459.25 867.34 458.56 870.31C454.7 886.81 457.38 902.91 461.37 918.94C461.8 920.68 462 923.02 464.17 923.5C466.53 924.03 467.35 921.79 468.14 920.21C473.12 910.38 479 900.95 480.99 889.81C482.01 884.13 483.7 878.57 485.09 872.95C487.35 892.58 480.63 909.62 471.48 925.97C470.47 927.78 467.73 929.52 469.42 931.66C471.29 934.03 474.16 932.49 476.45 931.6C484.22 928.59 489.31 922.74 493.03 915.5C500.22 901.51 501.59 885.88 505.34 870.94C511.11 847.94 505.93 825.87 497.79 804.29C495.53 798.29 491.62 797.08 487.06 801.75C474.72 814.39 460.89 825.56 450 839.61C430.34 864.98 428.16 896.17 444.46 920.68C446.75 924.12 448.92 927.91 454.69 929.19C447.06 905.22 451.04 882.98 459.18 859.68L459.17 859.7ZM460.13 1016.34C460.13 1015.12 460.63 1013 458.95 1011.69C457.5 1010.57 456.02 1011.73 454.6 1012.4C437.49 1020.41 421.4 1030.61 403.21 1036.28C400.23 1037.21 398.92 1039.78 397.37 1042.19C388.82 1055.57 378.31 1067.21 366.94 1078.31C362.13 1083 351.11 1083.27 352.91 1092.4C354.34 1099.66 361.86 1104.29 367.1 1109.74C371.35 1114.16 376.86 1116.62 382.05 1119.58C384.65 1121.07 387.47 1121.5 390.2 1119.98C407.46 1110.34 426.02 1102.69 437.24 1084.67C450.22 1063.81 454.07 1040.09 460.15 1016.35L460.13 1016.34ZM618.98 802.47C618.12 788.71 615.19 775.35 607.15 764.45C598.65 752.93 592.09 740.92 591.06 726.75C590.28 715.96 584.02 711.81 575.07 708.5C559.58 702.77 544.45 708.78 529.16 708.94C525.36 708.98 524.54 711.89 525.77 715.07C528.54 722.23 529.5 729.7 530.23 737.26C530.44 739.39 530.57 742.24 533.04 742.86C543.54 745.52 544.15 754.88 546.37 762.76C548 768.52 548.26 773.94 556.74 770.6C559.94 769.34 563.53 771.09 566.15 773.81C572.05 779.95 578.28 785.79 583.88 792.19C599.05 809.57 609.79 829.58 618.79 850.97C620.06 834.55 613.91 819.59 609.13 804.39C604.23 788.8 594.83 775.45 587.05 761.23C600.69 772.71 608.62 788.39 618.98 802.45V802.47ZM354.21 525.11C345.61 505.24 349.78 486.78 357.74 467.29C341.76 469.01 331.29 477.76 324.19 489.96C317.84 500.87 315.58 512.95 322.6 525.07C333.67 544.22 352.88 550.68 372.12 557.05C375.72 558.24 378.76 556.16 381.35 553.51C389.73 544.93 392.35 534.63 390.34 523.06C389.21 516.53 387.27 510.13 386.43 503.58C385.6 497.14 385.92 489.87 393.43 487.86C400.71 485.91 403.71 492.37 406.34 497.86C410.07 505.64 413.64 513.5 417.71 522.25C422.56 516.41 421.14 511.35 419.34 506.82C417.15 501.28 414.5 495.76 411.11 490.88C404.81 481.78 397.82 473.22 386.8 469.25C378.19 466.15 371 466.67 365.52 475.34C357.35 488.26 351.9 501.63 355.25 517.31C355.73 519.57 357.05 522.02 354.22 525.12L354.21 525.11ZM426.18 904.68C421.05 885.18 422.03 865.79 425.56 846.45C427.98 833.21 445.35 802.42 454.63 794.77C445.34 813.12 436.77 830.53 435.57 850.46C447.33 829.07 466.42 814.63 483.19 798.1C485.67 795.65 488.54 793.21 492.28 793.72C498.7 794.6 498.94 790.99 498.33 786.32C497.11 776.95 492.09 769.21 487.75 761.16C484.46 755.08 480.52 749.31 479.35 742.24C478.93 739.71 480.91 735.78 477.04 734.96C473.76 734.27 471.13 736.89 469.21 739.46C464.1 746.33 458.78 752.68 451.02 757.03C427.84 770.03 419.21 793.28 418.55 816.74C418.07 833.83 415.08 849.72 411.19 865.75C407.15 882.41 414.12 894.14 426.18 904.67V904.68ZM603.78 836.98C594.61 814.66 579.61 796.6 563.09 779.68C558.32 774.8 555.45 776.58 553.12 782.84C545.16 804.24 541.83 826.79 535.93 848.69C532.48 861.53 532.81 874.47 534.79 887.2C537.15 902.36 544.37 915.18 557.99 923.5C560.1 924.79 562.68 926.76 564.84 924.61C566.92 922.54 563.94 920.81 563.13 918.95C553.83 897.59 551.78 875.28 553.93 852.38C558.06 868.9 560.17 885.95 569.39 900.97C569.3 888.42 569.67 876.21 575.59 864.91C581.33 853.94 584.97 842.38 584.16 829.63C587.553 834.963 594.087 837.417 603.76 836.99L603.78 836.98ZM501.66 584.17C504.17 575.16 504.43 574.25 508.65 570.25C522.76 556.88 535.67 541.52 557.52 540.8C560.12 540.71 563.33 538.66 562.77 535.28C562.32 532.55 559.2 533.32 557.14 533.27C545.44 532.98 533.79 533.6 522.34 536.2C484.94 544.69 468.83 581.51 475.54 613.2C476.85 619.4 479.25 621.69 485.9 620.03C494.85 617.79 504.25 618.64 513.22 619.7C525.13 621.1 534.72 618.18 540.98 608.18C544.42 602.68 556.39 602.14 552.74 594.99C550.26 590.14 540.32 588.18 533.35 586.79C524.6 585.05 528.1 582.59 531.67 578.89C538.72 571.59 544.57 563.49 547.3 553.29C531.18 560.96 515.59 568.91 501.65 584.17H501.66ZM328.84 745.83C337.29 740.24 343.52 732.55 352.22 727.92C374.99 715.8 389.47 697.64 393.36 671.66C393.97 667.61 394.01 664.25 388.79 664.96C381.74 665.91 374.98 664.2 368.11 663.53C332 660.01 296.87 688.57 279.16 719.49C277 723.26 271.93 729.71 276.08 731.69C280.68 733.89 287.4 729.81 291.22 724.63C292.14 723.38 292.58 721.78 293.39 720.43C304.43 702.08 324.25 696.3 341.08 686.21C340.34 688.35 338.99 689.66 337.42 690.62C325.76 697.78 315.6 706.68 306.59 716.92C304.66 719.11 300.51 721.39 303.02 724.47C305.21 727.15 308 723.48 310.3 722.18C314.69 719.7 318.9 716.89 323.26 714.36C325.15 713.26 327.31 712.1 329.41 713.82C331.41 715.46 330.91 717.71 330.58 719.95C330.11 723.17 326.27 725.65 328.58 729.89C335.81 725.4 339.54 716.8 349.04 713.04C344.16 726.25 330.63 732.45 328.84 745.81V745.83ZM304.01 658.39C327.67 637.3 358.53 633.83 376.88 637.21C360.95 638.6 347.85 640.63 336.46 647.78C325.16 654.87 315.28 663.55 309.18 675.74C311.01 676.04 312.21 675.72 313.19 675.07C340.32 657.02 369.54 654.8 400.21 663.56C402.54 664.23 403.79 662.73 405.01 661.4C411.05 654.85 417.98 649.44 425.62 644.94C430.13 642.28 429.74 640.1 425.44 637.64C419.43 634.19 413.22 630.99 407.68 626.88C393.47 616.34 377.49 611.29 360.04 611.18C331.91 610.99 307.63 631.2 304.01 658.4V658.39ZM427.58 603.7C423.35 582.56 417.06 563.39 415.75 543.22C415.31 536.37 398.86 532 395.6 537.88C392.09 544.2 387.85 550.65 387.64 558.68C387.3 572.22 390.45 584.53 398.37 595.85C388.65 589.36 383.24 579.88 379.16 569.54C377.39 565.07 363.82 557.44 359.22 558.8C357.59 559.28 356.75 560.4 355.97 561.89C348.64 575.88 355.42 596.96 370.42 602.96C386.11 609.24 402.07 615.45 419.39 615.69C422.75 615.73 426.54 618.85 430.09 614.79C419.52 605.51 409.52 596.12 408.13 581.18C414.08 588.44 417.56 597.76 427.6 603.71L427.58 603.7ZM402.62 711.11C416.27 715.7 416.86 717.06 408.91 727.59C404.12 733.93 404.01 740.8 404.6 748.19C405.06 753.95 407.23 754.15 411.87 752.14C427.37 745.44 439.28 734.88 449.03 721.1C456.63 710.36 458.95 696.36 470.18 687.88C473.12 685.66 470.49 684.21 468.17 683.57C449.58 678.43 430.99 672.99 411.59 679.64C405.93 681.58 399.45 683.09 396.47 688.58C391.1 698.46 386.19 708.54 376.9 716.94C387.51 720.31 389.05 711.62 393.21 707.62C397.9 703.1 403.55 700.51 409.12 697.61C414.6 694.76 419.97 691.65 426.31 691.04C417.38 696.46 409.33 702.69 402.63 711.09L402.62 711.11ZM527.93 896.87C530.88 893.26 529.47 891.18 529.18 889.1C528.83 886.6 528.48 884.09 528.33 881.57C526.6 850.7 535.83 821.7 543.71 792.5C544.71 788.8 546.35 785.36 545.26 781.54C542.83 773.04 540.28 764.58 537.7 756.12C535.77 749.79 532.03 749.81 528.18 754.12C522.73 760.24 517.07 766.35 512.72 773.23C504.01 787.02 499.39 801.18 507.1 817.83C513.27 831.17 513.64 846.12 512.05 860.72C511.2 868.53 508.79 876.16 507.42 883.93C506.9 886.87 506.09 891.08 510.31 891.71C515.19 892.45 515.38 888.37 515.52 884.68C515.92 874.26 516.3 863.84 517.01 853.44C517.89 840.4 519.25 827.4 523.78 814.86C519.67 842.07 519.74 868.94 527.95 896.87H527.93ZM800.5 348.94C792.71 369.09 785.47 387.39 775.89 404.65C766.31 421.9 752.67 435.95 739.28 450.27C742.28 452.53 743.65 451.63 744.87 450.64C760 438.48 778.24 433.38 796.26 427.63C802.3 425.7 811.23 429.95 814.06 422.95C816.47 416.98 815.12 409.26 814.61 402.38C813.28 384.48 809.81 367.07 800.49 348.94H800.5ZM687.48 313.56C688.21 308.41 684.82 305.07 678.35 304.5C672.85 304.01 673.63 308.38 673.27 311.54C667.89 357.78 666.96 403.96 675.69 449.95C676.31 453.21 674.58 460.1 681.64 457.46C686.31 455.71 694.93 456.46 692.41 446.66C690.6 439.65 688.99 432.55 687.89 425.4C682.19 388.14 680.36 350.85 687.48 313.56ZM557.85 432.75C558.04 425.42 556.62 417.02 554.47 408.79C552.64 401.8 550.37 394.9 547.83 388.13C544.86 380.21 539.45 374.16 532.02 370.01C527.37 367.41 510.5 376.4 510.34 381.62C510.31 382.72 511.09 384.01 511.85 384.93C526.4 402.8 534.78 423.11 536.16 446.19C536.3 448.53 536.77 450.33 539.27 451.4C552.75 457.19 558.32 453.48 558.12 438.7C558.1 437.13 557.98 435.55 557.85 432.73V432.75ZM586.02 708.65C588.37 703.82 585.5 700.5 584.96 696.88C584.47 693.66 580.5 690.47 583.51 687.35C586.73 684 591.22 685.46 595.16 686.65C611.1 691.44 627.02 696.34 642.94 701.2C646.87 702.4 649.95 706.26 655.35 705.43C650.58 694.29 642.63 686.8 634.04 679.86C628.2 675.15 622.02 672.64 613.99 674.02C599.03 676.58 583.93 676.71 568.78 674.57C560.35 673.38 552.62 676.37 545.66 681.12C543.96 682.28 541.2 683.62 543.06 686.23C546.65 691.27 549.09 698.43 556.06 699.14C566.8 700.23 576.63 703.65 586.02 708.66V708.65ZM500.35 713.95C502.81 705.13 500.22 702.65 492.66 704.93C489.67 705.83 486.43 706.32 483.32 706.3C456.96 706.09 450.37 729.31 437.59 745.03C435.12 748.06 437.89 751.81 440.14 754.4C443.13 757.83 444.99 753.81 447.28 752.78C457.09 748.35 463.13 739.62 470.57 732.47C473.13 730.01 476.23 728.07 479.94 729.08C484.22 730.24 484.11 734.32 484.41 737.64C485.16 745.86 489.49 752.44 493.68 759.1C496.05 762.86 498.2 762.18 499.3 758.2C502.08 748.2 505.38 738.32 502.31 727.62C500.94 722.85 500.85 717.72 500.34 713.95H500.35ZM435.63 603.69C435.56 611.93 437.84 618.36 430.81 622.07C428.98 623.04 430.36 625.48 431.2 627.18C433.52 631.9 437.31 635.15 441.7 637.81C448.94 642.19 456.89 645.69 460.46 654.33C461.69 657.31 463.88 657.36 466.59 655.58C475.11 649.99 481.01 642.4 484.11 632.77C485.19 629.4 484.97 626 479.79 627.37C475.23 628.57 473.56 626.45 472.62 622.36C471.35 616.85 469.49 611.53 468.61 605.86C467.96 601.72 471.27 595.23 466.6 593.92C462.47 592.76 459.42 599.08 455.79 601.97C455.31 602.36 454.93 602.9 454.57 603.41C449.64 610.5 444.07 613.32 435.62 603.7L435.63 603.69ZM243.59 1004.29C260.32 1005.33 276.96 1003.81 293.55 1001.9C296.79 1001.53 302.84 1003.15 302.44 998.23C302.1 994.1 297.96 989.62 292.83 988.98C288.52 988.44 284.05 989.36 279.64 989.46C256.98 989.98 234.29 991.52 211.87 986.38C207.81 985.45 202.16 982.17 201.77 990.86C201.48 997.24 199.58 1004.17 209.58 1004.26C220.91 1004.36 232.25 1004.28 243.58 1004.28L243.59 1004.29ZM474.78 668.02C474.09 664.83 471.34 661.77 468.68 661.93C460.54 662.42 457.61 656.76 453.19 651.81C448.32 646.35 441.98 640.13 433.76 643.97C419.88 650.47 410.59 663.03 399.06 672.67C397.43 674.03 396.57 676.79 397.96 678.72C399.6 680.99 401.91 679.51 403.87 678.54C421.43 669.89 439.47 669.55 457.9 675.33C462.94 676.91 474.58 671.94 474.78 668.02ZM752.49 143.1C751.69 142.47 750.89 141.83 750.09 141.2C749.37 142.55 748.84 144.07 747.89 145.24C736.08 159.7 726.68 175.72 717.16 191.71C702.25 216.76 690.69 243.25 682.5 271.18C681.61 274.2 678.01 279.79 683.08 280.62C687.38 281.32 694.12 280.3 695.77 273.42C696.07 272.19 696.32 270.96 696.59 269.72C704.01 236.25 716.68 204.83 733.62 175.1C739.75 164.34 746.19 153.76 752.48 143.1H752.49ZM789.31 665.46C774.59 678.7 759.81 686.64 743.68 691.87C737.27 693.95 732.49 697.4 733.74 704.39C734.94 711.14 745.82 715.64 752.49 713.87C775.99 707.61 783.54 689.17 789.31 665.47V665.46ZM959.02 561.84C950.57 565.5 945.27 569.84 940.26 574.54C924.32 589.46 906.31 601.61 888.21 613.63C873.66 623.28 857.4 629.41 841.35 635.96C838.87 636.97 834.69 637.37 835.74 641.02C837.13 645.89 840.96 642.38 843.65 641.95C846.43 641.5 849.17 640.58 851.81 639.57C877.21 629.76 900.72 616.6 922.71 600.49C936.6 590.31 948.91 578.91 959.03 561.85L959.02 561.84ZM139.82 915.98C148.62 917.11 155.03 913.26 161.72 911.1C193.42 900.85 225.42 892.85 259.2 895.9C261.8 896.13 265.48 899.06 266.85 895.77C268.3 892.29 264.21 889.92 262.15 887.28C260.05 884.58 257.03 885.38 254.27 885.21C214.11 882.71 178.19 897.66 142.25 912.47C141.56 912.76 141.22 913.91 139.82 915.98ZM552.99 1059.73C553.92 1119.47 534.41 1172.69 501.67 1221.69C540.27 1190.53 564.78 1103.56 552.99 1059.73ZM794.98 665.47C793.61 667.49 792.89 668.15 792.65 668.96C786.32 691.1 777.47 711.71 758.4 726.22C754.62 729.1 756.06 732.21 758 735.37C760.61 739.62 763.62 737.31 765.95 735.44C779.65 724.44 791.13 711.55 798.37 695.34C802.85 685.3 800.86 675.81 794.99 665.46L794.98 665.47ZM422.76 946.24C415.1 945.57 409.39 946.29 403.94 944.43C401.02 943.43 398.38 944.65 396.08 946.58C385.75 955.18 373.49 960.3 361.43 965.8C359.17 966.83 354.44 966.55 355.76 970.23C357.01 973.72 359.64 977.81 364.48 977.78C366.9 977.77 369.45 976.97 371.69 975.98C380.33 972.13 389.16 968.57 397.36 963.92C405.7 959.19 414.62 955.04 422.75 946.25L422.76 946.24ZM393.65 1041C393.09 1040.13 392.77 1039.23 392.14 1038.7C389.4 1036.41 373.7 1038.12 371.94 1041.26C365.25 1053.22 356.52 1063.44 346.27 1072.43C342.9 1075.38 343.64 1078.49 345.74 1081.66C348.33 1085.59 350.89 1083.41 353.69 1081.72C369.37 1072.27 380.58 1058.26 391.96 1044.42C392.72 1043.49 393.07 1042.22 393.66 1041H393.65ZM543.81 372.01C548.59 379 552.24 386.48 554.9 394.53C561 413 563.65 431.86 561.35 451.23C560.45 458.77 566.74 459.73 570.83 460.52C576.94 461.71 575.15 455.66 575.09 452.55C574.96 445.02 574.56 437.42 573.37 429.99C569.76 407.57 562.34 386.92 543.82 372L543.81 372.01ZM773.21 530.23C772.28 527.94 771.77 524.79 768.96 523.56C765.97 522.25 764.45 525.09 762.79 526.82C749.45 540.73 735.19 553.56 719.53 564.83C716.79 566.8 714.85 568.94 717.83 572.57C720.57 575.91 723.25 575.32 725.99 573.21C741.48 561.28 756.95 549.32 770.74 535.39C772.07 534.05 773.53 532.76 773.2 530.24L773.21 530.23ZM273.66 1058.62C246.493 1065.77 218.363 1065.29 189.27 1057.16C189.27 1057.47 189.14 1057.89 189.29 1058.06C190.13 1058.96 190.95 1059.9 191.92 1060.65C211.14 1075.5 232.93 1078.15 256.29 1074.98C266.09 1073.65 271.84 1069.23 273.66 1058.63V1058.62ZM506.95 646.46C507.39 650.58 507.61 654.05 508.2 657.45C508.5 659.22 509.43 662.32 510.13 662.34C514.98 662.46 518.7 659.11 522.87 657.17C526.27 655.59 523.35 653.48 522.31 651.88C519.97 648.3 521.47 645.36 523.41 642.31C526.27 637.81 529.29 633.36 531.66 628.6C532.55 626.81 533.92 623.49 530.03 622.53C522.36 620.64 509.63 628.9 508.09 636.82C507.44 640.2 507.27 643.67 506.95 646.46ZM568.59 957.28C568.31 954.78 566.25 953.72 564.6 952.32C557.3 946.12 550.69 939.13 548.72 929.56C546.88 920.65 539.23 915.77 535.75 908.13C534.84 906.14 532.89 905.76 530.95 906.79C528.98 907.84 527.36 909.02 527.66 911.84C528.85 923.07 554.47 956.02 564.62 959.36C566.94 960.12 568.23 959.83 568.6 957.28H568.59ZM208.98 948.46L209.12 949.31C223.63 946.69 238.18 944.21 252.65 941.35C257.24 940.44 261.66 938.61 266.1 937.04C268.33 936.25 270.13 934.7 269.01 932.05C267.99 929.63 265.87 930.56 264.16 931.24C244.43 939.13 223.6 939.06 202.88 939.97C200.28 940.08 195.77 937.69 195.84 943.17C195.91 947.73 199.66 948.35 203.32 948.47C205.2 948.53 207.09 948.48 208.98 948.48V948.46ZM149.3 1201.6C168.73 1182.75 188.2 1163.93 207.55 1145C209.73 1142.86 214.79 1140.55 210.77 1136.93C207.1 1133.63 202.65 1134.72 199.54 1139.37C196.39 1144.08 192.74 1148.44 189.41 1153.03C177.04 1170.08 162.45 1185.28 149.29 1201.6H149.3ZM260.43 1058.59C264.29 1058.02 267.39 1057.62 269.04 1055.28C279.78 1040.08 290.35 1024.76 300.83 1009.38C303.52 1005.44 301.1 1004.37 297.46 1004.63C293.82 1004.88 292.16 1007.63 290.41 1010.32C283.36 1021.17 276.12 1031.91 269.24 1042.86C266.27 1047.58 261.63 1051.37 260.43 1058.59ZM450.78 1068.25C462.91 1051.14 471.49 1032.85 472.29 1011.69C472.41 1008.44 475.2 1003.27 471.06 1002.67C466.57 1002.02 463.65 1006.74 463.59 1011.7C463.49 1019.39 460.74 1026.52 459.33 1033.94C457.12 1045.53 453.84 1056.85 450.78 1068.26V1068.25ZM771.81 517.63C771.72 518.42 771.42 519.1 771.63 519.55C772.42 521.25 773.25 522.96 774.28 524.52C785.69 541.73 790.5 560.44 787.24 581.02C786.7 584.42 786.44 587.86 786 591.27C785.58 594.53 787.72 596.03 790.24 596.53C793.56 597.18 793.47 594.23 793.63 592.18C795.49 568.22 793.28 545.03 780.23 524.01C778.29 520.88 776.22 517.72 771.81 517.62V517.63ZM230.71 658.63C227.84 687.97 243.19 708.52 264.01 726.31C266.57 728.49 268.78 727.87 269.75 724.69C270.65 721.77 273.99 718.23 268.3 716.31C261.92 714.15 256.51 710.36 251.72 705.73C238.46 692.92 232.9 676.64 230.7 658.63H230.71ZM639.93 606.18C650.87 612.65 661.49 619.18 670.18 628.35C671.11 629.33 672.37 629.53 673.51 628.56C676.15 626.3 673.29 609.08 669.8 608C660.26 605.06 650.59 602.62 639.94 606.18H639.93ZM423.61 312.78C420.18 334.64 415.99 356.46 420.87 378.69C429.11 357.05 425.77 334.89 423.61 312.78ZM651.5 523.57C652.15 524.3 652.79 525.03 653.44 525.76C662.2 520.4 670.99 515.07 679.7 509.63C681.34 508.61 682.67 507.01 681.26 504.92C677.97 500.02 662.92 500.86 660.16 506.15C657.16 511.9 654.38 517.76 651.51 523.57H651.5ZM627.46 1040.54C623.41 1025.24 619.39 1010.16 617.37 994.61C617.1 992.51 616.87 989.84 613.65 990.4C610.49 990.95 610.07 993.42 610.21 996.15C611.07 1012.84 617.05 1027.57 627.46 1040.54ZM739.64 543.68C726.92 546.61 715.69 552.02 703.62 555.1C701.83 555.56 700.62 557.11 701.84 558.55C704.87 562.12 709 566.9 713.52 563.97C722.74 558 730.98 550.53 739.63 543.68H739.64ZM687.21 646.08C689.54 638.26 689.31 631.08 688.83 623.95C688.56 619.87 687.79 615.76 683.74 613.39C681.74 612.22 678.49 611.28 678.86 614.45C680.09 624.97 674.13 637.39 687.2 646.08H687.21ZM120.49 902.33C124.88 913.85 131.92 923.52 141.49 931.28C143.5 932.91 146.17 934.16 148.24 931.75C150.67 928.92 148.11 927.36 145.97 925.91C136.33 919.37 127.96 911.5 120.5 902.33H120.49ZM813.84 457.03C809.02 465.02 806.32 474.04 800.99 481.68C799.39 483.97 801.65 485.76 803.36 487.13C805.24 488.63 806.98 488.17 807.8 485.93C811.19 476.68 815.04 467.52 813.84 457.03ZM782.99 981.62C783.59 981.42 784.2 981.23 784.8 981.03C781.95 973.17 779.28 965.24 776.18 957.49C774.97 954.48 772.17 953.43 769.18 955.34C766.13 957.29 767.66 959.76 769.08 961.82C773.65 968.47 778.35 975.03 783 981.62H782.99ZM881.63 696.63C870.78 691.55 860.27 685.48 847.88 686.44C858.23 693.08 869.56 696.27 881.63 696.63ZM916.07 462.79C907.1 461.25 898.84 459.76 890.56 458.44C888.28 458.08 884.91 456.72 884.46 460.36C884.07 463.45 887.47 464.44 889.78 464.5C898.34 464.72 907.04 466.33 916.07 462.79ZM438.6 454.76C439.22 454.8 439.85 454.84 440.47 454.89C438.9 446.99 437.35 439.08 435.74 431.19C435.27 428.86 435.45 425.38 431.71 426.3C428.15 427.18 428.08 430.23 429.32 433.18C432.36 440.39 435.49 447.57 438.59 454.76H438.6ZM323 1034.61C327.45 1032.32 332.65 1030.37 335.81 1026.09C338.92 1021.88 334.26 1019.83 331.87 1020.25C325.73 1021.32 322.52 1026.88 319.23 1031.56C318.08 1033.2 320.62 1034.52 323.01 1034.62L323 1034.61ZM349.75 919.84C348.71 917.35 347.45 914.4 344.66 913.74C340.85 912.84 336.78 912.55 332.87 912.81C331.23 912.92 331.39 915.9 332.67 916.54C337.3 918.86 342.12 920.86 346.99 922.62C348.47 923.15 349.94 922.03 349.73 919.84H349.75ZM783.72 469.12C791.48 466.75 799.25 464.37 807.01 462C806.66 461.03 806.3 460.07 805.95 459.1C797.79 460.56 790.27 463.85 783.72 469.12ZM763.21 715.68C758.83 716.8 753.63 716.6 750.79 721.34C750.08 722.53 751.35 723.95 752.58 724.19C758.68 725.41 760.18 719.76 763.21 715.67V715.68Z" fill="#99E120"/>
</g>
<defs>
<clipPath id="clip0_14_543">
<rect width="1055.6" height="1344.27" fill="white"/>
</clipPath>
</defs>
</svg>
