<svg width="546" height="526" viewBox="0 0 546 526" fill="none" xmlns="http://www.w3.org/2000/svg">
<path d="M343.587 89.7037C326.717 90.9066 313.514 92.7593 300.367 92.4828C289.725 92.2615 286.887 95.7734 287.566 106.06C289.462 135.136 286.998 164.365 291.787 193.399C293.475 203.603 296.533 210.53 307.383 212.493C331.021 216.779 345.649 231.919 351.475 254.027C355.378 268.876 362.228 271.13 376.22 269.443C393.505 267.369 411.233 268.199 428.74 268.862C443.769 269.443 451.63 265.544 446.26 248.814C445.112 245.233 445.292 241.086 445.513 237.228C445.707 233.855 447.686 230.785 451.118 230.122C455.906 229.209 458.494 232.818 459.2 236.675C459.864 240.325 459.601 244.473 458.536 248.04C453.83 263.636 460.612 268.323 475.226 267.037C484.457 266.221 494.545 260.898 502.365 270.314C503.347 271.489 502.517 275.9 501.091 277.075C492.802 283.905 483.889 279.716 475.171 277.739C462.743 274.918 455.726 277.642 459.463 292.394C460.556 296.736 460.722 301.381 460.778 305.902C460.833 309.857 460.058 314.378 455.256 314.82C448.973 315.401 448.378 310.175 448.059 305.612C447.838 302.404 447.893 299.086 448.419 295.906C450.883 280.836 445.25 274.987 429.999 278.845C410.168 283.864 389.907 281.306 369.84 281.333C358.879 281.333 351.96 283.947 347.753 295.491C340.75 314.723 326.302 328.01 306.719 334.066C295.8 337.44 293.24 342.846 293.793 353.81C294.983 377.729 297.212 401.703 294.554 425.733C292.755 442.006 297.779 450.136 316.822 446.03C325.333 444.191 342.48 437.61 343.089 450.413C343.642 462.289 325.416 457.92 316.96 456.994C296.035 454.671 293.267 463.188 297.682 480.291C299.578 487.633 302.069 498.21 290.942 498.846C279.248 499.495 282.362 487.785 282.279 480.913C281.947 455.418 282.182 455.362 256.261 458.93C249.189 459.897 242.09 460.824 234.976 461.377C228.347 461.902 220.085 461.778 220.168 453.358C220.238 446.016 228.154 446.403 234.091 446.749C243.169 447.26 252.331 447.274 261.299 448.574C276.979 450.841 283.967 446.707 282.597 428.913C280.715 404.399 281.338 379.665 281.642 355.04C281.767 344.353 279.733 338.269 267.167 337.232C242.159 335.158 226.161 318.692 215.449 298.091C210.882 289.311 207.658 284.61 197.361 285.481C176.021 287.265 154.806 287.68 133.479 283.062C121.301 280.421 113.163 285.564 116.568 300.635C118.118 307.52 118.118 314.806 118.229 321.927C118.298 326.642 116.831 331.315 110.866 331.384C105.261 331.453 102.576 327.43 102.452 322.549C102.244 314.793 102.715 307.008 103.337 299.266C104.569 283.753 99.5317 279.384 84.2393 283.891C75.0639 286.587 66.1099 292.574 57.2251 283.656C55.3291 281.748 54.4988 278.886 56.5055 276.66C64.0894 268.212 75.0085 268.406 83.7273 270.895C102.507 276.245 102.507 267.811 101.511 253.294C100.888 244.293 95.0063 227.177 107.074 227.121C118.782 227.066 113.703 244.196 113.163 253.557C112.402 266.871 115.945 272.872 130.144 272.001C151.54 270.673 173.004 270.909 194.331 273.618C206.232 275.139 211.533 270.77 214.024 258.424C220.127 228.158 232.638 217.291 262.89 213.24C273.63 211.802 278.141 208 277.615 195.639C275.553 146.626 274.861 97.5569 273.989 48.5019C273.879 42.6397 272.01 33.4315 281.324 33.5559C289.268 33.6665 287.303 42.1281 287.566 47.6032C288.7 70.8311 300.851 82.4358 324.018 82.4174C328.516 82.4174 333.028 82.7215 337.498 83.2193C338.439 83.3299 339.2 84.9337 343.642 89.7175L343.587 89.7037ZM339.435 270.079C338.716 229.873 310.954 220.692 282.68 220.623C245.522 220.526 221.774 245.399 223.227 277.421C224.293 300.897 257.853 326.752 285.656 325.535C315.729 324.222 340.584 298.575 339.435 270.079Z" fill="#99E120"/>
<path d="M265.991 84.0627C251.266 94.6258 239.073 93.7271 227.504 94.9162C224.251 95.248 220.861 93.4506 220.681 89.6761C220.473 85.072 223.864 82.4727 228.002 82.5142C239.073 82.6386 250.131 83.3576 265.991 84.0627Z" fill="#99E120"/>
</svg>
