<svg width="860" height="1335" viewBox="0 0 860 1335" fill="none" xmlns="http://www.w3.org/2000/svg">
<g clip-path="url(#clip0_14_559)">
<path d="M182.37 1089.84C165.39 1051.97 149.07 1014.28 169.02 972.52C153.75 1023.48 176.44 1066.76 199.4 1108.73C209.33 1126.88 226.23 1141.4 238.01 1159.12C252.3 1180.61 263.62 1203.17 269.02 1228.82C275.89 1261.47 288.31 1291.56 315.08 1313.72C325.04 1321.96 336.34 1327.83 347.36 1334.23C327.33 1328.39 310.86 1316.93 297.13 1301.33C279.14 1280.9 269.81 1256.19 263.87 1230.26C255.44 1193.5 235.64 1163.62 210.58 1136.42C195.18 1119.71 174.12 1119.32 154.47 1118.22C143.56 1117.61 141.21 1114.46 140.84 1105.72C140.42 1095.73 140.91 1085.72 138.99 1075.78C134.79 1054.02 110.24 1038.96 88.8603 1045.33C81.0303 1047.66 68.7603 1039.24 64.6203 1028.43C60.8503 1018.58 64.9803 1012.14 74.1203 1008.41C78.5503 1006.6 83.2603 1005.49 87.7503 1003.81C104.58 997.54 112.76 985.3 112.89 967.36C112.94 959.78 113.41 952.12 116.01 944.86C118.11 939 117.39 933.16 116.95 927.12C116.25 917.6 110.81 915.73 102.98 917.31C92.6203 919.4 83.0903 923.64 75.0903 930.6C66.9403 937.69 58.4603 937.37 49.4603 932.9C29.0203 922.74 20.4703 904.98 25.1803 882.36C28.0703 868.48 33.1303 855.49 42.1303 844.38C48.2503 836.82 55.1803 833.72 63.3103 842.07C68.3603 847.25 74.3503 849.18 80.4403 844.27C87.6503 838.46 95.9003 831.19 93.9303 821.79C91.7803 811.5 80.6303 810.04 72.1103 812.37C62.6303 814.96 58.9903 811.82 56.0703 803.78C46.7203 778.08 31.8203 756.21 11.1703 738.03C-0.859735 727.43 -2.77974 714.92 3.49026 699.86C8.65026 687.47 16.7803 677.05 25.8003 667.33C34.2503 658.23 43.1603 649.55 51.6303 640.48C55.4403 636.4 61.1303 632.15 61.7903 627.4C64.8103 605.63 81.4103 607.32 96.0703 606.74C118.59 605.85 120.55 604.68 123.73 582.42C124.24 578.85 124.77 575.29 125.27 571.72C127.15 558.1 126.99 557.61 114.62 561.65C107.02 564.13 104.89 559.66 103.62 554.54C98.1403 532.38 99.4003 509.99 102.9 487.75C103.93 481.21 108.99 479.7 114.74 483.42C117.67 485.31 120.34 487.59 124.62 490.82C123.66 473.72 129.65 460.68 140.22 449.69C143.28 446.51 142.86 443.83 141.33 440.05C120.34 388.1 127.11 337.32 148.38 287.31C150.56 282.18 153.41 277.27 156.47 272.6C160.06 267.11 165.59 264.6 172.03 265.93C178.59 267.29 178.55 273 179.11 278.29C181.52 301.12 186.78 323.22 196.23 344.23C203.03 359.36 212.65 372.43 223.82 384.72C233.32 395.16 241.68 385.78 249.97 384.15C256.85 382.8 256.3 375.03 255.43 368.82C253.01 351.43 254.43 349.68 271.57 351.23C283.12 352.28 294.63 353.89 306.09 355.69C344.14 361.67 366.52 337.57 357.59 300.07C353.63 283.42 359.98 273.5 377.96 270.28C384.42 269.13 387.11 266.89 389.19 260.51C400.98 224.43 441.78 199.72 479.18 205.27C491.24 207.06 495.61 213.21 493.46 225.41C492.98 228.17 492.06 230.88 491.87 233.65C491.19 243.22 486.65 243.88 479.01 240.08C467.23 234.21 463.29 235.56 457.9 247.65C453.86 256.72 447.76 267.96 454.44 275.9C461.62 284.43 472.51 276.53 481.04 273.36C503.22 265.12 523.91 253.58 544.52 242.06C555.81 235.75 565.34 227 571.71 215.49C578.14 203.88 574.61 196.39 561.65 193.56C558.93 192.97 556.07 193.09 553.29 192.77C535.21 190.71 530.27 183.54 534.76 166.18C536.54 159.31 539.67 152.76 537.55 145.14C536.09 139.87 540.9 137.2 544.61 135.15C581.36 114.89 617.16 92.37 660.18 87.06C666.04 86.34 671.96 84.55 677.35 82.13C681.91 80.09 682.62 75.15 681.33 70.61C679.52 64.23 676.08 69.6 673.21 69.55C665.91 69.42 658.91 67.84 656.29 59.34C648.79 34.97 660.75 20.58 685.86 24.44C696.24 26.04 701.99 21.92 704.48 12.29C705.46 8.49999 705.99 4.59999 706.87 -0.0100098C712.22 26.29 706.86 33.96 683.85 37.2C678.77 37.91 673.91 40.21 668.97 41.84C665.77 42.89 662.75 44.3 663.88 48.53C664.87 52.21 667.73 53.49 671.29 53.16C672.86 53.02 674.41 52.48 675.93 52C683.26 49.71 690.83 43.92 697.28 53.57C703.97 63.58 709.53 74.13 701.91 85.79C687.27 108.17 668.65 125.73 641.66 132.27C626.84 135.86 621.4 139.8 614.79 151.68C615.36 152.08 616.09 152.94 616.49 152.81C642.08 144.55 646.62 147.71 646.01 174.05C645.71 186.87 652.39 196.32 660.99 204.3C676.55 218.73 692.92 232.28 708.63 246.55C715.73 253 722.46 259.95 728.63 267.29C746.44 288.46 753.56 312.31 747.03 339.97C742.9 357.48 738.15 374.77 732.55 391.78C742.48 396.95 749.31 394.42 757.09 386.68C762.97 380.82 772.65 378.89 780.44 374.83C805.68 361.67 808.47 343.63 788.46 323.17C784.55 319.17 780.07 315.73 776.22 311.68C774.05 309.39 772.16 306.35 774.04 302.97C775.75 299.91 778.63 299.13 782.19 299.12C798.31 299.03 808.04 291.4 812.94 275.45C821.16 284.09 815.94 303.22 803.94 308.45C792.56 313.41 791.31 320.85 800.62 328.17C827.14 349.05 822.79 395.18 792.63 411.71C788.76 413.83 786.63 416.82 785.32 420.71C779.14 439.04 788.8 458.61 807.08 464.58C817.86 468.1 821.74 476.8 822.68 486.71C823.91 499.71 818.63 510.5 807.31 517.16C788.43 528.27 767.79 534.45 746.01 536.71C737.31 537.61 728.68 538.61 719.93 543.26C726.1 547.38 732.32 545.32 738 546.31C744.71 547.47 753.08 548.24 754.58 555.63C755.88 562.03 747.91 563.69 743.05 565.91C733.62 570.2 732.3 576.9 736.15 585.57C738.94 591.86 746.04 595.72 745.52 604.13C745.33 607.23 749.97 606.38 752.65 606.42C759.86 606.54 767.17 605.84 774.25 606.82C784.85 608.3 795.75 609.3 796.77 624.62C797.23 631.62 804.61 636.41 809.62 641.55C823.32 655.6 837.65 669.1 848.6 685.57C864.94 710.15 863.55 723.32 842.23 743.16C825.46 758.76 813.69 777.56 805.19 798.64C802.03 806.48 800.81 815.49 787.6 812.65C781.75 811.39 775.38 816.87 777.91 825.47C779.15 829.68 780.47 833.93 782.4 837.84C785.99 845.11 790.89 847.15 797.33 840.61C800.35 837.55 803.36 833.2 808.43 835.61C812.84 837.71 813.43 842.64 813.92 846.99C816.39 868.88 808.6 888.8 801.4 908.73C799.12 915.04 794.42 914.97 788.8 911.47C776.65 903.91 769 904.49 759.26 914.85C748.45 926.34 740.79 938.44 743.86 956.51C748.7 984.98 738.28 1011.11 724.54 1035.5C719.57 1044.32 719.36 1051 724.31 1059.77C736.67 1081.67 720.31 1115.58 695.67 1120.19C686.18 1121.97 676.78 1123.85 668.36 1128.79C656.17 1135.95 652.99 1145.31 661.12 1156.8C668.81 1167.68 666.3 1172.5 654.62 1176.12C648.18 1178.12 642.25 1181.71 636.03 1184.45C627.88 1188.04 621.32 1186.96 617.67 1176.16C606.41 1192.53 599.33 1209.13 595.05 1227.17C587.08 1260.78 575.11 1292.34 547.28 1315.23C541.15 1320.27 534.79 1324.94 528.18 1327.94C526.02 1327.29 525.83 1326.65 526.83 1326.05C560.52 1305.61 579.48 1274.48 586.88 1237.06C595.88 1191.59 620.29 1155.11 649.46 1121.17C679.98 1085.65 698.43 1021.98 689.62 977.08C704.93 997.39 701.28 1026.39 675.46 1089.71C703.69 1067.65 736.5 1003.33 737.01 969.27C737.3 949.94 731.65 933.04 717.52 919.37C715.44 917.35 711.48 915.88 714.32 911.73C715.98 909.31 718.15 909.85 720.69 910.21C739.44 912.83 747.82 908.71 756.53 892.14C759.49 886.52 761.3 880.3 763.87 874.46C766.57 868.32 766.03 864.11 760.3 859.02C750.52 850.33 750.84 824.22 761.19 813.48C783.2 790.64 791.61 761.35 801.59 732.73C807.4 716.06 804.89 700.46 794.23 686.16C786.9 676.33 779.82 666.33 768.5 657.72C768.5 672.18 766.85 684.5 758.74 698.27C761.8 682.87 768.89 670.68 762.32 656.43C752.58 694.84 714.44 708.12 694.15 735.42C692.48 728.84 696.96 723.32 702.67 718.57C706.75 715.18 707.78 712.15 706.39 706.41C703.3 693.55 705.12 681.52 714.45 670.53C730.1 652.11 728.43 629.24 726.71 607.39C723.53 566.87 707.08 531 684.54 497.7C682.84 495.18 681.54 491.35 677.3 493.49C667.17 498.6 658.62 493.14 650.04 489.32C617.3 474.71 592.33 452.58 582.41 416.5C585.76 422.3 588.83 428.28 592.55 433.84C596.3 439.45 600.69 444.65 606.13 449.32C595.67 433.44 588.69 416.12 582.6 398.39C582.06 396.81 579.87 395.52 578.16 394.67C526.5 369.07 471.79 352.77 414.22 354.9C369.36 356.56 326.11 370.32 285.41 390.39C278.55 393.77 274.28 398.14 272.1 405.92C267.35 422.85 258.32 437.87 248.43 452.4C261.03 442.17 268.55 428.28 276.5 414.62C273.78 430.29 265.73 443.26 255.42 454.87C238.8 473.58 218.1 486.13 194.41 493.87C192.18 494.6 189.09 496.09 187.61 495.2C175.71 488.03 172.51 498.04 168.19 504.94C144.12 543.35 128.5 584.28 130.95 630.64C131.8 646.65 134.97 661.36 146.27 673.71C154.29 682.47 154.43 693.83 151.94 704.44C150.43 710.87 150.7 714.87 156.1 718.71C161.64 722.65 164.31 728.3 163.89 737.59C160.25 727.26 153.82 722.09 146.91 717.07C132.62 706.69 119.27 695.16 108.21 681.26C102.58 674.18 97.7103 666.63 96.3903 655.67C89.6203 666.02 94.8803 675.16 94.5903 684.93C88.4403 676.33 90.9603 667.2 89.5503 658.64C61.0303 675.29 47.8903 706.64 57.8603 736.45C67.1003 764.06 76.4803 791.61 97.3203 813.68C108.65 825.69 106.68 847.7 95.1603 860.72C93.4803 862.62 91.6703 864.16 92.3403 866.8C96.3303 882.47 100.99 897.91 115.43 907.52C121.68 911.68 128.72 912.71 136.11 909.9C138.55 908.97 141.37 907.69 143.62 910.93C146.04 914.4 143.43 915.92 141.43 917.81C120.72 937.25 117.75 961.44 123.51 987.52C132.39 1027.7 156.33 1059.34 182.36 1089.83L182.37 1089.84ZM167.49 274.55C162.45 275.9 160.82 280.23 158.87 284.05C144.99 311.17 137.7 340.19 136.76 370.46C135.48 411.7 147.24 448.54 176.9 478.56C181.06 482.77 184.73 485.87 191.38 483.15C220.37 471.29 241.91 451.53 256.26 423.75C259.18 418.1 258.89 414.54 252.04 411.91C223.16 400.79 204.5 378.94 191.14 352C180.37 330.3 174.65 307.1 171.68 283.14C171.28 279.92 172.47 275.61 167.49 274.56V274.55ZM721.06 372.83C720.89 369.65 720.84 363.63 720.21 357.66C717.49 331.55 710.71 306.6 698.24 283.37C696.27 279.69 694.72 274.06 689.22 275.43C684.9 276.51 687.08 281.61 686.38 284.9C683.96 296.23 682.46 307.82 679.31 318.93C667.53 360.55 647.27 395.77 604.82 413.17C596.89 416.42 600.1 421.1 602.44 425.62C615.83 451.42 635.88 469.97 662.41 482.09C670.79 485.92 675.86 484.89 682.07 478.34C709.46 449.45 721.45 414.96 721.04 372.82L721.06 372.83ZM738.19 490.61C751.41 490.23 764.87 478.21 765.36 465.89C765.51 462.05 765.11 453.19 759.57 456.41C749.55 462.25 739.41 459.37 729.5 461.13C724.3 462.05 717.41 460.57 715.45 467.55C713.67 473.92 717.39 479.09 721.55 483.52C726.14 488.41 732.11 490.38 738.18 490.6L738.19 490.61Z" fill="#E831B6"/>
<path d="M555.99 1244.21C549.87 1261.42 538.86 1266.87 522.41 1261.83C509.46 1257.87 498.69 1249.98 488.88 1241.2C473.06 1227.04 454.91 1220.68 433.96 1221.12C428.84 1221.23 428.84 1220.95 427.08 1213.95C431.65 1215.9 432.55 1222.88 438.44 1220.6C442.86 1218.89 445.77 1215.87 448.24 1212.2C454.38 1203.08 454.22 1189.21 448.05 1185.96C440.38 1181.92 433.63 1185.59 428.16 1197.88C426.64 1191.01 426.87 1183.42 417.9 1184.02C414.03 1184.28 409.2 1183.15 407.3 1187.74C402.16 1200.15 407.29 1210.21 417.8 1221.17C390.65 1220.08 374.47 1237.08 356.27 1250.3C348.79 1255.73 340.83 1260.39 331.63 1262.32C317.58 1265.27 307.27 1259.15 301.92 1243.79C306.28 1247.24 309.52 1250.41 313.32 1252.63C317.46 1255.05 322.12 1256.6 328.46 1253.89C319.32 1241.27 311.36 1228.28 308.57 1212.81C307.28 1205.66 305.01 1198.2 306.89 1191.44C311.2 1175.9 306.04 1160.67 307.11 1145.34C307.56 1138.85 305.04 1134.7 298.76 1132.56C292.26 1130.34 287.97 1133.24 284.37 1138.08C276.46 1148.72 276.21 1159.55 284.36 1171.16C296.66 1188.68 306.17 1207.25 308.28 1229.07C293.68 1180.89 254.37 1149.02 228.81 1108.09C215.16 1086.23 201.56 1064.62 197.15 1038.75C194.25 1021.74 195.63 1005.32 206.45 990.47C190.1 1032.75 211.38 1065.61 232.61 1099.72C234.94 1094.76 231.54 1092.48 230.49 1089.67C229.24 1086.31 227.47 1083.13 225.99 1079.85C217.53 1061.17 210.24 1042.08 209.54 1021.3C209.14 1009.28 208.97 996.81 223.55 991.56C224.58 991.19 226.36 990.08 226.28 989.86C223.29 981.68 219.5 973.81 219.17 964.77C219.03 960.99 214.86 960.61 211.96 959.39C164.95 939.65 140.5 904.65 140.22 853.3C140.2 849.42 140.7 845.84 136.57 842.73C116.26 827.5 109.65 809.72 118.23 786.74C121.42 778.2 118.69 775.64 113.34 771.24C98.1703 758.78 93.8103 747.98 96.3803 730.52C96.3603 749.5 106.98 761.73 121.63 771.59C124.88 773.78 128.26 776.56 130.11 779.88C132.38 783.98 142.47 792.8 126.09 790.04C124.03 789.69 123.36 791.02 122.54 792.43C114.38 806.57 125.27 832.45 142.64 838.26C140.76 822.49 140.16 807.08 147.94 792.71C140.7 817.45 147.35 842.23 149.21 866.58C152.77 913.23 181.28 941.8 225.26 955.17C232.96 957.51 238.3 961.05 242.99 967.71C259.39 991.03 280.86 1000.25 301.11 993.78C316.99 988.71 320.38 982.48 316.88 966.19C314.13 953.39 309.68 940.43 319.54 928.33C335.57 908.65 369.02 909.56 385.05 930.14C386.83 932.43 387.44 933.95 385.28 936.17C382.98 938.54 381.1 937.39 379.02 935.9C371.66 930.59 363.54 927.6 354.33 928.11C340.86 928.86 333.99 936.67 335.01 950.09C336.28 966.87 349.44 983.61 366.31 989.23C367.01 974.82 355.98 970.86 346.41 965.47C361.81 965.57 371.06 974.97 377.83 987.06C380.78 992.33 384.13 995.54 389.74 997.68C397.92 1000.8 405.15 1005.08 410.58 1012.94C416.94 1022.15 442.1 1020.42 449.03 1011.32C449.51 1010.69 449.77 1009.66 450.38 1009.38C469.56 1000.69 481.97 984.16 496.54 970.07C500.29 966.45 505.82 964.45 513.67 966.01C502.66 971.9 490.43 974.92 492.18 991.12C507.08 984.19 516.45 973.7 521.37 959.14C524.15 950.9 525.36 942.39 518.85 935.32C511.81 927.68 502.48 927.19 493.24 929.81C487.96 931.31 483.09 934.42 478.24 937.15C475.61 938.63 473.8 938.21 471.98 936.16C470.16 934.11 471.57 932.73 472.81 931.07C480.96 920.16 505.44 911.74 518.66 915.38C537.41 920.55 547.28 936.52 543.63 955.82C543.04 958.97 542.39 962.11 541.67 965.22C537.24 984.26 544.61 994.37 564.53 996.1C586.64 998.02 602.09 986.41 613.94 969.72C619.42 962.01 625.67 957.96 634.53 955.29C685.49 939.94 712.26 900.26 709 846.42C708.74 842.18 710.32 837.83 711 833.52C713.81 815.89 713.54 810.29 709.14 793.33C713.547 799.51 715.82 814.417 715.96 838.05C732.33 834.59 744.18 806.4 735.15 792.61C734.14 791.06 733.41 790.47 731.5 790.78C717.81 793 724.58 785.67 727.4 781.19C729.47 777.91 732.56 775.06 735.71 772.7C754.57 758.56 758.04 753.49 762.84 730.85C765.05 750.39 756.01 762.88 742.99 773.35C738.95 776.6 736.44 778.21 739.14 785.18C748.47 809.27 742.41 827.56 721.32 843.58C717.49 846.49 718.03 849.52 718 852.92C717.58 904.56 693.73 940.4 645.83 959.96C641.4 961.77 638.27 963.65 638.3 969.2C638.32 972.7 637.48 976.54 635.87 979.64C632.29 986.55 630.16 991.56 640.18 995.59C647.47 998.52 648.06 1006.95 648.42 1014.31C649.73 1040.9 639.23 1064.33 628.76 1087.77C627.31 1091.01 625.87 1094.26 624.5 1097.53C624.41 1097.74 624.88 1098.19 625.87 1099.78C645.91 1067.47 665.91 1036.17 652.64 994.67C662.91 1008.14 664.86 1026.81 658.9 1048.97C654.18 1066.53 646.4 1082.79 636.21 1097.74C624.04 1115.61 611.6 1133.32 598.51 1150.52C578.52 1176.77 555.91 1201.34 548.8 1235.27C550.93 1211.36 559.51 1190.09 574.09 1171.55C582.5 1160.86 580.17 1150.77 574.69 1140.39C571.34 1134.05 565.92 1130.91 558.67 1133.42C551.95 1135.75 551.61 1141.25 550.59 1147.71C547.38 1167.95 553.22 1188.06 550.33 1208.18C549.07 1216.97 546.86 1225.49 542.73 1233.3C538.88 1240.59 534.26 1247.48 529.78 1254.88C541.74 1258.16 548.84 1251.24 556 1244.16L555.99 1244.21ZM443.05 1026.97C438.19 1026.97 433.43 1027.17 428.69 1026.92C423.57 1026.64 418.48 1025.94 412.63 1025.35C414.28 1029.99 415.69 1033.92 417.09 1037.85C410.11 1030.61 406.08 1021.2 396.55 1016.76C386.44 1012.06 378.25 1019.7 368.46 1022.03C373.35 1012.29 382.71 1011.21 390.68 1007.16C384.24 1003.37 377.96 1002.27 371.71 1000.87C338.04 993.35 319.04 958.12 332.22 927.88C321.48 936.4 319.77 940.56 322.18 953.42C323.36 959.71 324.44 966.06 326.36 972.14C328.89 980.19 326 986.26 320.47 991.54C312.98 998.7 303.95 1002.62 293.6 1003.49C271.51 1005.34 255.38 994.66 241.34 979.11C237.21 974.53 234.97 968.11 227.47 964.24C227.91 977.07 231.89 988.48 241.23 993.14C265.54 1005.28 284.71 1024.14 306.79 1039.06C313.33 1043.48 321.42 1045.2 329.3 1046.99C344.02 1050.33 358.85 1049.89 373.53 1048.29C390.02 1046.5 405.45 1047.88 419.67 1056.98C426.37 1061.27 432.93 1061.44 439.72 1056.92C451.23 1049.26 464.1 1047.54 477.62 1048.7C485.2 1049.35 492.81 1049.6 500.41 1049.86C526.09 1050.73 550.51 1045.81 569.07 1027.18C579.65 1016.56 590.19 1008.08 604.38 1002.52C621.65 995.76 630.11 980.88 628.86 964.58C623.97 970.56 619.96 975.86 615.55 980.81C600.9 997.28 583.4 1007.06 560.48 1003.57C537.36 1000.05 528.06 986.54 533.38 964.31C534.4 960.04 535.3 955.73 536.16 951.43C537.98 942.29 535.19 935.04 525.24 928.49C529.47 937.04 531.82 943.91 530.99 951.65C528.53 974.48 509.94 995.49 486.71 1001.45C480 1003.17 472.43 1003.04 466.34 1009.48C476.05 1010.74 483.46 1014.2 488.25 1023.65C467.07 1008.39 452.91 1016.59 442.83 1037.38C440.05 1032.46 445.06 1030.05 443.03 1026.97H443.05ZM495.4 1201.97C504.36 1195.87 508.79 1187.1 512.52 1177.86C513.67 1175 514 1172.45 509.7 1171.78C491.82 1168.97 481.6 1156.13 471.9 1142.63C465.32 1133.46 457.76 1125.27 448.23 1119.04C435.15 1110.49 422.19 1110.27 408.98 1118.96C398.73 1125.71 391.12 1134.88 384.04 1144.64C375.2 1156.83 365.32 1167.8 349.67 1170.97C345.51 1171.81 344.01 1173.54 345.59 1177.43C349.08 1186.02 352.82 1194.47 362.81 1200.58C358.8 1186.25 367.79 1181.69 376.91 1180.13C391.17 1177.68 405.8 1176.82 420.3 1176.54C436.56 1176.22 452.69 1179.72 469.07 1178.95C487.13 1178.1 497.11 1186.91 495.4 1201.98V1201.97ZM544.52 1195.4C544.19 1186.41 540.88 1174.63 535.78 1163.19C533.35 1157.74 529.44 1154.49 523.89 1154.93C516.56 1155.51 519.23 1162.14 518.61 1166.32C515.68 1185.99 512.61 1204.71 490.59 1213.94C478.28 1219.1 478.8 1227.39 489.79 1234.83C491.11 1235.73 492.43 1236.63 493.75 1237.52C518.05 1254.04 527.9 1251.06 539.47 1223.43C542.73 1215.65 544.67 1207.5 544.52 1195.4ZM333.15 1154.25C328.98 1154.68 325.8 1156.31 323.36 1160.09C308.67 1182.9 310.73 1217.08 328.26 1237.5C339.91 1251.07 341.54 1251.34 356.89 1241.68C361.95 1238.49 366.63 1234.61 371.92 1231.88C379.15 1228.16 378.29 1224.27 373.61 1219.14C370.93 1216.2 368.76 1213.05 364.64 1211.65C353.42 1207.83 347.89 1198.84 344.09 1188.3C340.94 1179.57 339.96 1170.46 338.8 1161.36C338.34 1157.78 338.62 1153.77 333.15 1154.24V1154.25ZM271.35 1020.71C270.27 1030.08 268.99 1036.7 268.83 1043.35C268.27 1065.99 277.96 1083.46 296.73 1095.87C299.42 1097.65 302.62 1100.87 306.27 1097.65C309.65 1094.66 309.49 1051.61 306.31 1048.32C305.77 1047.76 305.06 1047.32 304.35 1046.99C292.18 1041.38 282.55 1032.43 271.36 1020.71H271.35ZM585.47 1022.98C580.59 1027.62 577.23 1033.14 572.45 1034.97C546.28 1044.97 547.89 1066.23 549.81 1087.88C549.85 1088.28 549.77 1088.69 549.85 1089.08C550.5 1092.42 548.34 1096.89 552.31 1098.84C556.5 1100.91 559.86 1097.61 563.08 1095.34C586.13 1079.09 594.29 1053.65 585.47 1022.99V1022.98ZM269 1144.56C275.09 1138 274.88 1138.15 268.36 1129.52C248.87 1103.69 233.26 1076.72 244.2 1042.38C245.86 1037.16 243.46 1032.34 239.18 1030.24C230.09 1025.79 228.14 1017.26 225.15 1009.15C224.07 1006.23 226.53 1001.14 220.41 1001.47C214.54 1001.79 213.45 1006.04 213.46 1010.77C213.46 1020.44 215.43 1029.83 218.34 1038.97C230.3 1076.47 250.03 1110.23 268.99 1144.56H269ZM617.46 1061.07C617.08 1089.02 605.55 1109.3 591.07 1128.37C588.9 1131.23 586.43 1133.89 584.4 1136.84C582.23 1139.99 584.71 1142.3 586.73 1143.95C589.11 1145.9 590.04 1143.3 590.95 1141.64C611.12 1104.89 632.69 1068.76 642.76 1027.46C644.16 1021.73 643.84 1015.55 644 1009.58C644.1 1005.65 642.68 1002.68 637.96 1002.37C632.95 1002.03 633.71 1005.74 632.86 1008.69C631.65 1012.88 631.14 1018.68 628.2 1020.74C611.72 1032.29 612.26 1047.49 617.46 1061.06V1061.07ZM478.82 1056.45C470.56 1054.75 463.28 1057.18 465.41 1068.41C466.94 1076.51 457.63 1090.33 475.32 1091.4C494.95 1092.6 499.46 1088.95 500.16 1072.31C500.73 1058.84 498.67 1057.21 478.82 1056.45ZM378.18 1056.05C359.83 1056.73 357.16 1058.94 357.52 1071.79C357.98 1088.13 362.43 1091.41 382.75 1090.44C399.58 1089.63 391.7 1076.69 392.89 1068.79C394.83 1055.85 386.49 1054.4 378.18 1056.05ZM400.03 1206.3C400.17 1189.72 397.17 1185.42 384.31 1185.75C376.87 1185.94 367.05 1183.93 366.67 1196.17C366.39 1205.02 379.02 1223.12 385.05 1223.33C394.99 1223.69 399.94 1218.07 400.04 1206.3H400.03ZM458.21 1205.54C456.91 1215.36 459.71 1221.93 470.53 1223.57C481.26 1225.19 482.45 1215.8 486.17 1210.09C489.67 1204.71 494.87 1198.13 490.18 1191.43C485.53 1184.79 477.44 1185.87 470.27 1186.26C457.12 1186.96 459.25 1197.36 458.21 1205.55V1205.54ZM352.61 1071.12C354.86 1060.79 349.8 1055.12 337.02 1056.22C334.3 1056.45 331.48 1055.59 328.71 1055.22C322.58 1054.41 318.56 1057.24 316.89 1062.9C315.17 1068.73 313.97 1074.63 320.52 1078.9C326.02 1082.48 332.06 1084.19 338.39 1085.23C352.11 1087.48 352.92 1086.81 352.59 1071.12H352.61ZM505.21 1074.1C506.5 1078.21 501.82 1086.15 511.58 1087.13C524.28 1088.41 542.36 1079.43 542.27 1071.58C542.18 1063.83 540.89 1056.14 530.13 1055.9C509.73 1055.44 505.95 1057.93 505.21 1074.09V1074.1ZM459.46 1081.16C456.99 1074.49 460.45 1064.2 452.08 1060.67C444.84 1057.61 428.86 1072.75 428.18 1080.69C427.24 1091.53 434.46 1093.82 442.29 1093.78C450.12 1093.74 458.79 1092.82 459.46 1081.17V1081.16ZM427.95 1081.56C427.85 1071.07 415.37 1057.55 406.44 1060.05C397.53 1062.55 399.2 1073.73 398.81 1081.18C398.22 1092.34 407.74 1092.33 415.76 1092.93C424.93 1093.61 429.14 1089.48 427.96 1081.56H427.95ZM601.08 1038.67C611.33 1034.1 613.44 1029.71 611.85 1016.76C611.54 1014.28 612.53 1010.1 608.31 1010.74C604.8 1011.28 599.9 1011.81 600.08 1017.43C600.31 1024.44 600.73 1031.45 601.08 1038.67ZM256.73 1038.52C257.63 1031.29 255.97 1024.16 257.9 1017.26C259.32 1012.19 254.55 1011.84 251.59 1010.42C249.94 1009.62 248.18 1008.9 246.7 1011.41C242.55 1018.46 247.74 1033.62 256.72 1038.52H256.73ZM625.33 997.42C621.76 1003.16 612.87 1002.64 615.88 1011.19C616.65 1013.38 618.07 1017.57 621.34 1015.65C627.68 1011.92 627.67 1005.81 625.34 997.42H625.33ZM233.24 995.66C229.79 1004.91 230.54 1010.41 235.77 1014.49C239.15 1017.13 240.68 1013.44 241.81 1011.25C246.32 1002.48 236.13 1003 233.24 995.66Z" fill="#E831B6"/>
<path d="M219.38 816.1C236.52 827.99 254.66 837.96 273.94 846.09C288.11 852.07 302.59 853.67 317.39 851.6C339.34 848.53 353.27 835.39 360.2 814.58C365.86 797.57 363.14 782.48 350.53 769.19C344.9 763.26 339.73 761.94 331.54 764.57C305.11 773.06 278.21 779.07 250.36 770.77C247.78 770 245.27 769.67 242.7 768.19C229.32 760.49 227.75 761.17 220.65 775.15C214.58 787.09 215.97 799.11 220.14 811.19C208.41 797.22 210.25 781.8 218.12 767.7C223.06 758.86 224.81 752.52 217.22 745.18C215.92 743.92 214.46 742.13 216.42 739.04C237.34 770.75 267.89 771.55 300.42 765.41C325.91 760.59 349.91 752.07 370.15 735.18C382.1 725.21 390.95 713.09 394.36 697.48C395.32 693.07 396.67 688.01 394.44 684.54C388.86 675.85 390.68 667.72 393.05 658.65C400.56 629.86 394.74 604.22 374.42 581.72C365.57 571.92 355.21 562.94 351.1 549.41C362.19 561.72 373.27 574.04 384.38 586.33C404.75 608.85 405.77 635.29 399.96 663.1C399.16 666.94 397.03 670.51 399.06 674.7C406.99 691.02 402.05 706.06 393.6 720.29C375.47 750.8 387.05 774.44 423.05 777.49C411.17 784.35 400.63 782.54 391.06 775.52C378.9 766.61 377.2 753.86 380.21 739.91C359.4 748.58 355.37 769.73 372.02 784.59C379.14 790.95 387.64 795.75 395.28 801.56C400.58 805.59 405.29 810.28 406.96 817.33C399.39 808.6 390.59 801.88 379.15 796.82C379.2 813.08 375.16 827.06 365.95 839.18C362.86 843.25 365.52 844.49 368.21 846.48C372.68 849.77 376.93 853.35 383.95 858.95C375.64 857.93 373.04 853.74 369.47 851.47C361.55 846.43 353.45 844.14 344.6 848.7C338.68 851.75 334.49 856.68 331.72 862.56C327.45 871.64 338.13 870.73 340.77 875.33C342.3 878 344.85 880.09 346.47 883.22C331.6 870.24 312.92 866.81 295.04 861.28C266.23 852.37 238.29 841.25 214.26 822.56C192.93 805.96 176.58 786.38 182.67 756.22C183.07 783.55 197.2 802.32 219.4 816.1H219.38ZM368.01 790.19C368.84 809.72 361.67 826.06 349.07 841.69C365.35 842.52 367.38 830.1 371.05 821.07C375.19 810.91 378.53 799.6 368.01 790.19Z" fill="#E831B6"/>
<path d="M640.84 807.57C641.5 793.54 642.48 779.44 632.17 767.82C629.6 764.92 627.71 761.31 622.47 764.53C594.94 781.42 566.12 775.28 537.34 768.78C536.57 768.61 535.83 768.17 535.06 768.09C526.34 767.12 518.05 758.03 508.77 768.33C498.82 779.36 492.62 791.27 495.4 806.27C502.22 843.08 534.18 861.86 572.81 850.57C595.81 843.85 616.95 832.55 636.01 817.73C656.68 808.67 668.55 791.06 676.21 757.43C680.39 781.79 669.97 799.54 653.81 814.67C630.51 836.49 601.9 848.85 572.17 858.94C562.34 862.28 552.33 865.12 542.37 868.07C531.34 871.33 521.16 876.18 511.5 885.42C513.28 877.89 517.79 874.97 522.07 872.61C529.12 868.72 527.98 864.76 524.09 859.31C514.28 845.56 501.94 843.1 487.88 852.65C484.92 854.66 482.16 856.94 479.45 858.98C477.58 858.07 477.92 856.64 478.85 856.17C494.84 848.11 492.57 837.63 484.05 825.05C478.89 817.43 479.48 807.7 479.18 798.45C467.15 802.73 466.11 803.47 449.45 819.92C453.22 810.08 458.42 805.43 463.98 801.25C469.73 796.93 475.96 793.24 481.67 788.87C502.57 772.86 501.19 753.3 477.7 739.5C480.53 755.4 479.06 769.75 463.65 778.32C453.64 783.89 443.35 784.72 432.78 776.76C461.72 778.15 475.14 764.41 472.46 737.61C471.95 732.47 469.39 728.71 466.76 724.68C456.72 709.31 450.86 693.2 459.18 675.02C460.49 672.15 459.62 669.7 458.88 666.95C449 630.35 457.64 599 485.64 573.15C491.5 567.74 497.07 562.01 502.88 556.33C505.17 560.2 501.36 561.89 499.71 563.99C495.5 569.33 491.12 574.58 486.36 579.43C461.65 604.62 456.75 634.14 466.76 667.06C467.67 670.05 469.57 673.06 467.67 676.27C456.87 694.48 465.78 709.49 476.12 723.61C487.05 738.53 502.65 747.76 519.45 754.84C538.77 762.99 558.96 768.14 579.89 769.15C610.92 770.65 634.42 758.73 647.41 726.35C647.41 730.1 647.86 731.53 647.34 732.28C636.63 747.66 633.6 762.66 644.21 780.25C648.93 788.07 646.71 799.02 640.88 807.61L640.84 807.57ZM491.85 788.98C480.76 798.06 480.59 810.24 489.34 828.02C495.7 840.95 498.03 842.6 507.7 840.36C495.4 825.98 489.29 809.68 491.85 788.97V788.98Z" fill="#E831B6"/>
<path d="M300.601 1273.57C316.721 1288.03 334.521 1290.53 354.241 1282.61C358.791 1280.78 361.971 1279.01 359.981 1273.16C358.631 1269.19 360.431 1265.24 362.131 1261.62C369.591 1245.71 398.711 1231.65 419.281 1235.7C400.801 1236.17 387.821 1243.78 376.051 1253.56C368.781 1259.61 362.661 1266.78 367.871 1277.35C369.181 1280.02 368.831 1281.83 366.371 1283.36C349.501 1293.83 315.721 1299.28 300.601 1273.57Z" fill="#E831B6"/>
<path d="M558.15 1274C546.14 1294.08 508.43 1299.71 491.64 1284.03C489.58 1282.1 488.9 1280.49 490.21 1277.88C495.26 1267.83 489.58 1260.9 482.7 1254.96C471.06 1244.91 457.92 1237.6 441.09 1235.87C467.09 1230.49 496.06 1251.94 497.16 1276.57C497.36 1281.07 500.09 1281.67 502.97 1282.83C520.49 1289.87 537.24 1290.06 552.55 1277.28C554.08 1276 555.68 1274.81 557.29 1273.63C557.41 1273.54 557.84 1273.87 558.13 1274.01L558.15 1274Z" fill="#E831B6"/>
<path d="M412.86 1290.84C396.5 1289.48 385.62 1298.54 375.17 1309.02C367.2 1317.02 359 1325.1 346.48 1325.02C359.33 1319.28 367.37 1307.93 377.35 1298.91C387.72 1289.55 399.14 1284.86 412.87 1290.84H412.86Z" fill="#E831B6"/>
<path d="M445.891 1290.17C477.801 1282.29 487.651 1313.73 509.971 1324.37C500.291 1324.6 497.331 1323.09 485.451 1312.49C472.791 1301.2 459.607 1293.76 445.901 1290.17H445.891Z" fill="#E831B6"/>
<path d="M799.041 252.01C794.731 262.29 800.771 267.07 810.411 271.84C802.061 272.16 797.061 270.73 794.101 265.39C790.951 259.71 794.941 256.12 799.031 252.01H799.041Z" fill="#E831B6"/>
<path d="M561.52 823.1C552.46 822.98 545.05 815.33 545.11 806.16C545.17 797.16 553.04 789.35 561.91 789.48C570.81 789.61 578.37 797.51 578.27 806.57C578.16 815.76 570.61 823.22 561.53 823.09L561.52 823.1Z" fill="#E831B6"/>
<path d="M312.811 805.43C312.981 814.5 305.1 822.72 296.27 822.71C287.21 822.69 279.661 814.89 279.981 805.47C280.321 795.51 285.77 789.89 295.62 789.14C304.82 788.44 312.63 796.13 312.8 805.43H312.811Z" fill="#E831B6"/>
</g>
<defs>
<clipPath id="clip0_14_559">
<rect width="859.67" height="1334.22" fill="white"/>
</clipPath>
</defs>
</svg>
