<svg width="573" height="878" viewBox="0 0 573 878" fill="none" xmlns="http://www.w3.org/2000/svg">
<g clip-path="url(#clip0_14_556)">
<path d="M135.43 360.8C125.13 368.56 115.44 375.85 107.32 381.97C111.42 387.1 115.84 391.49 118.91 396.68C129.49 414.59 118.47 434.71 99.5003 443.47C82.5803 451.29 64.7503 447.21 51.6503 433.13C41.7603 422.5 39.5303 404.21 46.8203 389.42C57.8903 366.97 74.9803 349.75 94.7703 334.88C102.65 328.96 110.21 322.61 117.82 316.53C101.25 278.26 84.8503 240.52 68.5603 202.73C59.2903 181.23 50.3803 159.56 40.8703 138.17C39.3103 134.66 36.0003 131.12 32.5903 129.37C17.2503 121.47 8.14031 102.22 14.4103 85.86C18.0503 76.36 16.1303 70.71 9.3203 63.75C-3.36969 50.77 -2.8097 29.6 9.2003 14.91C20.8303 0.699978 42.9003 -4.53002 57.5003 4.40998C71.3403 12.89 74.8803 26.75 74.4303 41.24C83.1803 45.75 91.9803 49.39 99.7903 54.53C108.98 60.57 112.14 73.05 109.81 83.62C108.83 88.06 108.98 93.59 110.78 97.67C129.49 140.23 148.63 182.6 167.69 225C172.67 236.08 177.82 247.08 183.51 259.48C191.41 252.72 198.69 246.49 206.34 239.95C187.65 229.05 183.6 220.31 188.27 202.99C192.17 188.53 210.81 176.84 227.52 176.38C265.22 175.35 273.37 212.28 261.24 234.72C249.36 256.69 233.66 275.67 215.83 293.01C213.02 295.75 210.4 298.68 207.88 301.33C215.76 320.47 223.37 338.96 230.93 357.32C245.75 341.52 259.74 325.85 274.54 310.99C293.42 292.05 315.38 277.6 341.35 270.18C375.54 260.42 412.56 272.24 431.77 299.21C455.88 333.07 455.93 363.14 433.97 400.74C433.33 401.83 432.7 402.91 430.95 405.88C437.19 404.89 441.85 404.39 446.4 403.38C468.39 398.48 490.05 398.83 511.95 404.93C544.16 413.9 561.55 436.17 568.92 467.08C579.33 510.72 567.03 546.96 532.08 575.74C496.08 605.39 455.26 624.03 409.47 632.11C390.08 635.53 370.66 638.85 349.68 642.49C356.46 658.66 362.87 674.38 369.6 689.96C389.05 734.95 404.59 781.1 410.94 829.92C412.72 843.64 413.75 857.46 414.81 871.25C414.96 873.21 413.82 876.42 412.38 877.07C410.4 877.97 406.82 877.9 405.22 876.63C399.82 872.33 394.56 867.69 390.03 862.49C361.58 829.81 335.48 795.27 315.45 756.81C302.53 732 291.95 705.9 281.32 679.97C270.39 653.31 266.58 650.79 238.94 658.01C211.15 665.27 183.13 671.79 155.69 680.2C128.83 688.43 102.79 699.18 80.8903 717.52C75.9703 721.63 73.1403 728.16 68.4603 732.65C65.4403 735.55 60.7903 736.75 56.8803 738.72C56.0503 734.61 53.5003 729.9 54.6803 726.48C62.7803 702.81 71.2503 679.26 80.3703 655.96C96.3803 615.08 111.99 574.01 129.61 533.82C140.84 508.21 155.16 483.93 168.57 459.32C173 451.19 174.12 444.58 169.6 435.52C157.56 411.38 147.06 386.47 135.44 360.76L135.43 360.8ZM74.9403 702.72C98.6903 689.16 122.23 678.41 147.35 669.78C189.7 655.24 233.14 645.86 276.96 638.21C313.98 631.74 351.36 627.21 388.69 622.75C433.92 617.34 475.02 601.47 512.12 575.47C546.81 551.16 565.02 518.87 556.95 475.26C552.75 452.58 542.57 433.82 521.05 422.78C498.37 411.15 474.45 412.81 450.38 415.7C431.67 417.95 416.23 426.98 401.69 438.45C399.04 440.54 393.6 439.07 389.44 439.25C390.74 435.43 391.13 430.86 393.54 427.96C399.22 421.13 406.35 415.5 412.01 408.66C426.45 391.2 436.54 371.42 436.35 348.36C436.12 320.08 419.57 301.11 396.53 287.64C373.67 274.28 350.31 279.78 328.06 289.75C290.95 306.38 265.93 336.85 241.9 368.06C240.1 370.39 240.26 375.6 241.49 378.68C254.69 411.71 268.26 444.6 281.8 477.5C284.99 485.26 288.41 492.93 291.82 500.87C305.43 494.65 317.71 489.03 329.99 483.41C324.7 496.83 317.97 508.44 306.06 515.73C294.05 523.09 281.92 530.28 269.5 536.92C246.84 549.03 223.85 560.52 201.19 572.61C195.43 575.69 190.36 580.07 184.98 583.86C188.48 563.89 199.21 549.56 214.89 538.37C212.93 533.55 210.92 529.4 209.52 525.06C201.87 501.37 182.61 503.15 167.52 514.59C149.2 528.49 137.68 546.39 129.52 567.46C117.62 598.2 104.7 628.54 92.2903 659.09C86.4003 673.59 80.7103 688.17 74.9303 702.72H74.9403ZM254.18 216.05C252.99 202.11 249.91 191.74 233.02 189.54C219.53 187.79 203.08 196.41 200.51 208.26C199.54 212.73 200.64 219.72 203.63 222.38C206.35 224.8 212.91 223.01 217.77 222.91C220.16 222.86 223.49 221.32 224.72 222.39C226.62 224.04 228.35 227.63 227.85 229.88C227.05 233.49 225.05 237.43 222.35 239.92C202.98 257.78 183.58 275.62 163.66 292.86C141.99 311.62 119.14 329.06 97.9603 348.34C84.4503 360.64 71.9303 374.42 60.9903 389.04C48.4503 405.8 54.3503 423.29 73.4003 432.03C88.0703 438.76 106.11 430.66 108.86 414.82C109.74 409.78 106.47 402.88 102.98 398.52C99.2103 393.81 93.7403 395.43 89.1203 399.77C87.4103 401.37 83.8903 401.04 81.2003 401.59C80.8603 398.51 79.7303 395.24 80.4303 392.42C81.0903 389.75 83.3303 387.18 85.4703 385.24C93.7903 377.71 102.1 370.14 110.85 363.13C154.02 328.5 199.93 296.93 234.77 252.98C243.74 241.66 252.93 230.14 254.17 216.05H254.18ZM267.97 480.94C255.03 449.24 242.9 417.98 229.44 387.3C223.75 374.34 215.26 362.61 208.44 350.99C203.36 353.02 199.87 353.35 198.35 355.26C195.91 358.32 192.4 363.44 193.46 365.94C208.63 401.61 224.28 437.08 240.3 472.37C245.57 483.97 253.66 486.33 267.97 480.93V480.94ZM229.51 489.09C227.93 483.91 226.81 478.52 224.69 473.55C214.47 449.63 204.29 425.67 193.4 402.05C189.5 393.59 183.79 385.93 178.6 378.11C175.27 373.1 169.63 370.83 165.24 374.82C162.61 377.21 161.34 384 162.76 387.45C172.25 410.46 182.48 433.17 192.81 455.82C197.45 465.99 202.76 475.87 208.1 485.7C209.2 487.72 211.73 490.14 213.73 490.26C218.65 490.56 223.64 489.62 229.51 489.1V489.09ZM297.5 684.75C304.08 700.17 309.39 715.82 317.16 730.12C329.7 753.22 343.75 775.52 357.52 797.93C358.89 800.17 362.78 800.86 365.49 802.27C365.44 799.32 366.26 795.99 365.19 793.47C351.37 761 337.66 728.48 323.09 696.35C316.62 682.09 315.76 682.47 297.49 684.74L297.5 684.75ZM344.57 669.31C337.78 674.5 327.84 674.72 333.4 686.64C344.26 709.91 353.52 733.93 364 757.39C369.83 770.44 376.79 782.99 383.24 795.78C392.14 791.67 388.68 785.26 387.22 780.69C379.02 754.97 370.65 729.29 361.33 703.96C356.96 692.09 350.33 681.06 344.56 669.31H344.57ZM37.4803 117.32C47.1503 88.97 63.9803 74.87 96.6403 79.17C98.5803 68.83 94.8203 62.05 83.7503 58.42C55.5003 49.16 32.6703 67.03 26.2003 93.08C24.0003 101.96 27.8103 111.15 37.4803 117.31V117.32Z" fill="#99E120"/>
</g>
<defs>
<clipPath id="clip0_14_556">
<rect width="572.49" height="877.71" fill="white"/>
</clipPath>
</defs>
</svg>
