<svg width="527" height="1500" viewBox="0 0 527 1500" fill="none" xmlns="http://www.w3.org/2000/svg">
<g clip-path="url(#clip0_14_586)">
<path d="M446.49 1477.18C435.08 1496.53 418.44 1498.05 400.21 1489.32C394.41 1486.54 389.02 1480.57 383.36 1480.47C377.82 1480.37 372.29 1486.1 366.57 1488.91C354.64 1494.76 342.37 1496.34 329.86 1490.7C326.15 1489.03 323.45 1489.77 321.39 1493.22C317.55 1499.66 311.4 1501.27 305.18 1498.69C288.52 1491.78 271.17 1489.2 253.37 1487.85C248.33 1487.47 243.26 1484.6 238.67 1482.04C234.92 1479.96 232.45 1480.35 229.12 1482.82C222.54 1487.69 215.78 1492.45 208.62 1496.39C202.56 1499.72 195.78 1499.71 189.24 1496.89C188.23 1496.45 187.17 1495.75 186.15 1495.76C170.72 1495.98 163.55 1486.55 159.61 1473.26C159.49 1472.86 159.21 1472.5 159.79 1473.56C151.49 1472.38 144.23 1471.18 136.92 1470.44C135.44 1470.29 133.3 1471.46 132.3 1472.7C123.27 1483.94 113.73 1486.95 99.9302 1482.28C90.2902 1479.01 81.7802 1473.87 75.1602 1465.94C72.8802 1463.21 70.5502 1460.51 68.3102 1457.73C58.4302 1445.45 58.7302 1445.66 68.4802 1432.88C78.3202 1419.98 88.1802 1407 96.8402 1393.31C108.44 1374.98 110.25 1353.97 110.37 1332.86C110.38 1330.29 108.66 1327.4 107.04 1325.17C96.8402 1311.12 85.9602 1297.55 76.2502 1283.17C68.4302 1271.59 60.3202 1259.73 55.3702 1246.84C50.6902 1234.64 48.9402 1221.03 47.7102 1207.86C45.7902 1187.26 45.2702 1166.52 44.4602 1145.82C44.2902 1141.42 42.8102 1138.6 39.4902 1135.68C33.5102 1130.41 27.8802 1124.63 22.7502 1118.52C15.5702 1109.95 13.1502 1099.6 13.4702 1088.57C14.6502 1048.06 14.7402 1007.47 17.3402 967.05C20.6002 916.37 18.5802 865.98 13.1702 815.66C8.53021 772.46 4.11021 729.3 5.84021 685.73C6.13021 678.52 5.15021 671.02 3.34021 664.02C-3.84979 636.33 1.21021 609.91 11.9402 584.48C21.0102 562.98 32.7302 542.59 41.6702 521.05C54.1902 490.87 66.6202 460.52 76.5302 429.42C87.4102 395.25 105.61 366.95 134.39 345.93C149.63 334.8 156.62 319.75 161.81 302.39C166.2 287.69 167.51 275.03 153.56 265.01C115.36 213.39 106.42 157.22 131.86 98.08C156.09 41.75 200.46 9.03997 261.35 1.30997C331.28 -7.57003 398.62 29.39 427.23 90.37C456.55 152.85 445.22 224.92 397.97 275.27C391.74 281.91 384.57 287.67 378.25 294.24C376.41 296.15 374.74 299.66 375.16 302.04C376.91 311.88 379.32 321.61 381.88 331.28C382.59 333.96 384.13 336.85 386.15 338.7C395.22 347.02 402.47 356.95 413.88 363.22C428.76 371.4 439.1 384.44 445.27 400.88C466.59 457.67 484.03 515.98 512.93 569.81C527.55 597.05 529.52 626.11 521.16 656.06C518.81 664.48 518.01 673.56 517.92 682.35C517.32 739.57 516.57 796.8 517 854.02C517.21 882.48 519.67 910.93 521.34 939.36C522.73 963.14 523.93 986.96 526.15 1010.67C528.28 1033.44 519.54 1051.22 502.71 1065.29C496.18 1070.75 494.28 1076.37 494.51 1084.65C495.59 1123.38 496.18 1162.13 496.49 1200.88C496.67 1223.54 489.7 1244.09 476.73 1262.81C463.43 1282.02 450.72 1301.64 437.94 1321.2C436.58 1323.28 435.56 1326.21 435.8 1328.6C437.63 1347.2 439.9 1365.76 441.84 1384.36C442.79 1393.42 448.67 1399.01 455.01 1404.44C463.96 1412.11 473.16 1419.52 481.74 1427.6C493.98 1439.12 499.78 1454.38 504.66 1469.99C506.35 1475.4 503.81 1478.42 498.49 1478.36C481.42 1478.16 464.36 1477.61 446.52 1477.18H446.49ZM364.86 163.59C362.14 172.88 362.65 181.68 368.07 189.75L369.84 189.46C368.16 180.86 366.48 172.25 364.8 163.65C364.1 160.17 363.36 156.69 362.71 153.2C359.78 137.62 354.66 123.04 343.1 111.6C339.94 108.47 336.03 106.09 332.46 103.37C331.71 105.47 331.99 106.48 332.4 107.45C337.32 119.31 343.13 130.85 342.88 144.3C342.84 146.78 345.47 149.93 347.71 151.69C353.18 155.97 359.15 159.62 364.86 163.58V163.59ZM220.61 114.6C220.21 114.99 219.82 115.37 219.42 115.76C217.51 117.2 214.92 118.24 213.79 120.14C208.5 129.06 201.61 137.69 199.01 147.42C193.57 167.75 190.27 188.66 186.52 209.41C185.02 217.71 184.64 226.2 183.75 234.61C187.53 230.21 189.6 225.32 192.31 220.81C198.95 209.76 206.02 198.97 212.65 187.91C216.63 181.28 218.06 174.37 213.35 167.2C212.4 165.75 212.11 163.37 212.48 161.62C216.71 141.49 224.64 123.05 238.18 107.32C240.02 105.18 242.28 103.4 244.34 101.46C233.15 117.64 225.86 135.01 221.49 154.23C226.6 151.68 230.97 149.02 235.66 147.26C243.04 144.51 249.81 143.96 251.12 132.33C252.4 120.98 260.12 110.34 265.19 99.47C266.07 97.58 267.82 96.1 269.16 94.43C269.37 94.68 269.59 94.93 269.8 95.18C266.1 105.88 262.39 116.58 258.98 126.43C284.74 128.74 310.01 121.24 334.57 130.53C332.18 120.29 332.18 120.38 322.42 119.99C318.29 119.82 314.17 119.2 310.05 118.78L310.07 117.2H329.62C330.03 96.68 314.93 94.25 299.05 92.74C299.41 92.06 299.77 91.37 300.13 90.69C305.78 90.98 311.44 91.26 318.37 91.61C316.52 90.42 315.87 89.81 315.09 89.53C313.43 88.91 311.73 88.34 310 87.96C287.51 83.06 265.74 85.9 244.7 94.66C234.76 98.8 225.66 104.37 220.58 114.59L220.61 114.6ZM443.37 1409.39C440.49 1426.02 455.45 1432.9 463.58 1444.81C461.69 1444.09 461.05 1443.96 460.53 1443.63C436.29 1428.32 421.54 1405.69 411.59 1379.52C409.04 1372.8 410.51 1365.98 413.35 1359.51C414.98 1365.81 415.06 1372.33 416.93 1378.29C418.83 1384.35 422.32 1389.96 425.44 1395.59C428.42 1400.97 431.81 1406.12 435.02 1411.37C436.05 1410.06 436.13 1409.39 435.97 1408.77C426.29 1369.89 422.4 1330.25 421.69 1290.34C419.63 1174.55 418.24 1058.75 416.07 942.96C415.12 892.17 410.63 841.6 402.6 791.39C401.02 781.5 399.27 771.64 397.32 761.82C397.03 760.36 395.18 759.22 394.05 757.93C393.51 759.59 392.9 761.24 392.47 762.93C392.32 763.53 392.61 764.24 392.73 764.9C406.44 839.12 410.45 913.91 404.02 989.07C401.48 1018.73 396.42 1048.17 392.17 1077.67C391.43 1082.83 388.99 1087.74 387.34 1092.77C389.33 1070.77 392.76 1049.26 395.13 1027.63C404.81 939.23 402.28 851.13 387.86 763.37C386.93 757.7 384.33 756.95 379.28 759.48C385.44 786.61 389.75 813.87 389.62 842.44C384.79 814.7 380.12 787.84 375.49 761.26C352.36 761 351.11 752.34 347.05 739.38C344.34 730.72 342.68 721.64 341.42 712.62C337.26 682.64 333.42 652.61 329.65 622.57C329.07 617.96 327.13 615.55 322.16 614.85C323.13 622.07 324.02 628.75 324.92 635.43C322.18 630.92 320.79 626.12 319.24 621.37C315.7 610.52 315.67 610.53 311.15 609.98C313.07 621.84 314.99 633.7 316.91 645.55C312.51 634.92 309.34 624.1 306.22 613.26C305.05 609.21 302.96 607.03 298.18 609.13C299.86 616.75 301.54 624.39 303.51 633.35C301.72 632.16 301.45 632.08 301.39 631.92C299.28 626.54 297.24 621.13 295.08 615.78C291.72 607.44 290.79 607.04 281.66 609.67C284.73 616.57 288.48 623.23 290.72 630.37C295.16 644.53 298.98 658.9 302.62 673.29C303.92 678.41 302.08 683.37 297.21 685.9C291.22 689.01 284.82 691.32 277.81 694.32C276.55 724.75 275.21 756.98 273.87 789.21C273.16 789.19 272.44 789.16 271.72 789.14C271.72 757.96 272.34 726.77 271.37 695.62C271.05 685.38 266.62 675.28 264.06 665.11C263.35 665.27 262.64 665.43 261.94 665.6C262.28 730.95 264.34 796.24 269.07 861.43C276.61 830.16 282.87 798.74 290.67 767.72C298.41 736.93 307.7 706.53 316.31 675.96C317.12 676.19 317.93 676.41 318.74 676.64C308.8 717.73 298.87 758.82 288.93 799.91C294.62 791.58 298.68 782.73 303.03 774.02C307.5 765.06 312.16 756.2 316.89 747.37C321.37 739.01 326.08 730.77 332.4 723.73L334.18 724.85C329.53 733.92 324.87 743 320.22 752.07C320.56 752.28 320.9 752.5 321.24 752.71C326.04 749.22 330.83 745.73 335.63 742.24C336.13 742.73 336.63 743.23 337.13 743.72C302.56 776.8 286.77 818.94 277.7 864.3C281.52 855.87 284.55 847.09 287.8 838.39C296.27 815.73 306.73 794.12 323.16 776.05C330.56 767.92 338.81 760.5 350.48 757.2C350.11 758.55 350.12 759.04 349.88 759.32C349.45 759.81 348.92 760.24 348.35 760.58C332.93 769.7 322.11 783.16 313.28 798.33C285.39 846.26 271.25 898.24 273.51 953.43C275.88 1011.23 279.85 1069.08 286.08 1126.59C294.63 1205.57 305.73 1284.27 316.26 1363.03C318.67 1381.07 322.96 1398.88 327.01 1416.65C327.76 1419.94 331.04 1424.38 333.96 1425.13C342.59 1427.33 351.63 1427.94 360.51 1429.17C349.844 1421.91 344.03 1416.4 343.07 1412.64C362.84 1411.43 381.6 1416.85 401.12 1420.02C393.94 1412.6 386.17 1406.56 380.96 1398.8C365.85 1376.29 351.74 1353.1 337.33 1330.12C336.17 1328.28 335.39 1326.06 334.97 1323.91C330.34 1300.11 325.77 1276.29 321.28 1252.46C320.17 1246.56 319.37 1240.59 318.42 1234.66C317.49 1228.83 316.54 1223 315.6 1217.17C313.96 1269.51 316.32 1321.39 329.07 1372.41C327.93 1371.47 327.18 1370.46 326.79 1369.33C318.23 1344.62 311.15 1319.35 310.71 1293.18C309.7 1233.08 309.96 1172.96 309.76 1112.84C309.76 1111.45 310.49 1110.06 310.88 1108.67C312.8 1110.25 313.38 1111.63 313.4 1113.03C314.34 1170.68 322.31 1227.52 333.74 1283.89C337.43 1302.08 339.09 1321 349.02 1337.51C355.44 1348.19 360.94 1359.48 368.02 1369.7C377.24 1383 387.59 1395.53 397.55 1408.31C398.59 1409.64 400.28 1410.47 401.67 1411.53C391.82 1389.54 382.15 1368 374.83 1345.69C356.54 1289.94 346.04 1232.32 336.04 1174.63C334.1 1163.45 332.39 1152.23 330.57 1141.03C332.31 1143.41 332.98 1145.96 333.54 1148.54C341.56 1185.96 349.11 1223.49 357.68 1260.79C367.04 1301.57 377.5 1342.1 394.14 1380.7C394.82 1382.27 395.62 1383.79 396.17 1384.93C396.17 1374.6 395.94 1364.37 396.23 1354.17C396.51 1344.16 397.03 1334.14 397.99 1324.17C398.93 1314.33 400.54 1304.56 401.86 1294.76C402.9 1309.44 402.58 1323.88 402.99 1338.3C403.47 1355.4 403.53 1372.62 405.69 1389.55C407.73 1405.56 416.06 1418.56 430.25 1427.55C438.48 1432.77 446.16 1438.94 453.68 1445.17C456.84 1447.79 460.09 1451.34 461.2 1455.09C462.26 1458.66 460.59 1463.03 460.12 1467.06H491.73C488.1 1448.68 468.2 1425.11 443.36 1409.41L443.37 1409.39ZM247.81 608.1C246.91 607.82 246.01 607.54 245.12 607.27C243.75 610.58 242.17 613.82 241.05 617.22C232.8 642.1 228.42 667.85 227.01 693.85C223.78 753.41 220.4 813.01 219.31 872.64C217.65 963.95 221.1 1055.22 226.31 1146.38C230.81 1225.05 235.68 1303.7 247.61 1381.73C250.82 1402.76 255.45 1422.64 269.4 1439.51C275.19 1446.51 279.92 1454.4 284.9 1462.04C286.24 1464.09 286.73 1466.68 287.62 1469.02C287.18 1469.67 286.73 1470.31 286.29 1470.96C281.85 1469.59 277.31 1468.47 272.99 1466.79C268.65 1465.1 264.56 1462.77 260.28 1460.88C256.1 1459.03 251.82 1457.39 247.58 1455.66C261.16 1469.98 278.15 1477.93 295.84 1484.91C304.69 1488.4 310.9 1488.61 318.57 1480.79C328.48 1470.68 340.5 1461.88 357.88 1465.47C354.78 1462.12 352.48 1459.48 350.02 1457.01C336.23 1443.1 322.74 1428.87 308.49 1415.45C298.33 1405.88 287.19 1397.33 276.37 1388.49C274.53 1386.99 272.05 1386.28 269.86 1385.21C269.24 1385.86 268.63 1386.51 268.01 1387.16C283.33 1408.95 298.65 1430.74 313.97 1452.53C312.05 1453.02 311.29 1452.63 310.81 1452.02C296.9 1434.38 282.95 1416.76 269.19 1399C266.91 1396.06 264.53 1392.63 263.92 1389.12C263.33 1385.73 264.98 1381.95 265.64 1378.34C268.68 1379.04 272.15 1379.04 274.68 1380.58C282.93 1385.61 290.84 1391.21 298.89 1396.58C265.11 1327.04 250.9 1252.94 244.22 1176.95C257.87 1253.56 273.2 1329.64 312.46 1400.14C312.46 1397.55 312.6 1396.54 312.44 1395.58C308.12 1368.78 302.84 1342.1 299.6 1315.18C290.37 1238.52 280.82 1161.86 273.61 1085C268.04 1025.63 265.37 965.96 262.21 906.38C257.54 818.1 253.71 729.78 255.98 641.32C256.18 633.57 255.17 625.78 254.72 618.01C253.96 618.01 253.2 618.03 252.44 618.03C234.86 723.55 235.3 830.04 236.72 936.59C231.91 881.73 230.72 826.78 232.29 771.8C233.86 716.95 237.68 662.24 247.82 608.12L247.81 608.1ZM190.04 618.35C189.2 618.15 188.37 617.95 187.53 617.75C185.39 623.86 182.66 629.83 181.2 636.1C170.78 680.7 164.81 726.12 164.31 771.73C163.35 859.67 163.85 947.66 165.53 1035.59C166.52 1087.43 171.33 1139.18 173.7 1191.01C175.54 1231.27 183.47 1271.23 177.19 1311.95C173.74 1334.3 174.05 1357.24 172.9 1379.92C172.48 1388.16 170.17 1395.29 165.27 1402.18C158.55 1411.65 153.04 1421.97 146.46 1432.83C160.72 1427.46 173.39 1422.69 186.42 1417.79C184.36 1413.87 182.48 1410.61 180.89 1407.21C178.12 1401.32 181.61 1396.9 185.72 1394.08C187.57 1392.81 192.34 1394.17 194.84 1395.8C201.91 1400.42 208.47 1405.81 215.26 1410.85C219.51 1414 223.81 1417.07 228.09 1420.17C201.74 1374.99 184.43 1233.99 184.41 1211.73C184.85 1213.79 185.04 1214.62 185.2 1215.46C191.88 1252.01 197.56 1288.79 205.49 1325.07C214.19 1364.87 221.63 1405.58 250.21 1437.46C224.77 1432.04 199.19 1432.75 174.96 1446.02C190.57 1446.92 205.63 1449.4 219.64 1456.94C215.45 1453.07 211.26 1449.2 207.06 1445.34L208.04 1444.01C211.54 1446.18 215.34 1448 218.49 1450.59C227.6 1458.07 236.36 1465.99 245.45 1473.49C250.69 1477.81 256.75 1480.19 264.88 1479.1C251.34 1468.67 238.41 1458.91 228.68 1445.94C229.22 1445.01 229.76 1444.09 230.31 1443.16C244.78 1448.73 259.26 1454.31 274.98 1460.36C273.09 1457.79 272.06 1456.19 270.83 1454.75C246.26 1425.98 231.75 1392.52 223.51 1355.84C211.64 1303.05 207.11 1249.37 203.88 1195.6C200.5 1139.37 198.13 1083.07 196.27 1026.77C195.1 991.39 195.63 955.96 195.53 920.55C195.53 917.98 196.58 915.41 197.15 912.84C197.98 912.99 198.8 913.14 199.63 913.28C199.82 916.08 200.11 918.88 200.18 921.68C201.21 965.1 201.6 1008.54 203.38 1051.92C205.64 1106.87 207.86 1161.86 212.3 1216.66C215.79 1259.64 222.38 1302.37 228.15 1345.14C229.6 1355.86 233.18 1366.3 235.79 1376.86C236.98 1374.58 236.79 1372.61 236.55 1370.65C232.77 1339.5 227.51 1308.44 225.5 1277.17C220.33 1196.74 215.13 1116.26 212.66 1035.71C209.47 931.76 208.4 827.73 215.89 723.84C218.07 693.6 221.77 663.58 229.06 634.1C230.62 627.79 232.75 621.62 234.61 615.39C233.85 615.15 233.08 614.91 232.32 614.67C228.22 627.73 223.28 640.58 220.18 653.87C210.6 695.01 207.63 737.04 205.34 779.04C203.2 818.17 202.25 857.36 200.7 896.52C200.57 899.89 199.89 903.24 199.46 906.6C198.57 906.68 197.68 906.76 196.8 906.84C196.27 903.97 195.17 901.07 195.28 898.22C197.22 850.84 198.52 803.42 201.66 756.11C203.55 727.52 207.28 698.93 212.18 670.69C215.88 649.38 222.76 628.62 228.27 607.45C223.77 606.16 220.21 608.19 218.29 614.25C215.98 621.56 213.04 628.68 210.38 635.88C209.88 635.73 209.38 635.58 208.88 635.43C210.92 626.46 212.97 617.48 215.01 608.51C214.42 607.94 213.83 607.37 213.23 606.8C211.02 608.51 207.65 609.78 206.8 612.01C204.13 619.03 201.4 626.29 200.49 633.67C197.95 654.21 196.15 674.84 194.39 695.47C193.2 709.45 192.56 723.48 191.67 737.48C189.58 699.82 190.41 662.34 196.76 625.09C188.32 648.23 184.77 672.35 182.78 696.64C180.81 720.78 180.05 745.03 178.75 769.23C175.81 718.46 178.9 668.11 190.04 618.32V618.35ZM372.68 288.41C416.95 254.54 447.93 189.09 429.5 120.43C412.15 55.8 350.48 8.70997 282.42 8.68997C210.47 8.66997 149.8 55.38 131.24 125.15C124.39 150.9 124.81 176.76 131.31 202.43C137.82 228.12 150.37 250.68 168.62 271.67C169.4 267.17 169.97 264.35 170.36 261.49C174.35 232.62 177.93 203.7 182.41 174.91C185.21 156.87 189.45 138.99 199.13 123.14C217.43 93.18 244.99 79.8 279.43 76.58C322.88 72.51 357.7 101.78 368.13 134.13C376.77 160.91 379.42 188.55 379.69 216.42C379.76 223.52 378.18 231.49 374.76 237.6C365.33 254.42 372.93 270.97 372.68 288.41ZM140.77 653.8C140.49 653.7 140.22 653.6 139.94 653.5C139.34 654.38 138.5 655.18 138.18 656.15C136.85 660.15 135.4 664.15 134.5 668.25C121.81 726.07 115.27 784.66 114.46 843.78C113.94 881.83 115.91 919.92 115.75 957.98C115.65 982.4 112.4 1006.83 112.86 1031.21C114.1 1097.33 116.51 1163.43 118.57 1229.54C119.82 1269.67 122.98 1309.74 132.97 1348.66C136.94 1364.12 133.3 1374.1 123.14 1385.26C107.13 1402.84 92.8302 1421.98 77.9602 1440.57C76.6502 1442.21 75.2102 1445.78 75.9602 1446.71C82.2302 1454.39 88.4602 1462.26 95.7702 1468.91C103.89 1476.29 121.45 1471.98 126.79 1459.41C135.47 1439.01 146.4 1419.56 156.8 1399.92C161.25 1391.52 164.6 1383.06 165.13 1373.47C166.11 1355.46 167.87 1337.48 168.45 1319.47C169.26 1294.34 170.54 1269.12 169.39 1244.04C166.91 1189.55 161.71 1135.17 160.02 1080.67C157.49 999.22 156.45 917.71 155.88 836.21C155.48 779.17 158.58 722.23 167.74 665.81C169.8 653.15 172.87 640.65 175.59 627.51C166.74 631.03 166.36 639.07 165.36 645.84C160.9 675.99 156.97 706.22 153.08 736.44C151.93 745.34 151.51 754.33 150.76 763.28C149.79 763.18 148.83 763.09 147.86 762.99C151.71 721.69 155.56 680.38 159.45 638.67C158.38 640.79 156.82 642.83 156.3 645.1C154.56 652.69 152.96 660.33 151.73 668.01C142.27 726.88 139.19 786.31 139.16 845.75C139.13 932.59 140.63 1019.44 142.71 1106.26C143.95 1158.11 147.49 1209.9 150.11 1261.72C151.9 1297.08 153.94 1332.42 155.65 1367.78C155.81 1371.16 155.18 1375.04 153.58 1377.95C147.88 1388.27 141.4 1398.16 135.58 1408.42C126.99 1423.59 115.37 1437.37 113.82 1455.86C113.63 1458.18 111.58 1460.77 109.69 1462.42C105.85 1465.76 101.42 1465.7 99.0802 1460.87C95.5202 1453.54 90.8302 1447.98 82.6302 1446C82.4702 1445.96 82.4802 1445.2 82.3502 1444.42C95.2402 1438.68 99.8902 1450.09 106.82 1457.68C107.76 1454.91 108.22 1453.47 108.74 1452.04C112.71 1441.25 115.86 1430.07 120.86 1419.78C127.56 1405.99 135.83 1392.98 143.08 1379.44C144.9 1376.04 146.25 1371.94 146.31 1368.13C146.49 1357.01 146.09 1345.86 145.59 1334.74C142.19 1258.44 137.93 1182.17 135.43 1105.84C132.1 1004.12 129.63 902.35 133.9 800.58C135.99 750.74 138.7 700.93 148.83 651.89C149.15 650.33 149.06 648.68 149.21 646.22C147.98 647.29 147.25 647.61 147.11 648.09C145.49 653.86 143.7 659.6 142.45 665.46C131.12 718.63 128.22 772.71 126.74 826.78C124.99 890.22 125.03 953.7 124.3 1017.16C124.24 1022.63 124.3 1028.11 124.3 1033.58C123.61 1033.58 122.91 1033.58 122.22 1033.58C122.22 969.9 121.69 906.22 122.38 842.54C122.97 788.19 126.49 733.97 135.58 680.26C137.08 671.4 139.04 662.62 140.78 653.8H140.77ZM73.5302 993.16C72.8102 993.2 72.0802 993.25 71.3602 993.29C71.0402 989.36 70.5202 985.44 70.4202 981.51C69.6802 951.45 69.2402 921.39 68.2602 891.34C67.2902 861.33 66.5002 831.28 64.3302 801.34C62.5802 777.18 57.5602 753.22 56.3602 729.06C54.1902 685.35 56.7302 641.76 67.4102 599.1C70.1502 588.14 75.4702 577.82 79.6402 567.11C77.9402 567.98 76.0302 568.95 74.1202 569.93C53.3902 580.58 41.8502 598.6 34.3102 619.75C30.9402 629.2 27.8802 638.77 24.6902 648.28L22.0402 647.46C26.3502 632.16 30.6602 616.86 34.9602 601.62C24.2802 615.12 19.6202 630.87 18.8202 648.1C15.4002 640.48 16.4102 632.85 18.3702 625.34C26.2902 594.95 46.4602 574.9 73.6002 561.14C83.2502 556.25 93.5302 552.59 103.52 548.38C103.57 548 103.62 547.63 103.67 547.25C93.7602 546.19 83.8502 545.14 72.4102 543.92C74.7702 546.55 75.9002 547.81 77.4602 549.55C65.0802 555.41 53.3702 560.96 41.6702 566.5C41.2602 565.72 40.8602 564.94 40.4502 564.16C50.7902 558.78 61.1402 553.39 71.4802 548.01C71.5102 547.53 71.5302 547.06 71.5602 546.58C66.3102 545.96 61.0702 545.34 55.8202 544.71C55.7402 543.9 55.6602 543.08 55.5702 542.27C58.7602 541.38 61.9802 539.65 65.1502 539.73C80.6702 540.13 96.1802 541 111.7 541.74C114.76 541.89 117.81 542.18 121.48 542.45C111.71 533.57 102.6 525.74 94.0502 517.33C89.8202 513.17 86.2702 508.17 83.2002 503.07C82.2202 501.45 83.2802 497.99 84.4302 495.95C85.0302 494.89 88.0802 494.41 89.6602 494.88C94.8502 496.43 106.65 508.92 108.92 514.68C102.1 509.44 95.3102 504.22 88.5302 498.99C87.8102 499.93 87.0902 500.87 86.3702 501.81C100.98 519.29 118.47 533.31 139.29 544.93C131.17 526.96 122.9 510.54 116.29 493.48C109.59 476.18 104.53 458.24 98.7402 440.57C99.3502 440.36 99.9602 440.15 100.58 439.94C107.63 457.79 114.69 475.63 121.74 493.48C122.11 493.32 122.48 493.16 122.85 493C120.42 464.52 118 436.04 115.57 407.48C106.09 405.85 108.93 396.36 105.34 389.68C103.13 393.58 100.88 396.64 99.5502 400.06C93.5602 415.38 87.3602 430.64 82.1102 446.22C71.1802 478.67 62.1402 511.78 45.5802 542.12C37.5902 556.76 29.8102 571.58 23.1602 586.86C14.3502 607.08 9.39021 628.24 12.8802 650.59C14.3502 660.02 16.5702 669.42 17.0902 678.91C19.0702 714.9 20.1602 750.95 22.2902 786.93C23.3302 804.5 25.9202 821.97 27.9202 840.61C38.0402 792.42 25.5902 746.14 24.4202 699.37C27.7202 718.11 31.0102 736.85 34.3102 755.58C38.0002 730.47 40.4202 705.47 43.0402 680.5C45.6402 655.73 48.9002 631.06 54.6702 609.97C41.9702 764.17 30.7102 921.37 25.1202 1080.36C35.2102 1073.04 43.6502 1066.93 52.7602 1060.33C48.9102 1057.26 46.3602 1055.18 43.7602 1053.16C39.6102 1049.93 37.6202 1045.95 37.9302 1040.47C40.7902 988.9 43.4902 937.32 46.3202 885.74C46.5802 880.97 47.4702 876.23 48.0702 871.48L49.3702 871.68C48.2602 926.14 47.1502 980.61 46.0502 1034.72C53.0902 1035.09 59.3002 1035.05 65.4202 1035.82C75.2702 1037.07 83.0102 1033.28 89.0502 1026.13C100.46 1012.62 104.5 996.86 101.85 979.39C100.65 971.47 99.6102 963.51 98.0602 955.65C93.7202 933.75 89.1402 911.89 84.3002 888.33V944.8C84.0402 944.83 83.7802 944.85 83.5202 944.88C80.9702 915.53 78.4202 886.18 75.8702 856.83C75.1002 856.87 74.3202 856.91 73.5502 856.95V993.14L73.5302 993.16ZM513.45 995.66C502.88 867.59 499.1 738.89 475.54 612.12C494.74 667.54 499.17 725.64 505.7 783.37C506.31 783.31 506.92 783.24 507.53 783.18V685.23C505.4 690.02 504.01 693.16 502.61 696.3C502.3 696.11 502 695.93 501.69 695.74V655.37C502.45 655.37 503.21 655.35 503.97 655.34V674.64L505.67 674.78C508.05 665.6 510.24 656.37 512.84 647.26C518.1 628.8 517.43 610.26 510.3 592.86C502.06 572.76 491.95 553.41 482.14 533.99C472.63 515.16 462.23 496.77 452.74 477.93C449.81 472.1 448.57 465.42 446.56 459.13C446.92 459.03 447.29 458.94 447.65 458.84C453.22 470.17 458.78 481.5 464.35 492.83C464.91 492.58 465.47 492.33 466.03 492.07C462.72 482.7 459.74 473.19 456.03 463.98C447.9 443.81 439.74 423.63 430.91 403.76C425.3 391.14 415.22 385.05 400.89 386.22C392.26 386.92 383.53 386.55 374.85 386.64C372.09 386.67 369.33 386.64 365.74 386.64C369.52 397.82 373.11 407.61 376.1 417.57C379.16 427.77 382.64 438.01 384.06 448.49C385.41 458.46 384.35 468.75 384.35 478.9C385.96 473.18 387.07 467.34 388.2 461.51C391.29 445.58 394.16 429.59 397.64 413.74C398.61 409.32 401.4 405.3 403.35 401.09C395.28 445.88 392.95 491.44 377.05 534.26C394.04 511 401.63 483.85 410.5 457.18C408.63 481.32 401.34 503.95 392.46 526.48C402.18 513.46 411.9 500.43 421.63 487.41L423.48 488.68C412.51 505.72 401.54 522.76 389.88 540.87C397.97 537.99 405.37 535.25 412.84 532.71C427.82 527.62 442.86 522.17 458.97 523.76C463.49 524.21 467.96 527.6 471.82 530.5C472.73 531.19 471.73 537.08 470.48 537.54C464.82 539.64 458.79 539.87 452.97 536.51C458 535.76 463.02 535.02 468.05 534.27C468.2 533.38 468.35 532.49 468.5 531.6C465.01 530.46 461.44 528.17 458.04 528.39C438.5 529.63 420.99 537.98 402.95 544.91C416.66 546.77 430.35 547.49 443.9 549.27C455.74 550.82 467.47 553.32 479.13 555.94C482.37 556.67 485.18 559.32 489.65 561.95C475.07 558.97 462.49 556.39 449.91 553.82C449.75 554.47 449.6 555.13 449.44 555.78C458.83 561.05 468.5 565.89 477.54 571.7C489.86 579.61 497.92 588.61 499.39 594.84C494.05 590.69 489.01 586.78 483.98 582.87L483.54 583.57C488.33 590.07 493.12 596.56 497.9 603.06C497.45 603.51 496.99 603.97 496.54 604.42C477 582.79 456.36 562.81 425 556.19C427.72 558.28 429.2 559.56 430.82 560.63C438.57 565.73 443.68 572.77 446.55 581.55C447.51 584.5 448.41 587.56 449.91 590.25C471.44 628.62 478.67 670.82 483.01 713.77C487.51 758.28 491.9 802.8 496.08 847.34C496.88 855.84 500.84 864.95 493.02 872.65C492.06 873.6 492.47 876.06 492.45 877.83C492.31 892.53 492.19 907.22 492.12 921.92C492.07 932.06 492.12 942.2 492.12 952.34C491.36 952.34 490.6 952.34 489.85 952.35C488.64 927.92 487.43 903.49 486.22 879.06C485.17 879.06 484.12 879.04 483.07 879.03V929.61C482.23 929.59 481.39 929.56 480.55 929.54C479.76 914.92 478.96 900.29 478.17 885.67C477.5 885.67 476.83 885.69 476.16 885.69C474.52 905.19 472.88 924.7 471.24 944.2C470.88 944.22 470.53 944.24 470.17 944.26C469.55 935.17 468.93 926.08 468.18 915.22C459.36 923.55 464.11 933.76 460.26 943.53C459.38 935.8 458.68 929.7 457.99 923.6C457.2 923.55 456.4 923.49 455.61 923.44C454.39 928.98 453.16 934.53 451.94 940.07C451.68 940.06 451.42 940.04 451.17 940.03C450.6 935.97 450.03 931.91 449.45 927.85C447.19 929.29 446.22 931.03 445.64 932.89C445.02 934.87 444.77 936.96 444.36 939.01C444.06 938.97 443.76 938.93 443.46 938.88C442.96 936.65 442.46 934.41 441.49 930.11C438.84 934.23 437.22 936.76 435.18 939.94C466.88 951.67 493.56 968.56 513.44 995.69L513.45 995.66ZM214.01 524.94C214.62 513.49 215.31 503.16 215.69 492.82C216.8 463.13 231.69 439.64 249.53 417.52C252.44 413.91 262.54 413.73 264.91 417.16C277.87 435.95 293.13 453.61 295.65 477.73C296.62 487.03 297.84 496.3 298.86 505.59C299.57 512.1 300.15 518.63 300.96 527.01C309.42 515.08 311.49 502.93 314.05 490.96C314.86 491.16 315.67 491.36 316.48 491.56C313.84 503.69 311.21 515.82 308.49 528.35C308.79 528.43 310.94 529.22 311.08 528.96C315.9 519.92 320.52 510.77 325.18 501.64C323.46 510.15 321.01 518.61 318.79 527.13C318.43 528.5 319.13 530.15 319.35 531.66C320.8 530.76 323.17 530.15 323.56 528.91C326.11 520.88 329.48 512.82 330.25 504.56C332.58 479.53 333.78 454.4 335.57 429.32C336.3 419.12 334.99 409.6 329.37 400.7C325.58 394.71 322.9 388.02 319.27 381.9C318.37 380.38 315.73 379.89 313.89 378.93C313.79 381.01 313.31 383.17 313.7 385.16C314.07 387.06 315.47 388.73 316.21 390.59C319 397.61 321.7 404.67 324.43 411.71C319.04 404.57 315 396.92 310.7 389.4C306.36 381.81 304.64 381.56 296.77 386.69C304.46 405.2 311.19 423.95 311.56 444.4C305.61 425.56 301.01 406.21 289.6 389.58C291.76 400.26 293.92 410.93 296.08 421.61C293.84 419.71 293.04 417.46 292.33 415.18C290.01 407.75 287.85 400.27 285.3 392.93C284.76 391.36 282.9 389.16 281.58 389.11C272.3 388.78 263.01 388.93 252.99 388.93C253.94 395.12 254.79 400.66 255.64 406.2C255.1 406.38 254.57 406.56 254.03 406.74C252.28 402.1 250.7 397.38 248.7 392.85C247.85 390.9 246.14 389.33 244.83 387.59C243.42 389.26 241.28 390.73 240.74 392.65C238.72 399.83 237.23 407.16 235.54 414.44C235.08 414.37 234.62 414.31 234.16 414.24C234.96 405.36 235.77 396.49 236.57 387.61C226.63 404.84 221.92 423.9 216.75 442.77C215.99 442.57 215.22 442.37 214.46 442.17C218.97 423.09 223.48 404 228.03 384.76C224.49 382.52 221.87 383.74 220.14 387.91C218.86 390.99 217.27 393.94 216.03 397.03C212.85 404.96 209.78 412.94 206.66 420.89C206.06 418.04 206.33 415.41 207.11 412.95C209.91 404.05 212.99 395.24 215.7 386.31C216.23 384.58 215.56 382.48 215.44 380.55C213.53 381.44 211.15 381.89 209.8 383.31C207.69 385.53 206.21 388.38 204.57 391.02C200.5 397.56 196.5 404.13 192.47 410.69C191.96 410.41 191.44 410.13 190.93 409.86C196.38 398.94 201.83 388.02 207.28 377.11C206.71 376.71 206.15 376.31 205.58 375.9C202.11 381.14 198.63 386.38 195.16 391.62C195.8 386.22 197.43 381.24 199.61 376.52C201.4 372.63 200.29 370.85 194.89 369.69C191.62 382 187.52 394.03 185.37 406.39C182.38 423.65 180.37 441.13 178.85 458.59C177.53 473.83 176.33 489.26 177.27 504.47C177.85 513.91 182.4 523.15 185.52 532.36C185.96 533.65 188.42 534.25 189.95 535.17C190.2 533.5 190.98 531.71 190.63 530.18C187.26 515 183.08 499.97 180.44 484.68C179.04 476.55 180.19 467.99 180.19 462.07C182.98 477.21 185.91 494.71 189.56 512.06C190.77 517.83 193.59 523.33 196.2 528.7C196.92 530.17 199.54 530.72 201.29 531.69C200.76 526.24 199.14 522.59 197.96 518.8C196.88 515.34 196.29 511.73 195.48 508.19C201.44 520.003 206.11 526.533 209.49 527.78C203.77 516.28 197.56 505.39 197.67 492.49C201.69 503.63 204.62 515.26 214 524.95L214.01 524.94ZM454.98 617.23C455.64 651.16 456.32 685.78 457 720.39L454.43 720.62C451.43 697.04 443.27 674.99 434.87 653.04C426.46 631.03 416.4 609.81 404.19 589.63C405.53 597.41 407.7 604.84 409.56 612.35C423.13 667.31 428.62 723.37 429.33 779.72C429.92 826.2 427.56 872.71 426.53 919.21C426.45 922.6 426.53 925.98 426.53 929.67C439.38 922.64 451.2 916.17 463.37 909.51C452.2 897.09 451.86 897.08 452.47 881.58C453.21 862.9 454.68 844.26 455.7 825.59C456.5 810.88 457.08 796.17 457.76 781.45C458.32 781.46 458.89 781.48 459.45 781.49V885.94C467.74 879.6 475.4 873.69 483.12 867.87C487.88 864.28 489.11 859.74 488.38 853.87C482.87 809.96 479.1 765.79 467.66 722.8C465.61 715.09 464.45 707.13 462.88 699.29C463.51 699.14 464.13 698.98 464.76 698.83C468.22 710.33 471.68 721.84 475.15 733.34C473.85 693.19 469.85 653.66 455.01 617.21L454.98 617.23ZM321.54 151.37C312.04 159.16 301.41 158.18 291.11 159.26C273.15 161.14 254.94 164.48 243.85 180.27C234.96 192.92 225.16 205.56 221.64 222.05C219.95 220.51 218.64 219.31 217.33 218.12C216.72 218.42 216.11 218.72 215.51 219.02C216.93 222.68 217.48 228.57 219.95 229.53C224.96 231.48 224.49 234.81 224.84 238.34C227.2 262.12 239.75 279.86 258.35 293.64C266.5 299.68 276.11 300.78 284.44 294.25C294.54 286.33 304.44 277.91 313.15 268.53C321.33 259.71 327.62 249.22 332.41 235.55C317.67 244.92 313.22 232.57 305.09 225.4C302.83 234.76 300.66 243.52 298.59 252.31C296.87 259.65 293.07 263.3 286.43 260.9C281.31 259.05 277.36 253.93 273.02 250.12C272.73 249.87 273.58 248.33 274.1 246.8C277.33 249.29 280.01 251.42 282.77 253.46C289.16 258.17 292.49 256.89 294.56 249.21C296.87 240.63 298.84 231.91 301.91 223.6C309.96 201.81 324.8 198.77 341.35 215.12C341.58 215.35 342.12 215.26 342.72 215.36C348.33 202.62 348.69 190.78 338.72 179.51C331.6 171.46 322.97 164.16 321.55 151.4L321.54 151.37ZM87.8102 832.92C87.2402 832.99 86.6602 833.07 86.0902 833.14C83.6702 821.19 81.2502 809.23 78.8202 797.28C65.3102 730.9 66.7102 664.92 84.9102 599.59C88.6102 586.3 94.5602 573.63 99.4702 560.68C94.5702 564.36 89.8102 568.64 86.6002 573.86C76.4802 590.33 72.9402 609.03 70.2702 627.79C61.2702 691 63.0802 753.92 76.4102 816.39C84.7202 855.34 93.4302 894.2 101.88 933.12C103.45 940.34 104.61 947.66 105.96 954.93C107.23 953.75 107.44 952.71 107.42 951.68C106.35 902.26 105.78 852.82 104.04 803.42C102.11 748.68 98.0702 693.99 100.91 639.18C102.07 616.71 104.04 594.39 111.17 572.74C115.08 560.88 122.7 555.36 134.6 554.51C136.1 554.4 137.59 553.98 140.24 553.48C124.57 546.32 110.31 551.43 102.39 568.38C95.0002 584.2 87.9102 600.69 84.3702 617.65C79.2602 642.19 76.6402 667.35 74.4702 692.37C71.6502 724.77 77.6302 756.74 81.6402 788.75C83.4902 803.5 85.7302 818.19 87.8002 832.91L87.8102 832.92ZM293.19 298.36C290.43 299.54 286.97 300.32 284.39 302.27C279.51 305.96 274.58 306.81 268.74 305.28C253.75 301.38 243.68 291.44 235.64 278.94C232.66 274.31 230.05 269.46 227.27 264.71C226.64 264.84 226.02 264.97 225.39 265.1C225.39 278.88 225.77 292.67 225.27 306.43C224.86 317.81 221.33 327.89 209.85 333.22C205.76 335.11 205.75 337.82 208.65 341.1C215.7 349.06 224.64 353.86 234.73 356.47C253.36 361.29 272.03 361.96 290.8 356.7C300.07 354.1 308.23 350.02 314.48 342.6C319.76 336.32 318.79 332.49 311.29 329.56C308.65 328.53 305.96 327.63 303.17 326.64C302.67 328.77 302.26 330.56 301.84 332.35C295.36 322.35 296.6 310.92 293.21 298.36H293.19ZM476.63 973.03C475.87 973.11 475.11 973.19 474.35 973.27C473.65 1002.59 472.96 1031.91 472.26 1061.24C470.94 1057.75 470.41 1054.25 470.31 1050.74C469.59 1025.15 468.98 999.55 468.23 973.96C468.15 971.3 467.4 968.67 466.96 966.02C466.16 966.15 465.36 966.27 464.56 966.4C463.48 994.01 462.4 1021.61 461.32 1049.21C459.89 1044.58 459.38 1039.95 459.27 1035.31C458.74 1012.38 458.31 989.45 457.83 966.52C457.76 963.22 458.21 959.46 452.72 960.02C451.62 987.92 450.52 1015.72 449.43 1043.53H446.97V956.37C446.01 956.37 445.06 956.38 444.1 956.39C442.38 1010.48 440.66 1064.58 438.94 1118.67C441.08 1117.94 441.71 1117.05 442.15 1116.07C449.74 1099.03 461.33 1085.21 475.74 1073.5C484.19 1066.63 492.43 1059.45 500.31 1051.92C505.65 1046.82 510.22 1040.74 509.81 1032.75C509.42 1024.99 508.54 1017.24 507.57 1009.52C507.28 1007.18 506.01 1004.96 505.19 1002.68L503.44 1003.08V1038.01C502.9 1038.05 502.37 1038.09 501.83 1038.13C501.45 1035.61 500.92 1033.1 500.7 1030.57C499.69 1019.04 498.84 1007.5 497.74 995.97C497.52 993.72 496.43 991.55 495.75 989.35C495.22 989.51 494.69 989.66 494.15 989.82C493.51 1003 492.86 1016.17 492.22 1029.35C490.39 1026.73 489.92 1024 489.78 1021.26C489.22 1009.92 488.92 998.56 488.16 987.24C487.99 984.67 486.34 982.21 485.37 979.7C484.37 979.97 483.37 980.24 482.37 980.52V1047.74C481.6 1047.76 480.83 1047.77 480.06 1047.79C478.92 1022.88 477.77 997.97 476.62 973.06L476.63 973.03ZM136.73 560C130.61 563.72 124.05 565.52 121.38 569.77C115.54 579.04 111.71 589.91 117.18 600.74C121.23 608.76 126.31 616.52 132.2 623.29C138.3 630.3 149.39 631.46 157.17 627.66C141.12 619.29 138.4 616.9 137.81 610.68C152.05 624.16 162.9 625.11 177.19 615.21C163.99 610.87 159.19 606.31 157.09 596.36C161.2 600.09 165.04 604.76 169.93 607.68C175.31 610.9 181.57 610.63 188.6 607.08C178.54 602.37 173.14 595.33 171.36 585.73C175.56 589.63 178.85 594.46 183.25 597.85C187.99 601.49 193.86 602.94 200.53 600.13C196.79 597.35 193.52 594.92 190.26 592.5C190.51 592.21 190.76 591.91 191 591.62C195.75 592.5 200.5 593.38 205.24 594.27C193.03 583.27 187.63 571.43 184.63 546.93C171.43 548.31 166.61 553.42 165.18 567.51C164.79 571.38 164.33 575.25 163.9 579.12C163.32 579.06 162.74 578.99 162.16 578.93V555.74C155.02 565.08 155.01 575.4 156.8 586.14C151.18 576.34 150.92 566.44 156.49 555.25C140.08 560.05 135.7 573.19 130.67 585.77C129.94 585.44 129.2 585.11 128.47 584.78C130.98 577.24 133.49 569.7 136.71 560.02L136.73 560ZM355.84 624.06C364.69 630.19 378.4 628.14 385.12 620.17C396.47 606.7 398.12 585.83 389.07 569.48C388.97 569.31 388.29 569.46 387.5 569.46C387.75 571.7 388.06 573.84 388.19 576C388.31 577.93 388.21 579.88 388.21 583.58C382.65 572.78 382.4 560.16 367.98 558.52C369.3 563.88 370.41 568.4 371.53 572.91C371.19 572.99 370.84 573.07 370.5 573.15C367.05 567.44 363.6 561.72 360.16 556.01C359.87 556.26 359.57 556.51 359.28 556.75C360.24 561.38 361.19 566.02 362.15 570.65C361.48 570.97 360.8 571.29 360.13 571.61C356.86 557.55 349.27 548.31 333.86 547.18C334.49 566.58 331.4 584.69 313.75 598.9C323.98 598.44 331.58 596.58 335.8 589.08C339.44 582.6 341.8 575.41 344.72 568.53C343.18 584.25 340.34 599.2 320.35 603.52C333.68 611.29 340.82 601.4 349.29 596.61C349.71 597.04 350.13 597.47 350.56 597.89C346.18 602.45 341.8 607 336.9 612.11C348.47 609.73 353.8 600.33 361.31 593.42C359.81 597.87 358.02 602.12 355.36 605.73C352.55 609.54 348.92 612.75 345.66 616.2C355.72 620.95 363.46 618.95 382.11 606.52C377.91 619.5 367.95 623.09 355.86 624.05L355.84 624.06ZM259.98 455.11C259.41 455.28 258.83 455.46 258.26 455.63C259.49 460.62 260.22 465.81 262.04 470.57C266.65 482.59 267.23 494.62 264.95 507.26C263.34 516.18 262.92 525.39 262.88 534.48C262.85 542.35 264.84 550.05 270.86 555.78C275.34 560.05 280.39 563.73 284.95 567.92C288.67 571.35 291.97 571.21 295.34 567.65C301.62 561.01 303.41 553.01 302.34 544.2C302.19 542.95 301.52 540.94 300.73 540.74C293.41 538.89 295.2 532.71 294.57 527.9C291.97 507.91 293.66 487.5 287.14 467.86C281.46 450.74 271.96 436.23 260.36 422.81C260.39 424.81 261.21 426.35 262.22 427.75C272.56 442.1 281.01 457.43 285.93 474.5C286.72 477.24 286.34 480.32 286.5 483.25C285.73 483.37 284.96 483.48 284.19 483.6C279.45 465.94 272.08 449.63 260.39 433.97C258.21 443.51 263.28 449.18 266.43 455.6C271.1 465.12 275.35 474.87 279.28 484.71C280.16 486.92 279 489.95 278.78 492.61C278.05 492.61 277.32 492.61 276.6 492.61C273.84 478.78 268.51 466.17 259.98 455.11ZM57.3302 1068.89C47.2802 1074.2 52.2802 1082.55 51.3702 1089.18C50.3702 1096.41 50.5202 1103.79 50.1702 1111.11C49.7002 1111.11 49.2202 1111.11 48.7502 1111.11C47.6902 1100.03 46.6302 1088.96 45.5802 1077.88C44.7202 1077.82 43.8602 1077.75 43.0102 1077.69C37.7102 1088.29 42.9602 1100.43 38.9202 1111.57C37.8402 1102.86 36.7602 1094.16 35.6902 1085.45C34.9002 1085.48 34.1002 1085.5 33.3102 1085.53V1106.33C32.6402 1106.35 31.9802 1106.37 31.3102 1106.4C30.3702 1102.8 29.4402 1099.19 28.5002 1095.59C27.6802 1095.8 26.8602 1096 26.0502 1096.21C27.1502 1100.43 27.0502 1105.68 29.5902 1108.67C36.2902 1116.55 43.4202 1124.43 51.6902 1130.53C63.7902 1139.46 75.4102 1148.48 83.0702 1161.73C83.1602 1161.89 83.8302 1161.71 84.7702 1161.66C83.3602 1122.74 81.9502 1083.81 80.5402 1045.02C74.5302 1043.97 74.3502 1047.14 74.3702 1050.85C74.4502 1066.6 74.4002 1082.34 74.4002 1098.09L72.6502 1098.12C72.2602 1094.61 71.7502 1091.11 71.5102 1087.6C70.6702 1075.17 70.0002 1062.73 69.0502 1050.31C68.9202 1048.66 67.5802 1047.1 66.8002 1045.5C65.7702 1047.14 63.9902 1048.71 63.8502 1050.42C63.0302 1060.39 62.6002 1070.38 62.0402 1080.37C61.6902 1086.57 61.3402 1092.77 60.9902 1098.96C60.4902 1098.95 59.9802 1098.93 59.4802 1098.92C58.8002 1089.26 58.1102 1079.6 57.3602 1068.91L57.3302 1068.89ZM371.58 447.37C370.54 447.71 369.5 448.05 368.45 448.39C363.64 433.68 358.83 418.97 354.02 404.26C350.59 439.53 351.64 474.69 348.77 509.59C348.59 473.04 348.56 436.53 348.62 400.03C348.64 388.74 347.39 377.73 342.84 367.2C342.24 368.44 342.07 369.67 342.15 370.88C345.92 423.29 343.31 475.44 335.69 527.38C333.99 538.93 334.51 539.65 346.78 541.5C347.37 540.42 348.19 539.34 348.62 538.12C357.21 513.8 366.4 489.67 373.93 465.02C376.4 456.95 376.34 447.1 374.27 438.86C369.78 421 363.35 403.61 357.47 386.12C356.55 383.37 354.34 381.05 352.73 378.53C352.17 378.86 351.6 379.2 351.04 379.53C357.89 402.14 364.73 424.75 371.58 447.37ZM253.71 422.21C239.83 437.94 227.47 454.74 224.13 475.7C221.44 492.54 221.28 509.78 219.86 526.83C219.59 530.1 219.45 533.79 217.86 536.46C211.53 547.11 212.58 559.3 220.91 567.7C224.31 571.13 227.08 571.33 230.35 567.58C233.55 563.9 236.85 560.21 240.58 557.1C245.88 552.68 249.41 547.2 249.16 540.48C248.68 527.44 248.11 514.3 246.1 501.43C244.05 488.28 245.84 476.36 251.9 464.67C253.65 461.3 253.84 457.11 254.74 453.3C254.12 453.16 253.51 453.01 252.89 452.87C243.38 464.04 238.27 477.39 234.08 491.52C233.27 487.06 232.56 482.35 234.25 478.77C239.15 468.39 244.72 458.3 250.6 448.43C253.54 443.49 255.19 438.82 253.54 431.77C241.88 448.64 231.99 464.87 225.93 483.24C228.73 459.92 241.39 441.13 253.72 422.2L253.71 422.21ZM435.38 1307.78C436.35 1306.33 437.37 1304.92 438.3 1303.44C449.41 1285.74 460.64 1268.1 471.54 1250.27C474.64 1245.2 477.35 1239.73 479.23 1234.11C482.74 1223.59 480.81 1213.17 477.07 1203C476.53 1211.7 475.99 1220.41 475.46 1229.11C474.36 1229.07 473.26 1229.02 472.16 1228.98C472.16 1217.45 472.27 1205.92 472.08 1194.39C472.04 1191.82 470.94 1189.26 470.33 1186.69C469.43 1186.86 468.53 1187.02 467.62 1187.19V1232.36C465.9 1231.37 465.64 1230.33 465.57 1229.28C464.66 1213.74 463.72 1198.2 462.91 1182.65C462.71 1178.85 462.61 1175.22 456.76 1173.32V1252.94L454.85 1253.01C454.49 1249.8 453.93 1246.6 453.79 1243.38C452.77 1219.37 451.87 1195.35 450.8 1171.34C450.68 1168.59 449.76 1165.87 449.21 1163.14C448.64 1163.26 448.08 1163.37 447.51 1163.49C446.11 1204.58 444.7 1245.68 443.3 1286.77C442.4 1286.77 441.49 1286.76 440.59 1286.75V1192.42C439.82 1192.42 439.06 1192.42 438.29 1192.42C435.87 1230.68 431.97 1268.88 435.38 1307.79V1307.78ZM164.49 347.36L162.6 346.57C152.21 352.98 141.75 359.29 131.46 365.85C125.66 369.55 119.76 373.23 114.59 377.71C108.34 383.12 108.68 395.93 114.67 402.54C115.38 400.32 116.06 398.19 116.73 396.05C118.07 397.33 118.36 398.5 118.51 399.69C122.47 430.8 126.36 461.92 130.37 493.02C132.32 508.11 135.39 522.89 144.29 535.72C145.61 537.62 147.27 539.29 148.77 541.06C124 473.87 129.35 409.58 164.49 347.35V347.36ZM87.3502 1205.37L85.5402 1204.76C84.4902 1207.95 82.6502 1211.12 82.5402 1214.34C82.0902 1227.24 82.2002 1240.17 82.0602 1253.08C82.0402 1255.27 81.7602 1257.45 81.6002 1259.64C81.0602 1259.6 80.5102 1259.57 79.9702 1259.53C78.8502 1245.61 77.7302 1231.69 76.6202 1217.77C75.7602 1217.77 74.9002 1217.77 74.0302 1217.76V1248.64C73.1502 1248.67 72.2802 1248.69 71.4002 1248.72C70.7502 1241.75 70.1002 1234.78 69.4502 1227.81C66.0102 1236.22 65.6202 1244.69 70.3702 1252.11C83.1902 1272.12 96.5402 1291.77 109.73 1311.54C109.83 1311.68 110.48 1311.45 111.66 1311.29C109.63 1262.78 107.59 1214.19 105.55 1165.6H105.21V1283.57C104.81 1283.59 104.4 1283.62 104 1283.64C101.16 1226.04 98.3102 1168.45 95.4702 1110.85C94.8202 1110.86 94.1602 1110.88 93.5102 1110.89V1268.42C92.7802 1268.43 92.0402 1268.45 91.3102 1268.46C89.9902 1247.43 88.6702 1226.4 87.3502 1205.37ZM376.77 1432.38H338.3C348.89 1443.83 358.95 1454.71 369.14 1465.73C378.74 1458.03 387.34 1448.64 399.73 1444.98C394.38 1450.05 388.66 1454.61 383.2 1459.47C377.93 1464.16 371.61 1468.06 369.9 1476.36C390.55 1455.06 414.08 1441.97 445.9 1448.83C428.66 1430.3 367.08 1417.59 350.07 1420.6C358.67 1424.39 367.26 1428.19 376.78 1432.38H376.77ZM448.92 673.61L449.61 673.36C449.61 666.62 449.7 659.87 449.59 653.13C449.25 630.55 446.13 608.36 440.13 586.58C437.17 575.84 429.63 567.36 419.95 564.16C423.72 569.95 427.26 575.38 430.8 580.82C430.28 581.16 429.75 581.51 429.23 581.85C427.23 579.53 425.23 577.2 423.23 574.88C412.46 562.33 399.84 552.45 383.85 547.35C377.62 545.36 372.94 546.12 368.91 550.48C384.81 550.33 394.56 559.52 402.34 571.66C420.94 600.68 434.11 632.25 445.77 664.52C446.86 667.54 447.87 670.58 448.91 673.62L448.92 673.61ZM461.68 1138.76C460.61 1138.85 459.54 1138.94 458.47 1139.03C457.56 1129.86 456.65 1120.69 455.74 1111.52L453.51 1111.44C452.76 1120.12 452.01 1128.79 451.27 1137.47C450.85 1137.43 450.42 1137.4 450 1137.36C449.7 1132.68 449.4 1128.01 448.99 1121.49C443.05 1132.94 443.71 1142.15 450.54 1150.46C455.61 1156.63 461.86 1161.86 466.75 1168.15C472.57 1175.62 477.51 1183.76 482.8 1191.64C483.52 1192.72 484.06 1193.91 484.69 1195.05C485.16 1194.92 485.62 1194.8 486.09 1194.67C485.06 1157.51 484.03 1120.35 482.99 1083.2C482.12 1083.16 481.25 1083.13 480.38 1083.09C477.43 1100.37 480.62 1118.21 476.44 1135.5C475.52 1120.61 474.6 1105.71 473.69 1090.82C472.97 1090.69 472.25 1090.56 471.53 1090.43C470.87 1093.1 469.67 1095.76 469.63 1098.44C469.44 1112.71 469.54 1126.98 469.54 1141.24C469 1141.27 468.46 1141.3 467.93 1141.33C466.76 1127.66 465.59 1113.98 464.42 1100.31C463.51 1100.31 462.6 1100.31 461.69 1100.32V1138.78L461.68 1138.76ZM179.57 393.17C178.9 392.85 178.24 392.54 177.57 392.22C168.43 409.59 159.19 426.9 150.26 444.37C149.02 446.8 148.94 449.99 148.88 452.85C148.16 482.43 155.78 510.45 165.31 538.06C165.81 539.5 167.83 540.42 169.14 541.58C169.72 539.91 171.02 538.13 170.78 536.59C165.07 499.65 169.04 462.99 173.9 426.38C175.38 415.25 177.66 404.24 179.57 393.17ZM178.76 333.93C178.16 333.84 177.55 333.75 176.95 333.67C175.86 335.71 174.7 337.72 173.69 339.81C159.19 369.73 146.19 400.3 141.59 433.47C136.39 471.03 146.29 506.77 157.22 542.19C158.81 547.33 161.51 544.92 162.58 544.19C157.16 523.72 151.69 504.32 146.91 484.75C140.24 457.43 143.86 431.89 160.61 408.55C166.82 399.9 172.09 390.53 177.22 381.18C179.24 377.5 179.7 372.96 180.86 368.81C180.32 368.7 179.78 368.58 179.23 368.47C175.52 375.2 171.81 381.94 168.11 388.67C170.78 379.33 176.32 371.07 178.34 362.03C180.34 353.08 178.78 343.34 178.78 333.95L178.76 333.93ZM199.29 355.53C198.81 355.87 198.33 356.21 197.85 356.55C198.88 358.85 199.27 362.09 201.04 363.29C207.78 367.86 214.5 373.23 222.07 375.65C243.29 382.42 265.27 383.99 287.36 380.56C303.87 378 318.51 371.49 329 357.75C330.52 355.75 331.45 353.3 332.66 351.07C324.84 354.81 318.77 359.96 311.91 363.65C305.25 367.22 297.79 369.29 290.68 372.02C290.46 371.48 290.24 370.93 290.03 370.39C292.62 369.17 295.13 367.73 297.81 366.78C309.46 362.65 318.85 355.52 326.72 346.05C329.57 342.62 329.65 340.07 327.5 338.02C321.02 344.46 315.8 352.37 308.45 356.47C281.03 371.78 252.23 371.65 223.66 359.69C215.72 356.37 208.92 350.34 200.1 344.57C201.84 347.96 202.49 350.9 204.32 352.46C208.5 356.04 212.99 359.41 217.81 362.03C230 368.65 243.56 370.13 257.07 371.57C265.73 372.49 274.4 373.43 283.06 374.37C283.11 374.97 283.15 375.56 283.2 376.16C280.55 376.69 277.89 377.74 275.27 377.66C248.08 376.93 222.09 371.82 199.29 355.54V355.53ZM367.39 641.23C366.53 641.29 365.67 641.34 364.82 641.4V683.27C361.99 669.33 360.74 655.39 359.24 641.48C358.99 639.2 357.62 637.04 356.76 634.82C355.22 643.97 354.98 652.41 355.27 660.83C356.07 683.51 356.38 706.28 363.09 728.27C364.27 732.14 365.99 735.85 367.46 739.64C368.16 739.5 368.87 739.36 369.57 739.22C380.36 709.06 377.36 677.92 376.93 646.97C375.95 646.91 374.97 646.84 373.99 646.78V683.19C373.36 683.22 372.72 683.25 372.09 683.27C370.52 669.25 368.95 655.24 367.38 641.22L367.39 641.23ZM390.21 652.95C389.54 653.07 388.88 653.18 388.21 653.3C387.96 655 387.59 656.68 387.46 658.39C386.39 672.59 386.26 686.93 384.09 700.96C381.86 715.36 377.84 729.5 374.14 743.63C373.61 745.64 370.49 748.18 368.5 748.24C366.72 748.29 363.95 745.6 363.17 743.54C360.44 736.28 357.12 728.9 356.28 721.32C353.12 693.04 350.56 664.69 348.46 636.31C347.95 629.49 345.11 626.59 338.74 624.81C341.16 647.26 342.99 669.2 346.06 690.97C348.26 706.56 351.55 722.06 355.5 737.31C357.29 744.25 361.38 751.7 369.99 751.98C379.16 752.27 381.48 744.27 384.1 737.34C384.49 736.3 384.87 735.25 385.17 734.18C392.17 709.21 392.34 683.62 391.94 658C391.91 656.31 390.82 654.64 390.23 652.97L390.21 652.95ZM199.46 227.29C198.33 227.13 197.2 226.97 196.06 226.81C195.59 243.09 195.12 259.36 194.65 275.64C194.02 275.66 193.39 275.68 192.77 275.71C191.95 266.03 191.13 256.36 190.31 246.68C175.6 284.77 188.17 323.12 188.22 361.33C202.23 317.45 200.62 272.35 199.46 227.29ZM403.44 705.64C402.45 705.59 401.47 705.53 400.48 705.48V657.64C399.73 657.64 398.98 657.64 398.23 657.63C394.51 688.13 396.8 719.42 385.44 751.12C394.03 747.99 400.69 745.81 407.13 743.13C411.99 741.11 414.93 737.25 415 731.75C415.14 720.01 415.27 708.27 415.22 696.53C415.21 693.77 414.48 691.01 414.08 688.25C413.72 688.33 413.36 688.41 413 688.49C411.88 699.29 410.76 710.09 409.64 720.89C409.16 720.84 408.67 720.8 408.19 720.75V661.59C407.79 661.57 407.39 661.56 406.99 661.54C405.81 676.24 404.63 690.95 403.45 705.65L403.44 705.64ZM225.34 1427.45C215 1419.37 206.04 1412.08 196.74 1405.26C193.86 1403.15 190.06 1402.3 186.68 1400.87C187.49 1404.25 187.85 1407.82 189.2 1410.97C192.92 1419.68 191.98 1421.87 182.93 1425.42C173.83 1428.99 164.35 1432.03 156.02 1436.95C149.77 1440.64 144.78 1446.69 139.8 1452.21C136.47 1455.89 138.4 1458.94 142.53 1461.16C152.23 1466.36 160.65 1461.78 165.7 1448C159.55 1451.35 153.68 1454.54 147.82 1457.73C147.4 1456.75 146.98 1455.77 146.56 1454.78C168.07 1434.41 195.13 1428.86 225.34 1427.45ZM170.36 1481.52C171.07 1481.99 171.78 1482.47 172.5 1482.94C178.53 1476.2 181.71 1466.1 192.89 1464.37C187.45 1471.74 182.43 1478.54 177.41 1485.34C178.21 1486.07 179 1486.8 179.8 1487.54C181.22 1486.2 182.72 1484.92 184.06 1483.49C187.35 1480.01 190.14 1475.87 193.95 1473.14C196.48 1471.33 201.2 1467.64 203.58 1472.53C206.56 1478.66 199.55 1476.88 197.11 1478.85C194.59 1480.89 192.49 1483.46 190.21 1485.8C193.36 1487.31 196.43 1489.06 199.71 1490.2C200.96 1490.63 202.95 1490.05 204.17 1489.26C211.89 1484.27 219.49 1479.09 228.02 1473.37C215.63 1463.28 203.92 1456.65 189.66 1455.08C182.85 1454.33 176.43 1452.97 173.58 1461.97C172.41 1465.67 169.35 1468.78 167.15 1472.15C173.62 1469.84 174.86 1461.88 182.71 1461.48C178.59 1468.16 174.47 1474.85 170.35 1481.53L170.36 1481.52ZM365.97 363.92C366.09 363.06 366.21 362.2 366.32 361.34C375.58 362.44 384.83 363.54 394.09 364.64C394.18 364.08 394.27 363.52 394.37 362.96C387.1 360.32 378.6 360.33 373.38 352.93C378.87 354.02 384.37 355.11 391.64 356.55C380.8 347.28 371.36 339.2 360.83 330.2C361.12 345.33 360.53 359.04 364.76 372.47C366.24 377.18 368.68 378.44 373.42 378.46C390.14 378.53 407.08 375.92 424.29 382.7C416.73 373.14 407.63 369.89 396.93 368.9C386.55 367.93 376.29 365.64 365.97 363.94V363.92ZM269.91 606.29C269.36 606.76 268.8 607.23 268.25 607.7C269.35 610.26 270.56 612.78 271.54 615.38C277.56 631.37 283.85 647.28 289.26 663.47C290.33 666.67 288 671.02 287.23 674.83C284.34 672.43 280.41 670.6 278.72 667.54C270.41 652.51 267.17 636 265.65 619.03C265.31 615.16 263.46 611.43 262.31 607.63C261.37 607.88 260.43 608.13 259.49 608.39C260.06 613.34 260.17 618.39 261.29 623.21C265.59 641.78 270.05 660.32 274.81 678.78C276.25 684.35 280.55 686.44 286.27 684.94C293.25 683.1 297.89 678.06 297.07 672.74C293.66 650.72 285.35 630.42 274.94 610.91C273.93 609.02 271.62 607.81 269.91 606.29ZM58.1302 1146.64C57.3102 1146.73 56.5002 1146.83 55.6802 1146.92C57.2102 1171.43 58.7502 1195.93 60.3302 1221.2C66.4602 1214.67 71.6402 1209.29 76.6502 1203.75C82.4602 1197.33 84.4902 1189.82 82.1702 1182.95C81.1902 1185.07 80.3902 1186.8 78.9602 1189.88C77.6402 1180.61 76.5502 1172.96 75.4702 1165.31L73.1802 1165.44V1188.16C72.6102 1188.16 72.0302 1188.15 71.4602 1188.14C70.5702 1178.64 69.7902 1169.13 68.7202 1159.66C68.4802 1157.54 67.2402 1155.53 66.4602 1153.47C65.6902 1153.67 64.9102 1153.88 64.1402 1154.08V1181.29C63.6102 1181.3 63.0702 1181.32 62.5402 1181.33C61.0702 1169.77 59.6002 1158.2 58.1302 1146.64ZM337.54 318.68C344.06 298.7 349.97 279.63 356.52 260.77C361.75 245.69 362.5 231.67 357.97 216.83C355.05 232.55 351.97 249.06 348.9 265.58C348.14 265.44 347.37 265.3 346.61 265.15C348.47 254.07 350.32 242.99 352.18 231.91C341.44 259.66 334.98 288.11 337.54 318.68ZM410.7 1467.94C411.09 1467.2 411.49 1466.46 411.88 1465.72C422.18 1465.61 428.58 1473.2 436.18 1478.92C435.31 1469.77 425.81 1467.29 421.36 1461.02C421.82 1460.46 422.28 1459.91 422.75 1459.35C428.01 1462.74 433.27 1466.14 438.53 1469.53C438.92 1469.03 439.31 1468.54 439.7 1468.04C434.47 1463.77 429.6 1456.51 423.93 1455.82C409.59 1454.07 398.39 1462.1 388.47 1472.94C391.39 1475.04 393.48 1477.39 396.06 1478.25C404.58 1481.08 413.22 1483.62 421.95 1485.67C423.72 1486.08 426.1 1483.88 428.19 1482.89C427.12 1480.86 426.47 1478.37 424.87 1476.9C422.63 1474.84 419.68 1473.54 417.04 1471.9C414.92 1470.59 412.81 1469.26 410.7 1467.94ZM354.8 369.19V286.69C354.46 286.68 354.12 286.66 353.79 286.65C349.7 299.99 345.6 313.34 341.34 327.23C340.6 326.12 340.32 325.54 339.88 325.11C339.55 324.79 339.02 324.67 338.42 324.39C333.98 343.04 345.26 355.23 354.8 369.19ZM307.44 590.97C307.92 591.68 308.4 592.39 308.88 593.1C312.15 590.56 315.89 588.45 318.61 585.41C325.93 577.24 327.92 566.94 328.84 556.43C329.8 545.39 327.07 542.19 315.36 539.82C315.15 557.18 312.97 573.79 297.76 587.17C301.92 587.38 306.08 587.59 310.09 587.79C309.5 588.49 308.47 589.73 307.44 590.96V590.97ZM201.16 540.47C190.67 542.93 188.32 545.33 189.17 554.6C190.24 566.33 195.3 576.38 204.63 583.8C208.92 587.21 213.91 588.8 219.9 585.07C205.05 573.7 199.31 558.87 201.16 540.48V540.47ZM310.64 221.67C317.36 229.29 325.1 233.19 334.43 228.91C337.23 227.63 340.64 222.51 340.07 219.99C337.91 210.46 319.34 207.04 312.34 214.35C325.35 213.29 329.41 215.02 331.27 222.44C324.61 214.14 318.09 213.77 310.64 221.67ZM373.18 633.78C380.55 638.31 390.63 636.34 398.05 629.23C404.29 623.25 404.41 612.38 398.14 601.73C394.44 616.1 387 627.38 373.18 633.78ZM354.61 542.93C360.75 544.81 365.78 543.55 367.08 538.06C370.62 523.07 373.2 507.86 376.16 492.74C375.41 492.56 374.65 492.39 373.9 492.21C367.51 509 361.13 525.8 354.61 542.94V542.93ZM123.1 1321.45C121.07 1339.99 118.78 1360.92 116.56 1381.19C119.81 1377.7 124.05 1373.48 127.84 1368.89C129.08 1367.39 129.89 1364.81 129.61 1362.91C127.48 1348.24 125.04 1333.62 123.1 1321.45ZM112.92 605.78C110.18 616.85 111.62 620.91 120.95 629.03C129.56 636.53 138.43 638.69 146.74 635.22C131.43 630.14 121.99 618.33 112.93 605.78H112.92ZM110.66 626.99C108.86 640.25 109.06 640.88 116.62 645.15C124.17 649.41 131.6 648.75 137.18 644.21C128.64 638.67 119.7 632.87 110.65 626.99H110.66ZM137.7 354C138.02 354.57 138.34 355.14 138.66 355.71C148.67 348.93 159.12 342.69 168.51 335.13C173.32 331.26 177.14 325.36 176.09 317.76C162.86 330.25 150.29 342.12 137.71 354H137.7ZM334.19 364.75C330.12 367.9 326.78 370.23 323.8 372.95C322.79 373.88 321.87 376.14 322.31 377.23C326.08 386.59 330.18 395.81 334.2 405.12V364.74L334.19 364.75ZM257.42 600.9C257.57 601.29 257.72 601.69 257.87 602.08C261.41 600.47 264.95 598.87 268.49 597.26C266.27 593.7 264.69 589.31 261.59 586.87C259.59 585.3 254.24 585.31 252.37 586.91C249.58 589.3 248.54 593.73 246.76 597.29C249.65 598.49 252.53 599.73 255.45 600.86C256.03 601.08 256.76 600.89 257.42 600.89V600.9ZM310.55 137C284.86 133.32 264.65 135.64 261 141.01C267.91 140.68 275.19 139.97 282.45 140.1C290.2 140.23 297.95 141.69 305.68 141.52C310.55 141.42 315.38 139.4 320.23 138.24C320.12 138.03 320.02 137.81 319.91 137.6C312.76 138.24 305.6 138.87 298.45 139.51C298.4 138.87 298.36 138.23 298.31 137.59C302.39 137.39 306.46 137.2 310.54 137H310.55ZM298.97 150.41C286.68 146.83 236.7 152.97 231.71 159.57C254.76 156.43 278 153.26 298.97 150.41ZM369.8 327.95C367.18 311.75 364.65 296.11 362.13 280.47C360.59 291.82 360.55 303.12 360.6 314.43C360.63 320.89 364.58 324.62 369.8 327.95ZM318.95 144.84C318.74 144.47 318.53 144.11 318.32 143.74C308.92 143.74 299.51 143.63 290.11 143.77C281.29 143.9 272.46 144.1 263.67 144.72C261 144.91 258.43 146.62 255.8 147.63C270.85 147.63 285.39 147.91 299.91 147.5C306.28 147.32 312.6 145.76 318.95 144.83V144.84ZM255.23 532.96C255.79 532.92 256.35 532.89 256.91 532.85C258.4 520.72 259.9 508.59 261.59 494.85C257.62 499.01 252.98 501.64 252.96 504.31C252.87 513.85 254.35 523.41 255.23 532.96ZM206.12 301.92C221.4 284.54 222.16 250.7 211.32 232.95C219.34 256.62 218.88 279.65 206.12 301.92ZM283.21 575.69C288.85 582.41 292.45 583.12 297.91 578.29C307.97 569.38 311.14 557.57 310.49 544.58C310.39 542.65 308.82 540.8 307.92 538.91C310.5 549.39 307.35 558.53 302.43 567.19C298.46 574.18 293.88 580.69 283.21 575.69ZM316.65 278.45C306.31 290.54 310.85 320.09 324.79 327.12C317.35 311.15 308.19 296.2 316.65 278.45ZM256.88 573.9C257.44 564.74 257.99 555.57 258.55 546.41C248.15 556.53 247.63 564.56 256.88 573.9ZM269.7 622.34C269.07 622.57 268.44 622.8 267.81 623.03C272.29 637.86 275.43 653.18 283.16 666.83C284 666.52 284.85 666.21 285.69 665.91C280.36 651.39 275.03 636.87 269.69 622.35L269.7 622.34ZM229.99 579.1C209.34 572.19 207.2 555.96 207.82 537.72C200.08 547.8 207.85 573.4 222.94 579.29C224.95 580.08 227.62 579.2 229.98 579.1H229.99ZM367.47 232.01C373 219.32 370.56 204.83 362.68 197.58C364.19 208.43 365.77 219.79 367.47 232.01ZM165.84 318.43C180.13 310.6 175.12 297.38 175.23 285.66C172.12 296.51 169.01 307.36 165.84 318.43ZM347.57 1473.97C347.18 1473.21 346.79 1472.45 346.4 1471.7C341.43 1474.46 336.45 1477.22 331.48 1479.98C331.71 1480.92 331.94 1481.86 332.17 1482.81C337.92 1483.22 343.67 1483.63 349.41 1484.05C349.45 1483.52 349.5 1482.99 349.54 1482.46C347.71 1481.54 345.87 1480.61 343.48 1479.41C345.11 1477.25 346.33 1475.61 347.56 1473.98L347.57 1473.97ZM405.38 628.07C398.59 633.32 393.01 637.63 386.91 642.34C393.8 643.27 399.89 642.51 404.09 637.43C405.68 635.51 404.97 631.68 405.38 628.07ZM265.54 159.84C265.37 159.16 265.21 158.48 265.04 157.79C251.98 162.28 237.03 159.57 225.25 168.85C238.68 165.85 252.11 162.84 265.54 159.84ZM329.82 321.84C326.19 311.85 322.55 301.85 319.25 292.79C315.94 299.72 319.68 312.87 329.82 321.84ZM208.42 229.46C207.4 229.6 206.37 229.74 205.35 229.88C207.33 240.86 209.3 251.84 211.28 262.83C212.1 262.69 212.92 262.56 213.74 262.42C211.97 251.44 210.2 240.45 208.42 229.47V229.46ZM312.92 322.51C310.36 311.9 307.61 300.51 305.04 289.91C301.46 299.59 305.7 316.94 312.92 322.51ZM355.22 180.64C355.05 163.08 335.02 158.93 331.34 143.74C333.3 160.09 351.85 165.24 355.22 180.64ZM295.62 595.89C287.56 588.51 282.01 587.89 273.16 593.86C280.07 594.48 286.99 595.11 295.62 595.89ZM241.41 590.27C231.16 587.58 226.04 588.7 222.64 594.1C237.38 595.33 238.01 595.21 241.41 590.27ZM262.24 581.42C268.46 584.62 274.09 590.2 282.72 586.31C276.54 580.34 269.19 581.69 262.24 581.42ZM333.94 165.2C341.45 175.59 348.96 185.99 355.52 195.07C354.56 182.28 342.56 174.73 333.94 165.2ZM224.92 179.42C231.22 176.09 237.11 172.98 243.01 169.86C231.26 169.16 225.14 172.51 224.92 179.42ZM247.09 562.66C246.3 562.52 245.52 562.39 244.73 562.25C243.61 564.74 241.24 567.5 241.7 569.65C242.23 572.14 245.26 574.09 247.2 576.28C247.97 575.83 248.73 575.37 249.5 574.92C248.69 570.83 247.89 566.74 247.08 562.66H247.09ZM302.31 601C302.34 600.37 302.37 599.74 302.4 599.11H276.39C276.39 599.74 276.37 600.37 276.36 601H302.3H302.31ZM205.24 315.38C206.16 315.82 207.08 316.25 208 316.69C211.65 309.68 215.3 302.67 218.94 295.65C218.3 295.31 217.65 294.98 217.01 294.64C213.09 301.55 209.16 308.47 205.24 315.38ZM258.68 491.17C261.33 483.52 259.85 476.5 256.35 469.78C255.62 469.91 254.89 470.03 254.16 470.16C255.67 477.16 257.17 484.16 258.68 491.17ZM317.34 288.68C325.25 280.26 328.16 271.19 325.91 263.83C323.19 271.71 320.41 279.79 317.34 288.68ZM259.88 573.85C266.48 566.09 266.63 560.86 261.45 557.01C260.91 562.85 260.4 568.35 259.88 573.85ZM232.27 187.23C231.73 186.58 231.2 185.93 230.66 185.28C224.88 189.96 219.11 194.63 213.33 199.31C213.88 199.97 214.42 200.63 214.97 201.3C220.74 196.61 226.5 191.93 232.27 187.24V187.23ZM239.11 600.06C239.1 599.71 239.09 599.37 239.08 599.02H213.79C213.83 599.37 213.86 599.71 213.9 600.06H239.11ZM247.59 584.61C247.41 583.88 247.23 583.14 247.06 582.41C239.44 580.68 236.65 581.47 233.29 587.32C238.65 586.3 243.12 585.46 247.6 584.61H247.59ZM109.1 646.38C109.26 649.89 109.36 652.2 109.49 655.25C113.37 654.4 116.48 653.73 120.84 652.78C116.29 650.3 113.27 648.66 109.1 646.39V646.38ZM468.47 890.26C467.8 889.88 467.13 889.49 466.47 889.11C464.94 891.2 462.5 893.15 462.18 895.41C461.94 897.09 464.43 899.17 465.7 901.08L467.32 900.41C467.71 897.03 468.09 893.65 468.48 890.27L468.47 890.26ZM397.1 647C401.5 648.18 404.63 649.02 408.86 650.15C407.98 646.38 407.42 643.98 406.72 641.02C403.41 643.08 400.88 644.65 397.1 647ZM335.76 242.78C335.49 242.78 334.86 242.75 334.86 242.78C334.27 249.04 333.72 255.31 333.18 261.58C334.04 261.61 334.9 261.63 335.77 261.66V242.78H335.76ZM208 209.5C208.51 210.1 209.01 210.71 209.52 211.31C215.01 207.54 220.5 203.77 226 200C225.59 199.43 225.18 198.86 224.77 198.29C219.18 202.03 213.59 205.76 208 209.5ZM267.85 574.68C268.51 574.96 269.16 575.24 269.82 575.52C271.24 573.14 273.19 570.89 273.8 568.32C274.03 567.34 271.2 565.62 268.46 563C268.18 568.4 268.02 571.54 267.86 574.69L267.85 574.68ZM56.6902 1043.64C53.4202 1043.81 51.0602 1043.94 48.7102 1044.06C48.5302 1044.63 48.3502 1045.21 48.1702 1045.78C50.5202 1047.85 52.8802 1049.92 56.2602 1052.9C56.4402 1049.05 56.5402 1046.91 56.6902 1043.64ZM342.39 229.28C342.8 229.55 343.21 229.82 343.62 230.1C346.74 222.48 349.86 214.86 352.99 207.23C352.54 207.05 352.09 206.87 351.64 206.69C348.56 214.22 345.48 221.75 342.4 229.28H342.39ZM252.87 481.8C252.14 481.84 251.42 481.88 250.69 481.92C251 486.87 251.31 491.82 251.62 496.76C252.43 496.71 253.24 496.65 254.05 496.6C253.66 491.67 253.26 486.73 252.87 481.8ZM214.01 269.64L211.9 269.37C210.4 274.81 208.89 280.26 207.39 285.7C208.1 285.89 208.82 286.08 209.53 286.28C211.02 280.73 212.52 275.19 214.01 269.64Z" fill="#E831B6"/>
<path d="M220.61 114.6C220.69 115.85 221.28 117.36 220.79 118.31C207.45 143.99 200.01 171.52 195.01 199.83C194.59 202.24 193.58 204.54 192.07 206.63C193.65 174.04 201.65 143.43 219.42 115.76C219.82 115.37 220.21 114.99 220.61 114.6Z" fill="#E831B6"/>
<path d="M411.38 988.46C409.82 1058.78 408.27 1129.09 406.71 1199.41C405.87 1199.43 405.02 1199.46 404.18 1199.48C401.53 1168.83 401.62 1138.03 401.47 1105.97C395.47 1113.64 395.39 1129.15 379.15 1118.72C389.58 1170.55 400.45 1220.88 405 1272.21C404.4 1272.32 403.8 1272.44 403.19 1272.55C401.44 1263.29 399.67 1254.03 397.94 1244.76C390.47 1204.77 383.01 1164.78 375.56 1124.79C375.32 1123.48 374.75 1122.03 375.08 1120.85C375.92 1117.81 377.18 1114.88 378.27 1111.91C380.59 1113.51 382.91 1115.11 385.21 1116.72C385.74 1117.09 386.23 1117.53 387.9 1118.86C389.96 1115.45 392.89 1112.46 393.69 1108.98C397.07 1094.29 400.79 1079.57 402.59 1064.65C405.5 1040.6 407 1016.37 409.12 992.22C409.23 990.94 409.54 989.68 409.75 988.4C410.29 988.42 410.83 988.44 411.37 988.45L411.38 988.46Z" fill="#E831B6"/>
<path d="M283.8 929.77C281.64 987.36 290.3 1043.7 304.17 1100.85C290.01 1086.75 271.87 975.38 283.8 929.77Z" fill="#E831B6"/>
<path d="M253.11 200.03C256.46 202.19 259.87 204.26 263.15 206.53C268.33 210.12 273.39 213.64 280.24 210.61C281.15 210.21 282.78 211.43 284.08 211.9C283.57 213.21 283.38 214.84 282.48 215.77C275.47 223.05 262.52 221.33 257.29 212.38C255.24 208.87 253.74 205.04 251.99 201.36C252.36 200.92 252.73 200.47 253.1 200.03H253.11Z" fill="#E831B6"/>
<path d="M254.32 185.54C266.11 179.65 276.87 183.21 287.08 189.55C291.43 192.25 296.55 195.06 294.09 203.5C282.53 192.84 270.19 185.17 254.32 185.53V185.54Z" fill="#E831B6"/>
<path d="M261.311 262.68C269.091 261.13 289.231 268.35 291.901 273.65C285.931 276.82 264.261 269.05 261.311 262.68Z" fill="#E831B6"/>
<path d="M268.66 271.87C271.76 273.38 273.87 274.61 276.13 275.44C278.4 276.28 280.81 276.72 283.42 277.39C282.44 282.48 279.18 282.85 275.72 280.66C272.8 278.82 265.93 279.84 268.66 271.87Z" fill="#E831B6"/>
<path d="M286.49 209.48C282.47 204.75 278.26 199.79 274.62 195.5C282.68 195.08 288.41 201.49 286.49 209.48Z" fill="#E831B6"/>
<path d="M250.87 343.96C262.41 352.11 269.07 351.51 278.07 342.72C277.44 347.63 268.85 355.08 263.01 355.34C256.36 355.63 253.53 351.19 250.87 343.95V343.96Z" fill="#E831B6"/>
<path d="M362.09 489.06C357.25 504.24 352.4 519.42 347.56 534.6L345.57 533.96C347.02 517.68 354.41 503.33 360.23 488.46C360.85 488.66 361.47 488.86 362.09 489.06Z" fill="#E831B6"/>
<path d="M358.21 154.21C353.43 142.79 348.64 131.36 343.28 118.55C349.92 123.48 358.89 143.76 358.21 154.21Z" fill="#E831B6"/>
</g>
<defs>
<clipPath id="clip0_14_586">
<rect width="526.44" height="1499.85" fill="white"/>
</clipPath>
</defs>
</svg>
