<svg width="2232" height="575" viewBox="0 0 2232 575" fill="none" xmlns="http://www.w3.org/2000/svg">
<g clip-path="url(#clip0_14_573)">
<path d="M197.08 103.61C201.98 100.58 207.22 97.99 211.7 94.44C220.65 87.35 229.9 88.36 239.3 92.61C245.34 95.34 251.16 98.58 256.94 101.83C267.41 107.7 274.02 121.2 272.35 133.12C272.18 134.32 271.49 135.67 270.61 136.51C254.93 151.63 239.27 166.78 223.4 181.7C219.92 184.97 215.61 187.34 211.77 190.25C210.57 191.16 209.67 192.46 208.89 194.02C216.24 191.58 222.82 192.85 229.76 195.43C235.72 197.65 242.83 196.99 248.57 199.54C254.24 202.05 259.84 206.19 263.64 211.05C268.87 217.74 263.45 229.44 255.47 232.31C246.41 235.57 237.61 239.54 228.73 243.3C218.36 247.7 208.08 252.33 197.66 256.62C193.02 258.53 189.68 260.8 189.64 266.56C189.6 272.18 188.98 277.85 188.09 283.41C187.39 287.78 189.55 290.37 192.58 292.57C199.82 297.82 207.16 302.92 215.52 308.84C219.12 302.93 222.79 296.95 226.4 290.93C227.95 288.35 226.93 286.57 224.46 285.26C219.63 282.7 216.31 279.73 219.64 273.51C220.87 271.22 220.13 267.95 221.02 265.38C222.31 261.66 224.64 258.06 229.21 258.84C238.46 260.41 246.48 256.4 254.77 253.81C278 246.56 301.15 239.05 324.32 231.6C331.68 229.24 339 226.77 346.34 224.35L346.47 222.48C344.8 222.23 342.89 221.32 341.48 221.82C326.05 227.34 310.7 233.09 295.3 238.72C294.32 239.08 293.16 238.97 291.79 238.45C308.98 227.88 326.57 218.1 343.23 204.59C340.71 204.26 339.63 204.04 338.55 203.98C322.83 203.05 307.11 202.19 291.4 201.2C285.28 200.82 285.9 201 288.65 195.57C291.98 189.02 296.84 184.39 303.26 181.57C314.5 176.63 325.98 172.24 337.36 167.63C338.13 167.32 338.97 167.21 339.74 166.9C347.42 163.83 349.91 159.48 348.92 151.09C348.55 147.98 347.29 146.76 343.83 146.63C332.92 146.22 321.66 146.73 311.25 144.09C301.53 141.62 292.62 135.77 283.55 131.01C280.19 129.25 276.27 127.18 277.89 121.85C279.46 116.69 283.87 116.08 288.04 115.22C298.78 113.01 309.64 111.32 320.29 108.77C328.33 106.85 336.14 103.97 344.02 101.41C348.45 99.97 350.35 97.39 350.08 92.12C349.27 76.19 349.14 60.23 348.97 44.28C348.92 39.47 346.97 35.84 343.25 33.27C332.83 26.07 333.67 18.59 341.18 9.64998C350.63 -1.60002 352.26 -1.78002 366.75 2.70998C375.1 5.29998 383.9 7.09998 391.55 11.08C399.38 15.15 406.96 20.61 412.91 27.07C417.14 31.67 418.89 38.09 416.42 45.88C413.23 55.95 413.06 66.98 411.59 77.6C412.1 77.99 412.61 78.38 413.11 78.77C416.52 75.73 420.14 72.88 423.28 69.59C426.64 66.07 436.19 63.79 440.88 65.21C448.3 67.46 455.9 69.11 463.39 71.14C470.18 72.98 475.71 76.91 479.93 82.42C482.11 85.26 483.72 88.6 485.23 91.88C487.63 97.09 486.18 102.1 481.32 104.94C475.62 108.27 469.94 111.83 463.84 114.24C453.68 118.25 443.23 121.59 432.81 124.91C425.74 127.16 418.49 128.84 411.37 130.95C410.23 131.29 408.59 132.49 408.52 133.39C408.21 137.55 408.39 141.74 408.91 146.23C415.41 137.94 424.24 140.45 432.1 140.72C441.82 141.06 451.47 143.49 458.74 150.4C462.32 153.8 468.15 156.42 467.41 162.92C467.19 164.88 466.43 167.1 465.18 168.58C457.48 177.71 446.57 181.55 435.91 185.69C426.38 189.39 416.72 192.77 407.15 196.38C404.24 197.48 401.66 205.86 403.57 208.13C404.09 208.75 405.64 208.9 406.61 208.7C422.47 205.39 438.3 201.92 454.17 198.63C460.31 197.36 466.73 197.08 472.62 195.14C478.11 193.33 483.47 190.46 488.15 187.05C493.45 183.19 494.17 183.02 499.86 186.33C504.22 188.87 509.22 190.33 513.99 192.14C523.12 195.6 532.58 198.33 541.32 202.57C547.85 205.74 553.58 210.96 555.92 218.24C560.55 232.65 552.43 244.33 537.06 244.57C528.68 244.7 520.29 242.29 511.86 241.76C500.93 241.07 489.96 240.78 479.01 240.94C467.88 241.11 456.72 241.63 445.65 242.72C426.49 244.59 407.4 247.1 389.32 254.3C377.77 258.9 365.91 262.89 354.87 268.5C344.5 273.76 337.29 286.91 341.04 300.3C343.48 298.34 345.77 296.63 347.92 294.75C357.49 286.38 368.97 281.45 380.63 277.07C389.92 273.59 399.56 271.05 409.04 268.09C409.36 267.99 409.78 267.99 409.98 267.78C418.49 258.78 427.63 262.52 436.83 266.36C448.01 271.03 459.11 275.87 468.12 284.24C475.96 291.53 482.22 299.98 482.12 311.22C482.08 315.29 479.81 319.31 478.75 323.41C477.93 326.56 476.77 329.81 476.87 332.99C477.31 346.78 477.9 360.57 478.91 374.32C480.4 394.66 482.14 414.99 484.07 435.3C485.57 451.13 488.24 466.87 489.04 482.72C489.69 495.6 489.46 508.75 487.59 521.48C485 539.13 475.25 553.73 463.33 566.66C453.56 577.27 445.03 575.06 434.12 569.19C427.32 565.53 421.08 560.56 415.29 555.4C411.28 551.83 407.74 547.29 405.24 542.54C400.37 533.29 393.39 526.12 385.3 519.9C372.44 510 363.64 496.66 354.14 483.88C354.01 483.71 354.22 483.28 354.36 482.37C359.87 486.61 365.15 490.68 370.43 494.74C370.56 494.64 370.68 494.54 370.81 494.44C363.52 485.57 356.24 476.69 348.95 467.82C349.28 467.49 349.6 467.17 349.93 466.84C352.4 468.82 354.87 470.81 357.34 472.79L357.94 472.27C352.62 466.48 347.29 460.68 341.97 454.89C342.38 454.45 342.79 454.01 343.21 453.56C345.26 455.41 347.24 457.36 349.38 459.1C356.21 464.64 362.44 471.44 370.12 475.32C383.45 482.05 397.6 487.23 411.61 492.52C417.44 494.72 421.97 490.93 423.26 484.65C426.48 468.9 426.84 453.04 425.77 437.08C425.54 433.67 424.89 432.78 421.22 434.61C416.55 436.95 411.39 438.71 406.25 439.61C399.06 440.86 391.59 440.55 384.43 441.9C377.49 443.21 370.78 445.76 363.99 447.83C362.07 448.41 360.22 449.22 358.03 449.2C361.64 445.67 365.25 442.13 369.23 438.24C364.73 436.56 361.22 434.73 357.48 433.95C349.66 432.33 344.56 427.32 340.35 421.17C337.23 416.62 337.79 411.36 339.98 406.83C345.52 395.34 351.62 384.11 357.5 372.78C357.95 371.92 358.41 371.07 359.37 369.29C353.72 368.35 348.61 367.44 343.49 366.65C334.89 365.33 334.91 365.36 334.18 374.16C332.3 396.86 329.78 419.53 328.77 442.27C328.2 454.94 330.25 467.72 330.89 480.46C331.7 496.33 335.15 512.29 330.87 528.05C329.63 532.62 326.69 537.02 323.58 540.71C319.49 545.56 314.04 544.78 308.02 543.69C295.78 541.47 292.06 532.41 288.66 522.63C286.38 516.09 283.38 509.67 282.12 502.93C280.37 493.58 276.51 484.17 281.15 474.38C282.57 471.38 282.44 467.64 282.94 464.23C284.56 453.26 286.23 442.3 287.73 431.31C289.83 415.88 291.33 400.35 293.96 385.01C296.3 371.32 299.56 357.76 302.91 344.27C305.38 334.34 308.42 324.54 311.62 314.82C315.71 302.36 322.88 291.73 331.16 281.58C338.75 272.28 348.25 265.95 358.46 260.26C360.74 258.99 362.96 257.62 364.81 255.2C360.13 256.44 355.4 257.51 350.78 258.95C326.85 266.44 302.93 273.95 281.06 286.64C275.46 289.89 269.55 292.6 264.03 295.97C254.53 301.78 245.39 300.48 236.27 295.27C235.29 294.71 234.34 294.09 232.89 293.2C230.07 303.94 227.46 314.04 230.46 325.05C232.71 333.31 234.08 341.96 234.51 350.51C234.87 357.65 229.57 362.56 223.63 365.45C217.67 368.35 211.95 365.48 206.99 361.85C199.5 356.38 194.11 349.16 190.05 340.86C188.86 338.44 187.22 336.23 184.68 334.29C184.51 335.33 184.22 336.36 184.18 337.4C183.18 363.49 181.69 389.57 181.38 415.67C181.14 436.28 182.27 456.9 182.93 477.51C183.29 488.61 184.6 499.72 184.26 510.79C184.04 517.9 182.29 525.18 179.92 531.93C177.79 538 174.28 543.71 170.65 549.08C166.73 554.88 159.51 555.91 154.08 551.5C144.87 544.01 136.5 535.74 132.69 523.96C129.34 513.61 125.82 503.32 122.38 493C119.92 485.63 122.26 478.7 123.92 471.55C125.97 462.73 127.85 453.76 128.52 444.76C129.56 431.01 129.52 417.17 129.89 403.37C129.94 401.63 129.7 399.89 129.53 397.09C125.24 401.64 121.89 405.43 118.28 408.97C111.65 415.49 104.97 421.97 98.1104 428.25C93.6804 432.3 89.4204 437.72 84.1204 439.31C77.4904 441.3 75.0404 447.42 69.7204 449.94C64.0504 452.63 57.3104 453.28 52.0004 456.44C46.1104 459.95 41.5904 457.85 36.7904 455.38C35.0004 454.45 33.7904 452.39 32.1104 450.62C32.3104 449.57 32.5804 448.14 32.9904 446.01C31.0604 446.48 29.6404 446.82 27.2704 447.39C28.3604 440.93 29.3904 434.86 30.4004 428.79C30.5604 427.82 30.7704 426.81 30.6404 425.86C29.4404 417.12 33.9804 410.17 37.9104 403.12C38.6104 401.87 40.9504 401.59 42.4404 400.7C43.5104 400.06 44.6304 399.32 45.3704 398.35C53.3604 387.95 61.8104 377.85 69.0804 366.97C80.1404 350.4 90.4104 333.31 100.9 316.38C105.34 309.21 109.51 301.87 113.77 294.58C114.73 292.93 115.53 291.19 116.41 289.49L115.49 288.36C110.77 290.48 105.9 292.33 101.36 294.78C87.6604 302.19 74.4104 310.54 60.3404 317.13C51.2504 321.39 40.9504 320.24 31.7204 316.21C25.3904 313.45 19.0904 309.96 13.8604 305.51C9.48037 301.79 7.00037 295.94 3.11037 291.52C-3.74963 283.71 2.37037 278.34 6.26037 272.62C8.01037 270.05 10.4704 267.94 12.6804 265.7C16.3904 261.95 19.9304 261.12 24.9404 264.42C29.8904 267.69 35.2704 264.53 40.0604 262.51C69.8904 249.94 99.6604 237.21 129.4 224.42C130.7 223.86 132.15 222.31 132.44 220.98C133.72 215.17 135.19 209.31 135.51 203.41C136.47 186 136.92 168.57 137.54 151.14C137.56 150.56 137.21 149.97 136.76 148.47C130.02 156.63 123.17 163.74 121.14 173.91C119.32 183.02 117.82 192.21 115.63 201.24C114.63 205.36 112.66 209.37 110.51 213.06C107.02 219.03 98.7904 221.63 91.8904 220.6C80.5604 218.9 75.2704 210.76 70.0904 202.02C64.4004 192.41 61.1404 182.03 60.7604 171.04C60.5404 164.57 61.6004 157.88 63.2204 151.58C65.3204 143.43 68.5504 135.57 71.3104 127.6C71.6904 126.5 72.0304 125.36 72.6104 124.38C76.4104 117.94 79.2504 117.37 83.6404 123.19C90.8104 132.69 97.3604 142.66 104.18 152.43C105.12 153.77 106.14 155.04 107.1 156.32C116.6 150.62 125.91 145.25 134.93 139.43C136.52 138.41 137.67 135.53 137.73 133.48C138.29 111.69 138.73 89.9 138.8 68.11C138.8 65.12 136.87 61.97 135.32 59.19C133.88 56.61 131.67 54.47 129.91 52.05C126.46 47.3 126 42.82 128.37 36.87C131.43 29.18 136.26 24.32 143.66 21.75C145.87 20.98 148.94 20.52 150.86 21.45C163.51 27.59 176.49 33.33 188.3 40.85C196.56 46.11 201.14 55.11 201.58 65.38C201.68 67.78 201.29 70.52 200.2 72.61C195.15 82.27 197.64 92.79 195.56 102.76C196.07 103.04 196.57 103.32 197.08 103.61ZM337.71 341.7C344.98 339.57 351.24 338.04 357.28 335.9C367.35 332.34 377.38 330.23 387.91 333.95C396.47 336.97 404.59 340.63 409.96 348.43C413.9 354.15 412.94 359.93 407.32 364.08C401.99 368.01 396.27 371.42 391.18 375.62C383.92 381.61 377.03 388.05 370.1 394.43C369.05 395.39 368.62 397.03 367.23 399.6C390.02 397.1 409.85 400.27 424.74 418.6C424.74 410.53 425.16 403.31 424.67 396.14C422.54 364.98 420.14 333.83 417.83 302.68C417.52 298.55 415.05 296.42 410.78 297.15C404.57 298.21 398.38 299.44 392.25 300.9C376.54 304.65 361.14 310.71 343.36 306.32C341.5 317.98 339.67 329.46 337.72 341.7H337.71ZM192.04 154.02C192.58 154.24 193.13 154.46 193.67 154.68C196.18 149.98 198.91 145.39 201.14 140.56C205.31 131.55 209.27 122.44 213.09 113.28C213.57 112.14 213.16 109.74 212.28 109.07C207.97 105.75 195.59 110.12 195.05 115.39C193.73 128.24 193.01 141.14 192.04 154.03V154.02Z" fill="#99E120"/>
<path d="M1729.79 511.16C1728.11 511.16 1726.33 510.8 1724.77 511.23C1720.48 512.43 1716.32 514.12 1712.02 515.31C1708.38 516.32 1704.63 517.43 1700.91 517.54C1694.14 517.75 1687.34 517.19 1680.55 517.09C1677.41 517.04 1674.02 516.64 1671.16 517.6C1661.46 520.85 1651.46 520.49 1641.49 521.06C1633.15 521.54 1625.89 518.79 1618.77 515.02C1603.76 507.07 1591.56 495.52 1579.49 483.91C1568.84 473.67 1558.69 462.91 1547.73 451.77C1528.35 469.52 1505.47 481.77 1478.07 486.36C1479.59 490.49 1480.12 494.11 1482.05 496.71C1486.43 502.63 1485.57 509.44 1485.13 515.64C1484.28 527.61 1482.02 539.49 1480.09 551.37C1479.77 553.32 1478.28 555.13 1477.13 556.88C1474.34 561.13 1471.44 565.31 1468.35 569.87C1466.65 568.4 1465.21 566.79 1463.45 565.7C1460.25 563.72 1456.95 561.82 1453.52 560.29C1447.85 557.75 1443.79 553.39 1441.78 547.93C1437.54 536.48 1432.97 524.94 1430.71 513.02C1427.89 498.11 1426.59 482.81 1425.82 467.63C1424.66 444.69 1424.04 421.69 1424.16 398.72C1424.22 388.11 1425.73 377.48 1425.34 366.81C1425.26 364.53 1424.98 362.16 1424.23 360.03C1421.66 352.71 1422.92 345.99 1425.98 339.03C1427.51 335.56 1427.41 331.29 1427.63 327.35C1428.64 309.42 1429.62 291.49 1430.39 273.55C1431.26 253.49 1431.9 233.43 1432.6 213.36C1432.66 211.63 1432.46 209.89 1432.37 208.15C1431.96 208.01 1431.55 207.86 1431.15 207.72C1429.85 209.58 1428.96 212.3 1427.18 213.16C1421.77 215.76 1416.18 218.56 1410.36 219.6C1400.14 221.44 1389.7 222.02 1379.36 223.17C1378.45 223.27 1377.58 223.72 1375.62 224.37C1378.25 226.29 1380.17 227.67 1382.07 229.08C1388.8 234.1 1398.63 248.53 1394.64 257.43C1393.37 260.27 1392.1 263.34 1390.04 265.57C1384.42 271.67 1378.45 277.45 1372.47 283.2C1369.27 286.28 1365.74 289.03 1362.43 292C1361.66 292.69 1361.16 293.7 1360.16 295.08C1370.27 295.37 1377.78 300.09 1384.63 305.89C1389.5 310.02 1392.17 315.42 1389.88 321.85C1389.02 324.26 1387.07 327.01 1384.88 328.07C1378.31 331.21 1371.43 333.72 1364.58 336.22C1360.3 337.78 1359.55 339.44 1363.13 342.33C1372.4 349.82 1382.05 356.76 1394.17 359.08C1397.24 359.67 1400.49 360.19 1403.15 361.65C1404.86 362.59 1406.79 365.27 1406.66 367.02C1406.32 371.59 1404.59 376.04 1403.98 380.61C1402.88 388.83 1396.35 391.53 1390.19 394.16C1379.65 398.67 1368.79 402.44 1358.14 406.71C1351.63 409.31 1350.49 412.97 1352.04 419.93C1353.34 425.72 1353.88 431.75 1354.12 437.69C1354.63 450.48 1354.97 463.28 1354.91 476.08C1354.85 487.84 1354.56 499.62 1353.67 511.34C1352.52 526.46 1347.57 540.12 1336.55 551.2C1330.12 557.67 1319 559.94 1312.32 550.38C1303.14 537.24 1297.4 523.07 1297.77 506.96C1297.99 497.42 1299.37 487.92 1300.1 478.39C1301.22 463.65 1302.24 448.9 1303.26 434.15C1303.29 433.73 1302.88 433.27 1302.35 432.11C1294.99 435.53 1287.62 438.78 1280.4 442.33C1265.81 449.51 1251.37 457.02 1236.71 464.06C1225.19 469.59 1208.46 468.18 1198.58 457.29C1197.46 456.06 1196.3 454.87 1195.13 453.69C1187.8 446.26 1187.58 441.38 1191.55 431.79C1194.01 425.84 1197.42 422.2 1203.48 420.77C1204.41 420.55 1205.66 419.86 1206.23 420.22C1209.03 422.01 1210.8 420.31 1212.9 418.86C1214.56 417.72 1216.54 417.05 1219.58 415.6C1218.3 418.39 1217.65 419.8 1216.3 422.72C1223.71 420.08 1229.96 418.15 1235.98 415.65C1258.18 406.45 1280.27 396.98 1302.49 387.84C1306.35 386.25 1307.87 384.15 1307.56 380.04C1307.24 375.65 1307.49 371.21 1307.49 365.15C1284.87 375.05 1265.15 386.99 1244.19 396.9C1256.36 387.05 1268.54 377.2 1281.59 366.64C1272.36 366.64 1264.53 367.58 1257.06 366.34C1251.09 365.35 1244.87 362.62 1240.06 358.96C1236.91 356.56 1234.04 350.69 1234.76 347.13C1235.63 342.82 1240.41 340.09 1245.82 338.52C1255.94 335.58 1265.55 330.88 1275.35 326.88C1277.58 325.97 1279.76 324.91 1283.45 323.25C1279.22 321.36 1276.33 319.79 1273.25 318.75C1260.19 314.35 1254.06 296.43 1255.7 285.51C1256.77 278.37 1257.04 271.11 1257.76 262.89C1248.9 267.09 1240.8 270.77 1232.85 274.73C1224.09 279.09 1215.16 283.21 1206.83 288.29C1189.22 299.03 1173.59 292.65 1158.12 283.58C1148.21 277.77 1143.26 268.42 1140.21 257.78C1139.38 254.87 1140.13 252.81 1142.46 250.77C1145.17 248.41 1147.38 245.47 1149.88 242.85C1152.31 240.31 1155.23 239.87 1157.94 242.1C1163.53 246.7 1169.79 245.57 1175.44 243.43C1193.68 236.51 1211.63 228.84 1229.81 221.75C1238.76 218.26 1247.93 215.32 1257.07 212.35C1265.06 209.75 1273.18 207.52 1281.17 204.9C1282.27 204.54 1283.52 202.91 1283.68 201.73C1284.63 194.49 1285.22 187.2 1286.06 179.95C1286.47 176.43 1284.49 175.71 1281.62 175.51C1269.13 174.68 1257.51 171.25 1246.87 164.44C1237.85 158.67 1230.98 150.87 1225.08 142.16C1224.48 141.28 1225.83 137.75 1227.04 137.23C1231.41 135.34 1236.08 134.09 1240.7 132.82C1256.19 128.58 1271.62 124.13 1285.66 116.09C1287.55 115.01 1289.75 112.41 1289.78 110.48C1290.09 94.36 1290.26 78.21 1289.67 62.11C1289.53 58.18 1286.56 54.29 1284.67 50.5C1283.13 47.4 1281.16 44.52 1279.55 41.45C1277.29 37.13 1277.73 32.63 1280.19 28.74C1284.31 22.22 1288.07 15.06 1296.07 12.36C1298.6 11.5 1301.98 10.48 1304.08 11.46C1317.45 17.66 1330.67 24.22 1343.73 31.06C1347.65 33.11 1351.2 36.1 1354.41 39.2C1360.86 45.43 1363.1 55.85 1359.07 66.39C1356.59 72.87 1355.77 79.98 1354.35 86.19C1366.15 89.18 1377.08 91.4 1387.59 94.89C1391.56 96.21 1395.55 99.84 1397.81 103.49C1402.94 111.81 1404.3 122.62 1396.78 131.31C1384.87 145.06 1369.71 152.41 1353.59 158.78C1349.43 160.42 1347.08 162.47 1346.71 167.21C1346.19 173.91 1344.93 180.55 1343.85 188.11C1350.58 186.3 1356.16 184.9 1361.66 183.21C1362.71 182.89 1363.5 181.46 1364.23 180.42C1366.02 177.88 1368.19 177.09 1371.34 175.99C1381.89 172.31 1391.46 176.76 1400.76 178.76C1412.54 181.29 1424.94 185.43 1431.31 198.42C1431.96 197.49 1432.55 197.04 1432.58 196.55C1433.6 181.77 1434.13 167.09 1430.01 152.49C1428.91 148.6 1431.11 143.78 1431.82 139.24C1443.11 139.22 1451.36 144 1458 151.21C1464.34 158.1 1470.39 165.45 1475.3 173.38C1478.03 177.8 1479.13 183.78 1479.29 189.11C1479.59 199 1478.77 208.93 1478.22 218.84C1476.91 242.38 1475.5 265.91 1474.08 289.44C1473.78 294.42 1473.13 299.37 1472.83 304.35C1472.72 306.25 1473.15 308.18 1473.36 310.42C1478.53 307.35 1483.09 304.45 1487.82 301.87C1501.02 294.65 1514.15 287.28 1527.57 280.49C1536.99 275.73 1546.89 271.93 1556.47 267.46C1558.62 266.46 1560.96 264.85 1562.1 262.87C1566.7 254.88 1574.1 253.29 1581.84 255.12C1596.71 258.64 1610.21 265.2 1620.07 277.46C1623.77 282.06 1627.59 286.82 1629.94 292.13C1631.34 295.3 1630.89 300.01 1629.64 303.43C1628.09 307.68 1624.57 311.17 1622.39 315.25C1619.45 320.77 1616.17 326.31 1614.46 332.26C1607.42 356.72 1598.29 380.33 1586.86 403.04C1585.56 405.63 1585.37 407.31 1587.81 408.92C1604.29 419.79 1619.93 432.32 1637.45 441.13C1664.54 454.76 1688.62 472.51 1712.84 490.25C1718.78 494.6 1724.25 499.61 1730.93 505.13C1727.69 504.31 1725.38 503.72 1723.08 503.14C1722.87 503.42 1722.67 503.69 1722.46 503.97C1724.96 505.98 1727.46 507.99 1729.97 510L1729.76 511.18L1729.79 511.16ZM1470.82 464.65C1471.41 464.78 1472.01 464.9 1472.6 465.03C1473.83 463.44 1474.98 461.78 1476.3 460.26C1489.06 445.62 1501.81 430.98 1514.65 416.41C1516.95 413.81 1516.3 411.83 1514.29 409.5C1505.86 399.67 1497.64 389.65 1489.11 379.9C1484.33 374.44 1478.77 369.84 1470.82 367.11V464.65ZM1540.46 369.14C1547.77 356.97 1562.21 310.03 1561.22 301.03C1537.95 316.36 1513.45 328.16 1486.16 334.38C1507.41 341.1 1525.09 353.28 1540.46 369.14ZM1343.07 241.47C1342.75 241.14 1342.43 240.81 1342.11 240.48C1341 240.91 1339.67 241.09 1338.81 241.81C1326.67 252.1 1314.57 262.45 1302.53 272.87C1301.78 273.52 1301.2 274.87 1301.24 275.87C1301.67 287.27 1302.15 298.68 1302.91 310.06C1302.98 311.11 1305.81 313.04 1306.11 312.83C1308.32 311.23 1311.02 309.55 1312.04 307.23C1313.97 302.84 1314.68 297.93 1316.27 293.36C1319.3 284.65 1322.08 275.93 1327.44 268.1C1333.24 259.63 1337.91 250.38 1343.08 241.47H1343.07ZM1341.23 232.89C1320.53 235.51 1300.7 240.59 1282 249.49C1279.69 250.59 1278.64 251.92 1280.37 254.54C1281.91 256.87 1282.89 259.57 1284.22 262.05C1287.66 268.42 1291.22 268.92 1296.8 264.38C1301.92 260.21 1307.26 256.31 1312.66 252.51C1322.12 245.88 1331.7 239.42 1341.23 232.89ZM1353.6 343.64C1347.09 345.04 1346.62 345.51 1346.37 351.35C1346.24 354.5 1346.22 357.66 1346.34 360.81C1346.43 363.21 1346.14 366.69 1349.87 365.86C1353.07 365.14 1358.11 364.97 1357.44 359.78C1356.75 354.44 1354.98 349.23 1353.6 343.63V343.64Z" fill="#99E120"/>
<path d="M1848.55 501.25C1847 505.86 1845.98 511.14 1843.56 515.66C1837.92 526.18 1825.47 528.35 1816.37 520.83C1805.55 511.89 1797.54 500.79 1791.49 488.19C1790.71 486.56 1790.01 484.83 1788.9 483.45C1783.16 476.3 1783.46 467.28 1781.55 459.03C1780.8 455.79 1782.77 451.99 1783.13 448.41C1784.25 437.19 1785.27 425.95 1786.19 414.71C1787.44 399.5 1788.74 384.29 1789.72 369.07C1790.61 355.16 1791.09 341.23 1791.79 327.31C1793.19 299.42 1794.62 271.53 1796.05 243.65C1796.78 229.49 1797.69 215.34 1798.26 201.18C1798.73 189.56 1798.86 177.93 1799.1 166.3C1799.42 150.79 1797.11 135.6 1794.27 120.4C1793.34 115.44 1794.27 109.87 1795.5 104.86C1796.69 100.02 1799.26 99.32 1803.31 102.18C1809.25 106.38 1815.35 110.54 1820.54 115.57C1827.89 122.7 1835.27 130.03 1841.19 138.31C1850.91 151.9 1856.58 166.86 1853.95 184.38C1851.62 199.95 1850.66 215.73 1849.29 231.43C1847.19 255.59 1844.91 279.75 1843.38 303.95C1842.35 320.21 1842.06 336.55 1842.16 352.86C1842.35 384.11 1842.78 415.37 1843.68 446.61C1843.97 456.59 1846.1 466.53 1847.42 476.77C1858.11 474.71 1868.21 472.78 1878.29 470.81C1896.23 467.3 1914.16 463.71 1932.12 460.26C1949.1 457 1966.03 453.44 1983.11 450.82C1998.87 448.4 2014.78 446.85 2030.65 445.3C2040.56 444.33 2050.61 444.6 2060.45 443.27C2065.34 442.61 2069.84 439.42 2074.66 437.78C2076.73 437.08 2079.37 436.77 2081.37 437.43C2089.21 440.01 2097.01 442.78 2104.6 446.02C2108.97 447.89 2112.96 450.68 2116.99 453.27C2119 454.56 2120.71 456.32 2123.06 458.29C2122.92 452.65 2114.73 453.09 2115.98 447.28C2129.32 450.19 2140.94 455.19 2149.37 466.03C2149.8 465.83 2150.24 465.63 2150.67 465.44C2151.5 459.67 2152.81 453.92 2153.07 448.12C2153.61 436.36 2153.57 424.57 2153.8 412.79C2153.93 405.99 2154.26 399.19 2154.27 392.39C2154.29 379.47 2154.04 366.56 2154.1 353.64C2154.12 348.35 2155.01 343.05 2154.91 337.77C2154.42 313.19 2153.96 288.6 2153.03 264.04C2151.99 236.56 2150.39 209.11 2149.18 181.63C2148.9 175.16 2149.61 168.64 2149.21 162.19C2148.07 143.49 2147.25 124.73 2145 106.15C2143.81 96.31 2138.45 87.27 2130.11 81.59C2125.42 78.4 2118.92 76.55 2113.19 76.46C2094.56 76.15 2075.84 75.95 2057.3 77.51C2031.31 79.7 2005.58 84.06 1980.35 91.07C1961.47 96.32 1942.35 100.73 1923.49 106.06C1914.74 108.53 1906.25 112.05 1897.84 115.57C1889.57 119.03 1881.41 117.28 1873.45 115.37C1863.83 113.06 1854.45 109.73 1845.04 106.61C1843.68 106.16 1841.6 104.08 1841.82 103.36C1842.55 100.96 1843.66 98.08 1845.58 96.75C1851.42 92.72 1857.35 88.41 1863.89 85.86C1887.05 76.82 1910.12 67.28 1933.9 60.2C1955.45 53.79 1977.78 49.73 1999.96 45.78C2016.59 42.82 2033.5 40.92 2050.36 39.95C2067.79 38.95 2085.31 39.62 2102.79 39.61C2113.76 39.6 2124.98 41.11 2135.61 39.25C2144.21 37.74 2150.88 39.77 2157.85 43.37C2165.22 47.17 2172.54 51.07 2179.85 54.98C2194.35 62.73 2206.76 73.06 2217.25 85.68C2220.62 89.73 2223.9 93.9 2226.78 98.31C2232.36 106.85 2232.6 115.94 2227.34 124.54C2223.53 130.77 2222.65 137.48 2221.62 144.35C2220.3 153.18 2218.59 161.96 2217.34 170.8C2216.78 174.73 2216.92 178.75 2216.77 182.73C2216.42 192.01 2215.65 201.3 2215.87 210.56C2216.13 221.48 2217.36 232.38 2217.94 243.3C2218.33 250.56 2218.21 257.85 2218.5 265.13C2218.74 271.26 2219.34 277.39 2219.63 283.52C2220.56 302.96 2221.45 322.4 2222.31 341.85C2223.02 357.88 2223.4 373.92 2224.39 389.93C2225.2 402.93 2226.99 415.87 2227.79 428.88C2228.23 436.02 2227.45 443.24 2227.37 450.42C2227.29 458.15 2227.93 465.93 2227.27 473.61C2226.35 484.28 2223.8 494.84 2223.22 505.52C2222.39 520.85 2212.62 532.4 2207.71 545.96C2206.34 549.75 2202.98 549.63 2200.85 548.32C2196.88 545.88 2194.78 547.74 2193.28 550.7C2190.49 556.18 2186.72 557.13 2180.48 557.24C2169.56 557.43 2162.38 552.37 2156.82 544.46C2150.16 534.99 2144.42 524.88 2138.31 515.03C2135.08 509.81 2131.99 504.49 2128.7 499.31C2126.86 496.41 2124.16 495.49 2120.62 495.52C2108.8 495.63 2096.8 496.6 2085.19 494.98C2062.33 491.78 2039.64 493.66 2016.94 495.24C2002.15 496.27 1987.43 498.56 1972.73 500.62C1960.14 502.39 1947.51 504.17 1935.08 506.82C1922.29 509.55 1909.64 513.08 1897.08 516.74C1888.15 519.34 1879.7 519.32 1871.53 514.66C1863.84 510.27 1856.21 505.76 1848.53 501.28L1848.55 501.25Z" fill="#99E120"/>
<path d="M1920.52 215.93C1914.01 214.87 1908.82 214.11 1903.66 213.17C1890.08 210.71 1879.29 203.12 1869.18 194.29C1867.43 192.76 1865.38 191.52 1863.86 189.8C1862.37 188.11 1859.92 185.13 1860.46 184.21C1861.82 181.89 1864.37 179.35 1866.87 178.77C1885.62 174.42 1904.6 171.03 1923.27 166.35C1940.65 162 1957.71 156.35 1974.97 151.49C1978.61 150.46 1979.56 149.11 1977.94 145.57C1976.21 141.81 1975.49 137.53 1973.45 133.98C1971.38 130.37 1968.76 126.65 1965.45 124.27C1959.68 120.14 1957.45 113.46 1961.13 107.5C1962.35 105.52 1963.68 103.59 1965.1 101.75C1968.03 97.95 1971.56 95.88 1976.74 96.83C1989.3 99.13 2001.25 103.11 2011.87 110.17C2018.97 114.89 2021.2 122.76 2022.32 130.85C2022.45 131.8 2022.56 132.75 2022.67 133.55C2023.27 133.78 2023.65 134.07 2023.86 133.98C2039.23 127.14 2053.19 132.5 2067.08 138.84C2069.09 139.76 2071.25 140.32 2073.34 141.04C2073.08 138.56 2073.17 135.99 2072.51 133.62C2069.59 123.14 2062.56 115.91 2053.74 109.98C2047.88 106.04 2047.95 102.89 2054.2 99.25C2066.28 92.22 2078.95 91.49 2092.02 96.65C2103.51 101.18 2112.75 108.44 2119.91 118.46C2126.3 127.4 2126.63 137.29 2124.29 147.44C2123.08 152.68 2114.35 158.05 2108.9 157.05C2103.87 156.13 2098.91 154.67 2094.03 153.12C2091.01 152.16 2088.15 149.93 2085.85 154.53C2084.4 152.2 2083.41 150.6 2082.42 149L2081.23 149.12C2081.05 150.72 2080.5 152.38 2080.76 153.91C2081.3 157.12 2083.91 161.29 2082.71 163.22C2080.03 167.52 2075.98 171.4 2071.64 174.1C2067.99 176.37 2063.13 176.67 2058.83 177.93C2051.24 180.16 2043.63 182.36 2036.13 184.87C2035.38 185.12 2034.73 187.58 2035.04 188.75C2038.31 201.06 2041.55 213.38 2045.27 225.56C2050.48 242.65 2056.07 259.63 2061.53 276.64C2061.72 277.22 2062.22 277.7 2063.4 279.46C2064.63 275.59 2065.58 272.76 2066.42 269.9C2069.88 258.12 2073.66 246.41 2076.59 234.5C2078.18 228.02 2077.76 221.35 2073.17 215.61C2070.88 212.75 2069.13 209.8 2074.13 207.17C2075.69 206.35 2076.04 203.21 2077.51 199.83C2081.31 200.87 2085.85 201.55 2089.91 203.31C2101.73 208.46 2111.05 216.92 2119.23 226.72C2125.22 233.89 2125.59 243.73 2121.84 252.33C2117.94 261.25 2115.45 270.77 2112.1 279.94C2105.62 297.68 2099.74 315.67 2089.96 332.02C2089.35 333.05 2089.34 335.04 2089.93 336.09C2095.91 346.72 2102.07 357.24 2109.1 367.71C2119.09 348.78 2123.47 328.51 2127.97 308.02V334.14C2128.45 334.25 2128.94 334.36 2129.42 334.46L2133.47 323.09C2134 323.14 2134.53 323.19 2135.06 323.24C2135.06 330.04 2134.93 336.85 2135.14 343.64C2135.2 345.6 2136.57 347.49 2136.8 349.48C2137.89 359.11 2138.74 368.77 2139.79 378.41C2141.28 392.04 2142.79 405.7 2149.62 418C2151.37 421.15 2152.08 424.15 2149.62 427.23C2149.52 427.35 2149.48 427.53 2149.43 427.69C2142.64 448.4 2127.61 447 2112.51 438.35C2098.07 430.08 2087.82 417.21 2078.43 403.8C2073.12 396.21 2068.4 388.21 2063.38 380.42C2062.87 379.62 2062.17 378.95 2061.25 377.85C2056.59 383.84 2052.57 389.92 2047.64 395.15C2038.59 404.78 2029.04 413.95 2019.6 423.21C2018.6 424.2 2016.96 424.54 2015.62 425.19C2015.31 424.79 2014.99 424.4 2014.68 424C2016.1 422.22 2017.53 420.44 2018.95 418.66C2018.7 418.41 2018.46 418.17 2018.21 417.92C2016.24 419.7 2014.27 421.47 2011.98 423.53C2011.44 422.47 2011.03 421.66 2010.66 420.92C2001.52 427.26 1992.35 433.62 1982.9 440.17C1981.79 439.19 1980.64 438.16 1979.49 437.14C1981.89 434.24 1984.13 431.53 1986.37 428.82C1986.01 428.38 1985.65 427.95 1985.29 427.51C1975.8 433.07 1966.3 438.62 1959.3 442.72C1961.27 440.32 1964.95 435.78 1968.7 431.31C1970.62 429.02 1972.79 426.93 1974.65 424.6C1975.8 423.16 1978.55 422.05 1976.19 419.34C1975.94 419.06 1977.33 417.19 1978.13 416.19C1989.11 402.41 2000.56 388.99 2010.99 374.81C2020.43 361.98 2028.8 348.37 2037.49 335C2038.17 333.95 2038.11 331.9 2037.58 330.66C2030.42 313.68 2023 296.81 2015.91 279.79C2013.31 273.54 2011.41 267 2008.69 259.12C1999.69 269.78 1991.27 279.76 1982.67 289.95C1983.88 290.87 1984.64 291.47 1985.42 292.04C1993.55 298.02 1995.77 303.86 1993.21 313.58C1992.89 314.81 1991.22 316.03 1989.89 316.61C1979.44 321.15 1968.62 324.96 1958.48 330.09C1935.92 341.51 1914.09 354.22 1894.57 370.49C1893.1 371.72 1892.42 373.89 1891.83 376.13C1935.97 361.27 1977.41 340.86 2018.16 318.89C2018.58 319.51 2019 320.12 2019.42 320.74C2017.37 323.39 2015.31 326.04 2013.26 328.7C2012.9 328.42 2012.54 328.15 2012.19 327.87C2012.39 327.27 2012.6 326.67 2012.93 325.69C2011.85 326.07 2010.64 326.11 2010.21 326.71C2008.98 328.42 2008.06 330.36 2007.02 332.21C2007.58 332.72 2008.14 333.23 2008.71 333.75C2014.56 330.72 2020.41 327.69 2026.27 324.66C2026.5 324.98 2026.73 325.31 2026.96 325.63C2022.83 330.32 2018.57 334.92 2014.66 339.79C2013.73 340.95 2009.5 341.97 2013.38 344.64C2012.38 345.93 2011.49 347.34 2010.35 348.5C1996.14 362.9 1980.39 375.4 1963.09 385.86C1943.75 397.56 1924.17 408.87 1904.82 420.55C1901.92 422.3 1899.33 424.86 1897.21 427.52C1893.79 431.8 1889.01 433.53 1884.81 431.21C1871.98 424.12 1860.7 415.01 1857.09 399.82C1855.26 392.09 1862.25 381.38 1868.63 379.69C1873.65 378.36 1879.02 377.08 1883.24 374.29C1901.87 362 1919.34 348.22 1934.08 331.29C1934.15 331.21 1934.03 330.97 1933.87 330.06C1928.5 331.66 1923.14 333.14 1917.9 334.94C1917.03 335.24 1916.27 336.87 1916.08 338C1914.57 346.83 1909.56 351.65 1901.09 351.12C1898.43 350.95 1895.59 348.88 1893.39 347.01C1884.04 339.08 1877.65 329.28 1874.96 317.12C1872.06 304.01 1868 291.26 1867.98 277.49C1867.95 258.32 1876.04 244.44 1891.93 234.45C1901.2 228.62 1910.33 222.56 1920.53 215.95L1920.52 215.93ZM2002.99 239.71C2000.83 232.7 1998.9 226.8 1997.2 220.82C1995.34 214.3 1993.72 207.7 1991.91 201.16C1991.01 197.91 1989.17 197.29 1985.9 198.6C1965.45 206.81 1944.69 214.31 1924.5 223.11C1914.23 227.59 1904.92 234.26 1895.21 239.99C1892.44 241.62 1891.65 243.75 1893.8 246.56C1894.49 247.46 1895.15 248.57 1895.33 249.66C1896.01 253.72 1898.11 252.87 1900.67 251.51C1906.39 248.47 1912.14 245.49 1917.93 242.6C1931.22 235.98 1945.94 232.17 1957.58 222.18C1959.51 220.52 1963.52 219.78 1965.99 220.53C1972.28 222.43 1978.46 225.02 1984.29 228.07C1990.38 231.26 1996.03 235.32 2002.99 239.71ZM1950.01 258.78C1942.82 261.5 1936.13 264.4 1929.21 266.54C1922.14 268.73 1914.82 270.1 1907.67 272.04C1906.84 272.27 1905.65 274.01 1905.83 274.75C1908.15 283.98 1910.7 293.14 1913.19 302.31C1930.57 298.81 1949.01 277.1 1950 258.78H1950.01Z" fill="#99E120"/>
<path d="M809.53 286.62C803.46 287.98 797.81 289.24 792.17 290.5C789.9 291.01 787.6 292.08 785.36 291.96C774.72 291.41 770.19 298.09 767.08 306.72C763.24 317.39 750.76 321.71 741.41 315.44C734.12 310.55 726.36 306.08 720.1 300.08C715.37 295.55 711.8 289.26 709.24 283.12C702.5 266.95 696.08 250.61 690.54 234.01C686.5 221.92 683.91 209.34 680.95 196.91C678.27 185.68 676.2 174.3 673.35 163.12C672.39 159.37 669.46 156.15 668.18 152.43C666.95 148.87 664.97 144.05 666.38 141.46C668.43 137.69 673.01 135.32 678.37 136.16C699.16 139.38 717.34 147.9 732.42 162.62C735.27 165.4 736.42 165.51 739.87 162.76C746.26 157.66 753.37 152.92 760.94 149.95C776.9 143.68 793.3 138.54 809.61 133.21C812.83 132.16 813.49 130.68 813.52 127.51C813.63 112.89 814.31 98.26 814.31 83.64C814.31 75.52 813.84 67.33 812.61 59.31C812.14 56.22 809.21 53.36 807.03 50.71C804.02 47.06 802.19 43.37 803.29 38.41C803.81 36.06 803.16 33.45 803.13 30.96C803.04 22.77 807.52 16.9 813.2 11.76C814.05 10.99 815.73 10.67 816.95 10.82C827.75 12.16 838.63 13.25 848.55 18.33C856.51 22.41 864.57 26.31 872.37 30.69C882.36 36.3 887.85 45.82 891.47 56.05C893.84 62.73 889.81 69.22 887.32 75.57C882.83 87.03 881.35 98.96 882.53 111.24C882.8 114 883.54 114.76 886.58 114.38C904.03 112.19 921.5 109.98 939.02 108.55C944.95 108.07 949.64 105.85 953.68 102.29C960.26 96.5 967.8 97.93 974.33 100.27C984.04 103.75 993.66 108.26 1002.21 113.99C1011.77 120.4 1019.95 128.83 1028.98 136.06C1036.99 142.47 1039.97 151.39 1041.39 160.78C1043.07 171.9 1040.47 176.96 1030.74 182.6C1024.99 185.93 1018.66 188.51 1013.55 192.62C1007.66 197.37 1002.89 203.49 997.55 208.94C992.2 214.4 986.74 219.76 981.34 225.16C978.69 227.81 977.45 229.63 981.48 232.99C986.56 237.22 986.97 244.58 985.27 249.99C983.61 255.3 978.54 259.35 972.24 261.2C953.89 266.6 935.02 264.49 916.39 265.94C903.66 266.93 891.04 269.32 878.36 271C874.34 271.53 873 273.62 872.67 277.66C871.83 288.21 870.63 298.75 869.1 309.23C868.71 311.89 866.48 314.26 865.27 316.84C861.67 324.55 858.76 332.67 854.41 339.93C850.93 345.73 846.02 350.79 841.11 355.52C839.89 356.7 836.25 355.33 833.71 355.2C832.27 355.12 830.46 354.61 829.44 355.26C825.91 357.51 822.97 356.97 820.85 353.43C815.6 344.68 813.75 334.9 812.67 325.03C811.3 312.5 810.57 299.9 809.5 286.58L809.53 286.62ZM810.46 177.05C799.48 179.47 788.71 182.59 777.72 184.06C766.41 185.58 755.86 180.69 744.15 176.24C745.74 179.89 746.82 181.93 747.55 184.09C750.37 192.4 753.56 200.62 755.71 209.1C759.17 222.75 761.92 236.59 764.97 250.35C765.55 252.99 766.08 255.08 769.87 253.76C781.39 249.74 792.94 245.79 804.66 242.41C808.82 241.21 809.63 239.34 809.64 235.46C809.68 224.01 810.23 212.55 810.43 201.1C810.57 192.98 810.46 184.86 810.46 177.06V177.05ZM941.76 143.22C936.79 143.55 933.17 143.66 929.59 144.06C925.31 144.54 920.99 144.98 916.8 145.92C905.34 148.49 893.91 151.19 882.55 154.17C881.16 154.53 879.45 156.84 879.33 158.37C878.09 173.74 877.03 189.13 876.17 204.53C875.83 210.58 876.11 216.66 876.11 223.05C883.85 221.28 890.96 219.82 897.96 217.94C899.65 217.49 901.44 215.95 902.39 214.42C907.65 205.98 912.92 197.54 917.7 188.83C923.27 178.68 928.29 168.24 933.64 157.97C936.04 153.35 938.66 148.84 941.76 143.22Z" fill="#99E120"/>
<path d="M712.46 372.15C715.89 370.91 719.27 368.79 722.76 368.58C738.03 367.67 749.18 375.33 757.34 387.37C762.54 395.03 766.14 403.77 771.29 411.47C782.09 427.62 795.39 441.52 811.5 452.5C829.97 465.09 850.25 473.65 872.44 476.52C891.83 479.02 911.37 480.94 930.9 481.72C941.03 482.12 951.28 479.47 961.48 478.25C965.1 477.81 964.79 475.15 964.81 472.64C964.9 461.71 961.29 451.66 956.82 441.99C950.58 428.49 943.71 415.28 937.11 401.93C936.41 400.51 935.78 399.04 935.12 397.6C935.53 397.34 935.93 397.08 936.34 396.83C939.96 401.95 943.59 407.07 947.21 412.19C947.42 412.11 947.64 412.03 947.85 411.95C947.2 410.36 946.55 408.77 945.91 407.17C946.2 406.85 946.48 406.54 946.77 406.22C953.06 415.69 961.09 423.21 971.6 430C964.86 420.04 958.85 411.15 952.83 402.26C953.41 401.85 953.98 401.43 954.56 401.02C963.04 412.81 971.53 424.6 980.01 436.39C980.28 436.19 980.56 435.99 980.83 435.79C980.2 434.16 979.57 432.53 978.94 430.89C979.27 430.59 979.6 430.3 979.93 430C984.21 434.63 988.48 439.25 992.76 443.88C993.19 443.58 993.62 443.29 994.05 442.99C992.58 440.18 991.11 437.38 989.63 434.57C990.1 434.31 990.58 434.06 991.05 433.8C995.22 438.57 999.38 443.34 1003.55 448.11C1003.83 447.93 1004.11 447.76 1004.4 447.58C1001.66 442.44 998.92 437.3 996.18 432.15C996.37 431.98 996.56 431.82 996.75 431.65C999.41 434.82 1002.07 437.99 1004.72 441.16C1008.02 445.11 1011.21 449.16 1014.63 453.01C1019.14 458.09 1024.62 460.51 1031.7 460.7C1039.5 460.91 1045.39 466.16 1051.2 470.9C1054.15 473.3 1057.31 475.55 1059.85 478.35C1064.6 483.57 1069.58 488.75 1073.35 494.66C1077.56 501.26 1075.49 510.53 1069.45 517.13C1059.29 528.21 1046.42 534.31 1031.87 537.23C1020.97 539.42 1010.15 542.19 999.15 543.7C979.07 546.46 958.93 548.77 938.57 546.47C923.39 544.75 908.13 543.72 892.96 541.92C868.32 539 845.21 531.21 822.99 520.12C798.09 507.7 777.66 490.45 760.88 468.27C746.26 448.95 736.97 427.4 730.85 404.25C727.72 392.39 721.63 382.33 712.53 374.02C712.5 373.4 712.47 372.77 712.44 372.15H712.46Z" fill="#99E120"/>
<path d="M1555.31 116.25C1550.3 119.02 1545.25 121.69 1540.3 124.56C1527.46 132.03 1514.11 138.37 1499.57 141.68C1482.68 145.52 1467.12 142.76 1452.95 132.17C1448.82 129.08 1443.43 127.6 1438.51 125.65C1435.93 124.63 1433.13 124.19 1430.23 122.51C1432.06 121.89 1433.89 121.28 1436 120.57C1435.3 119.64 1434.66 118.8 1433.27 116.96C1438.04 115.16 1442.36 113.3 1446.82 111.9C1458.02 108.39 1469.32 105.18 1480.52 101.67C1498.54 96.02 1516.51 90.17 1534.52 84.5C1540.67 82.56 1546.97 81.08 1553.06 78.96C1555.26 78.2 1557.51 76.56 1558.9 74.69C1563.64 68.35 1569.63 66.23 1576.69 69.84C1588.33 75.79 1599.95 81.85 1611.16 88.55C1621.94 95 1627.96 105.49 1631.53 117.15C1633.49 123.56 1632.4 129.62 1626.44 134.57C1622.76 137.62 1619.85 142.1 1617.77 146.49C1611.67 159.36 1606.61 172.73 1600.28 185.49C1593.51 199.13 1586.73 212.84 1576.29 224.33C1568.09 233.36 1558.59 240.46 1547.37 245.04C1537.78 248.96 1528.77 247.17 1524.48 238.92C1516.61 223.79 1503.42 214.51 1490.57 204.61C1490.18 204.31 1489.63 204.11 1489.37 203.73C1487.88 201.49 1486.46 199.2 1485.01 196.93C1487 195.95 1488.98 194.98 1491.98 193.51C1489.27 190.31 1486.41 186.93 1482.58 182.41C1485.76 182.96 1487.57 183.28 1489.39 183.59C1489.39 183.17 1489.38 182.75 1489.37 182.33C1491.19 182.01 1493.19 181.05 1494.81 181.49C1500.63 183.09 1506.29 185.31 1512.08 187.02C1518.71 188.99 1527.44 185.28 1530.18 179C1538.79 159.28 1547.15 139.45 1555.59 119.65C1555.9 118.93 1555.99 118.12 1556.19 117.36C1555.89 116.99 1555.59 116.62 1555.29 116.25H1555.31Z" fill="#99E120"/>
<path d="M689.25 391C694.94 386.09 699.37 382.27 704.86 377.53C704.38 379.68 704.4 380.5 704.03 381.08C695.2 395.02 692.1 410.46 692.47 426.67C692.73 438.47 694.23 450.29 693.81 462.05C693.47 471.55 691.08 480.98 689.57 490.44C689.5 490.91 689.2 491.38 688.92 491.78C682.98 500.12 677.55 508.9 670.95 516.68C662.81 526.26 655.37 527.39 643.64 514.97C624.5 494.72 620.39 470.56 628.37 444.13C631.82 432.7 639.21 423.63 646.39 414.48C656.22 401.96 663.77 388.19 669.61 373.42C670.83 370.34 672.21 367.29 673.91 364.46C676.15 360.73 679.26 360.44 681.07 364.26C683.8 370.01 685.6 376.21 687.59 382.28C688.33 384.55 688.51 387 689.24 391.01L689.25 391Z" fill="#99E120"/>
<path d="M1012.94 389.73C1018.57 388.42 1024.2 387.11 1031.34 385.45C1009.44 360.29 984.931 341.31 954.771 329.85C954.821 329.22 954.87 328.59 954.91 327.96C962.48 326.13 969.971 323.31 977.641 322.68C990.821 321.6 1004.28 320.45 1017.33 321.92C1041.01 324.59 1063.64 331.57 1081.8 348.04C1092.8 358.02 1098.51 371.12 1100.6 385.96C1102.08 396.52 1099.77 405.59 1091.7 412.45C1083.3 419.59 1071.73 422.63 1061.2 414.84C1055.2 410.4 1049.13 406.02 1042.91 401.9C1040.36 400.21 1037.41 398.96 1034.48 398.03C1027.47 395.82 1020.37 393.91 1013.3 391.88C1013.18 391.16 1013.07 390.44 1012.95 389.72L1012.94 389.73Z" fill="#99E120"/>
<path d="M929.72 341.38C925.42 346.22 921.12 351.06 916.81 355.89C917.07 356.18 917.34 356.47 917.6 356.76C918.99 356.14 920.39 355.53 921.89 354.87C917.43 362.08 913.06 369.15 908.51 376.51C909.61 377.51 910.62 378.43 912.07 379.76C909.3 383.96 906.33 387.95 903.97 392.28C902.96 394.14 902.25 397.16 903.06 398.86C911.28 416.11 901.24 428.38 886.32 433.41C878.64 436 870.67 433.7 863.48 430.68C851.62 425.69 840.57 419.27 832.69 408.56C825.68 399.03 822.64 388.23 821.62 376.59C820.97 369.17 834.48 360.64 840.89 362.21C846.8 363.65 852.94 365.1 858.22 367.95C870.97 374.84 881.89 370.75 892.63 363.69C904 356.21 915.32 348.65 926.68 341.16C927.3 340.75 928.12 340.65 928.85 340.4C929.14 340.73 929.43 341.06 929.72 341.4V341.38Z" fill="#99E120"/>
</g>
<defs>
<clipPath id="clip0_14_573">
<rect width="2231.15" height="574.13" fill="white"/>
</clipPath>
</defs>
</svg>
