<svg width="416" height="540" viewBox="0 0 416 540" fill="none" xmlns="http://www.w3.org/2000/svg">
<path d="M197.907 412.573C195.985 402.406 204.696 387.619 194.077 382.557C184.19 377.84 178.673 393.47 171.124 399.543C163.104 405.989 152.222 410.775 148.42 422.118C147.203 425.728 143.456 426.904 139.819 425.479C135.049 423.612 135.035 419.642 136.224 415.423C137.87 409.53 142.336 406.114 146.843 402.42C163.173 389.113 179.558 375.834 195.21 361.766C201.197 356.385 205.484 347.532 201.64 340.132C198.031 333.188 189.113 333.049 181.494 335.124C163.975 339.897 146.152 337.393 128.523 336.992C111.488 336.618 110.299 322.011 111.405 310.557C112.912 294.899 106.966 291.136 93.1807 292.63C81.8287 293.861 70.3799 294.152 59.0003 295.092C53.5939 295.535 47.8695 295.909 46.6389 289.297C45.5051 283.183 50.1787 279.794 55.5021 278.479C75.7725 273.5 96.4854 274.468 117.005 275.436C125.978 275.865 125.702 285.064 125.647 291.786C125.384 323.311 121.83 319.521 157.767 321.388C165.731 321.803 173.848 321.458 181.743 320.406C187.854 319.59 198.681 326.714 198.598 313.421C198.543 303.613 203.424 291.911 188.186 286.157C141.147 268.395 147.88 223.467 179.517 200.795C186.983 195.442 188.062 192.011 179.835 187.502C163.381 178.483 143.4 177.667 128.301 165.204C125.066 162.534 121.637 165.383 119.991 168.676C113.907 180.904 101.947 189.397 98.4488 203.285C96.679 210.312 91.3279 212.691 85.2717 209.454C78.4826 205.83 77.0307 199.232 82.8934 193.879C92.4479 185.15 97.8957 173.78 104.685 163.267C112.953 150.458 125.937 145.921 139.239 153.349C154.144 161.676 169.354 169.229 184.965 176.076C189.804 178.206 195.017 184.818 198.847 176.076C201.834 169.284 199.746 162.133 193.095 158.08C189.956 156.171 185.49 156.143 181.591 155.867C158.541 154.234 140.87 138.603 136.916 116.125C133.666 97.631 146.512 73.161 164.888 65.6084C188.961 55.718 213.379 47.2801 238.835 62.579C261.428 76.1627 266.42 108.199 248.79 127.966C240.743 136.985 232.682 145.354 220.624 149.559C207.005 154.317 212.37 167.057 213.338 175.882C214.043 182.246 222.049 180.198 225.671 176.118C239.526 160.501 258.994 151.966 273.623 137.538C282.583 128.699 290.672 131.175 297.254 138.576C310.583 153.598 324.272 167.915 342.288 177.376C348.842 180.821 352.244 186.796 348.4 192.855C343.713 200.242 336.979 195.774 332.139 191.832C322.391 183.892 313.667 174.638 303.587 167.182C284.077 152.768 272.559 153.349 252.828 168.178C250.104 170.225 247.642 172.646 245.084 174.928C233.304 185.404 233.954 194.769 247.034 203.022C266.447 215.264 270.139 247.882 253.643 264.135C249.813 267.911 246.716 271.937 245.416 276.93C242.927 286.475 237.203 289.49 227.662 288.218C206.742 285.423 214.61 300.916 213.752 310.82C212.494 325.22 223.182 322.025 229.889 320.213C246.785 315.662 263.862 315.994 281.007 315.62C291.626 315.399 297.572 311.429 297.171 298.827C295.512 246.692 295.83 246.567 347.239 239.789C352.728 239.07 360.817 234.976 362.808 244.617C364.785 254.189 358.273 258.353 350.004 259.128C340.367 260.013 330.577 260.455 320.926 259.874C312.215 259.349 307.901 260.774 309.449 270.982C311.247 282.809 311.745 294.843 312.602 306.795C314.012 326.562 305.301 335.166 285.003 332.579C262.05 329.66 239.858 338.278 216.974 336.093C212.093 335.622 209.701 340.63 211.139 344.6C213.96 352.374 213.614 361.531 221.924 367.119C240.217 379.43 249.869 402.323 273.139 408.811C277.481 410.028 278.255 414.676 276.735 418.95C275.393 422.713 272.185 423.833 268.535 423.889C263.143 423.958 257.404 422.727 254.694 418.3C246.536 404.965 226.791 404.481 221.717 387.813C220.915 385.171 217.223 384.535 214.264 386.098C210.752 387.951 209.231 391.492 210.116 394.785C214.043 409.433 210.392 424.815 213.255 438.925C216.794 456.381 236.055 460.905 248.915 470.518C252.026 472.856 256.976 473.174 259.382 475.913C263.613 480.713 266.198 487.284 261.87 493.107C257.916 498.419 252.454 495.265 247.96 492.775C238.918 487.754 230.773 481.571 223.528 474.06C209.01 459.01 199.925 459.729 188.048 477.158C184.121 482.913 180.692 489.027 174.041 491.683C169.216 493.619 163.132 494.491 160.131 489.179C157.006 483.646 160.684 479.095 165.869 476.868C174.166 473.313 178.977 465.981 185.296 460.296C199.898 447.169 198.487 429.795 197.92 412.546L197.907 412.573ZM186.776 140.429C225.229 139.558 234.59 132.061 241.545 100.743C244.379 88.0173 239.374 82.8024 229.031 79.0261C209.632 71.9438 190.979 76.6469 172.686 82.9822C157.518 88.2386 149.263 99.0696 151.807 115.766C153.591 127.496 173.018 140.734 186.79 140.429H186.776ZM203.88 275.326C230.801 275.326 249.979 257.841 249.772 233.496C249.647 219.912 228.492 203.506 210.987 203.437C189.638 203.354 168.524 223.55 168.967 243.607C169.395 262.475 183.54 275.326 203.88 275.326Z" fill="#E831B6"/>
</svg>
