<svg width="551" height="765" viewBox="0 0 551 765" fill="none" xmlns="http://www.w3.org/2000/svg">
<path d="M251.088 635.424C251.088 649.005 251.248 662.591 251.026 676.167C250.905 683.461 248.918 690.237 239.823 689.942C230.555 689.647 229.718 682.247 229.559 675.283C229.133 656.637 228.853 637.986 228.809 619.335C228.785 609.069 226.716 601.022 214.59 599.036C142.319 587.195 119.203 533.334 108.01 471.268C98.6743 419.51 102.474 368.196 122.858 318.937C125.44 312.698 126.755 304.689 131.406 300.75C169.036 268.89 166.527 224.058 171.192 181.498C171.468 178.999 170.472 176.307 170.965 173.891C173.378 162.098 170.071 145.535 187.466 143.809C204.679 142.099 203.054 159.024 206.332 169.299C210.949 183.789 214.01 198.849 216.737 213.851C219.555 229.356 227.91 236.702 243.406 233.159C272.357 226.538 301.028 220.733 331.091 226.958C341.766 229.172 346.529 219.772 350.503 210.41C360.767 186.225 372.187 162.533 382.891 138.527C386.3 130.876 390.908 124.849 399.968 126.536C410.383 128.474 412.229 136.661 412.162 145.941C411.91 180.507 412.316 215.088 411.499 249.635C411.238 260.65 413.501 269.823 421.333 277.286C486.299 339.174 482.47 476.536 433.261 541.498C420.42 558.452 410.339 579.442 385.962 588.756C366.434 596.213 373.526 619.876 374.102 637.058C374.464 647.947 377.863 658.788 375.847 669.87C374.928 674.93 373.439 680.343 367.28 680.918C359.268 681.663 357.349 675.747 357.015 669.391C355.773 645.733 354.018 622.07 353.887 598.403C353.81 584.092 360.898 576.325 375.528 568.756C413.259 549.235 430.065 511.247 441.567 473.036C455.99 425.131 449.115 375.19 431.23 330.745C418.109 298.126 393.712 268.818 354.404 256.194C293.089 236.499 237.309 253.487 181.718 275.459C163.181 282.786 154.701 302.925 147.724 318.556C118.028 385.088 118.168 454.55 146.085 521.073C155.532 543.585 177.763 562.657 202.856 573.377C207.352 575.3 212.772 576.513 217.568 576.049C244.861 573.401 250.097 577.669 250.697 604.85C250.919 615.033 250.735 625.231 250.735 635.419C250.856 635.419 250.972 635.419 251.093 635.419L251.088 635.424Z" fill="#99E120"/>
<path d="M292.238 553.242C272.29 553.261 256.683 548.979 257.297 525.766C257.742 509.038 280.098 495.138 302.614 494.167C325.159 493.191 322.011 509.415 321.533 521.532C320.812 539.825 317.201 558.215 292.243 553.242H292.238Z" fill="#99E120"/>
<path d="M236.541 423.908C216.234 425.619 213.498 410.332 212.453 396.253C211.356 381.483 214.663 364.552 233.272 365.166C248.894 365.678 268.518 368.134 272.991 388.636C276.303 403.821 255.938 422.182 236.541 423.913V423.908Z" fill="#99E120"/>
<path d="M359.988 421.999C343.729 420.099 331.69 413.406 330.936 395.89C330.288 380.763 349.753 362.295 364.606 364.248C381.02 366.408 389.568 376.974 389.21 393.914C388.804 413.193 376.137 419.519 359.988 421.999Z" fill="#99E120"/>
</svg>
