<svg width="641" height="834" viewBox="0 0 641 834" fill="none" xmlns="http://www.w3.org/2000/svg">
<path d="M238.744 449.657C228.352 465.89 224.125 484.606 217.943 502.448C211.156 522.049 199.537 537.749 178.07 539.062C156.295 540.397 148.38 523.407 140.035 505.592C118.838 460.307 113.047 414.109 124.012 365.483C127.617 349.504 129.775 334.03 108.005 327.798C99.0335 325.232 96.3418 315.418 92.8576 307.411C89.6156 299.96 86.2139 291.855 95.896 286.981C106.42 281.678 109.596 288.904 111.556 297.652C112.97 303.977 117.192 310.357 123.522 309.489C131.206 308.433 130.386 300.702 129.445 294.476C128.388 287.481 126.445 278.403 136.21 278.018C146.216 277.623 158.062 276.227 166.137 283.914C172.456 289.932 171.024 298.724 166.412 305.79C141.075 344.608 136.826 387.662 144.174 431.595C148.226 455.828 160.247 478.38 162.179 503.718C162.867 512.724 171.079 521.527 182.765 520.011C193.477 518.615 200.55 510.812 201.463 500.668C204.573 466.038 225.198 436.936 231.192 403.35C233.576 390.003 241.078 385.343 254.619 384.101C277.181 382.035 299.501 377.688 322.349 379.699C333.391 380.672 340.64 377.474 340.943 364.165C341.24 351.196 334.618 348.438 323.456 346.778C257.965 337.046 227.735 256.06 269.546 203.631C274.252 197.73 279.68 193.96 287.116 193.718C314.94 192.8 322.569 178.436 307.922 144.647C303.794 135.13 297.172 126.717 292.13 117.556C289.598 112.951 280.836 108.033 289.356 102.61C298.312 96.9112 303.789 103.906 307.785 111.193C313.465 121.546 312.733 134.954 322.795 143.883C332.246 112.781 316.707 84.866 287.221 81.426C275.359 80.0413 267.933 75.4804 269.095 64.2869C270.487 50.8844 281.793 52.3131 291.619 53.8352C310.383 56.7421 319.592 70.6337 326.973 85.8661C333.804 99.972 339.093 114.776 353.795 91.3502C359.602 82.0964 369.615 79.4973 379.077 85.6023C389.81 92.5316 381.686 101.033 378.945 108.715C376.038 116.875 371.993 124.705 369.807 133.036C363.307 157.841 357.197 178.096 392.915 191.822C426.942 204.901 427.328 243.877 427.295 275.99C427.256 306.9 414.299 332.04 381.003 341.113C376.798 342.256 372.818 344.196 368.663 345.553C356.949 349.372 359.432 358.856 360.092 367.341C361.012 379.133 369.593 378.501 377.469 376.479C427.113 363.714 465.803 372.363 483.196 427.27C485.365 434.123 487.248 446.987 499.241 444.547C509.98 442.36 508.357 430.749 509.705 422.693C517.031 378.919 517.819 334.189 529.246 290.992C531.7 281.705 529.179 274.474 520.196 268.803C513.762 264.742 508.494 258.39 503.739 252.257C498.328 245.273 492.268 235.382 502.148 229.519C513.476 222.798 513.283 235.574 516.107 241.998C517.874 246.02 519.646 250.647 524.925 249.856C530.363 249.043 530.732 243.839 530.825 239.586C531.211 222.122 542.726 222.067 554.615 225.315C569.873 229.48 565.888 241.833 561.958 251.032C538.983 304.796 540.128 363.077 529.268 419.077C527.115 430.161 524.892 441.31 521.468 452.037C518.688 460.73 517.675 471.863 504.889 472.852C493.247 473.753 488.15 464.648 482.387 457.185C475.468 448.228 468.825 439.002 462.858 429.402C459.66 424.253 458.284 416.873 450.418 418.725C444.187 420.193 445.651 426.99 444.562 431.864C434.313 477.715 431.015 525.055 414.624 569.598C409.367 583.886 411.536 594.447 424.719 606.042C444.072 623.066 453.528 645.189 436.404 670.95C431.715 678.005 429.782 687.012 427.234 695.326C424.597 703.926 411.437 715.295 429.485 720.246C444.215 724.29 461.586 727.994 469.738 707.734C471.973 702.178 472.127 695.694 474.83 690.457C477.246 685.781 482.569 682.594 488.15 684.567C494.574 686.836 493.798 692.342 491.948 697.656C490.528 701.744 489.213 705.865 487.848 709.97C523.642 716.158 488.359 736.759 495.62 749.051C497.942 752.986 495.174 757.58 490.369 759.333C485.728 761.031 480.125 759.673 478.942 755.728C472.298 733.632 455.306 737.012 438.611 737.742C430.856 738.083 422.985 736.05 415.174 735.033C402.701 733.407 395.38 729.066 401.595 714.399C406.323 703.244 408.117 690.82 413.093 679.802C424.262 655.074 424.438 633.374 403.175 612.993C388.671 599.085 392.81 579.896 397.351 563.372C410.985 513.779 418.108 462.873 429.738 412.917C433.525 396.657 428.346 388.25 412.719 388.887C364.71 390.849 316.482 391.904 268.891 397.762C247.87 400.35 251.377 420.83 257.982 435.93C274.06 472.676 284.254 511.334 297.26 549.036C306.139 574.775 301.515 596.365 285.652 611.696C259.226 637.237 265.561 658.965 282.377 684.792C302.71 716.02 300.772 718.85 263.954 721.911C255.252 722.636 246.213 725.115 237.902 723.62C221.037 720.581 213.226 726.56 211.613 743.232C210.766 751.991 208.041 762.844 196.867 760.591C186.965 758.596 192.778 749.205 194.22 742.93C197.33 729.401 189.189 728.676 179.253 728.873C171.679 729.027 164.183 726.39 164.986 717.532C165.696 709.712 172.252 709.13 179.105 711.498C184.103 713.223 190.069 714.608 193.014 708.739C195.959 702.871 191.456 699.508 186.866 696.249C180.718 691.886 175.687 685.99 183.767 679.445C193.168 671.834 203.417 677.714 205.08 685.649C212.808 722.549 241.348 701.491 260.029 705.695C270.548 708.058 271.572 696.887 267.284 689.045C263.58 682.264 257.811 676.615 253.028 670.411C242.195 656.366 239.482 642.441 252.758 628C259.248 620.939 264.95 613.125 270.713 605.432C284.7 586.771 289.637 568.362 278.628 544.832C266.948 519.879 260.679 492.414 251.745 466.153C249.544 459.68 247.281 452.762 238.75 449.657H238.744ZM334.833 329.562C394.373 325.221 408.25 310.104 409.125 275.743C410.391 226.029 382.649 194.284 338.846 193.932C303.156 193.647 272.926 226.974 272.794 266.77C272.651 309.252 292.83 329.677 334.833 329.562Z" fill="#E831B6"/>
<path d="M318.75 413.505C334.575 417.236 352.001 414.873 369.334 413.241C385.952 411.675 390.757 417.983 388.445 434.392C384.433 462.862 372.395 489.057 367.793 517.598C363.048 547.014 364.634 574.357 373.209 602.261C380.921 627.363 355.111 667.339 329.125 671.637C305.991 675.461 298.026 667.065 304.114 643.93C309.833 622.208 320.841 601.398 319.228 578.401C316.196 535.271 310.256 492.579 297.69 450.866C288.773 421.264 294.096 412.928 318.744 413.505H318.75ZM336.292 578.11C337.431 599.706 330.38 619.389 323.048 638.957C320.808 644.941 318.089 651.151 325.647 654.503C331.883 657.272 338.367 654.723 341.251 648.585C346.745 636.913 355.15 625.901 353.713 612.02C347.928 556.245 345.264 500.943 368.332 447.558C372.896 436.996 368.068 428.869 354.341 429.699C346.508 430.172 338.598 430.078 330.755 429.677C315.475 428.897 310.273 433.397 315.783 449.712C329.813 491.271 327.612 535.573 336.292 578.105V578.11Z" fill="#E831B6"/>
<path d="M363.081 286.931C361.512 297.273 357.863 305.153 347.085 304.554C337.068 303.999 331.745 296.844 331.503 287.316C331.238 276.925 337.926 271.902 347.867 271.495C359.173 271.034 362.376 278.381 363.081 286.931Z" fill="#E831B6"/>
<path d="M323.632 220.364C333.402 219.704 338.83 224.133 339.259 231.837C339.848 242.393 334.729 250.356 323.219 251.153C314.715 251.741 310.868 245.734 310.521 238.069C310.075 228.189 314.842 221.836 323.627 220.364H323.632Z" fill="#E831B6"/>
<path d="M375.576 220.754C383.673 221.468 386.585 227.068 385.842 235.096C385.055 243.586 379.738 247.086 371.58 246.933C364.199 246.795 359.938 243.19 360.445 235.651C361.023 226.941 364.496 220.441 375.576 220.754Z" fill="#E831B6"/>
</svg>
