<svg width="889" height="631" viewBox="0 0 889 631" fill="none" xmlns="http://www.w3.org/2000/svg">
<path d="M362.741 348.81C285.372 344.661 208.297 338.126 134.443 312.351C97.4788 299.449 72.8667 273.484 62.5462 235.884C55.3945 209.821 65.3168 197.622 92.1339 199.275C165.942 203.828 239.074 213.906 312.299 224.44C353.436 230.358 394.488 236.137 435.238 244.303C444.283 246.112 452.41 244.712 456.566 234.881C461.178 223.979 470.223 222.452 480.047 225.131C491.551 228.266 485.941 236.575 485.15 243.922C483.689 257.476 491.003 264.414 504.307 265.814C511.95 266.615 519.557 267.779 527.153 268.977C542.796 271.444 561.191 286.628 572.903 266.085C585.636 243.75 572.574 201.546 553.018 190.522C541.168 183.849 512.983 125.891 516.371 111.583C522.149 87.1563 538.899 50.6055 569.128 45.5634C580.793 43.6157 591.847 39.1383 603.581 36.6547C662.018 24.2713 704.229 85.2144 690.913 136.782C685.967 155.942 684.581 176.266 665.978 191.099C650.688 203.292 649.406 268.199 659.496 284.294C664.46 292.206 671.248 290.148 677.608 289.324C705.176 285.752 732.247 287.734 758.753 295.917C773.362 300.429 785.524 293.272 798.141 288.587C805.27 285.942 812.491 279.943 819.429 286.305C826.425 292.718 825.992 302.952 822.655 310.357C817.362 322.095 810.851 330.468 830.257 335.856C840.676 338.748 840.462 351.276 830.061 354.866C807.411 362.691 808.952 375.564 818.02 392.569C821.172 398.476 823.873 405.944 817.795 411.631C809.709 419.203 798.263 418.419 791.584 412.599C758.77 384.018 716.691 388.057 678.492 379.028C649.47 372.17 647.23 376.227 653.094 404.469C658.895 432.41 667.167 459.211 663.427 489.7C660.396 514.415 685.857 531.956 701.113 550.816C717.517 571.106 712.189 598.644 688.368 606.832C678.821 610.117 668.061 610.665 662.555 601.813C651.097 583.397 629.839 571.486 626.791 547.399C626.075 541.758 622.549 536.289 619.576 531.166C616.609 526.061 613.273 520.512 606.069 520.944C597.832 521.44 594.427 527.409 592.563 534.318C587.824 551.888 579.131 567.291 568.978 582.331C558.115 598.425 544.239 597.071 531.153 589.044C517.208 580.481 517.485 569.285 526.836 554.4C559.552 502.297 583.552 447.64 572.337 383.084C569.411 366.235 563.679 357.563 547.177 358.11C530.94 358.652 508.965 350.279 500.377 356.358C484.411 367.653 463.822 365.555 450.223 379.356C444.849 384.813 438.309 390.051 429.767 385.983C420.225 381.436 423.44 373.755 425.212 366.062C428.254 352.861 419.238 349.397 408.993 348.982C393.61 348.36 378.176 348.821 362.77 348.821L362.741 348.81ZM449.946 304.439C450.246 287.895 452.751 271.109 430.396 268.453C380.611 262.535 330.943 254.906 280.985 251.298C229.885 247.605 179.87 236.933 129.075 231.539C114.68 230.012 96.0993 223.766 88.7457 234.772C78.7715 249.691 99.2105 258.599 107.112 269.663C109.872 273.524 114.766 277.033 119.338 278.243C176.834 293.444 233.989 313.463 293.372 316.062C337.488 317.992 381.622 319.393 425.201 325.581C446.621 328.618 455.089 325.668 449.946 304.439ZM617.596 68.4343C605.948 70.7738 592.92 71.7996 581.07 76.0695C540.221 90.7809 530.616 139.433 567.668 161.18C600.967 180.726 602.392 210.005 600.528 237.353C595.212 315.422 602.375 393.641 594.802 471.531C593.203 487.977 608.297 495.774 618.37 496.667C631.328 497.814 625.44 482.561 626.214 474.366C629.821 436.231 623.836 398.17 625.244 359.833C626.479 326.14 631.282 291.917 624.003 258.058C618.958 234.57 624.228 212.535 634.722 191.15C644.442 171.351 654.486 151.47 661.539 130.662C669.274 107.838 640.332 67.8638 617.602 68.4286L617.596 68.4343ZM709.193 361.798C727.3 359.072 741.436 357.292 755.214 365.06C763.734 369.86 774.147 371.156 781.564 363.907C790.782 354.895 782.228 344.465 779.971 335.268C777.321 324.469 765.945 326.428 758.245 326.503C729.159 326.797 700.685 323.807 672.535 316.367C664.719 314.304 652.298 311.492 650.647 321.853C649.014 332.104 647.726 347.283 662.976 351.627C679.242 356.255 696.05 358.98 709.193 361.798ZM543.407 341.284C557.255 337.267 574.963 342.413 575.391 319.444C575.789 297.772 562.946 296.879 546.98 298.193C531.523 299.466 516.521 296.107 501.583 292.62C492.763 290.563 482.027 285.118 478.841 299.12C475.909 311.994 475.909 326.601 492.544 329.811C509.889 333.153 527.407 335.562 543.413 341.29L543.407 341.284ZM553.947 560.382C564.833 548.298 568.164 532.152 579.841 521.042C582.15 518.846 582.825 514.398 578.917 512.358C577.238 511.482 572.73 512.174 572.36 513.188C566.565 529.075 551.269 541.043 553.947 560.382Z" fill="#99E120"/>
<path d="M643.438 134.656C643.109 148.203 620.003 159.48 605.717 152.208C598.335 148.451 590.346 143.536 585.884 136.949C579.471 127.493 562.646 117.899 568.591 108.788C575.466 98.2663 592.447 94.4228 604.736 87.0527C613.48 81.8089 643.79 120.042 643.432 134.65L643.438 134.656Z" fill="#99E120"/>
</svg>
