<svg width="219" height="439" viewBox="0 0 219 439" fill="none" xmlns="http://www.w3.org/2000/svg">
<g clip-path="url(#clip0_14_472)">
<path d="M113.014 250.144C80.4132 318.448 51.6344 378.724 22.8556 439C18.5277 437.451 14.1841 435.918 9.85618 434.369C12.3518 423.433 13.0942 411.707 17.6116 401.687C41.0358 349.787 66.6556 298.835 88.6109 246.319C94.1234 233.139 93.6495 213.321 87.8211 200.188C63.7335 145.965 36.2815 93.2429 10.6933 39.6677C5.70206 29.253 3.49073 17.4791 0 6.33735C4.84912 4.21963 9.69823 2.11772 14.5473 0C45.9481 63.5 77.3489 126.984 112.004 197.059C144.257 129.592 173.715 67.9725 203.157 6.36896C207.754 8.24962 212.334 10.1303 216.931 11.9951C213.961 23.4055 212.54 35.5113 207.738 46.0841C185.167 95.7241 162.611 145.411 138.066 194.087C127.783 214.459 126.804 231.163 137.686 251.851C165.312 304.383 190.948 357.989 216.489 411.596C219.948 418.866 218.289 428.601 219.016 437.183C211.671 431.572 201.278 427.542 197.455 420.114C169.893 366.555 143.673 312.285 113.014 250.16V250.144Z" fill="#E831B6"/>
<path d="M112.857 126.589C102.242 110.833 90.9489 101.255 90.7909 91.4886C90.6646 83.8395 104.296 75.9376 111.814 68.1621C119.917 76.5066 132.711 83.9186 134.607 93.4957C136.06 100.829 123.771 110.912 112.841 126.589H112.857Z" fill="#E831B6"/>
<path d="M113.804 342.723C123.107 357.373 134.274 367.203 133.169 375.342C132.016 383.813 119 390.656 111.182 398.21C103.158 389.486 90.5691 381.616 88.7052 371.723C87.489 365.259 101.831 355.856 113.804 342.707V342.723Z" fill="#E831B6"/>
</g>
<defs>
<clipPath id="clip0_14_472">
<rect width="219" height="439" fill="white"/>
</clipPath>
</defs>
</svg>
