<svg width="371" height="267" viewBox="0 0 371 267" fill="none" xmlns="http://www.w3.org/2000/svg">
<g clip-path="url(#clip0_14_478)">
<path d="M5.97902 267C20.1832 254.412 20.373 239.418 20.5628 223.806C21.2904 165.096 22.4767 106.385 23.7579 47.6746C24.185 28.1519 27.475 7.58424 0 0H371C333.924 13.7118 345.265 44.4762 345.518 70.2057C346.024 121.142 347.827 172.078 348.982 223.015C349.346 239.133 347.226 256.265 367.773 267H5.97902ZM299.568 133.999H298.777C298.777 168.199 299.062 202.399 298.651 236.584C298.477 250.723 304.424 256.36 318.486 255.996C332.089 255.632 334.968 248.063 334.715 236.6C333.275 168.231 331.947 99.8459 330.729 31.4611C330.539 20.6944 329.574 11.6693 315.243 11.6851C301.039 11.6851 299.536 20.5519 299.552 31.3978C299.616 65.5981 299.584 99.7984 299.584 133.983L299.568 133.999ZM243.764 135.835C243.637 135.835 243.527 135.835 243.4 135.835C243.4 101.477 243.447 67.134 243.368 32.7753C243.337 22.816 244.618 11.9384 229.291 11.8751C213.869 11.8118 215.055 23.3702 214.897 32.8861C213.758 100.463 213.125 168.057 212.081 235.634C211.907 247.303 215.15 255.014 228.342 255.41C242.767 255.837 243.859 246.432 243.827 235.571C243.701 202.32 243.78 169.086 243.78 135.835H243.764ZM38.658 128.663C37.3926 128.663 36.1114 128.663 34.846 128.663C34.846 161.913 34.4189 195.164 35.0833 228.382C35.3047 239.497 31.3029 254.872 50.189 255.917C69.5338 256.977 66.8132 241.92 67.0979 230.345C68.7113 164.953 70.0084 99.5451 71.2263 34.1528C71.4319 23.4652 74.2633 11.4001 56.3578 10.9568C37.013 10.4818 38.7213 23.2752 38.6897 35.5462C38.6106 66.5798 38.658 97.6293 38.658 128.663ZM85.6677 132.13C84.3865 132.13 83.1053 132.13 81.824 132.13C81.824 164.225 81.5393 196.335 81.9822 228.43C82.1404 239.592 77.0155 254.856 96.392 255.869C115.484 256.867 113.285 242.316 113.412 230.44C114.123 165.112 114.677 99.7826 115.041 34.4537C115.104 23.7977 117.54 10.7351 99.8877 11.3526C82.2511 11.9701 85.9999 25.6661 85.8417 35.7995C85.3355 67.894 85.6519 100.02 85.6519 132.115L85.6677 132.13ZM198.241 131.988C199.253 131.988 200.266 131.988 201.278 131.988C201.278 101.002 201.658 69.9998 201.072 39.0295C200.867 28.0886 206.514 12.936 186.583 11.7801C166.163 10.5926 170.434 25.7769 170.386 36.9237C170.117 102.221 170.26 167.534 170.481 232.831C170.513 242.284 167.587 254.571 182.851 255.157C200.044 255.806 197.972 242.189 198.099 231.596C198.478 198.394 198.241 165.191 198.241 131.988ZM257.762 131.497C257.905 131.497 258.031 131.497 258.174 131.497C258.174 165.856 258.063 200.214 258.237 234.573C258.284 244.342 256.623 255.822 272.077 255.616C285.174 255.457 284.747 245.862 284.795 236.885C285.063 168.167 285.332 99.4501 285.427 30.7486C285.427 22.0085 286.266 12.4293 272.884 11.9226C257.952 11.3526 257.699 21.1852 257.731 31.762C257.794 65.0123 257.747 98.2626 257.747 131.513L257.762 131.497ZM154.537 137.26C154.537 103.028 154.806 68.7965 154.363 34.5803C154.252 25.4919 157.574 12.7935 142.2 12.1443C126.524 11.4793 128.976 24.2411 128.897 33.377C128.359 99.6084 128.169 165.84 128.201 232.056C128.201 241.429 125.844 254.254 140.871 254.238C157.827 254.238 154.616 240.764 154.616 229.981C154.585 199.074 154.616 168.152 154.537 137.245V137.26Z" fill="#E831B6"/>
</g>
<defs>
<clipPath id="clip0_14_478">
<rect width="371" height="267" fill="white"/>
</clipPath>
</defs>
</svg>
