<svg width="357" height="566" viewBox="0 0 357 566" fill="none" xmlns="http://www.w3.org/2000/svg">
<g clip-path="url(#clip0_14_481)">
<path d="M135.116 32.9677C103.073 -4.90166 62.9474 -10.6097 31.853 18.2469C-4.08104 51.6098 -11.0559 109.529 18.3303 140.599C35.2851 158.514 55.5139 166.546 76.8813 147.129C80.3609 143.967 82.2272 135.239 80.519 130.78C77.941 123.965 71.8835 126.827 66.1739 129.863C31.2837 148.457 23.8343 122.036 20.3864 97.5431C15.6416 63.8482 33.2607 37.4108 61.0653 23.1485C90.5939 8.0166 111.55 26.9275 126.876 52.3371C126.734 192.209 126.322 332.064 126.654 471.935C126.718 500.16 123.982 526.091 98.7075 543.516C63.9596 550.916 39.6978 539.499 32.3592 502.421C24.7991 464.204 53.5685 458.907 84.5521 455.333C51.4017 432.074 25.5424 441.324 15.0722 475.446C6.76877 502.531 13.9493 527.672 32.9285 546.393C55.1659 568.324 81.9899 573.4 109.557 553.667C144.732 539.61 143.704 507.607 143.878 477.928C144.653 343.891 144.432 209.87 144.353 75.8335C144.353 61.0178 146.535 45.3799 135.116 32.9677ZM127.461 50.9931C127.303 51.4517 127.113 51.8944 126.892 52.3213C127.082 51.8786 127.271 51.4359 127.461 50.9931Z" fill="#99E120"/>
<path d="M355.734 475.983C349.06 438.193 312.446 415.677 284.894 431.631C279.248 434.889 274.962 438.952 276.164 445.356C277.555 452.819 283.803 451.096 289.702 451.491C338.479 454.78 342.053 460.472 332.326 516.73C315.894 538.519 296.361 553.872 267.591 543.832C245.639 536.163 234.125 519.687 234.14 495.543C234.172 353.189 234.093 210.819 234.283 68.4653C234.314 42.4707 245.639 26.6747 272.716 21.7098C295.08 17.6145 310.927 22.6743 320.385 43.8779C333.971 74.3473 338.052 104.153 316.384 133.594C298.844 157.407 284.087 136.077 265.077 127.127C265.171 160.079 278.9 170.23 303.857 164.585C335.774 157.375 357.648 114.019 349.107 71.517C342.148 36.9682 332.643 1.58131 286.634 2.75139C239.012 3.95309 217.929 23.5914 217.597 72.2443C216.648 211.578 217.312 350.928 217.233 490.261C217.217 523.798 229.174 549.888 262.293 560.45C295.681 571.092 323.944 563.834 342.085 530.518C355.544 514.643 359.293 495.985 355.75 475.968L355.734 475.983Z" fill="#99E120"/>
</g>
<defs>
<clipPath id="clip0_14_481">
<rect width="357" height="566" fill="white"/>
</clipPath>
</defs>
</svg>
